<svg xmlns="http://www.w3.org/2000/svg" viewBox="0 0 300 300"><defs>
<path id="yearArc" d="M 78.9 251.6 A 124 124 0 0 0 221.1 251.6" fill="none"></path></defs>
<circle cx="150" cy="150" r="144" fill="#c9a44c"></circle><circle cx="150" cy="150" r="138" fill="#002244"></circle><circle cx="150" cy="150" r="110" fill="#c9a44c"></circle><circle cx="150" cy="150" r="105" fill="#002244"></circle>
<text x="35.1" y="119.2" transform="rotate(285.0 35.1 119.2)" text-anchor="middle" dominant-baseline="middle" font-family="&#39;UFC Sans Condensed&#39;,&#39;Arial Narrow&#39;,sans-serif" font-weight="700" font-size="23" fill="#e6c976">A</text><text x="45.6" y="93.0" transform="rotate(298.6 45.6 93.0)" text-anchor="middle" dominant-baseline="middle" font-family="&#39;UFC Sans Condensed&#39;,&#39;Arial Narrow&#39;,sans-serif" font-weight="700" font-size="23" fill="#e6c976">F</text><text x="61.9" y="70.0" transform="rotate(312.3 61.9 70.0)" text-anchor="middle" dominant-baseline="middle" font-family="&#39;UFC Sans Condensed&#39;,&#39;Arial Narrow&#39;,sans-serif" font-weight="700" font-size="23" fill="#e6c976">L</text><text x="83.3" y="51.5" transform="rotate(325.9 83.3 51.5)" text-anchor="middle" dominant-baseline="middle" font-family="&#39;UFC Sans Condensed&#39;,&#39;Arial Narrow&#39;,sans-serif" font-weight="700" font-size="23" fill="#e6c976"> </text><text x="108.4" y="38.5" transform="rotate(339.5 108.4 38.5)" text-anchor="middle" dominant-baseline="middle" font-family="&#39;UFC Sans Condensed&#39;,&#39;Arial Narrow&#39;,sans-serif" font-weight="700" font-size="23" fill="#e6c976">C</text><text x="135.9" y="31.8" transform="rotate(353.2 135.9 31.8)" text-anchor="middle" dominant-baseline="middle" font-family="&#39;UFC Sans Condensed&#39;,&#39;Arial Narrow&#39;,sans-serif" font-weight="700" font-size="23" fill="#e6c976">H</text><text x="164.1" y="31.8" transform="rotate(366.8 164.1 31.8)" text-anchor="middle" dominant-baseline="middle" font-family="&#39;UFC Sans Condensed&#39;,&#39;Arial Narrow&#39;,sans-serif" font-weight="700" font-size="23" fill="#e6c976">A</text><text x="191.6" y="38.5" transform="rotate(380.5 191.6 38.5)" text-anchor="middle" dominant-baseline="middle" font-family="&#39;UFC Sans Condensed&#39;,&#39;Arial Narrow&#39;,sans-serif" font-weight="700" font-size="23" fill="#e6c976">M</text><text x="216.7" y="51.5" transform="rotate(394.1 216.7 51.5)" text-anchor="middle" dominant-baseline="middle" font-family="&#39;UFC Sans Condensed&#39;,&#39;Arial Narrow&#39;,sans-serif" font-weight="700" font-size="23" fill="#e6c976">P</text><text x="238.1" y="70.0" transform="rotate(407.7 238.1 70.0)" text-anchor="middle" dominant-baseline="middle" font-family="&#39;UFC Sans Condensed&#39;,&#39;Arial Narrow&#39;,sans-serif" font-weight="700" font-size="23" fill="#e6c976">I</text><text x="254.4" y="93.0" transform="rotate(421.4 254.4 93.0)" text-anchor="middle" dominant-baseline="middle" font-family="&#39;UFC Sans Condensed&#39;,&#39;Arial Narrow&#39;,sans-serif" font-weight="700" font-size="23" fill="#e6c976">O</text><text x="264.9" y="119.2" transform="rotate(435.0 264.9 119.2)" text-anchor="middle" dominant-baseline="middle" font-family="&#39;UFC Sans Condensed&#39;,&#39;Arial Narrow&#39;,sans-serif" font-weight="700" font-size="23" fill="#e6c976">N</text>

<text dy="5" font-family="&#39;UFC Sans Condensed&#39;,&#39;Arial Narrow&#39;,sans-serif" font-weight="700" font-size="20" letter-spacing="3" fill="#e6c976"><textPath href="#yearArc" startOffset="50%" text-anchor="middle">★  2025  ★</textPath></text>

<g transform="translate(70,64)"><g><path d="M40 26 C18 26 18 64 46 70 L46 60 C32 56 32 36 46 36 Z" fill="#c9a44c"></path><path d="M120 26 C142 26 142 64 114 70 L114 60 C128 56 128 36 114 36 Z" fill="#c9a44c"></path><path d="M38 24 L122 24 C122 70 100 96 80 96 C60 96 38 70 38 24 Z" fill="#e6c976"></path><path d="M46 30 L114 30 C114 66 96 88 80 88 C64 88 46 66 46 30 Z" fill="#c9a44c"></path><ellipse cx="80" cy="55" rx="25" ry="16" fill="#002244"></ellipse><path d="M59 55 H101" stroke="#e6c976" stroke-width="2.5"></path><path d="M72 50 V60 M80 49 V61 M88 50 V60" stroke="#e6c976" stroke-width="2"></path><rect x="74" y="96" width="12" height="20" fill="#c9a44c"></rect><path d="M58 116 L102 116 L96 132 L64 132 Z" fill="#e6c976"></path><rect x="52" y="132" width="56" height="12" rx="2" fill="#c9a44c"></rect></g></g></svg>