<svg xmlns="http://www.w3.org/2000/svg" viewBox="0 0 300 300"><defs>
<path id="yearArc" d="M 78.9 251.6 A 124 124 0 0 0 221.1 251.6" fill="none"></path></defs>
<circle cx="150" cy="150" r="144" fill="#c9a44c"></circle><circle cx="150" cy="150" r="138" fill="#002244"></circle><circle cx="150" cy="150" r="110" fill="#c9a44c"></circle><circle cx="150" cy="150" r="105" fill="#002244"></circle>
<text x="31.1" y="144.8" transform="rotate(272.5 31.1 144.8)" text-anchor="middle" dominant-baseline="middle" font-family="&#39;UFC Sans Condensed&#39;,&#39;Arial Narrow&#39;,sans-serif" font-weight="700" font-size="21" fill="#e6c976">A</text><text x="34.6" y="120.9" transform="rotate(284.2 34.6 120.9)" text-anchor="middle" dominant-baseline="middle" font-family="&#39;UFC Sans Condensed&#39;,&#39;Arial Narrow&#39;,sans-serif" font-weight="700" font-size="21" fill="#e6c976">F</text><text x="42.9" y="98.1" transform="rotate(295.8 42.9 98.1)" text-anchor="middle" dominant-baseline="middle" font-family="&#39;UFC Sans Condensed&#39;,&#39;Arial Narrow&#39;,sans-serif" font-weight="700" font-size="21" fill="#e6c976">L</text><text x="55.6" y="77.6" transform="rotate(307.5 55.6 77.6)" text-anchor="middle" dominant-baseline="middle" font-family="&#39;UFC Sans Condensed&#39;,&#39;Arial Narrow&#39;,sans-serif" font-weight="700" font-size="21" fill="#e6c976"> </text><text x="72.2" y="60.0" transform="rotate(319.2 72.2 60.0)" text-anchor="middle" dominant-baseline="middle" font-family="&#39;UFC Sans Condensed&#39;,&#39;Arial Narrow&#39;,sans-serif" font-weight="700" font-size="21" fill="#e6c976">C</text><text x="92.0" y="46.1" transform="rotate(330.8 92.0 46.1)" text-anchor="middle" dominant-baseline="middle" font-family="&#39;UFC Sans Condensed&#39;,&#39;Arial Narrow&#39;,sans-serif" font-weight="700" font-size="21" fill="#e6c976">U</text><text x="114.2" y="36.5" transform="rotate(342.5 114.2 36.5)" text-anchor="middle" dominant-baseline="middle" font-family="&#39;UFC Sans Condensed&#39;,&#39;Arial Narrow&#39;,sans-serif" font-weight="700" font-size="21" fill="#e6c976">P</text><text x="137.9" y="31.6" transform="rotate(354.2 137.9 31.6)" text-anchor="middle" dominant-baseline="middle" font-family="&#39;UFC Sans Condensed&#39;,&#39;Arial Narrow&#39;,sans-serif" font-weight="700" font-size="21" fill="#e6c976"> </text><text x="162.1" y="31.6" transform="rotate(365.8 162.1 31.6)" text-anchor="middle" dominant-baseline="middle" font-family="&#39;UFC Sans Condensed&#39;,&#39;Arial Narrow&#39;,sans-serif" font-weight="700" font-size="21" fill="#e6c976">C</text><text x="185.8" y="36.5" transform="rotate(377.5 185.8 36.5)" text-anchor="middle" dominant-baseline="middle" font-family="&#39;UFC Sans Condensed&#39;,&#39;Arial Narrow&#39;,sans-serif" font-weight="700" font-size="21" fill="#e6c976">H</text><text x="208.0" y="46.1" transform="rotate(389.2 208.0 46.1)" text-anchor="middle" dominant-baseline="middle" font-family="&#39;UFC Sans Condensed&#39;,&#39;Arial Narrow&#39;,sans-serif" font-weight="700" font-size="21" fill="#e6c976">A</text><text x="227.8" y="60.0" transform="rotate(400.8 227.8 60.0)" text-anchor="middle" dominant-baseline="middle" font-family="&#39;UFC Sans Condensed&#39;,&#39;Arial Narrow&#39;,sans-serif" font-weight="700" font-size="21" fill="#e6c976">M</text><text x="244.4" y="77.6" transform="rotate(412.5 244.4 77.6)" text-anchor="middle" dominant-baseline="middle" font-family="&#39;UFC Sans Condensed&#39;,&#39;Arial Narrow&#39;,sans-serif" font-weight="700" font-size="21" fill="#e6c976">P</text><text x="257.1" y="98.1" transform="rotate(424.2 257.1 98.1)" text-anchor="middle" dominant-baseline="middle" font-family="&#39;UFC Sans Condensed&#39;,&#39;Arial Narrow&#39;,sans-serif" font-weight="700" font-size="21" fill="#e6c976">I</text><text x="265.4" y="120.9" transform="rotate(435.8 265.4 120.9)" text-anchor="middle" dominant-baseline="middle" font-family="&#39;UFC Sans Condensed&#39;,&#39;Arial Narrow&#39;,sans-serif" font-weight="700" font-size="21" fill="#e6c976">O</text><text x="268.9" y="144.8" transform="rotate(447.5 268.9 144.8)" text-anchor="middle" dominant-baseline="middle" font-family="&#39;UFC Sans Condensed&#39;,&#39;Arial Narrow&#39;,sans-serif" font-weight="700" font-size="21" fill="#e6c976">N</text>

<text dy="5" font-family="&#39;UFC Sans Condensed&#39;,&#39;Arial Narrow&#39;,sans-serif" font-weight="700" font-size="20" letter-spacing="3" fill="#e6c976"><textPath href="#yearArc" startOffset="50%" text-anchor="middle">★  2016  ★</textPath></text>

<g transform="translate(70,64)"><g><path d="M40 26 C18 26 18 64 46 70 L46 60 C32 56 32 36 46 36 Z" fill="#c9a44c"></path><path d="M120 26 C142 26 142 64 114 70 L114 60 C128 56 128 36 114 36 Z" fill="#c9a44c"></path><path d="M38 24 L122 24 C122 70 100 96 80 96 C60 96 38 70 38 24 Z" fill="#e6c976"></path><path d="M46 30 L114 30 C114 66 96 88 80 88 C64 88 46 66 46 30 Z" fill="#c9a44c"></path><ellipse cx="80" cy="55" rx="25" ry="16" fill="#002244"></ellipse><path d="M59 55 H101" stroke="#e6c976" stroke-width="2.5"></path><path d="M72 50 V60 M80 49 V61 M88 50 V60" stroke="#e6c976" stroke-width="2"></path><rect x="74" y="96" width="12" height="20" fill="#c9a44c"></rect><path d="M58 116 L102 116 L96 132 L64 132 Z" fill="#e6c976"></path><rect x="52" y="132" width="56" height="12" rx="2" fill="#c9a44c"></rect></g></g></svg>