<svg xmlns="http://www.w3.org/2000/svg" xmlns:xlink="http://www.w3.org/1999/xlink" viewBox="0 0 300 300"><defs>
<path id="yearArc" d="M 78.9 251.6 A 124 124 0 0 0 221.1 251.6" fill="none"></path></defs>
<circle cx="150" cy="150" r="144" fill="#aeb6bd"></circle><circle cx="150" cy="150" r="138" fill="#002244"></circle><circle cx="150" cy="150" r="110" fill="#aeb6bd"></circle><circle cx="150" cy="150" r="105" fill="#002244"></circle>
<text x="31.5" y="139.6" transform="rotate(275.0 31.5 139.6)" text-anchor="middle" dominant-baseline="middle" font-family="&#39;UFC Sans Condensed&#39;,&#39;Arial Narrow&#39;,sans-serif" font-weight="700" font-size="21" fill="#d8dde1">D</text><text x="35.4" y="117.9" transform="rotate(285.6 35.4 117.9)" text-anchor="middle" dominant-baseline="middle" font-family="&#39;UFC Sans Condensed&#39;,&#39;Arial Narrow&#39;,sans-serif" font-weight="700" font-size="21" fill="#d8dde1">-</text><text x="43.3" y="97.4" transform="rotate(296.3 43.3 97.4)" text-anchor="middle" dominant-baseline="middle" font-family="&#39;UFC Sans Condensed&#39;,&#39;Arial Narrow&#39;,sans-serif" font-weight="700" font-size="21" fill="#d8dde1">L</text><text x="54.8" y="78.6" transform="rotate(306.9 54.8 78.6)" text-anchor="middle" dominant-baseline="middle" font-family="&#39;UFC Sans Condensed&#39;,&#39;Arial Narrow&#39;,sans-serif" font-weight="700" font-size="21" fill="#d8dde1">E</text><text x="69.6" y="62.3" transform="rotate(317.5 69.6 62.3)" text-anchor="middle" dominant-baseline="middle" font-family="&#39;UFC Sans Condensed&#39;,&#39;Arial Narrow&#39;,sans-serif" font-weight="700" font-size="21" fill="#d8dde1">A</text><text x="87.2" y="48.9" transform="rotate(328.1 87.2 48.9)" text-anchor="middle" dominant-baseline="middle" font-family="&#39;UFC Sans Condensed&#39;,&#39;Arial Narrow&#39;,sans-serif" font-weight="700" font-size="21" fill="#d8dde1">G</text><text x="106.9" y="39.1" transform="rotate(338.8 106.9 39.1)" text-anchor="middle" dominant-baseline="middle" font-family="&#39;UFC Sans Condensed&#39;,&#39;Arial Narrow&#39;,sans-serif" font-weight="700" font-size="21" fill="#d8dde1">U</text><text x="128.1" y="33.0" transform="rotate(349.4 128.1 33.0)" text-anchor="middle" dominant-baseline="middle" font-family="&#39;UFC Sans Condensed&#39;,&#39;Arial Narrow&#39;,sans-serif" font-weight="700" font-size="21" fill="#d8dde1">E</text><text x="150.0" y="31.0" transform="rotate(360.0 150.0 31.0)" text-anchor="middle" dominant-baseline="middle" font-family="&#39;UFC Sans Condensed&#39;,&#39;Arial Narrow&#39;,sans-serif" font-weight="700" font-size="21" fill="#d8dde1"> </text><text x="171.9" y="33.0" transform="rotate(370.6 171.9 33.0)" text-anchor="middle" dominant-baseline="middle" font-family="&#39;UFC Sans Condensed&#39;,&#39;Arial Narrow&#39;,sans-serif" font-weight="700" font-size="21" fill="#d8dde1">C</text><text x="193.1" y="39.1" transform="rotate(381.3 193.1 39.1)" text-anchor="middle" dominant-baseline="middle" font-family="&#39;UFC Sans Condensed&#39;,&#39;Arial Narrow&#39;,sans-serif" font-weight="700" font-size="21" fill="#d8dde1">H</text><text x="212.8" y="48.9" transform="rotate(391.9 212.8 48.9)" text-anchor="middle" dominant-baseline="middle" font-family="&#39;UFC Sans Condensed&#39;,&#39;Arial Narrow&#39;,sans-serif" font-weight="700" font-size="21" fill="#d8dde1">A</text><text x="230.4" y="62.3" transform="rotate(402.5 230.4 62.3)" text-anchor="middle" dominant-baseline="middle" font-family="&#39;UFC Sans Condensed&#39;,&#39;Arial Narrow&#39;,sans-serif" font-weight="700" font-size="21" fill="#d8dde1">M</text><text x="245.2" y="78.6" transform="rotate(413.1 245.2 78.6)" text-anchor="middle" dominant-baseline="middle" font-family="&#39;UFC Sans Condensed&#39;,&#39;Arial Narrow&#39;,sans-serif" font-weight="700" font-size="21" fill="#d8dde1">P</text><text x="256.7" y="97.4" transform="rotate(423.8 256.7 97.4)" text-anchor="middle" dominant-baseline="middle" font-family="&#39;UFC Sans Condensed&#39;,&#39;Arial Narrow&#39;,sans-serif" font-weight="700" font-size="21" fill="#d8dde1">I</text><text x="264.6" y="117.9" transform="rotate(434.4 264.6 117.9)" text-anchor="middle" dominant-baseline="middle" font-family="&#39;UFC Sans Condensed&#39;,&#39;Arial Narrow&#39;,sans-serif" font-weight="700" font-size="21" fill="#d8dde1">O</text><text x="268.5" y="139.6" transform="rotate(445.0 268.5 139.6)" text-anchor="middle" dominant-baseline="middle" font-family="&#39;UFC Sans Condensed&#39;,&#39;Arial Narrow&#39;,sans-serif" font-weight="700" font-size="21" fill="#d8dde1">N</text>

<text dy="5" font-family="&#39;UFC Sans Condensed&#39;,&#39;Arial Narrow&#39;,sans-serif" font-weight="700" font-size="20" letter-spacing="3" fill="#d8dde1"><textPath href="#yearArc" startOffset="50%" text-anchor="middle">★  2025  ★</textPath></text>

<g transform="translate(70,64)"><g><path d="M40 26 C18 26 18 64 46 70 L46 60 C32 56 32 36 46 36 Z" fill="#aeb6bd"></path><path d="M120 26 C142 26 142 64 114 70 L114 60 C128 56 128 36 114 36 Z" fill="#aeb6bd"></path><path d="M38 24 L122 24 C122 70 100 96 80 96 C60 96 38 70 38 24 Z" fill="#d8dde1"></path><path d="M46 30 L114 30 C114 66 96 88 80 88 C64 88 46 66 46 30 Z" fill="#aeb6bd"></path><g transform="translate(80,56) scale(0.15339233038348082) translate(-109.5,-173.5)"><polygon style="fill:#243C65;" points="117.6,4.6 106.2,94 131.8,103.6 "></polygon>
<polygon style="fill:#243C65;" points="97.7,50.7 79,115 97,105.8 "></polygon>
<polygon style="fill:#243C65;" points="138.1,51.4 157.9,115.3 139.7,106.4 "></polygon>
<g>
&#x9;<path style="fill:#243C65;" d="M189.4,211.2C189.4,211.2,189.4,211.2,189.4,211.2L189.4,211.2c1.3-76.6-53.8-123.4-60-128.5&#xA;&#x9;&#x9;c-7.4-6-11.8-6.5-13.2-6.5c-1.4-0.1-5.8,0.3-13.4,6c-6.5,4.9-63.2,49.8-64.5,126.3h0c0,0,0,0,0,0s0,0,0,0l0,0&#xA;&#x9;&#x9;C36.9,285.1,92,332,98.3,337.1c7.4,6,11.7,6.5,13.1,6.5c1.4,0.1,5.8-0.3,13.4-6C131.3,332.6,188,287.7,189.4,211.2L189.4,211.2&#xA;&#x9;&#x9;C189.4,211.2,189.4,211.2,189.4,211.2z"></path>
&#x9;<path style="fill:#B34826;" d="M140.2,106c0,0,46.1,52.1,38.1,127.5c0,0,5.6-14.9,5.3-28.7C183.5,198.5,183,153.1,140.2,106z"></path>
&#x9;<path style="fill:#FFFFFF;" d="M65,176.3c3.6-11.5,9.2-23.3,15.5-33.7c-2.6,0.9-5.2,1.8-8,2.9c-10.7,20-16.3,41.2-16.7,63.4&#xA;&#x9;&#x9;c-0.2,13,2.6,27.1,7.3,41C56.2,220.2,59.1,195.5,65,176.3z"></path>
&#x9;<path style="fill:#FFFFFF;" d="M88.5,130.4c-3.8,1.6-7.2,3.2-9.8,4.6c-2.2,3.4-4.3,6.9-6.1,10.4c2.7-1,5.4-2,8-2.9&#xA;&#x9;&#x9;C83.1,138.3,85.8,134.2,88.5,130.4z"></path>
&#x9;<path style="fill:#FFFFFF;" d="M105.3,111.8c9.1-7.2,17.5-7.2,24.1-4.9c-5.6-5.9-9.9-9.5-11.2-10.6c0,0,0,0,0,0c-1.4-1.1-3.4-1.2-4.8-0.1&#xA;&#x9;&#x9;c0,0,0,0,0,0c-2.7,2-16.7,13-30.4,32.4c-1.5,2.1-2.9,4.2-4.3,6.3c2.7-1.4,6-3,9.8-4.6C94.4,122.4,100.3,115.8,105.3,111.8z"></path>
&#x9;<path style="fill:#C43C3B;" d="M147.5,129.8c-1.7-2.6-3.5-5.1-5.2-7.5c-4.6-6.2-9-11.3-12.8-15.4c-6.7-2.3-15.1-2.3-24.1,4.9&#xA;&#x9;&#x9;c-5,4-10.9,10.5-16.8,18.6c-2.7,3.8-5.4,7.8-8,12.1C74.2,153,68.6,164.8,65,176.3c-6,19.2-8.9,43.9-1.9,73.5c0.5,1.5,1.1,3,1.6,4.6&#xA;&#x9;&#x9;c-6-50,12.3-81.8,19-91.5c2.4-7.5,5.4-14.9,9.1-21.9c-5.6,27.6-7.4,51.7-7,72.4c11.8-49.7,42.2-69.8,58.7-77.2c2.1-1,4-1.7,5.6-2.3&#xA;&#x9;&#x9;C149.3,132.6,148.4,131.2,147.5,129.8z"></path>
&#x9;<path style="fill:#B22626;" d="M83.8,162.8c-6.7,9.8-25,41.5-19,91.5c2.4,6.6,5.2,13.1,8.3,19.3c4,8.1,8.5,15.9,13.1,23c0,0-2.5-8.1-5-21.1&#xA;&#x9;&#x9;C76.1,249.6,70.7,203.9,83.8,162.8z"></path>
&#x9;<path style="fill:#B22626;" d="M153.6,140.3c-0.1-0.1-0.2-0.1-0.3-0.2C153.4,140.2,153.5,140.2,153.6,140.3c-1.1-2.1-2.3-4.2-3.5-6.3&#xA;&#x9;&#x9;c-1.6,0.6-3.5,1.3-5.6,2.3c0.8,0.2,0.8,0.2,0,0c-16.5,7.4-46.9,27.4-58.7,77.2c-1.1,24.2,3.9,46.3,10,63.5&#xA;&#x9;&#x9;c2.2,6.2,3.6,10.2,5.8,15.1c5.9,12.9,12.1,22.2,12.1,22.2c26.2-16.7,39.7-41.2,39.8-41.5c2.3-5.1,5.8-16,7.5-21.4&#xA;&#x9;&#x9;c4.3-13.3,6.8-27.3,7-40.5C168.6,186.2,165.2,162.6,153.6,140.3z"></path>
&#x9;<path style="fill:#243C65;" d="M67.8,227.6c0,0,0.5-0.4,1.4-0.9c0.9-0.5,2.2-1.2,3.8-1.8c1.6-0.6,3.4-1.3,5.4-1.8c2-0.5,4.1-1,6.3-1.3&#xA;&#x9;&#x9;c2.2-0.3,4.3-0.5,6.4-0.5c2.1,0,4,0,5.7,0.2c0.8,0.1,1.6,0.2,2.3,0.3c0.7,0.1,1.3,0.2,1.8,0.4c1,0.2,1.6,0.5,1.6,0.5&#xA;&#x9;&#x9;s-0.5,0.4-1.4,0.9c-0.4,0.3-1,0.5-1.6,0.9c-0.6,0.3-1.3,0.6-2.1,1c-1.6,0.6-3.4,1.3-5.4,1.8c-2,0.5-4.1,1-6.3,1.3&#xA;&#x9;&#x9;c-2.2,0.3-4.4,0.5-6.4,0.5c-2.1,0-4-0.1-5.7-0.2c-1.7-0.2-3.1-0.5-4.1-0.7C68.4,227.8,67.8,227.6,67.8,227.6z"></path>
&#x9;<path style="fill:#243C65;" d="M67.3,181.1c0,0,0.6-0.2,1.6-0.5c1-0.3,2.4-0.6,4.1-0.8c1.7-0.2,3.6-0.4,5.7-0.4c2.1,0,4.3,0.1,6.4,0.3&#xA;&#x9;&#x9;c2.2,0.2,4.3,0.6,6.4,1c2,0.5,3.9,1,5.5,1.6c0.8,0.3,1.5,0.6,2.2,0.9c0.6,0.3,1.2,0.6,1.7,0.8c0.9,0.5,1.4,0.8,1.4,0.8&#xA;&#x9;&#x9;s-0.6,0.2-1.6,0.5c-0.5,0.1-1.1,0.3-1.8,0.4c-0.7,0.1-1.5,0.3-2.3,0.4c-1.7,0.2-3.6,0.4-5.7,0.4c-2.1,0-4.3-0.1-6.4-0.3&#xA;&#x9;&#x9;c-2.2-0.2-4.3-0.6-6.4-1c-2-0.5-3.9-1-5.5-1.6c-1.6-0.6-2.9-1.2-3.8-1.7C67.8,181.5,67.3,181.1,67.3,181.1z"></path>
&#x9;<path style="fill:#243C65;" d="M66.8,203.9c0,0,0.5-0.3,1.5-0.7c0.9-0.4,2.3-0.9,3.9-1.4c1.6-0.5,3.5-0.9,5.6-1.2c2-0.3,4.2-0.5,6.4-0.6&#xA;&#x9;&#x9;c2.2-0.1,4.4,0,6.4,0.1c2.1,0.2,4,0.5,5.6,0.8c0.8,0.2,1.6,0.4,2.3,0.6c0.7,0.2,1.3,0.4,1.7,0.6c1,0.3,1.5,0.6,1.5,0.6&#xA;&#x9;&#x9;s-0.5,0.3-1.5,0.7c-0.5,0.2-1,0.4-1.7,0.7c-0.7,0.2-1.4,0.5-2.2,0.7c-1.6,0.5-3.5,0.9-5.6,1.2c-2,0.3-4.2,0.5-6.4,0.6&#xA;&#x9;&#x9;c-2.2,0.1-4.4,0-6.4-0.2c-2.1-0.2-4-0.5-5.6-0.8c-1.7-0.4-3-0.8-4-1.1C67.4,204.2,66.8,203.9,66.8,203.9z"></path>
&#x9;<path style="fill:#243C65;" d="M147.2,226.7c3.7,34.3,0.2,77-24.4,103.6c-3.9-4.3-7.9-8.6-11.8-13C136.9,297.3,145.4,257.3,147.2,226.7z"></path>
</g>
<g transform="translate(-49,0)">
&#x9;<g>
&#x9;&#x9;<rect transform="translate(49,0)" x="64.5" y="245.6" style="fill:#243C65;" width="93.4" height="50.4"></rect>
&#x9;</g>
&#x9;<g>
&#x9;&#x9;<path style="display:none;" d="M168.5,150.4l11.1,22.5c0.9,1.8,3.3,3.6,5.4,3.9l24.8,3.6l-17.9,17.5c-1.5,1.4-2.4,4.3-2,6.3l4.2,24.7&#xA;&#x9;&#x9;&#x9;l-22.2-11.7c-1.8-1-4.8-1-6.6,0L143,228.9l4.2-24.7c0.3-2-0.6-4.9-2-6.3l-17.9-17.5l24.8-3.6c2-0.3,4.4-2,5.4-3.9L168.5,150.4z"></path>
&#x9;&#x9;<g>
&#x9;&#x9;&#x9;<defs>
&#x9;&#x9;&#x9;&#x9;<rect id="SVGID_1_" x="-2" y="204.9" width="293.2" height="60"></rect>
&#x9;&#x9;&#x9;</defs>
&#x9;&#x9;&#x9;<clipPath id="SVGID_2_">
&#x9;&#x9;&#x9;&#x9;<use xlink:href="#SVGID_1_" style="overflow:visible;"></use>
&#x9;&#x9;&#x9;</clipPath>
&#x9;&#x9;&#x9;<g style="clip-path:url(#SVGID_2_);">
&#x9;&#x9;&#x9;&#x9;<path transform="translate(24,0)" style="fill:#FFFFFF;stroke:#243C65;stroke-width:20;stroke-miterlimit:10;" d="M12.8,253.9V215h14.1c11.7,0,19.5,7.5,19.5,19.5c0,12-7.8,19.4-19.6,19.4H12.8z M26.5,245.7&#xA;&#x9;&#x9;&#x9;&#x9;&#x9;c6,0,10.9-3.5,10.9-11.3s-4.9-11.3-10.9-11.3h-5v22.6H26.5z"></path>
&#x9;&#x9;&#x9;&#x9;
&#x9;&#x9;&#x9;&#x9;<path style="fill:#FFFFFF;stroke:#243C65;stroke-width:20;stroke-miterlimit:10;" d="M76.2,253.9V215h8.7v30.6h16.8v8.3H76.2z"></path>
&#x9;&#x9;&#x9;&#x9;<path style="fill:#FFFFFF;stroke:#243C65;stroke-width:20;stroke-miterlimit:10;" d="M106.9,253.9V215h24.6v8.2h-16v7.4H130v7.6h-14.5v7.5h16v8.2H106.9z"></path>
&#x9;&#x9;&#x9;&#x9;<path style="fill:#FFFFFF;stroke:#243C65;stroke-width:20;stroke-miterlimit:10;" d="M161.7,246h-15l-2.8,7.9h-9.1l14.7-38.9h10l14.5,38.9h-9.4L161.7,246z M149.5,238.1h9.4l-4.7-13.4&#xA;&#x9;&#x9;&#x9;&#x9;&#x9;L149.5,238.1z"></path>
&#x9;&#x9;&#x9;&#x9;<path style="fill:#FFFFFF;stroke:#243C65;stroke-width:20;stroke-miterlimit:10;" d="M206.2,253.9l-0.5-4c-1.7,2.5-5.4,4.8-10.9,4.8c-10.8,0-19.7-8-19.7-20.3c0-12.2,9.3-20.3,20.3-20.3&#xA;&#x9;&#x9;&#x9;&#x9;&#x9;c11.1,0,16.3,6.6,18,12l-8.3,2.9c-0.6-2.4-3.2-6.8-9.7-6.8c-5.3,0-11.5,3.5-11.5,12.2c0,8.1,5.4,12.3,11.7,12.3&#xA;&#x9;&#x9;&#x9;&#x9;&#x9;c6.4,0,9.1-4.2,9.6-6.4h-11.7v-7.4h19.8v20.8H206.2z"></path>
&#x9;&#x9;&#x9;&#x9;<path style="fill:#FFFFFF;stroke:#243C65;stroke-width:20;stroke-miterlimit:10;" d="M220.2,239.9V215h8.7v24.1c0,4.7,2.6,7.1,6.8,7.1s6.8-2.4,6.8-7.1V215h8.7v24.9c0,9.8-6.9,14.9-15.4,14.9&#xA;&#x9;&#x9;&#x9;&#x9;&#x9;S220.2,249.6,220.2,239.9z"></path>
&#x9;&#x9;&#x9;&#x9;<path style="fill:#FFFFFF;stroke:#243C65;stroke-width:20;stroke-miterlimit:10;" d="M259.5,253.9V215h24.6v8.2h-16v7.4h14.5v7.6h-14.5v7.5h16v8.2H259.5z"></path>
&#x9;&#x9;&#x9;</g>
&#x9;&#x9;</g>
&#x9;&#x9;<g>
&#x9;&#x9;&#x9;<path transform="translate(24,0)" style="fill:#FFFFFF;" d="M12.4,252.9V214h14.1c11.7,0,19.5,7.5,19.5,19.5c0,12-7.8,19.4-19.6,19.4H12.4z M26.2,244.7&#xA;&#x9;&#x9;&#x9;&#x9;c6,0,10.9-3.5,10.9-11.3s-4.9-11.3-10.9-11.3h-5v22.6H26.2z"></path>
&#x9;&#x9;&#x9;
&#x9;&#x9;&#x9;<path style="fill:#FFFFFF;" d="M75.8,252.9V214h8.7v30.6h16.8v8.3H75.8z"></path>
&#x9;&#x9;&#x9;<path style="fill:#FFFFFF;" d="M106.5,252.9V214h24.6v8.2h-16v7.4h14.5v7.6h-14.5v7.5h16v8.2H106.5z"></path>
&#x9;&#x9;&#x9;<path style="fill:#FFFFFF;" d="M161.3,245h-15l-2.8,7.9h-9.1l14.7-38.9h10l14.5,38.9h-9.4L161.3,245z M149.2,237.1h9.4l-4.7-13.4&#xA;&#x9;&#x9;&#x9;&#x9;L149.2,237.1z"></path>
&#x9;&#x9;&#x9;<path style="fill:#FFFFFF;" d="M205.9,252.9l-0.5-4c-1.7,2.5-5.4,4.8-10.9,4.8c-10.8,0-19.7-8-19.7-20.3c0-12.2,9.3-20.3,20.3-20.3&#xA;&#x9;&#x9;&#x9;&#x9;c11.1,0,16.3,6.6,18,12l-8.3,2.9c-0.6-2.4-3.2-6.8-9.7-6.8c-5.3,0-11.5,3.5-11.5,12.2c0,8.1,5.4,12.3,11.7,12.3&#xA;&#x9;&#x9;&#x9;&#x9;c6.4,0,9.1-4.2,9.6-6.4h-11.7v-7.4h19.8v20.8H205.9z"></path>
&#x9;&#x9;&#x9;<path style="fill:#FFFFFF;" d="M219.9,238.8V214h8.7v24.1c0,4.7,2.6,7.1,6.8,7.1s6.8-2.4,6.8-7.1V214h8.7v24.9c0,9.8-6.9,14.9-15.4,14.9&#xA;&#x9;&#x9;&#x9;&#x9;S219.9,248.6,219.9,238.8z"></path>
&#x9;&#x9;&#x9;<path style="fill:#FFFFFF;" d="M259.1,252.9V214h24.6v8.2h-16v7.4h14.5v7.6h-14.5v7.5h16v8.2H259.1z"></path>
&#x9;&#x9;</g>
&#x9;&#x9;&#x9;</g>
</g>
<rect x="99.5" y="292.8" style="fill:#243C65;" width="28.7" height="32.4"></rect></g><rect x="74" y="96" width="12" height="20" fill="#aeb6bd"></rect><path d="M58 116 L102 116 L96 132 L64 132 Z" fill="#d8dde1"></path><rect x="52" y="132" width="56" height="12" rx="2" fill="#aeb6bd"></rect></g></g></svg>