<svg xmlns="http://www.w3.org/2000/svg" viewBox="0 0 300 300"><defs>
<path id="yearArc" d="M 78.9 251.6 A 124 124 0 0 0 221.1 251.6" fill="none"></path></defs>
<circle cx="150" cy="150" r="144" fill="#aeb6bd"></circle><circle cx="150" cy="150" r="138" fill="#002244"></circle><circle cx="150" cy="150" r="110" fill="#aeb6bd"></circle><circle cx="150" cy="150" r="105" fill="#002244"></circle>
<text x="31.5" y="139.6" transform="rotate(275.0 31.5 139.6)" text-anchor="middle" dominant-baseline="middle" font-family="&#39;UFC Sans Condensed&#39;,&#39;Arial Narrow&#39;,sans-serif" font-weight="700" font-size="21" fill="#d8dde1">D</text><text x="35.4" y="117.9" transform="rotate(285.6 35.4 117.9)" text-anchor="middle" dominant-baseline="middle" font-family="&#39;UFC Sans Condensed&#39;,&#39;Arial Narrow&#39;,sans-serif" font-weight="700" font-size="21" fill="#d8dde1">-</text><text x="43.3" y="97.4" transform="rotate(296.3 43.3 97.4)" text-anchor="middle" dominant-baseline="middle" font-family="&#39;UFC Sans Condensed&#39;,&#39;Arial Narrow&#39;,sans-serif" font-weight="700" font-size="21" fill="#d8dde1">L</text><text x="54.8" y="78.6" transform="rotate(306.9 54.8 78.6)" text-anchor="middle" dominant-baseline="middle" font-family="&#39;UFC Sans Condensed&#39;,&#39;Arial Narrow&#39;,sans-serif" font-weight="700" font-size="21" fill="#d8dde1">E</text><text x="69.6" y="62.3" transform="rotate(317.5 69.6 62.3)" text-anchor="middle" dominant-baseline="middle" font-family="&#39;UFC Sans Condensed&#39;,&#39;Arial Narrow&#39;,sans-serif" font-weight="700" font-size="21" fill="#d8dde1">A</text><text x="87.2" y="48.9" transform="rotate(328.1 87.2 48.9)" text-anchor="middle" dominant-baseline="middle" font-family="&#39;UFC Sans Condensed&#39;,&#39;Arial Narrow&#39;,sans-serif" font-weight="700" font-size="21" fill="#d8dde1">G</text><text x="106.9" y="39.1" transform="rotate(338.8 106.9 39.1)" text-anchor="middle" dominant-baseline="middle" font-family="&#39;UFC Sans Condensed&#39;,&#39;Arial Narrow&#39;,sans-serif" font-weight="700" font-size="21" fill="#d8dde1">U</text><text x="128.1" y="33.0" transform="rotate(349.4 128.1 33.0)" text-anchor="middle" dominant-baseline="middle" font-family="&#39;UFC Sans Condensed&#39;,&#39;Arial Narrow&#39;,sans-serif" font-weight="700" font-size="21" fill="#d8dde1">E</text><text x="150.0" y="31.0" transform="rotate(360.0 150.0 31.0)" text-anchor="middle" dominant-baseline="middle" font-family="&#39;UFC Sans Condensed&#39;,&#39;Arial Narrow&#39;,sans-serif" font-weight="700" font-size="21" fill="#d8dde1"> </text><text x="171.9" y="33.0" transform="rotate(370.6 171.9 33.0)" text-anchor="middle" dominant-baseline="middle" font-family="&#39;UFC Sans Condensed&#39;,&#39;Arial Narrow&#39;,sans-serif" font-weight="700" font-size="21" fill="#d8dde1">C</text><text x="193.1" y="39.1" transform="rotate(381.3 193.1 39.1)" text-anchor="middle" dominant-baseline="middle" font-family="&#39;UFC Sans Condensed&#39;,&#39;Arial Narrow&#39;,sans-serif" font-weight="700" font-size="21" fill="#d8dde1">H</text><text x="212.8" y="48.9" transform="rotate(391.9 212.8 48.9)" text-anchor="middle" dominant-baseline="middle" font-family="&#39;UFC Sans Condensed&#39;,&#39;Arial Narrow&#39;,sans-serif" font-weight="700" font-size="21" fill="#d8dde1">A</text><text x="230.4" y="62.3" transform="rotate(402.5 230.4 62.3)" text-anchor="middle" dominant-baseline="middle" font-family="&#39;UFC Sans Condensed&#39;,&#39;Arial Narrow&#39;,sans-serif" font-weight="700" font-size="21" fill="#d8dde1">M</text><text x="245.2" y="78.6" transform="rotate(413.1 245.2 78.6)" text-anchor="middle" dominant-baseline="middle" font-family="&#39;UFC Sans Condensed&#39;,&#39;Arial Narrow&#39;,sans-serif" font-weight="700" font-size="21" fill="#d8dde1">P</text><text x="256.7" y="97.4" transform="rotate(423.8 256.7 97.4)" text-anchor="middle" dominant-baseline="middle" font-family="&#39;UFC Sans Condensed&#39;,&#39;Arial Narrow&#39;,sans-serif" font-weight="700" font-size="21" fill="#d8dde1">I</text><text x="264.6" y="117.9" transform="rotate(434.4 264.6 117.9)" text-anchor="middle" dominant-baseline="middle" font-family="&#39;UFC Sans Condensed&#39;,&#39;Arial Narrow&#39;,sans-serif" font-weight="700" font-size="21" fill="#d8dde1">O</text><text x="268.5" y="139.6" transform="rotate(445.0 268.5 139.6)" text-anchor="middle" dominant-baseline="middle" font-family="&#39;UFC Sans Condensed&#39;,&#39;Arial Narrow&#39;,sans-serif" font-weight="700" font-size="21" fill="#d8dde1">N</text>

<text dy="5" font-family="&#39;UFC Sans Condensed&#39;,&#39;Arial Narrow&#39;,sans-serif" font-weight="700" font-size="20" letter-spacing="3" fill="#d8dde1"><textPath href="#yearArc" startOffset="50%" text-anchor="middle">★  2025  ★</textPath></text>

<g transform="translate(70,64)"><g><path d="M40 26 C18 26 18 64 46 70 L46 60 C32 56 32 36 46 36 Z" fill="#aeb6bd"></path><path d="M120 26 C142 26 142 64 114 70 L114 60 C128 56 128 36 114 36 Z" fill="#aeb6bd"></path><path d="M38 24 L122 24 C122 70 100 96 80 96 C60 96 38 70 38 24 Z" fill="#d8dde1"></path><path d="M46 30 L114 30 C114 66 96 88 80 88 C64 88 46 66 46 30 Z" fill="#aeb6bd"></path><ellipse cx="80" cy="55" rx="25" ry="16" fill="#002244"></ellipse><path d="M59 55 H101" stroke="#d8dde1" stroke-width="2.5"></path><path d="M72 50 V60 M80 49 V61 M88 50 V60" stroke="#d8dde1" stroke-width="2"></path><rect x="74" y="96" width="12" height="20" fill="#aeb6bd"></rect><path d="M58 116 L102 116 L96 132 L64 132 Z" fill="#d8dde1"></path><rect x="52" y="132" width="56" height="12" rx="2" fill="#aeb6bd"></rect></g></g></svg>