<svg xmlns="http://www.w3.org/2000/svg" viewBox="0 0 260 330">
<defs><clipPath id="sh"><path d="M32 50 L228 50 L228 176 C228 236 182 280 130 300 C78 280 32 236 32 176 Z"></path></clipPath></defs>
<path d="M32 50 L228 50 L228 176 C228 236 182 280 130 300 C78 280 32 236 32 176 Z" fill="none" stroke="#ffffff" stroke-width="13"></path>
<path d="M32 50 L228 50 L228 176 C228 236 182 280 130 300 C78 280 32 236 32 176 Z" fill="#002244"></path>
<g clip-path="url(#sh)">
<rect x="20" y="40" width="220" height="148" fill="#1d4f91"></rect>
<g transform="translate(130 114) scale(0.52) translate(-202 -85)" opacity="0.9"><path d="M219 159.5c74.8-16.6 107.5-81.1 111-88.4 4.1-8.6 3.6-13 3.2-14.3-.3-1.4-1.6-5.6-9-11.6C317.9 40.1 261-4.6 186.3 12c-74.7 16.6-107.5 81.1-111 88.4-4.1 8.6-3.6 12.9-3.2 14.3.3 1.4 1.6 5.5 9 11.6 6.2 5.1 63.1 49.8 137.9 33.2z" fill="#173e71"></path></g>
<rect x="20" y="188" width="220" height="132" fill="#002244"></rect>
</g>
<path d="M44 62 L216 62 L216 174 C216 226 178 264 130 282 C82 264 44 226 44 174 Z" fill="none" stroke="#ffffff" stroke-width="2" opacity="0.5"></path>
<path d="M32 50 L228 50 L228 176 C228 236 182 280 130 300 C78 280 32 236 32 176 Z" fill="none" stroke="#002244" stroke-width="3"></path>
<g transform="translate(130,93) scale(1.4)"><path d="M0 -14L4.1 -4.3L14.6 -3.4L6.6 3.5L9 13.8L0 8.2L-9 13.8L-6.6 3.5L-14.6 -3.4L-4.1 -4.3Z" fill="#c9a44c"></path></g>
<text x="130" y="155" text-anchor="middle" font-family="&#39;UFC Sans Condensed&#39;,&#39;Arial Narrow&#39;,sans-serif" font-weight="700" font-style="italic" font-size="58" fill="#ffffff" stroke="#002244" stroke-width="1.2" paint-order="stroke">NL</text>
<g>
<path d="M28 198 L232 198 L222 220 L232 242 L28 242 L38 220 Z" fill="#173e71"></path>
<path d="M40 196 L220 196 L212 219 L220 240 L40 240 L48 219 Z" fill="#ffffff"></path>
<text x="130" y="221" text-anchor="middle" font-family="&#39;UFC Sans Condensed&#39;,&#39;Arial Narrow&#39;,sans-serif" font-weight="700" font-style="italic" font-size="30" fill="#002244" dominant-baseline="middle">CHAMPION</text>
</g>
<text x="130" y="266" text-anchor="middle" font-family="&#39;UFC Sans Condensed&#39;,&#39;Arial Narrow&#39;,sans-serif" font-weight="700" font-size="19" fill="#c9a44c" letter-spacing="3">2025</text>
</svg>