<svg xmlns="http://www.w3.org/2000/svg" viewBox="0 0 260 336">
<defs><clipPath id="sh"><path d="M32 50 L228 50 L228 176 C228 236 182 280 130 300 C78 280 32 236 32 176 Z"></path></clipPath>
<linearGradient id="goldgrad" x1="0" y1="0" x2="0" y2="1"><stop offset="0" stop-color="#e6c976"></stop><stop offset="0.5" stop-color="#c9a44c"></stop><stop offset="1" stop-color="#a8842f"></stop></linearGradient></defs>

<g><g transform="translate(161.1,236.9) rotate(35.0)"><ellipse cx="0" cy="0" rx="11" ry="4.6" fill="#c9a44c"></ellipse><ellipse cx="0" cy="0" rx="11" ry="4.6" fill="none" stroke="#a8842f" stroke-width="0.6"></ellipse></g><g transform="translate(153.5,222.3) rotate(44.2)"><ellipse cx="0" cy="0" rx="11" ry="4.6" fill="#c9a44c"></ellipse><ellipse cx="0" cy="0" rx="11" ry="4.6" fill="none" stroke="#a8842f" stroke-width="0.6"></ellipse></g><g transform="translate(142.7,212.3) rotate(53.3)"><ellipse cx="0" cy="0" rx="11" ry="4.6" fill="#c9a44c"></ellipse><ellipse cx="0" cy="0" rx="11" ry="4.6" fill="none" stroke="#a8842f" stroke-width="0.6"></ellipse></g><g transform="translate(130.0,208.1) rotate(62.5)"><ellipse cx="0" cy="0" rx="11" ry="4.6" fill="#c9a44c"></ellipse><ellipse cx="0" cy="0" rx="11" ry="4.6" fill="none" stroke="#a8842f" stroke-width="0.6"></ellipse></g><g transform="translate(116.9,210.6) rotate(71.7)"><ellipse cx="0" cy="0" rx="11" ry="4.6" fill="#c9a44c"></ellipse><ellipse cx="0" cy="0" rx="11" ry="4.6" fill="none" stroke="#a8842f" stroke-width="0.6"></ellipse></g><g transform="translate(104.9,219.6) rotate(80.8)"><ellipse cx="0" cy="0" rx="11" ry="4.6" fill="#c9a44c"></ellipse><ellipse cx="0" cy="0" rx="11" ry="4.6" fill="none" stroke="#a8842f" stroke-width="0.6"></ellipse></g><g transform="translate(95.6,234.2) rotate(90.0)"><ellipse cx="0" cy="0" rx="11" ry="4.6" fill="#c9a44c"></ellipse><ellipse cx="0" cy="0" rx="11" ry="4.6" fill="none" stroke="#a8842f" stroke-width="0.6"></ellipse></g><g transform="translate(98.9,236.9) rotate(-35.0)"><ellipse cx="0" cy="0" rx="11" ry="4.6" fill="#c9a44c"></ellipse><ellipse cx="0" cy="0" rx="11" ry="4.6" fill="none" stroke="#a8842f" stroke-width="0.6"></ellipse></g><g transform="translate(106.5,222.3) rotate(-44.2)"><ellipse cx="0" cy="0" rx="11" ry="4.6" fill="#c9a44c"></ellipse><ellipse cx="0" cy="0" rx="11" ry="4.6" fill="none" stroke="#a8842f" stroke-width="0.6"></ellipse></g><g transform="translate(117.3,212.3) rotate(-53.3)"><ellipse cx="0" cy="0" rx="11" ry="4.6" fill="#c9a44c"></ellipse><ellipse cx="0" cy="0" rx="11" ry="4.6" fill="none" stroke="#a8842f" stroke-width="0.6"></ellipse></g><g transform="translate(130.0,208.1) rotate(-62.5)"><ellipse cx="0" cy="0" rx="11" ry="4.6" fill="#c9a44c"></ellipse><ellipse cx="0" cy="0" rx="11" ry="4.6" fill="none" stroke="#a8842f" stroke-width="0.6"></ellipse></g><g transform="translate(143.1,210.6) rotate(-71.7)"><ellipse cx="0" cy="0" rx="11" ry="4.6" fill="#c9a44c"></ellipse><ellipse cx="0" cy="0" rx="11" ry="4.6" fill="none" stroke="#a8842f" stroke-width="0.6"></ellipse></g><g transform="translate(155.1,219.6) rotate(-80.8)"><ellipse cx="0" cy="0" rx="11" ry="4.6" fill="#c9a44c"></ellipse><ellipse cx="0" cy="0" rx="11" ry="4.6" fill="none" stroke="#a8842f" stroke-width="0.6"></ellipse></g><g transform="translate(164.4,234.2) rotate(-90.0)"><ellipse cx="0" cy="0" rx="11" ry="4.6" fill="#c9a44c"></ellipse><ellipse cx="0" cy="0" rx="11" ry="4.6" fill="none" stroke="#a8842f" stroke-width="0.6"></ellipse></g></g>

<path d="M32 50 L228 50 L228 176 C228 236 182 280 130 300 C78 280 32 236 32 176 Z" fill="none" stroke="url(#goldgrad)" stroke-width="14"></path>
<path d="M32 50 L228 50 L228 176 C228 236 182 280 130 300 C78 280 32 236 32 176 Z" fill="none" stroke="#a8842f" stroke-width="15" opacity="0.25"></path>
<path d="M32 50 L228 50 L228 176 C228 236 182 280 130 300 C78 280 32 236 32 176 Z" fill="#002244"></path>
<g clip-path="url(#sh)">
<rect x="20" y="40" width="220" height="150" fill="#1d4f91"></rect>
<rect x="20" y="190" width="220" height="130" fill="#002244"></rect>

<g opacity="0.10"><polygon points="130,108 330,108 323.1855649272825,159.76231741070654" fill="#000"></polygon><polygon points="130,108 303.2066249627327,207.9973253093265 271.4246319984521,249.4180804002883" fill="#ffffff"></polygon><polygon points="130,108 230.00534930980731,281.20199222128895 181.7712670232013,301.18316673771653" fill="#000"></polygon><polygon points="130,108 130.009265358976,307.9999997853828 78.246632312879,301.1879627022389" fill="#ffffff"></polygon><polygon points="130,108 30.010698905765764,281.21125733244526 -11.411528498616946,249.43118329309434" fill="#000"></polygon><polygon points="130,108 -43.19735910812392,208.01337309565935 -63.18076813354631,159.78021652458602" fill="#ffffff"></polygon><polygon points="130,108 -69.99999914153125,108.0185307179321 -63.19036006258085,56.25558214753628" fill="#000"></polygon><polygon points="130,108 -43.215889330416616,8.018723335452108 -11.4377342842009,-33.40497629345222" fill="#ffffff"></polygon><polygon points="130,108 29.978603333134302,-65.19272562324755 78.21083408515858,-85.17836911477698" fill="#000"></polygon><polygon points="130,108 129.9722039231515,-91.99999806844525 181.73546790675405,-85.19275700830303" fill="#ffffff"></polygon><polygon points="130,108 229.9732520202844,-65.22052095663696 271.398423784808,-33.44428497175784" fill="#000"></polygon><polygon points="130,108 303.1880917666699,7.970579976591267 323.1759696814137,56.20188480605163" fill="#ffffff"></polygon></g>
</g>

<path d="M44 62 L216 62 L216 174 C216 226 178 264 130 282 C82 264 44 226 44 174 Z" fill="none" stroke="#e6c976" stroke-width="1.6" opacity="0.7"></path>
<path d="M32 50 L228 50 L228 176 C228 236 182 280 130 300 C78 280 32 236 32 176 Z" fill="none" stroke="#002244" stroke-width="3"></path>

<g transform="translate(130,58)"><path d="M0 -14L4.1 -4.3L14.6 -3.4L6.6 3.5L9 13.8L0 8.2L-9 13.8L-6.6 3.5L-14.6 -3.4L-4.1 -4.3Z" fill="url(#goldgrad)" stroke="#a8842f" stroke-width="0.6" transform="scale(1.5)"></path></g>
<g transform="translate(99,63)"><path d="M0 -14L4.1 -4.3L14.6 -3.4L6.6 3.5L9 13.8L0 8.2L-9 13.8L-6.6 3.5L-14.6 -3.4L-4.1 -4.3Z" fill="#c9a44c" transform="scale(0.85)"></path></g>
<g transform="translate(161,63)"><path d="M0 -14L4.1 -4.3L14.6 -3.4L6.6 3.5L9 13.8L0 8.2L-9 13.8L-6.6 3.5L-14.6 -3.4L-4.1 -4.3Z" fill="#c9a44c" transform="scale(0.85)"></path></g>

<g transform="translate(113,127) scale(0.44221698113207547) translate(-169.6,-84.6)"><defs>
    
  </defs>
  
  <path d="M0 144.8l88.7-16.3 1.4-27.3zm50 5l66.9-1.7-14.2-14.4zM38.4 111l54.9-38.2-2.9 20.1z" fill="#002244"></path>
  <path d="M219 159.5c74.8-16.6 107.5-81.1 111-88.4 4.1-8.6 3.6-13 3.2-14.3-.3-1.4-1.6-5.6-9-11.6C317.9 40.1 261-4.6 186.3 12c-74.7 16.6-107.5 81.1-111 88.4-4.1 8.6-3.6 12.9-3.2 14.3.3 1.4 1.6 5.5 9 11.6 6.2 5.1 63.1 49.8 137.9 33.2z" fill="#002244"></path>
  <path d="M309.8 87.1s-39.9 56.9-115 66.8c0 0 15.8 2 29.2-1.5 5.9-1.5 49.9-12.6 85.8-65.3z" fill="#1d4f91"></path>
  <path d="M223.9 30.5c12 .8 24.8 3.5 36.4 7.2-1.5-2.3-3-4.7-4.7-7.1-21.9-5.7-43.9-6.2-65.6-1.4-12.7 2.8-25.7 8.8-38.1 16.6 27.2-13.7 51.9-16.7 72-15.3z" fill="#ffffff"></path>
  <path d="M273.9 42.6c-2.4-3.4-4.8-6.2-6.7-8.5-3.9-1.3-7.7-2.5-11.6-3.5 1.7 2.4 3.2 4.8 4.7 7.1 4.8 1.5 9.4 3.2 13.6 4.9z" fill="#ffffff"></path>
  <path d="M295.9 54.6c9.1 7.2 11.1 15.3 10.4 22.3 4.5-6.8 7-11.8 7.7-13.4.8-1.6.3-3.6-1-4.7-2.6-2.1-16.6-13.2-38.6-22-2.4-1-4.8-1.8-7.2-2.7 2 2.3 4.3 5.2 6.7 8.5 9.3 3.8 17 8 22 12z" fill="#ffffff"></path>
  <path d="M288.4 99.8c2.2-2.3 4.2-4.6 6-6.8 5-5.9 8.9-11.4 12-16.1.7-7-1.3-15.2-10.4-22.3-5-4-12.8-8.2-22-12-4.3-1.8-8.9-3.4-13.7-4.9-11.6-3.7-24.4-6.4-36.4-7.2-20-1.3-44.8 1.6-71.9 15.3-1.4.9-2.7 1.7-4.1 2.6 47.2-17.5 82.4-7.2 93.4-2.9 7.8.6 15.7 1.7 23.4 3.7-28.1 1-52 4.8-72.1 10.1 51.1-.2 77.7 24.7 88.7 39 1.4 1.8 2.6 3.5 3.5 4.9 1.2-1 2.4-2.2 3.6-3.4z" fill="#b0b7bc"></path>
  <path d="M241.3 45.5c-11.1-4.3-46.2-14.6-93.4 2.9-5.9 3.9-11.5 8.2-16.9 12.6-7 5.8-13.5 11.9-19.3 18.1 0 0 7.3-4.3 19.4-9.8 24.1-10.9 67.2-26.8 110.2-23.8zm38.3 62.7c0-.1.1-.2.1-.3-.1.1-.1.2-.1.3 1.8-1.6 3.6-3.2 5.3-4.9-.9-1.4-2.1-3.1-3.5-4.9 0 .8 0 .8 0 0-11-14.3-37.6-39.2-88.7-39-23.8 4.5-44.1 14.6-59.5 24.5-5.6 3.6-9.1 5.9-13.3 9.2-11.2 8.8-18.7 16.9-18.7 16.9 22.4 21.5 49.3 29 49.7 29 5.5 1 16.9 1.9 22.6 2.3 14 1 28.1.2 41-2.6 23.9-5.3 46.1-14 65.1-30.5z" fill="#1d4f91"></path>
  <path d="M174.7 45.2s.5.4 1.2 1.2c.7.8 1.6 1.9 2.6 3.2 1 1.4 2 3 3 4.8 1 1.8 1.9 3.8 2.7 5.8.8 2 1.5 4.1 2 6.1s.9 3.9 1.1 5.6c.1.8.2 1.6.2 2.3 0 .7.1 1.3.1 1.8 0 1-.1 1.6-.1 1.6s-.5-.4-1.2-1.2c-.4-.4-.8-.8-1.2-1.4-.4-.5-.9-1.2-1.4-1.8-1-1.4-2-3-3-4.8-1-1.8-1.9-3.8-2.7-5.8-.8-2-1.5-4.1-2-6.1s-.9-3.9-1.1-5.6c-.2-1.7-.3-3.1-.3-4.2 0-.9.1-1.5.1-1.5zm45-11.4s.4.5.9 1.4c.5.9 1.1 2.2 1.8 3.8.6 1.6 1.2 3.4 1.8 5.4.5 2 .9 4.2 1.2 6.3.3 2.2.5 4.4.5 6.4 0 2.1-.1 4-.3 5.7-.1.8-.2 1.6-.3 2.3-.1.7-.3 1.3-.4 1.8-.2 1-.5 1.6-.5 1.6s-.4-.5-.9-1.4c-.3-.4-.5-1-.8-1.6-.3-.6-.6-1.3-.9-2.1-.6-1.6-1.2-3.4-1.8-5.4-.5-2-.9-4.2-1.2-6.3-.3-2.2-.4-4.4-.5-6.4 0-2.1.1-4 .3-5.7.2-1.7.5-3.1.7-4.1.2-1.1.4-1.7.4-1.7zm-22.3 4.9s.4.4 1 1.3c.6.8 1.4 2 2.3 3.5.8 1.5 1.7 3.2 2.5 5.1.8 1.9 1.5 4 2.1 6.1.6 2.1 1.1 4.2 1.4 6.3.3 2 .5 4 .5 5.7V69c0 .7-.1 1.3-.1 1.8-.1 1-.2 1.6-.2 1.6s-.4-.4-1-1.3c-.3-.4-.7-.9-1.1-1.5-.4-.6-.8-1.3-1.2-2-.8-1.5-1.7-3.2-2.5-5.1-.8-1.9-1.5-4-2.1-6.1-.6-2.1-1-4.3-1.4-6.3-.3-2-.5-4-.5-5.7 0-1.7 0-3.1.2-4.2 0-.9.1-1.5.1-1.5zm-3.3 83.4c-32.4 11.6-74.9 18.2-106.4.4 3.3-4.8 6.6-9.7 9.8-14.5 25.4 20.6 66.3 19.5 96.6 14.1z" fill="#002244"></path>
  <g transform="translate(6,7) translate(161,80) scale(1.12) translate(-161,-80)">
    <path d="M161.6 68.2l3 6.2c.2.5.9 1 1.5 1.1l6.8 1-4.9 4.8c-.4.4-.7 1.2-.6 1.7l1.2 6.8-6.1-3.2c-.5-.3-1.3-.3-1.8 0l-6.1 3.2 1.2-6.8c.1-.6-.2-1.3-.6-1.7l-4.9-4.8 6.8-1c.6-.1 1.2-.6 1.5-1.1l3-6.2z" fill="#002244" transform="translate(161,80) scale(1.24) translate(-161,-80)"></path>
    <path d="M161.6 68.2l3 6.2c.2.5.9 1 1.5 1.1l6.8 1-4.9 4.8c-.4.4-.7 1.2-.6 1.7l1.2 6.8-6.1-3.2c-.5-.3-1.3-.3-1.8 0l-6.1 3.2 1.2-6.8c.1-.6-.2-1.3-.6-1.7l-4.9-4.8 6.8-1c.6-.1 1.2-.6 1.5-1.1l3-6.2z" fill="#ffffff"></path>
  </g>
  <text x="218.5" y="110.5" text-anchor="middle" font-family="&#39;UFC Sans Condensed&#39;,&#39;Arial Narrow&#39;,sans-serif" font-weight="700" font-style="italic" font-size="72" fill="#002244">NL</text>
  <text x="216" y="108" text-anchor="middle" font-family="&#39;UFC Sans Condensed&#39;,&#39;Arial Narrow&#39;,sans-serif" font-weight="700" font-style="italic" font-size="72" fill="#ffffff">NL</text></g>

<g>
<path d="M24 196 L236 196 L226 219 L236 242 L24 242 L34 219 Z" fill="#a8842f"></path>
<path d="M30 194 L230 194 L222 218 L230 240 L30 240 L38 218 Z" fill="url(#goldgrad)"></path>
<path d="M36 199 L224 199 L218 218 L224 236 L36 236 L42 218 Z" fill="none" stroke="#002244" stroke-width="1" opacity="0.35"></path>
<text x="130" y="219" text-anchor="middle" font-family="&#39;UFC Sans Condensed&#39;,&#39;Arial Narrow&#39;,sans-serif" font-weight="700" font-style="italic" font-size="30" fill="#002244" dominant-baseline="middle">CHAMPION</text>
</g>

<text x="130" y="270" text-anchor="middle" font-family="&#39;UFC Sans Condensed&#39;,&#39;Arial Narrow&#39;,sans-serif" font-weight="700" font-size="20" fill="#e6c976" letter-spacing="4">★  2025  ★</text>

</svg>