<svg xmlns="http://www.w3.org/2000/svg" viewBox="0 0 260 336">
<defs><clipPath id="sh"><path d="M32 50 L228 50 L228 176 C228 236 182 280 130 300 C78 280 32 236 32 176 Z"></path></clipPath>
<linearGradient id="g_pacific" x1="0" y1="0" x2="0" y2="1"><stop offset="0" stop-color="#2565ba"></stop><stop offset="0.5" stop-color="#1d4f91"></stop><stop offset="1" stop-color="#143766"></stop></linearGradient></defs>
<path d="M32 50 L228 50 L228 176 C228 236 182 280 130 300 C78 280 32 236 32 176 Z" fill="none" stroke="#ffffff" stroke-width="13"></path>
<path d="M32 50 L228 50 L228 176 C228 236 182 280 130 300 C78 280 32 236 32 176 Z" fill="#002244"></path>
<g clip-path="url(#sh)">
<rect x="20" y="40" width="220" height="148" fill="#1d4f91"></rect>
<g transform="translate(130 114) scale(0.52) translate(-202 -85)" opacity="0.9"><path d="M219 159.5c74.8-16.6 107.5-81.1 111-88.4 4.1-8.6 3.6-13 3.2-14.3-.3-1.4-1.6-5.6-9-11.6C317.9 40.1 261-4.6 186.3 12c-74.7 16.6-107.5 81.1-111 88.4-4.1 8.6-3.6 12.9-3.2 14.3.3 1.4 1.6 5.5 9 11.6 6.2 5.1 63.1 49.8 137.9 33.2z" fill="#143766"></path></g>
<rect x="20" y="188" width="220" height="132" fill="#002244"></rect>
</g>
<path d="M44 62 L216 62 L216 174 C216 226 178 264 130 282 C82 264 44 226 44 174 Z" fill="none" stroke="#ffffff" stroke-width="2" opacity="0.5"></path>
<path d="M32 50 L228 50 L228 176 C228 236 182 280 130 300 C78 280 32 236 32 176 Z" fill="none" stroke="#002244" stroke-width="3"></path>
<g transform="translate(130,93) scale(1.4)"><path d="M0 -14L4.1 -4.3L14.6 -3.4L6.6 3.5L9 13.8L0 8.2L-9 13.8L-6.6 3.5L-14.6 -3.4L-4.1 -4.3Z" fill="#c9a44c"></path></g>
<text x="130" y="155" text-anchor="middle" font-family="&#39;UFC Sans Condensed&#39;,&#39;Arial Narrow&#39;,sans-serif" font-weight="700" font-style="italic" font-size="58" fill="#ffffff" stroke="#002244" stroke-width="1.2" paint-order="stroke">NL</text>

<g>
<path d="M24 196 L236 196 L226 219 L236 242 L24 242 L34 219 Z" fill="#143766"></path>
<path d="M30 194 L230 194 L222 218 L230 240 L30 240 L38 218 Z" fill="url(#g_pacific)"></path>
<path d="M36 199 L224 199 L218 218 L224 236 L36 236 L42 218 Z" fill="none" stroke="#002244" stroke-width="1" opacity="0.3"></path>
<text x="130" y="219" text-anchor="middle" font-family="&#39;UFC Sans Condensed&#39;,&#39;Arial Narrow&#39;,sans-serif" font-weight="700" font-style="italic" font-size="27" fill="#ffffff" stroke="#002244" stroke-width="0.8" paint-order="stroke" dominant-baseline="middle">PACIFIC</text>
</g>

<text x="130" y="270" text-anchor="middle" font-family="&#39;UFC Sans Condensed&#39;,&#39;Arial Narrow&#39;,sans-serif" font-weight="700" font-size="19" fill="#c9a44c" letter-spacing="3">★  2025  ★</text>

</svg>