<svg xmlns="http://www.w3.org/2000/svg" viewBox="0 0 300 300"><defs>
<path id="yearArc" d="M 78.9 251.6 A 124 124 0 0 0 221.1 251.6" fill="none"></path></defs>
<circle cx="150" cy="150" r="144" fill="#c9a44c"></circle><circle cx="150" cy="150" r="138" fill="#002244"></circle><circle cx="150" cy="150" r="110" fill="#c9a44c"></circle><circle cx="150" cy="150" r="105" fill="#002244"></circle>
<text x="35.1" y="180.8" transform="rotate(255.0 35.1 180.8)" text-anchor="middle" dominant-baseline="middle" font-family="&#39;UFC Sans Condensed&#39;,&#39;Arial Narrow&#39;,sans-serif" font-weight="700" font-size="19" fill="#e6c976">P</text><text x="31.5" y="161.3" transform="rotate(264.5 31.5 161.3)" text-anchor="middle" dominant-baseline="middle" font-family="&#39;UFC Sans Condensed&#39;,&#39;Arial Narrow&#39;,sans-serif" font-weight="700" font-size="19" fill="#e6c976">R</text><text x="31.3" y="141.5" transform="rotate(274.1 31.3 141.5)" text-anchor="middle" dominant-baseline="middle" font-family="&#39;UFC Sans Condensed&#39;,&#39;Arial Narrow&#39;,sans-serif" font-weight="700" font-size="19" fill="#e6c976">E</text><text x="34.4" y="121.9" transform="rotate(283.6 34.4 121.9)" text-anchor="middle" dominant-baseline="middle" font-family="&#39;UFC Sans Condensed&#39;,&#39;Arial Narrow&#39;,sans-serif" font-weight="700" font-size="19" fill="#e6c976">M</text><text x="40.6" y="103.2" transform="rotate(293.2 40.6 103.2)" text-anchor="middle" dominant-baseline="middle" font-family="&#39;UFC Sans Condensed&#39;,&#39;Arial Narrow&#39;,sans-serif" font-weight="700" font-size="19" fill="#e6c976">I</text><text x="49.9" y="85.7" transform="rotate(302.7 49.9 85.7)" text-anchor="middle" dominant-baseline="middle" font-family="&#39;UFC Sans Condensed&#39;,&#39;Arial Narrow&#39;,sans-serif" font-weight="700" font-size="19" fill="#e6c976">E</text><text x="61.9" y="70.0" transform="rotate(312.3 61.9 70.0)" text-anchor="middle" dominant-baseline="middle" font-family="&#39;UFC Sans Condensed&#39;,&#39;Arial Narrow&#39;,sans-serif" font-weight="700" font-size="19" fill="#e6c976">R</text><text x="76.4" y="56.5" transform="rotate(321.8 76.4 56.5)" text-anchor="middle" dominant-baseline="middle" font-family="&#39;UFC Sans Condensed&#39;,&#39;Arial Narrow&#39;,sans-serif" font-weight="700" font-size="19" fill="#e6c976"> </text><text x="93.0" y="45.6" transform="rotate(331.4 93.0 45.6)" text-anchor="middle" dominant-baseline="middle" font-family="&#39;UFC Sans Condensed&#39;,&#39;Arial Narrow&#39;,sans-serif" font-weight="700" font-size="19" fill="#e6c976">L</text><text x="111.1" y="37.5" transform="rotate(340.9 111.1 37.5)" text-anchor="middle" dominant-baseline="middle" font-family="&#39;UFC Sans Condensed&#39;,&#39;Arial Narrow&#39;,sans-serif" font-weight="700" font-size="19" fill="#e6c976">E</text><text x="130.3" y="32.6" transform="rotate(350.5 130.3 32.6)" text-anchor="middle" dominant-baseline="middle" font-family="&#39;UFC Sans Condensed&#39;,&#39;Arial Narrow&#39;,sans-serif" font-weight="700" font-size="19" fill="#e6c976">A</text><text x="150.0" y="31.0" transform="rotate(360.0 150.0 31.0)" text-anchor="middle" dominant-baseline="middle" font-family="&#39;UFC Sans Condensed&#39;,&#39;Arial Narrow&#39;,sans-serif" font-weight="700" font-size="19" fill="#e6c976">G</text><text x="169.7" y="32.6" transform="rotate(369.5 169.7 32.6)" text-anchor="middle" dominant-baseline="middle" font-family="&#39;UFC Sans Condensed&#39;,&#39;Arial Narrow&#39;,sans-serif" font-weight="700" font-size="19" fill="#e6c976">U</text><text x="188.9" y="37.5" transform="rotate(379.1 188.9 37.5)" text-anchor="middle" dominant-baseline="middle" font-family="&#39;UFC Sans Condensed&#39;,&#39;Arial Narrow&#39;,sans-serif" font-weight="700" font-size="19" fill="#e6c976">E</text><text x="207.0" y="45.6" transform="rotate(388.6 207.0 45.6)" text-anchor="middle" dominant-baseline="middle" font-family="&#39;UFC Sans Condensed&#39;,&#39;Arial Narrow&#39;,sans-serif" font-weight="700" font-size="19" fill="#e6c976"> </text><text x="223.6" y="56.5" transform="rotate(398.2 223.6 56.5)" text-anchor="middle" dominant-baseline="middle" font-family="&#39;UFC Sans Condensed&#39;,&#39;Arial Narrow&#39;,sans-serif" font-weight="700" font-size="19" fill="#e6c976">C</text><text x="238.1" y="70.0" transform="rotate(407.7 238.1 70.0)" text-anchor="middle" dominant-baseline="middle" font-family="&#39;UFC Sans Condensed&#39;,&#39;Arial Narrow&#39;,sans-serif" font-weight="700" font-size="19" fill="#e6c976">H</text><text x="250.1" y="85.7" transform="rotate(417.3 250.1 85.7)" text-anchor="middle" dominant-baseline="middle" font-family="&#39;UFC Sans Condensed&#39;,&#39;Arial Narrow&#39;,sans-serif" font-weight="700" font-size="19" fill="#e6c976">A</text><text x="259.4" y="103.2" transform="rotate(426.8 259.4 103.2)" text-anchor="middle" dominant-baseline="middle" font-family="&#39;UFC Sans Condensed&#39;,&#39;Arial Narrow&#39;,sans-serif" font-weight="700" font-size="19" fill="#e6c976">M</text><text x="265.6" y="121.9" transform="rotate(436.4 265.6 121.9)" text-anchor="middle" dominant-baseline="middle" font-family="&#39;UFC Sans Condensed&#39;,&#39;Arial Narrow&#39;,sans-serif" font-weight="700" font-size="19" fill="#e6c976">P</text><text x="268.7" y="141.5" transform="rotate(445.9 268.7 141.5)" text-anchor="middle" dominant-baseline="middle" font-family="&#39;UFC Sans Condensed&#39;,&#39;Arial Narrow&#39;,sans-serif" font-weight="700" font-size="19" fill="#e6c976">I</text><text x="268.5" y="161.3" transform="rotate(455.5 268.5 161.3)" text-anchor="middle" dominant-baseline="middle" font-family="&#39;UFC Sans Condensed&#39;,&#39;Arial Narrow&#39;,sans-serif" font-weight="700" font-size="19" fill="#e6c976">O</text><text x="264.9" y="180.8" transform="rotate(465.0 264.9 180.8)" text-anchor="middle" dominant-baseline="middle" font-family="&#39;UFC Sans Condensed&#39;,&#39;Arial Narrow&#39;,sans-serif" font-weight="700" font-size="19" fill="#e6c976">N</text>

<text dy="5" font-family="&#39;UFC Sans Condensed&#39;,&#39;Arial Narrow&#39;,sans-serif" font-weight="700" font-size="20" letter-spacing="3" fill="#e6c976"><textPath href="#yearArc" startOffset="50%" text-anchor="middle">★  2025  ★</textPath></text>

<g transform="translate(70,64)"><g><path d="M40 26 C18 26 18 64 46 70 L46 60 C32 56 32 36 46 36 Z" fill="#c9a44c"></path><path d="M120 26 C142 26 142 64 114 70 L114 60 C128 56 128 36 114 36 Z" fill="#c9a44c"></path><path d="M38 24 L122 24 C122 70 100 96 80 96 C60 96 38 70 38 24 Z" fill="#e6c976"></path><path d="M46 30 L114 30 C114 66 96 88 80 88 C64 88 46 66 46 30 Z" fill="#c9a44c"></path><ellipse cx="80" cy="55" rx="25" ry="16" fill="#002244"></ellipse><path d="M59 55 H101" stroke="#e6c976" stroke-width="2.5"></path><path d="M72 50 V60 M80 49 V61 M88 50 V60" stroke="#e6c976" stroke-width="2"></path><rect x="74" y="96" width="12" height="20" fill="#c9a44c"></rect><path d="M58 116 L102 116 L96 132 L64 132 Z" fill="#e6c976"></path><rect x="52" y="132" width="56" height="12" rx="2" fill="#c9a44c"></rect></g></g></svg>