<svg xmlns="http://www.w3.org/2000/svg" style="display: none;">
  <symbol id="icon-shield" viewBox="0 0 512 512">
    <path d="m384 274l0-183-128 0 0 325c23-12 43-25 61-39 45-35 67-69 67-103z m55-219l0 219c0 17-3 33-10 49-6 16-14 30-23 43-10 12-21 24-34 36-13 12-25 22-36 30-11 8-23 15-35 22-12 7-20 12-25 14-5 2-10 4-13 6-2 1-4 1-7 1-3 0-5 0-7-1-3-2-8-4-13-6-5-2-13-7-25-14-12-7-24-14-35-22-11-8-23-18-36-30-13-12-24-24-34-36-9-13-17-27-23-43-7-16-10-32-10-49l0-219c0-5 2-9 6-13 3-4 7-5 12-5l330 0c5 0 9 1 12 5 4 4 6 8 6 13z"/>
  </symbol>
  <symbol id="icon-sort" viewBox="0 0 512 512">
    <path d="m402 311c0 5-2 9-5 13l-128 128c-4 3-8 5-13 5-5 0-9-2-13-5l-128-128c-3-4-5-8-5-13 0-5 2-9 5-13 4-4 8-5 13-5l256 0c5 0 9 1 13 5 3 4 5 8 5 13z m0-110c0 5-2 9-5 13-4 4-8 5-13 5l-256 0c-5 0-9-1-13-5-3-4-5-8-5-13 0-5 2-9 5-13l128-128c4-3 8-5 13-5 5 0 9 2 13 5l128 128c3 4 5 8 5 13z"/>
  </symbol>
  <symbol id="icon-sort-alpha-asc" viewBox="0 0 512 512">
    <path d="m359 117l50 0-20-63-4-13c0-3 0-5 0-6l-2 0 0 6c0 0-1 2-1 5-1 3-2 6-3 8z m-130 294c0 3-1 5-3 7l-91 91c-2 2-5 3-7 3-2 0-4-1-7-3l-91-91c-3-3-4-6-2-10 2-4 4-6 9-6l54 0 0-393c0-3 1-5 3-6 2-2 4-3 7-3l54 0c3 0 5 1 7 3 2 1 3 3 3 6l0 393 54 0c3 0 5 1 7 3 2 2 3 4 3 6z m238 34l0 67-166 0 0-26 105-151c2-3 4-6 6-8l3-2 0-1c0 0-1 0-2 1-1 1-1 2-2 2-2 0-5 1-8 1l-67 0 0 33-34 0 0-66 162 0 0 26-105 151c-2 2-4 4-6 7l-4 4 0 0 4 0c2-1 5-1 9-1l71 0 0-34 34 0z m26-256l0 30-82 0 0-30 21 0-13-41-70 0-13 41 21 0 0 30-82 0 0-30 20 0 66-189 46 0 66 189z"/>
  </symbol>
  <symbol id="icon-sort-alpha-desc" viewBox="0 0 512 512">
    <path d="m359 409l50 0-20-62-4-14c0-3 0-5 0-5l-2 0 0 5c0 1-1 2-1 6-1 3-2 6-3 8z m-130 2c0 3-1 5-3 7l-91 91c-2 2-5 3-7 3-2 0-4-1-7-3l-91-91c-3-3-4-6-2-10 2-4 4-6 9-6l54 0 0-393c0-3 1-5 3-6 2-2 4-3 7-3l54 0c3 0 5 1 7 3 2 1 3 3 3 6l0 393 54 0c3 0 5 1 7 3 2 2 3 4 3 6z m264 71l0 30-82 0 0-30 21 0-13-41-70 0-13 41 21 0 0 30-82 0 0-30 20 0 66-189 46 0 66 189z m-26-329l0 66-166 0 0-25 105-151c2-4 4-6 6-8l3-3 0-1c0 0-1 1-2 2-1 1-1 2-2 2-2 1-5 1-8 1l-67 0 0 33-34 0 0-65 162 0 0 25-105 151c-2 2-4 4-6 8l-4 3 0 1 4-1c2 0 5-1 9-1l71 0 0-34 34 0z"/>
  </symbol>
  <symbol id="icon-sort-amount-asc" viewBox="0 0 512 512">
    <path d="m210 411c0 3-1 5-3 7l-91 91c-2 2-4 3-6 3-3 0-5-1-7-3l-91-91c-3-3-4-6-2-10 1-4 4-6 8-6l55 0 0-393c0-3 1-5 3-6 1-2 4-3 6-3l55 0c3 0 5 1 7 3 1 1 2 3 2 6l0 393 55 0c3 0 5 1 7 3 1 2 2 4 2 6z m302 37l0 55c0 3-1 5-3 6-1 2-3 3-6 3l-238 0c-3 0-5-1-6-3-2-1-3-3-3-6l0-55c0-3 1-5 3-7 1-1 3-2 6-2l238 0c3 0 5 1 6 2 2 2 3 4 3 7z m-55-146l0 55c0 2-1 4-2 6-2 2-4 3-7 3l-183 0c-3 0-5-1-6-3-2-2-3-4-3-6l0-55c0-3 1-5 3-7 1-2 3-2 6-2l183 0c3 0 5 0 7 2 1 2 2 4 2 7z m-55-147l0 55c0 3-1 5-2 7-2 2-4 2-7 2l-128 0c-3 0-5-1-6-2-2-2-3-4-3-7l0-55c0-2 1-4 3-6 1-2 4-3 6-3l128 0c3 0 5 1 7 3 1 2 2 4 2 6z m-55-146l0 55c0 3 0 5-2 7-2 1-4 2-7 2l-73 0c-3 0-5-1-6-2-2-2-3-4-3-7l0-55c0-3 1-5 3-6 1-2 4-3 6-3l73 0c3 0 5 1 7 3 2 1 2 3 2 6z"/>
  </symbol>
  <symbol id="icon-sort-amount-desc" viewBox="0 0 512 512">
    <path d="m347 448l0 55c0 3 0 5-2 6-2 2-4 3-7 3l-73 0c-3 0-5-1-6-3-2-1-3-3-3-6l0-55c0-3 1-5 3-7 1-1 3-2 6-2l73 0c3 0 5 1 7 2 2 2 2 4 2 7z m-137-37c0 3-1 5-3 7l-91 91c-2 2-4 3-6 3-3 0-5-1-7-3l-91-91c-3-3-4-6-2-10 1-4 4-6 8-6l55 0 0-393c0-3 1-5 3-6 1-2 4-3 6-3l55 0c3 0 5 1 7 3 1 1 2 3 2 6l0 393 55 0c3 0 5 1 7 3 1 2 2 4 2 6z m192-109l0 55c0 2-1 4-2 6-2 2-4 3-7 3l-128 0c-3 0-5-1-6-3-2-2-3-4-3-6l0-55c0-3 1-5 3-7 1-2 3-2 6-2l128 0c3 0 5 0 7 2 1 2 2 4 2 7z m55-147l0 55c0 3-1 5-2 7-2 2-4 2-7 2l-183 0c-3 0-5 0-6-2-2-2-3-4-3-7l0-55c0-2 1-4 3-6 1-2 3-3 6-3l183 0c3 0 5 1 6 3 2 2 3 4 3 7z m55-146l0 55c0 3-1 5-3 7-1 1-3 2-6 2l-238 0c-3 0-5-1-6-2-2-2-3-4-3-7l0-55c0-3 1-5 3-6 1-2 4-3 6-3l238 0c3 0 5 1 6 3 2 1 3 3 3 6z"/>
  </symbol>
  <symbol id="icon-star" viewBox="0 0 512 512">
    <path d="m494 185c0 4-3 9-8 14l-103 101 24 143c0 1 0 3 0 5 0 4-1 8-3 10-2 3-4 5-8 5-4 0-8-2-12-4l-128-67-128 67c-4 2-8 4-12 4-4 0-7-2-9-5-2-2-3-6-3-10 0-1 0-3 1-5l24-143-104-101c-4-6-7-10-7-14 0-7 6-12 16-13l144-21 64-130c4-8 8-12 14-12 6 0 10 4 14 12l64 130 144 21c10 1 16 6 16 13z"/>
  </symbol>
  <symbol id="icon-trophy" viewBox="0 0 512 512">
    <path d="m149 252c-14-31-21-66-21-106l-73 0 0 28c0 15 9 30 27 46 18 16 40 27 67 32z m308-78l0-28-73 0c0 40-7 75-21 106 27-5 49-16 67-32 18-16 27-31 27-46z m37-37l0 37c0 13-4 27-12 41-8 13-19 26-32 37-14 11-30 20-50 28-19 7-40 11-61 12-8 11-17 20-27 27-8 7-13 14-15 21-3 7-4 16-4 26 0 10 2 19 8 26 6 7 15 10 28 10 14 0 27 5 38 13 11 9 17 20 17 33l0 18c0 3-1 5-3 7-1 2-3 2-6 2l-238 0c-3 0-5-1-6-3-2-2-3-4-3-7l0-18c0-13 6-24 17-33 11-8 24-13 38-13 13 0 22-3 28-10 6-7 8-16 8-26 0-10-1-19-4-26-2-7-7-14-15-21-10-7-19-16-27-27-21-1-42-5-61-12-20-8-36-17-50-28-13-11-24-24-32-37-8-14-12-28-12-41l0-37c0-7 3-14 8-19 6-6 12-8 20-8l82 0 0-28c0-12 4-23 13-32 9-9 20-13 33-13l164 0c13 0 24 4 33 13 9 9 14 20 14 32l0 28 82 0c8 0 14 2 20 8 5 5 8 12 8 19z"/>
  </symbol>
  <symbol id="icon-bar-chart" viewBox="0 0 512 512">
    <path d="m137 290l0 103l-69 0l0-103z m102-136l0 239l-68 0l0-239z m102 68l0 171l-68 0l0-171z m103-103l0 274l-69 0l0-274z m34 299l0-324c0-2-1-4-3-6-1-2-3-3-6-3l-426 0c-3 0-5 1-6 3-2 2-3 4-3 6l0 324c0 2 1 4 3 6 1 2 3 3 6 3l426 0c3 0 5-1 6-3 2-2 3-4 3-6z m34-324l0 324c0 12-4 22-13 30-8 9-18 13-30 13l-426 0c-12 0-22-4-30-13-9-8-13-18-13-30l0-324c0-12 4-22 13-30 8-9 18-13 30-13l426 0c12 0 22 4 30 13 9 8 13 18 13 30z"/>
  </symbol>
  <symbol id="icon-plus" viewBox="0 0 512 512">
    <path d="m457 210l0 55c0 8-3 14-8 20-5 5-12 8-19 8l-119 0 0 118c0 8-3 15-8 20-5 5-12 8-20 8l-54 0c-8 0-15-3-20-8-5-5-8-12-8-20l0-118-119 0c-7 0-14-3-19-8-5-6-8-12-8-20l0-55c0-7 3-14 8-19 5-5 12-8 19-8l119 0 0-119c0-8 3-14 8-19 5-6 12-8 20-8l54 0c8 0 15 2 20 8 5 5 8 11 8 19l0 119 119 0c7 0 14 3 19 8 5 5 8 12 8 19z"/>
  </symbol>
  <symbol id="icon-ambulance" viewBox="0 0 512 512">
    <path d="m171 393c0-10-4-18-10-25-7-6-15-10-24-10-10 0-18 4-25 10-6 7-10 15-10 25 0 9 4 17 10 24 7 6 15 10 25 10 9 0 17-4 24-10 6-7 10-15 10-24z m-103-137l103 0l0-68l-42 0c-3 0-5 1-6 2l-52 52c-2 2-2 4-3 6z m342 137c0-10-4-18-10-25-7-6-15-10-25-10-10 0-19 4-26 10-6 7-10 15-10 25 0 9 4 17 11 24 6 6 15 10 25 10 9 0 18-4 25-10 6-7 10-15 10-24z m34-180l0-51c0-2-1-4-3-6-1-2-3-2-6-2l-60 0l0-60c0-3 0-5-2-6-2-2-4-3-6-3l-51 0c-3 0-5 1-6 3-2 1-3 3-3 6l0 60l-60 0c-2 0-4 0-6 2-1 2-2 4-2 6l0 51c0 3 1 5 2 6 2 2 4 3 6 3l60 0l0 60c0 2 1 4 3 6 1 1 3 2 6 2l51 0c2 0 4-1 6-2 2-2 2-4 2-6l0-60l60 0c3 0 5-1 6-3c2-1 3-3 3-6z m68-145l0 307c0 5-2 9-5 12c-3 4-7 6-12 6l-51 0c0 18-7 34-20 48c-14 13-30 20-49 20c-18 0-34-7-48-20c-13-14-20-32-20-48l-102 0c0 18-7 34-20 48c-14 13-30 20-48 20c-19 0-35-7-49-20c-13-14-20-32-20-48l-37 0c-5 0-9-2-13-5c-3-4-5-8-5-13c0-4 2-8 5-12c4-3 8-5 13-5l0-111c0-4 1-9 4-15c2-6 5-10 8-14l53-52c3-4 8-7 14-9c5-2 10-3 15-3l43 0l0-86c0-4 1-8 5-12c3-3 7-5 12-5l307 0c5 0 9 2 12 5c3 4 5 8 5 12z"/>
  </symbol>
  <symbol id="icon-ambulance-2" viewBox="0 0 512 512">
    <path d="m165 402c0-10-4-18-11-26-7-7-16-10-26-10-10 0-19 3-26 10-7 8-11 16-11 26 0 10 4 19 11 26 7 7 16 11 26 11 10 0 19-4 26-11 7-7 11-16 11-26z m-110-146l110 0 0-73-46 0c-2 0-4 1-6 2l-56 56c-1 2-2 5-2 6z m366 146c0-10-4-18-11-26-7-7-16-10-26-10-10 0-19 3-26 10-7 8-11 16-11 26 0 10 4 19 11 26 7 7 16 11 26 11 10 0 19-4 26-11 7-7 11-16 11-26z m36-192l0-55c0-2-1-4-2-6-2-2-4-3-7-3l-64 0 0-64c0-2-1-5-3-6-1-2-3-3-6-3l-55 0c-3 0-5 1-7 3-1 1-2 4-2 6l0 64-64 0c-3 0-5 1-7 3-1 2-2 4-2 6l0 55c0 3 1 5 2 7 2 2 4 2 7 2l64 0 0 64c0 3 1 5 2 7 2 2 4 3 7 3l55 0c3 0 5-1 6-3 2-2 3-4 3-7l0-64 64 0c3 0 5 0 7-2 1-2 2-4 2-7z m73-155l0 329c0 5-2 9-5 13-4 3-8 5-13 5l-55 0c0 20-7 38-21 52-15 14-32 21-52 21-20 0-37-7-52-21-14-14-21-32-21-52l-110 0c0 20-7 38-21 52-15 14-32 21-52 21-20 0-37-7-52-21-14-14-21-32-21-52l-37 0c-5 0-9-2-13-5-3-4-5-8-5-13 0-5 2-9 5-13 4-3 8-5 13-5l0-119c0-5 2-11 4-17 2-6 6-11 9-14l57-57c3-3 8-7 14-9 6-2 12-4 17-4l46 0 0-91c0-5 1-9 5-13 4-4 8-5 13-5l329 0c5 0 9 1 13 5 3 4 5 8 5 13z"/>
  </symbol>
  <symbol id="icon-calendar" viewBox="0 0 512 512">
    <path d="m55 475l82 0 0-82-82 0z m100 0l92 0 0-82-92 0z m-100-100l82 0 0-92-82 0z m100 0l92 0 0-92-92 0z m-100-110l82 0 0-82-82 0z m210 210l92 0 0-82-92 0z m-110-210l92 0 0-82-92 0z m220 210l82 0 0-82-82 0z m-110-100l92 0 0-92-92 0z m-100-247l0-82c0-3-1-5-3-7-2-2-4-2-7-2l-18 0c-2 0-4 0-6 2-2 2-3 4-3 7l0 82c0 2 1 5 3 6 2 2 4 3 6 3l18 0c3 0 5-1 7-3 2-1 3-4 3-6z m210 247l82 0 0-92-82 0z m-110-110l92 0 0-82-92 0z m110 0l82 0 0-82-82 0z m9-137l0-82c0-3-1-5-3-7-2-2-4-2-7-2l-18 0c-3 0-5 1-6 3-2 1-3 3-3 6l0 82c0 2 1 5 3 6 2 2 4 3 6 3l18 0c2 0 4-1 6-3 2-1 3-4 3-6z m110-18l0 365c0 10-4 19-11 26-7 7-16 11-26 11l-402 0c-10 0-19-4-26-11-7-7-11-16-11-26l0-365c0-10 4-19 11-26 7-7 16-11 26-11l36 0 0-27c0-13 5-24 14-33 9-9 20-13 32-13l18 0c13 0 24 4 33 13 9 9 13 20 13 33l0 27 110 0 0-27c0-13 4-24 13-33 9-9 20-13 33-13l18 0c12 0 23 4 32 13 9 9 14 20 14 33l0 27 36 0c10 0 19 4 26 11 7 7 11 16 11 26z"/>
  </symbol>
  <symbol id="icon-line-chart" viewBox="0 0 512 512">
    <path d="m549 439l0 36-586 0 0-438 37 0 0 402z m-37-357l0 125c0 4-2 6-6 8-3 2-7 1-10-2l-34-35-181 181c-2 2-4 3-7 3-2 0-4-1-6-3l-67-66-119 118-55-54 168-168c1-1 4-2 6-2 3 0 5 1 7 2l66 67 133-133-35-34c-3-3-3-7-2-10 2-4 5-6 9-6l124 0c3 0 5 1 6 3 2 1 3 4 3 6z"/>
  </symbol>
  <symbol id="icon-standings" viewBox="0 0 512 512">
    <path d="m109 463c0 15-5 27-16 36-10 9-23 13-38 13-21 0-37-6-50-19l17-25c9 9 19 13 30 13 6 0 10-2 14-4 5-3 7-7 7-12 0-13-10-18-30-16l-8-16c2-2 5-6 9-13 5-6 9-11 13-15 3-4 7-8 10-11l0-1c-3 0-8 1-14 1-6 0-11 0-14 0l0 15-30 0 0-43 95 0 0 25-27 33c10 2 18 7 23 14 6 7 9 15 9 25z m0-179l0 45-103 0c-1-7-2-12-2-15 0-10 3-19 7-27 4-8 10-14 16-19 6-5 13-10 19-14 6-4 12-8 16-12 5-4 7-9 7-13 0-5-2-9-4-11-3-3-7-4-12-4-8 0-16 6-23 17l-24-17c5-10 11-18 20-23 9-5 20-8 31-8 13 0 25 4 35 12 9 8 14 18 14 32 0 9-3 18-10 26-6 8-13 14-21 18-8 5-15 10-22 15-6 5-10 10-10 15l36 0 0-17z m403 91l0 55c0 2-1 4-3 6-2 2-4 3-6 3l-348 0c-2 0-4-1-6-3-2-2-3-4-3-6l0-55c0-3 1-5 3-7 2-1 4-2 6-2l348 0c2 0 4 1 6 2 2 2 3 4 3 7z m-402-257l0 28-96 0 0-28 31 0c0-8 0-19-1-35 0-15 0-27 0-34l0-4 0 0c-2 3-7 9-15 16l-20-22 39-36 30 0 0 115z m402 111l0 54c0 3-1 5-3 7-2 2-4 3-6 3l-348 0c-2 0-4-1-6-3-2-2-3-4-3-7l0-54c0-3 1-5 3-7 2-2 4-3 6-3l348 0c2 0 4 1 6 3 2 2 3 4 3 7z m0-147l0 55c0 3-1 5-3 7-2 2-4 2-7 2l-348 0c-2 0-4-1-6-2-2-2-3-4-3-7l0-55c0-2 1-4 3-6 2-2 4-3 6-3l348 0c2 0 4 1 6 3 2 2 3 4 3 6z m0-147l0 55c0 3-1 5-3 7-1 1-3 2-6 2l-348 0c-2 0-4-1-6-2-2-2-3-4-3-7l0-55c0-2 1-4 3-6 2-2 4-3 6-3l348 0c2 0 4 1 6 3 2 2 3 4 3 6z"/>
  </symbol>
  <symbol id="icon-paypal" viewBox="0 0 512 512">
    <path d="m471 185c3 16 3 35-2 58-16 84-70 127-161 127l-13 0c-4 0-9 1-12 4-4 4-6 8-7 13l-1 5-16 99 0 4c-1 5-4 9-7 12-4 3-8 5-13 5l-72 0c-4 0-7-1-9-4-3-3-3-7-3-11 2-10 4-26 8-48 3-21 6-37 7-48 2-10 5-26 8-47 3-22 6-38 8-48 1-7 5-11 12-11l37 0c26 1 48-1 68-6 33-7 61-21 82-41 19-18 34-42 44-70 5-14 8-26 10-38 0-1 1-2 1-2 0-1 0-1 1-1 0 0 1 1 2 1 15 12 24 27 28 47z m-50-81c0 20-4 43-13 67-15 45-44 75-86 90-22 8-46 12-72 12 0 1-9 1-26 1l-25-1c-19 0-31 10-34 28-1 1-9 52-24 151-1 2-2 3-4 3l-84 0c-4 0-8-1-11-5-2-3-3-6-3-11l66-420c1-5 4-10 8-14 5-3 9-5 15-5l171 0c6 0 16 1 28 4 12 2 22 5 32 9 20 8 36 19 46 35 11 16 16 34 16 56z"/>
  </symbol>
  <symbol id="icon-user-secret" viewBox="0 0 512 512">
    <path d="m201 439l28-128-28-37-36-18z m73 0l37-183-37 18-27 37z m46-289c0 0-1-1-1-1-2-2-11-3-28-3-13 0-29 2-47 6-2 0-4 0-6 0-3 0-5 0-6 0-19-4-35-6-48-6-16 0-26 1-27 3-1 0-1 1-2 1 1 4 1 6 2 8 0 1 1 1 2 2 1 1 1 2 2 3 0 1 1 3 2 6 1 3 2 5 2 6 0 0 1 2 2 4 1 3 2 5 3 5 0 1 1 2 2 4 1 2 3 3 4 4 1 1 2 2 4 3 1 1 3 2 5 2 1 1 3 1 5 1 3 1 5 1 7 1 7 0 13-1 17-4 5-2 8-5 10-8 1-4 3-7 4-10 1-3 2-6 3-9 1-2 3-3 5-3l3 0c3 0 4 1 5 3 2 3 3 6 4 9 1 3 2 6 4 10 2 3 5 6 9 8 5 3 10 4 17 4 2 0 5 0 7-1 2 0 4 0 6-1 2 0 3-1 5-2 1-1 3-2 4-3 1-1 2-2 3-4 2-2 2-3 3-4 0 0 1-2 2-5 1-2 2-4 2-4 1-1 1-3 2-6 1-3 2-5 3-6 0-1 1-2 2-3 1-1 1-1 2-2 0-2 1-4 1-8z m119 251c0 23-7 42-21 55-14 13-32 19-55 19l-250 0c-23 0-42-6-56-19-13-13-20-32-20-55 0-11 0-22 1-33 1-11 3-23 5-36 3-13 7-25 11-35 4-11 10-21 18-30 8-9 17-16 27-21l-26-63 61 0c-4-12-6-25-6-37 0-2 0-5 1-9-37-7-56-17-56-27 0-11 20-21 60-29 3-11 8-24 15-38 6-14 13-24 20-32 6-7 13-11 22-11 5 0 13 3 24 9 10 6 18 9 24 9 5 0 13-3 24-9 10-6 18-9 24-9 8 0 15 4 21 11 7 8 14 18 21 32 6 14 11 27 14 38 40 8 60 18 60 29 0 10-18 20-55 27 1 16-1 31-6 46l61 0-23 64c12 6 22 16 31 28 8 12 14 25 18 41 4 15 7 29 9 43 1 14 2 28 2 42z"/>
  </symbol>
  <symbol id="icon-wrench" viewBox="0 0 512 512">
    <path d="m128 421c0-5-2-10-5-13-4-4-8-6-13-6-5 0-10 2-13 6-4 3-6 8-6 13 0 5 2 9 6 12 3 4 8 6 13 6 5 0 9-2 13-6 3-3 5-7 5-12z m184-120l-195 194c-7 7-15 11-26 11-9 0-18-4-26-11l-30-30c-7-7-11-16-11-26 0-10 4-19 11-26l195-195c7 19 18 35 32 50 15 14 31 25 50 33z m181-125c0 8-2 18-6 31-9 25-25 46-47 62-23 16-47 24-74 24-36 0-66-13-91-38-25-25-37-55-37-90 0-36 12-66 37-91 25-25 55-37 91-37 11 0 22 1 34 4 13 3 23 8 31 14 3 2 5 4 5 8 0 3-2 5-5 8l-84 48 0 64 56 30c1 0 8-5 22-13 14-9 27-17 39-24 12-6 18-10 20-10 3 0 5 1 7 3 1 2 2 4 2 7z"/>
  </symbol>
  <symbol id="icon-beer" viewBox="0 0 512 512">
    <path d="m448 128c-15 0-96 0-96 0l0-64c0-35-79-64-176-64-97 0-176 29-176 64l0 384c0 36 79 64 176 64 97 0 176-28 176-64l0-64c0 0 80 0 96 0 16 0 32-15 32-32 0-17 0-175 0-192 0-17-14-32-32-32z m-352 288l-32 0 0-256 32 0z m96 32l-32 0 0-256 32 0z m96-32l-32 0 0-256 32 0z m-112-320c-62 0-112-14-112-32 0-17 50-32 112-32 62 0 112 15 112 32 0 18-50 32-112 32z m240 224l-64 0 0-128 64 0z"/>
  </symbol>
  <symbol id="icon-file-text" viewBox="0 0 512 512">
    <path d="m456 136c3 3 5 6 8 10l-135 0 0-135c4 3 8 6 10 8z m-136 47l155 0 0 302c0 7-2 14-8 19-5 5-11 8-19 8l-384 0c-8 0-14-3-19-8-6-5-8-12-8-19l0-458c0-7 2-14 8-19 5-5 11-8 19-8l229 0 0 155c0 8 2 15 8 20 5 5 11 8 19 8z m46 210l0-18c0-3-1-5-3-7-2-1-4-2-6-2l-202 0c-2 0-4 1-6 2-2 2-3 4-3 7l0 18c0 3 1 5 3 7 2 1 4 2 6 2l202 0c2 0 4-1 6-2 2-2 3-4 3-7z m0-73l0-18c0-3-1-5-3-7-2-2-4-2-7-2l-202 0c-2 0-4 0-6 2-2 2-3 4-3 7l0 18c0 3 1 5 3 6 2 2 4 3 6 3l202 0c2 0 4-1 6-2 2-2 3-4 3-7z m0-73l0-18c0-3-1-5-3-7-2-2-4-3-6-3l-202 0c-2 0-4 1-6 3-2 2-3 4-3 7l0 18c0 3 1 5 3 6 2 2 4 3 6 3l202 0c2 0 4-1 6-3 2-1 3-3 3-6z"/>
  </symbol>
  <symbol id="icon-users" viewBox="0 0 512 512">
    <path d="m151 256c-31 1-56 13-76 37l-38 0c-15 0-29-4-39-12-11-8-16-19-16-34 0-67 12-101 35-101 1 0 5 2 13 6 7 4 16 8 27 12 12 5 23 7 34 7 13 0 26-3 38-7-1 7-1 13-1 19 0 26 8 51 23 73z m306 182c0 23-7 41-21 54-14 13-32 20-55 20l-250 0c-23 0-41-7-55-20-14-13-21-31-21-54 0-10 0-20 1-30 1-9 2-20 4-31 2-11 4-21 7-31 3-9 8-19 13-28 5-9 11-16 17-23 7-6 15-11 25-15 9-4 20-6 32-6 2 0 6 2 12 6 6 5 13 9 21 14 7 5 18 10 30 14 13 4 26 6 39 6 13 0 26-2 39-6 12-4 23-9 30-14 8-5 15-9 21-14 6-4 10-6 12-6 12 0 23 2 32 6 10 4 18 9 25 15 6 7 12 14 17 23 5 9 10 19 13 28 3 10 5 20 7 31 2 11 3 22 4 31 1 10 1 20 1 30z m-292-365c0 20-8 38-22 52-14 14-31 21-52 21-20 0-37-7-51-21-15-14-22-32-22-52 0-20 7-37 22-52 14-14 31-21 51-21 21 0 38 7 52 21 14 15 22 32 22 52z m201 110c0 30-11 56-32 77-22 22-48 33-78 33-30 0-56-11-78-33-21-21-32-47-32-77 0-30 11-56 32-78 22-21 48-32 78-32 30 0 56 11 78 32 21 22 32 48 32 78z m164 64c0 15-5 26-16 34-10 8-24 12-39 12l-38 0c-20-24-45-36-76-37 15-22 23-47 23-73 0-6 0-12-1-19 12 4 25 7 38 7 11 0 22-2 34-7 11-4 20-8 27-12 8-4 12-6 13-6 23 0 35 34 35 101z m-36-174c0 20-7 38-22 52-14 14-31 21-51 21-21 0-38-7-52-21-14-14-22-32-22-52 0-20 8-37 22-52 14-14 31-21 52-21 20 0 37 7 51 21 15 15 22 32 22 52z"/>
  </symbol>
  <symbol id="icon-user" viewBox="0 0 512 512">
    <path d="m457 401c0 23-7 41-21 55-14 13-32 19-55 19l-250 0c-23 0-41-6-55-19-14-14-21-32-21-55 0-10 0-20 1-29 1-10 2-20 4-31 2-11 4-22 7-31 3-10 8-19 13-28 5-9 11-17 17-23 7-7 15-12 25-16 9-3 20-5 32-5 1 0 5 2 12 6 6 4 13 9 21 14 8 5 18 9 31 13 13 4 25 6 38 6 13 0 25-2 38-6 13-4 23-8 31-13 8-5 15-10 21-14 7-4 11-6 12-6 12 0 23 2 32 5 10 4 18 9 25 16 6 6 12 14 17 23 5 9 10 18 13 28 3 9 5 20 7 31 2 11 3 21 4 31 1 9 1 19 1 29z m-91-255c0 31-11 56-32 78-22 21-48 32-78 32-30 0-56-11-78-32-21-22-32-47-32-78 0-30 11-56 32-77 22-22 48-32 78-32 30 0 56 10 78 32 21 21 32 47 32 77z"/>
  </symbol>
  <symbol id="icon-user-plus" viewBox="0 0 512 512">
    <path d="m165 256c-31 0-57-11-78-32-21-22-32-47-32-78 0-30 11-56 32-77 21-22 47-32 78-32 30 0 56 10 77 32 22 21 32 47 32 77 0 31-10 56-32 78-21 21-47 32-77 32z m274 37l100 0c3 0 5 0 7 2 2 2 3 4 3 7l0 55c0 2-1 4-3 6-2 2-4 3-7 3l-100 0 0 100c0 3-1 5-3 7-2 2-4 2-6 2l-55 0c-3 0-5 0-7-2-1-2-2-4-2-7l0-100-101 0c-2 0-4-1-6-3-2-2-3-4-3-6l0-55c0-3 1-5 3-7 2-2 4-2 6-2l101 0 0-101c0-2 1-5 2-6 2-2 4-3 7-3l55 0c2 0 4 1 6 3 2 1 3 4 3 6z m-210 64c0 9 3 18 10 25 8 8 16 11 26 11l73 0 0 68c-13 10-29 14-49 14l-249 0c-23 0-42-6-56-19-14-13-21-32-21-55 0-10 1-20 1-29 1-10 2-20 4-31 2-11 5-22 8-31 3-10 7-19 12-28 5-9 11-17 18-23 7-7 15-12 24-16 10-3 21-5 32-5 4 0 8 1 11 5 15 11 30 20 45 26 14 6 30 8 47 8 17 0 32-2 47-8 14-6 29-15 44-26 4-4 7-5 11-5 25 0 46 9 62 27l-64 0c-10 0-18 4-26 11-7 7-10 16-10 26z"/>
  </symbol>
  <symbol id="icon-user-times" viewBox="0 0 512 512">
    <path d="m165 256c-31 0-57-11-78-32-21-22-32-47-32-78 0-30 11-56 32-77 21-22 47-32 78-32 30 0 56 10 77 32 22 21 32 47 32 77 0 31-10 56-32 78-21 21-47 32-77 32z m307 91l71 72c2 1 3 3 3 6 0 3-1 5-3 6l-38 39c-2 2-4 3-7 3-2 0-5-1-6-3l-71-71-72 71c-1 2-3 3-6 3-2 0-4-1-6-3l-39-39c-2-1-3-3-3-6 0-3 1-5 3-6l71-72-71-71c-2-1-3-4-3-6 0-3 1-5 3-7l39-38c1-2 3-3 6-3 3 0 5 1 6 3l72 71 71-71c1-2 4-3 6-3 3 0 5 1 7 3l38 38c2 2 3 4 3 7 0 2-1 5-3 6z m-142 0l-52 52c-7 7-10 16-10 26 0 10 3 19 10 26l24 24c-4 0-8 0-13 0l-249 0c-23 0-42-6-56-19-14-13-21-32-21-55 0-10 1-20 1-29 1-10 2-20 4-31 2-11 4-22 7-31 3-10 8-19 13-28 5-9 11-16 17-23 7-7 15-11 25-15 9-4 20-6 32-6 1 0 5 2 12 6 6 4 13 9 21 14 8 5 18 9 31 13 13 4 25 6 38 6 13 0 25-2 38-6 13-4 23-8 31-13 8-5 15-10 21-14 7-4 11-6 12-6 12 0 23 2 32 5 10 4 18 9 25 16 6 6 12 14 17 23 5 9 10 18 13 28 3 9 5 20 7 31 2 11 3 21 4 31 1 9 1 19 1 29z"/>
  </symbol>
  <symbol id="icon-commenting" viewBox="0 0 512 512">
    <path d="m183 256c0-10-4-19-11-26-7-7-16-11-26-11-10 0-18 4-26 11-7 7-10 16-10 26 0 10 3 19 10 26 8 7 16 11 26 11 10 0 19-4 26-11 7-7 11-16 11-26z m110 0c0-10-4-19-11-26-7-7-16-11-26-11-10 0-19 4-26 11-7 7-11 16-11 26 0 10 4 19 11 26 7 7 16 11 26 11 10 0 19-4 26-11 7-7 11-16 11-26z m109 0c0-10-3-19-10-26-8-7-16-11-26-11-10 0-19 4-26 11-7 7-11 16-11 26 0 10 4 19 11 26 7 7 16 11 26 11 10 0 18-4 26-11 7-7 10-16 10-26z m110 0c0 33-11 64-34 92-23 28-54 50-93 66-40 17-83 25-129 25-21 0-41-2-60-5-33 33-75 54-125 65-9 2-18 3-24 4-2 0-5-1-6-2-2-1-4-3-4-5-1-3 1-6 6-11 1-1 3-3 6-6 4-3 6-5 8-6 1-2 3-4 6-8 3-3 6-6 7-9 2-2 4-6 6-10 2-5 4-9 6-14 1-5 2-10 4-16 1-7 2-14 3-21-27-17-49-38-65-62-16-24-24-50-24-77 0-33 11-64 34-92 23-28 54-50 93-66 40-17 83-25 129-25 46 0 89 8 129 25 39 16 70 38 93 66 23 28 34 59 34 92z"/>
  </symbol>
  <symbol id="icon-comments" viewBox="0 0 512 512">
    <path d="m402 219c0 27-9 51-27 74-17 22-42 40-73 53-31 13-64 20-101 20-16 0-33-2-50-5-24 17-50 29-80 37-6 1-15 3-24 4l-1 0c-2 0-4 0-6-2-2-2-3-4-3-6 0-1 0-1 0-2 0-1 0-1-1-2 0 0 1-1 1-1l1-2 1-1 1-2 1-1 1-2c1-1 3-3 7-7 3-3 6-6 7-8 2-2 4-5 7-8 2-4 5-8 7-11 2-4 4-8 6-13-24-14-42-31-56-51-14-20-20-41-20-64 0-26 9-51 27-73 17-22 42-40 73-53 31-13 64-20 101-20 36 0 70 7 101 20 31 13 55 31 73 53 18 22 27 47 27 73z m110 74c0 22-7 44-20 64-14 20-32 36-56 50 2 5 4 9 6 13 2 4 4 7 7 11 3 3 5 6 6 8 2 2 4 5 8 8 3 4 5 6 6 8 1 0 1 0 2 1 0 1 1 1 1 1 0 1 1 1 1 2 0 0 1 1 1 1l1 2 0 2 1 0 0 0 1 0 1 0 0 1 0 1c0 0 0 0 0 0 1 0 1 0 1 1 0 0-1 1-1 1 0 0 0 1 0 1l-1 1c0 0 0 1 0 1l-1 1c0 1 1 2 1 3l0 2-1 0c0 0 0 1 0 1l0 0c2 1 4 1 6 3 1 0 1 1 2 2 0 1 0 2 0 2 0 1 0 1 0 1l-1 2 1 0c0 1 0 2 0 2 0 1 0 1 0 2 0 0 0 1 1 1l-1 1c0 1 1 1 1 1 0 0 0 1 1 1l-1 1 0 0c0 1 1 1 1 2l0 1-1 0 1 0 0 0 1 1 0 1 0 0c0 0 0 1 0 1z"/>
  </symbol>
  <symbol id="icon-user-md" viewBox="0 0 512 512">
    <path d="m165 384c0 5-2 9-6 13-3 3-8 5-13 5-5 0-9-2-13-5-3-4-5-8-5-13 0-5 2-9 5-13 4-3 8-5 13-5 5 0 10 2 13 5 4 4 6 8 6 13z m292 17c0 23-7 42-21 55-14 13-32 19-55 19l-250 0c-23 0-41-6-55-19-14-13-21-32-21-55 0-13 0-25 1-37 1-12 4-25 7-39 4-15 8-27 14-38 5-11 13-21 23-30 10-8 21-14 34-17-4 10-6 21-6 34l0 58c-11 4-20 11-27 20-6 10-10 20-10 32 0 15 6 28 16 39 11 11 24 16 39 16 16 0 28-5 39-16 11-11 16-24 16-39 0-12-3-22-10-32-7-9-16-16-26-20l0-58c0-12 2-20 7-26 25 20 53 29 84 29 31 0 59-9 84-29 5 6 7 14 7 26l0 19c-20 0-37 7-51 21-15 14-22 32-22 52l0 25c-6 6-9 12-9 20 0 8 3 15 8 20 5 5 12 8 20 8 7 0 14-3 19-8 5-5 8-12 8-20 0-8-3-14-9-20l0-25c0-10 3-19 11-26 7-7 16-11 25-11 10 0 19 4 26 11 7 7 11 16 11 26l0 25c-6 6-9 12-9 20 0 8 3 15 8 20 5 5 12 8 19 8 8 0 14-3 20-8 5-5 8-12 8-20 0-8-3-14-9-20l0-25c0-13-4-25-10-37-7-11-16-20-27-26 0-2 0-6 0-13 0-6 0-10 0-13 0-3 0-7-1-12 0-5-1-10-2-14-1-4-2-7-4-11 13 3 25 9 35 17 10 9 17 19 23 30 5 11 10 23 13 38 4 14 6 27 7 39 1 12 2 24 2 37z m-91-255c0 31-11 56-32 78-22 21-48 32-78 32-30 0-56-11-78-32-21-22-32-47-32-78 0-30 11-56 32-77 22-22 48-32 78-32 30 0 56 10 78 32 21 21 32 47 32 77z"/>
  </symbol>
  <symbol id="icon-helmet" viewBox="0 0 512 512">
    <path d="m311 76c-148-10-178 98-184 130-1 5 2 12 4 15 26 29 64 20 83 52l33-7 1 0 0 0c2 0 3 0 5 0 13 0 24 9 27 22 1 7 0 15-4 21-4 6-9 10-16 11l-2 1-33 7c0 12-2 22-3 28-4 27 30 31 67 39 37 8 46-14 68-30 17-12 47-14 65-18 12-2 17-8 19-10 56-75 36-249-130-261z m35 36c-11-2-21-3-32-3-49 0-92 24-123 69l-1 1c-3 4-8 11-14 15-5 2-19 5-25-7-2-6-1-14 1-19 17-38 56-79 138-79 6 0 12 0 19 1 49 3 89 23 114 56-17-15-42-27-77-34z m-79 179c-2-8-10-13-17-11l-1 0-66 13c-3 0-4 2-3 4l4 21c0 2 2 4 4 3l67-13c8-2 14-9 12-17z m-14 10c-4 0-8-3-8-7 0-4 4-7 8-7 4 0 7 3 7 7 0 4-3 7-7 7z m-55 32c-1 1-3 1-4 2-10 6-20 10-30 13-8 2-14 3-19 4 0-13 0-27 1-40 0-21 1-39 1-49l7 2c5 2 10 4 15 6 5 3 10 6 14 8 0 1 0 1 0 1l15-3c0 0-1-1-1-2-2-2-4-4-6-6l0 0c-6-5-13-9-23-13-3-1-6-2-10-3 0 0-6-3-6-3-22-8-34-19-40-28-1-1-4-2-6-2-1 0-3 0-4 1-1 1-3 3-3 4 0 2 0 4 2 6 5 7 15 18 32 26l0 2c0 12 0 38-1 65 0 9 0 19-1 27-18-2-35-9-46-14-8-4-15-7-19-9-2-1-4-2-5-3l-2-1c-1-1-2-1-3-1-3 0-5 1-6 3-1 1-1 3-1 5 1 2 2 3 3 4 1 1 4 2 9 5-3 8-6 16-8 25-1-1-3-1-4-1-2 0-4 1-6 4-1 1-1 3 0 5 0 2 1 3 3 4 0 0 2 1 4 2-2 11-3 23-3 36 0 9 1 17 1 22-2 0-3 0-4 0l-1 0 0 2-1-2 0 0c-4 0-7 2-7 6 0 2 1 4 2 5 1 1 3 2 5 2 0 0 2 0 7 0 11 0 29-1 47-7 10-3 19-7 27-13 7-6 13-13 17-21l0 0c25-1 46-10 58-17 3-1 6-3 6-6 3-13 6-31 7-47 0-3-5-11-13-6z m-83 86c-9 6-21 12-35 14-6 1-12 2-18 3 0-5-1-13-1-22 0-10 1-20 2-28 4 2 9 4 14 6 10 5 20 9 29 11 7 2 13 4 19 4-2 4-6 8-10 12z m14-25c-6 0-12-2-19-4-15-4-30-11-40-15-1-1-3-2-5-3 2-10 5-18 8-26 2 1 4 2 6 3 19 8 36 13 52 16-1 11-1 21-2 29z m63-15c-9 5-27 14-49 15 0-8 1-17 1-29 6 0 14-1 24-4 10-3 19-7 28-12-1 12-3 22-4 30z"></path>
</symbol>
  <symbol id="icon-banknote" viewBox="0 0 512 512">
    <path d="m457 128l0 256c0 13-4 23-13 32-9 9-19 13-32 13l-320 0c-13 0-23-4-32-13-9-9-13-19-13-32l0-256c0-13 4-23 13-32 9-9 19-13 32-13l320 0c13 0 23 4 32 13 9 9 13 19 13 32z m-37 37c0-7-2-12-7-17-5-5-10-7-17-7l-247 0c-7 0-12 2-17 7-5 5-7 10-7 17l0 183c0 7 2 12 7 17 5 5 10 7 17 7l247 0c7 0 12-2 17-7 5-5 7-10 7-17z m-165 91c0 31-11 56-32 77-21 22-47 33-78 33-30 0-56-11-77-33-21-21-32-46-32-77 0-30 11-56 32-77 21-21 47-32 77-32 31 0 57 11 78 32 21 21 32 47 32 77z m-91 0c0-15-5-27-16-37-11-11-23-16-37-16-15 0-27 5-37 16-11 10-16 22-16 37 0 14 5 27 16 37 10 10 22 16 37 16 14 0 26-6 37-16 11-10 16-23 16-37z"/>
  </symbol>
  <symbol id="icon-submit" viewBox="0 0 512 512">
    <path d="m475 165l0 201c0 8-3 14-8 20-5 5-12 8-19 8l-383 0c-8 0-14-3-19-8-5-6-8-12-8-20l0-201c0-8 3-14 8-19 5-5 11-8 19-8l383 0c7 0 14 3 19 8 5 5 8 11 8 19z m-55 18l-164 128-164-128z m18 165l0-127 110-85-110 212z m-329 0l110-212-110 85 0 127z m183-91l146-114-292 0z"/>
  </symbol>
  <symbol id="icon-numberone" viewBox="0 0 512 512">
    <path d="m329 439l0 37-182 0 0-37 55 0 0-256-59 0 0-36 104 0 0 292z m128-292c0 7-2 13-7 18l-73 73c-5 5-11 8-18 8-7 0-13-3-18-8l-73-73c-5-5-8-11-8-18 0-7 3-13 8-18l73-73c5-5 11-8 18-8 7 0 13 3 18 8l73 73c5 5 7 11 7 18z"/>
  </symbol>
  <symbol id="icon-scoreboard" viewBox="0 0 512 512">
    <path d="m475 55l0 329c0 7-3 14-8 19-5 5-11 8-19 8l-384 0c-8 0-14-3-19-8-5-5-8-12-8-19l0-329c0-7 3-14 8-19 5-5 11-8 19-8l384 0c8 0 14 3 19 8 5 5 8 12 8 19z m-55 18l-328 0 0 274 328 0z m-274 91l0 55-55 0 0-55z m137 0l0 55-54 0 0-55z m137 0l0 55-55 0 0-55z m-274 91l0 55-55 0 0-55z m137 0l0 55-54 0 0-55z m137 0l0 55-55 0 0-55z m-274-183l0 55-55 0 0-55z m137 0l0 55-54 0 0-55z m137 0l0 55-55 0 0-55z"/>
  </symbol>
  <symbol id="icon-menu" viewBox="0 0 512 512">
    <path d="m475 146l0 55c0 8-3 14-8 19-5 5-11 8-19 8l-384 0c-8 0-14-3-19-8-5-5-8-11-8-19l0-55c0-8 3-14 8-19 5-5 11-8 19-8l384 0c8 0 14 3 19 8 5 5 8 11 8 19z m0-110l0 55c0 8-3 14-8 19-5 5-11 8-19 8l-384 0c-8 0-14-3-19-8-5-5-8-11-8-19l0-55c0-8 3-14 8-19 5-5 11-8 19-8l384 0c8 0 14 3 19 8 5 5 8 11 8 19z m0 220l0 55c0 8-3 14-8 19-5 5-11 8-19 8l-384 0c-8 0-14-3-19-8-5-5-8-11-8-19l0-55c0-8 3-14 8-19 5-5 11-8 19-8l384 0c8 0 14 3 19 8 5 5 8 11 8 19z"/>
  </symbol>

</svg>
