<?xml version="1.0" encoding="UTF-8"?>
<svg id="Layer_1" data-name="Layer 1" xmlns="http://www.w3.org/2000/svg" viewBox="0 0 369.28 511.2">
  <defs>
    <style>
      .cls-1 {
        fill: #0d0a0a;
      }
    </style>
  </defs>
  <path class="cls-1" d="M364.42,100.12c-4.45-5.18-10.96-8.14-17.79-8.08H22.65c-6.83-.06-13.34,2.9-17.79,8.08-3.89,4.63-5.57,10.73-4.58,16.7l21.72,125.64c2.09,10.65,11.53,18.25,22.38,18.01h19.65v-79.79c.05-18.06,14.68-32.69,32.75-32.75h175.74c18.06.05,32.69,14.68,32.75,32.75v79.79h19.65c10.85.24,20.29-7.36,22.38-18.01l21.72-125.64c.98-5.97-.69-12.07-4.58-16.7Z"/>
  <path class="cls-1" d="M304.71,489.37h-21.29V180.67c-.02-6.02-4.89-10.9-10.92-10.92H96.77c-6.02.02-10.9,4.89-10.92,10.92v308.7h-21.29c-6.03,0-10.92,4.89-10.92,10.92,0,6.03,4.89,10.92,10.92,10.92h0s240.14,0,240.14,0c6.03-.11,10.83-5.08,10.72-11.11-.11-5.88-4.84-10.62-10.72-10.72Z"/>
  <path class="cls-1" d="M30.95,70.21v-1.2l22.7-20.19c14.08,5.66,30.08-1.17,35.74-15.25,1.07-2.66,1.72-5.47,1.92-8.33-2.09-39.02-64.77-30.08-53.27,8.3l-25.32,22.38c-4.19,3.26-3.66,9.67-3.6,14.41,1.09-.4,20.18.06,21.83-.11Z"/>
</svg>