<?xml version="1.0" encoding="UTF-8"?>
<svg id="Layer_1" data-name="Layer 1" xmlns="http://www.w3.org/2000/svg" viewBox="0 0 479.25 479.25">
  <defs>
    <style>
      .cls-1 {
        fill: none;
        stroke: #010101;
        stroke-linecap: round;
        stroke-linejoin: round;
        stroke-width: 20.25px;
      }
    </style>
  </defs>
  <rect class="cls-1" x="10.12" y="320.62" width="153" height="148.5"/>
  <rect class="cls-1" x="163.12" y="266.63" width="153" height="202.5"/>
  <rect class="cls-1" x="316.12" y="374.63" width="153" height="94.5"/>
  <path class="cls-1" d="M310.8,111.89c-6.77,40.95-18.25,58.84-21.56,63.77-8.09,12.02-24.92,37.05-49.2,36.96-24.55-.09-41.35-25.79-49.67-38.52-3.8-5.82-14.19-22.84-21.09-62.21-3.96-22.59-7.67-57.72-2.34-101.77,48.08.07,96.17.13,144.25.2,6.62,44.04,3.31,79.28-.38,101.57Z"/>
  <path class="cls-1" d="M239.69,266.63v-54.01"/>
  <path class="cls-1" d="M164.33,47.76c-16.33.01-32.66.02-48.99.04-.54,1.56-12.37,37.6,7.28,68.18,12.53,19.5,33.12,29.39,53.71,26.2"/>
  <path class="cls-1" d="M314.72,47.76c16.4.01,32.8.02,49.19.04.54,1.56,12.36,37.6-7.28,68.18-12.32,19.18-32.45,29.06-52.7,26.35"/>
  <line class="cls-1" x1="239.67" y1="394.88" x2="239.67" y2="340.87"/>
  <line class="cls-1" x1="230.55" y1="421.88" x2="248.79" y2="421.88"/>
  <line class="cls-1" x1="230.46" y1="313.87" x2="248.79" y2="313.87"/>
</svg>