<?xml version="1.0" encoding="UTF-8"?>
<svg id="Layer_1" data-name="Layer 1" xmlns="http://www.w3.org/2000/svg" viewBox="0 0 388.72 459.9">
  <defs>
    <style>
      .cls-1 {
        fill: #010101;
      }
    </style>
  </defs>
  <path class="cls-1" d="M254.9.48c11.56-1.6,23.8.82,33.5,7.47,11.15,7.72,18.91,20.45,20.01,34.03.93,9.83-.68,20.13-6,28.59-6.87,12.01-19.33,20.52-32.93,22.88-9.02,1.32-18.45.12-26.73-3.73-14.05-6.35-24.4-20.16-26.64-35.4-1.37-10.39.38-21.27,5.62-30.41,6.53-12.46,19.26-21.36,33.16-23.43Z"/>
  <path class="cls-1" d="M194.32,108.23c7.08-8.44,17.13-15.24,28.46-15.49,16.23-.88,32.25,12.67,32.48,29.25.07,25.24.16,50.48-.08,75.72.39.59,1.15,1.77,1.54,2.36,21.39-.12,42.8,0,64.2-.08,3.24.02,6.56-.17,9.75.67,7.07,1.77,12.94,7.71,14.61,14.81,1.87,8.96-3.04,18.63-11.16,22.71-4,2.3-8.73,2.25-13.19,2.18-27.47-.18-54.93-.07-82.41-.12-13.13.86-26.19-10.19-26-23.67-.06-23.04-.82-46.06-1.13-69.1-.13-3.11.62-6.99-2.36-9.08-2.33-2.36-6.64-.06-6.62,3.04-.34,21.43.22,42.86.35,64.29-.04,8.93-.18,18.47,4.45,26.45,5.65,10.47,17.03,17.59,28.98,17.65,32.71-.04,65.43.08,98.14-.13,12.63.74,23.24,11.77,25.38,23.94,1.25,5.6.08,11.34-1.6,16.71-11.44,40.87-23.04,81.7-34.51,122.56-1.52,2.71-.19,7.27,3.45,6.9,13.3-.04,26.6.01,39.91-.1,6-.39,12.21,1.77,16.28,6.29,8.27,8.36,7.11,24.11-3.08,30.42-7.08,4.93-16.02,3.07-24.07,3.49-22.5-.11-44.99.12-67.48-.12-10.23-.3-19.01-8.8-20.57-18.75-1.42-5.72.33-11.49,1.78-16.99,11.01-40.4,21.64-80.93,32.74-121.29,1.02-2.88-2.63-3.24-4.53-3.11-38.82-.07-77.64-.06-116.47-.08-18.08.58-33.61-13.15-40.94-28.75-5.68-12.42-5.83-26.7-2.9-39.85,4.64-21.25,12.02-41.82,20.77-61.71,9.87-21.42,20.51-42.87,35.82-61Z"/>
  <path class="cls-1" d="M46.34,110.77c7.64-.98,16.96-.92,22.27,5.64,4.5,4.82,3.52,11.78,3.54,17.82-.21,3.24.36,7.16-2.42,9.51-2.42,2.61-6.16,2.04-9.33,2.05-6.85-.18-13.7.08-20.53-.08-3.89-.05-6.65-4.12-6.36-7.79.02-5.55-.25-11.16.84-16.64,1.37-5.51,6.51-9.59,12.01-10.5Z"/>
  <path class="cls-1" d="M1.18,161.05c2.3-4.16,7.24-6.25,11.88-5.9,27.5-.02,55.02-.38,82.5.07,7.73.34,12.46,8.87,10,15.91-35.04.17-70.11.24-105.15-.07-.39-3.32-.98-6.96.76-10.01Z"/>
  <path class="cls-1" d="M2.94,179.78c32.03-.62,64.07.05,96.1-.25,2.99-.3,5.64,2.61,4.79,5.59-4.07,36.54-7.9,73.11-11.64,109.68-.46,2.39-2.56,4.86-5.15,4.78-23.02.01-46.06.02-69.08-.1-3.5.33-5.94-3.21-5.82-6.42-3.42-36.02-7.04-72.04-10.99-108.02-.55-2.04.79-3.64,1.78-5.25Z"/>
  <path class="cls-1" d="M36.07,307.9c53.77-.36,107.53-.04,161.3-.13,22.77.06,45.55-.11,68.32.17.85,2.88,2.35,5.59,2.75,8.61-77.68-.27-155.36.08-233.04-.13.23-2.84.4-5.67.67-8.51Z"/>
  <path class="cls-1" d="M41.02,325.53c76.19.01,152.38-.13,228.57.02-2.62,12.13-9.33,22.92-16.68,32.75-11.82,15.32-27.43,27.53-44.81,35.97-8.34,3.98-17.04,7.81-26.37,8.44-3.77.18-5.9,4.5-5.45,7.88,1.39,9.93,6.56,18.71,10.07,27.96,1.85,5.02,4.65,10.16,3.95,15.67-1.2,2.99-4.02,5.79-7.45,5.61-36,.06-72.01.11-108.01,0-3.45.17-7.43-2.07-7.71-5.78-.56-8.93-1.33-18.46,2.79-26.74,3.18-7.67,10.58-12.45,14.02-19.95,2.74-5.77,4.25-12.44,2.76-18.75-1.7-8.33-6.5-15.53-11.66-22.08-11.03-13.93-23.04-27.04-34.02-41Z"/>
</svg>