<svg xmlns="http://www.w3.org/2000/svg" viewBox="0 0 185.29 130.39"><defs><style>.a{fill:#fff;}.b{fill:#f04e23;}</style></defs><title>CIN</title><path class="a" d="M0 89.33l23.9 41.05h110.38c35.62 0 51-18.59 51-38.53 0-13.2-9.38-23.92-18.91-28.76a1 1 0 0 1-.16-1.92c8.36-6.18 14-14.11 14-26.34 0-14.49-10.36-34.82-50.87-34.82H24.91L1.25 41.19h17.4a3.51 3.51 0 0 1 3.5 3.51v41.13a3.51 3.51 0 0 1-3.5 3.5H0"/><path class="b" d="M104.55 56.09H87.38V39.58a3.15 3.15 0 0 1 3.15-3.12h14c8.21 0 11.27 4.19 11.27 9.65 0 5.79-3.06 10-11.27 10m0 38h-14a3.15 3.15 0 0 1-3.15-3.15V74.43h17.17c8.21 0 11.27 4 11.27 9.67 0 5.8-3.06 9.97-11.27 9.97zm48.94-30.07a1.14 1.14 0 0 1-.13-2.19c11.32-4.29 17.93-11.92 17.93-25.36.16-18-15.78-30.42-41.69-30.42H31.41L14.19 36.48h11.86a4.23 4.23 0 0 1 4.23 4.23v49.12a4.23 4.23 0 0 1-4.23 4.24H14.32l17.33 30.28h102.6c29.29 0 41.36-19.46 41.36-33.79.04-12.61-9.25-23.48-22.12-26.56z"/><path d="M64.82 115.75C46.65 81.53 41.83 42.19 48.65 6.04H31.41L14.19 36.48h11.86a4.23 4.23 0 0 1 4.23 4.23v37.68a135.39 135.39 0 0 0 34.54 37.36M150.65 9.42c-20.84 30.9-32.13 70.3-27.07 106.18a134.42 134.42 0 0 1 47.64-78.25v-.89c.18-12.43-7.36-22.18-20.57-27.04zm-34.9-3.38a269.06 269.06 0 0 0-9.58 30.48c-.51 0-1.05-.06-1.61-.06h-14a3.15 3.15 0 0 0-3.15 3.12v16.51h14.73c-1 5.92-1.77 12.06-2.28 18.34H87.38v16.5a3.15 3.15 0 0 0 3.15 3.15h8.59a184.55 184.55 0 0 0 2.87 30.26h-12.8c-10.1-24.38-24-65.64-10.18-118.29h36.74z"/></svg>