<svg xmlns="http://www.w3.org/2000/svg" viewBox="0 0 194.88 149.3"><defs><style>.a{fill:#ee4923;}.a,.b,.c,.d,.e,.f,.g{fill-rule:evenodd;}.b{fill:#2c1b11;}.c{fill:#f7ece6;}.d{fill:#451613;}.e{fill:#631511;}.f{fill:#322417;}.g{fill:#fff;}</style></defs><title>CLE</title><path class="a" d="M83.49 129.8c-1.51 0-1.7-.72-2.42-1.7-2.6-3.51-.25-7 3.25-6.85 5.57.26 4.29 8.55-.83 8.55zm-16.1-4.45v.82c1.17-.66 2.48-1.46 4.17-2.39-.85.18-2.3.87-4.17 1.57zm-17.2 11.6h-1.66a70.41 70.41 0 0 0 9.22 4.38c5.59 2.13 12.85 3.91 19.66 3.09 7.09-.86 12.75-2.19 17.31-5.88 5.19-4.21 7.18-8 8.21-14.67l2.52.4c.76 23.73-30.38 28.86-52.22 17.77a72.13 72.13 0 0 1-8.44-5.18c-11.09-7.38-16.43 0-21.65-1.51-2.08-.62-1.53-1.92-2.88-3.87a104.26 104.26 0 0 1-11.9-22.13c-5.16-12.87-8.59-30-6.25-46.43a69 69 0 0 1 17.44-36.66 70.71 70.71 0 0 1 14.83-12.38c10.78-6.69 17.93-9.9 30.85-9.91A82.68 82.68 0 0 1 77.8 5.02c7.73 1.22 16.06.4 22.19 3.4l28.26 26c-3.1 3.37-.09 12 .49 17-7.65 1.82-23 4.81-29.43 9.77-.92.72-2.67 1.46-3 2.46-3.75 2-9.59 13.65-12.32 17.32a1.84 1.84 0 0 1-.15.18 2.58 2.58 0 0 0-1.65.86 3.92 3.92 0 0 0-.66 3 8.63 8.63 0 0 1-1.2 2.08c-.71 1.09-3.3 5.59-3.86 5.95-1.13.72-1.31-.08-2.61 2.29-1.45 2.64-2.66 4.08-3.78 6-1.77 3 2-.47-5.27 9.85-.63 1.36-2.38 2.9-2.24 4.37s2.08 3 4 2.68a9.85 9.85 0 0 1 1.4-.12l26.54 4.33 6.44 1c-2.22 6.84-2.1 9.26-7.9 13.84-9.66 7.64-24.11 6.65-35.22 2.77a51.35 51.35 0 0 1-7.61-3.21zm10.18-21.91c-3.38.36-5.18.23-7.4-1.29-6.89-4.72-5.31-14.62 1.42-16a9.4 9.4 0 0 1 10.71 6.12c1.16 3.38.41 3.83-1.23 6.1-1.14 1.57-2.65 3.75-3.5 5.11z"/><path class="b" d="M13.27 122.89a70.6 70.6 0 0 0 6.25 9.86c1.14 1.53.36.53.94 2.31l4.86 1.6c-.14.31.12.8-1.28 1.2-1.78.5-4-.18-4.64-2-.8-2.49 1-.39-2.25-5.35l-.69-.86c.12 1.92 1.17 2.57 1.69 4.2.65 2-.19 3 1.56 4.43s4.89 1.29 6.26-.4l1.37-1.58c-1.87 5.09-2.41 1.23-3.48 5.16 2.3 1.21 10.31-1.3 13-2.46a11.94 11.94 0 0 0 3.54-1.87c-3.3-2.18-6.31-1.73-10.45-1.79 2.13 0 3.73-1.06 7.14-.58l5.67 2.24c-3.52 3.14-22 10.45-25.35 2.16-1-2.37.76-1.64-1.1-5.43a41.86 41.86 0 0 1-3.24-9.3c-.29-1.86 0-1.29.16-1.52zM135.6 36.81a60.26 60.26 0 0 0-5.67-8.31 88.58 88.58 0 0 0-6.56-7C99.59-.12 78.44 2.15 61.23 3a96.69 96.69 0 0 1 27.21-1 74.32 74.32 0 0 1 22.78 6.9 70.28 70.28 0 0 1 13.7 8.81l4 3.41c4.89 5 9.72 10.36 12.83 16.75-2.26-1.44-3.7-3-6.1-1.07zm-29.13 87.48l-1-.12c.83 23.8-30.35 29-52.22 17.85a72.13 72.13 0 0 1-8.44-5.18c-11.09-7.38-16.43 0-21.65-1.51-2.08-.62-1.53-1.92-2.88-3.87a104.26 104.26 0 0 1-11.9-22.13c-5.16-12.87-8.59-30-6.25-46.43a69 69 0 0 1 17.44-36.66A70.71 70.71 0 0 1 34.4 13.86c10.78-6.69 17.93-9.9 30.85-9.91A82.68 82.68 0 0 1 77.8 5.02c22.09 3.48 39.77 20.48 48.66 32.84-3.1 3.36 1.71 8.54 2.28 13.62l1.4-.19c-1.24-4.25-2.62-7.86-3.13-12.06-.18-1.53 2.66 9.67 4.45 11.76.27-.45.26.17.24-.58a3.68 3.68 0 0 0-.25-.81c-.18-.47-.36-1-.52-1.4a71 71 0 0 1-2.69-9.19c1.22-.52 2.76 0 4-.6a26.71 26.71 0 0 1 3.4-1.6c-.88 2.87 1.57 6.45 2.61 8.72l3.58 8.32 5 .08c-.15-2.94-3.54-11.52-4.69-14.8l1.59.11 3.33 10.06 4.08.39c-.37-1.36-4-9.35-4.82-11.34-3.09.71-3.37-1.53-5.84-5.37-.76-1.19-1.63-2.43-2.46-3.55-11.35-15.4-28.5-25.62-48.46-28.57a82.81 82.81 0 0 0-60.37 14.85c-2.14 1.53-3.25 2.68-4.94 4a17.09 17.09 0 0 0-1.68 1.36c-5.53 5.68-9.12 9.36-13.13 16.51-14.38 25.64-11 55 1.27 80.5 1.31 2.72 1.16 1.5 1.08 4.84-.12 5 4.17 11.76 4.23 13.58.08 2.34 0 3 1.24 4.69 1.56 2.17 5.1 3.34 9 2.84 7.77-1 11.63-2.73 17.78-6.26 1.18.74 2 1.43 3.1 2.17 12.66 8.48 31.1 12.48 45.06 6.3 7.36-3.25 7.93-5.54 11.48-9.26 4.31-.08 9.17.15 13-.28s7.19-2.35 10.38-3.81l-1.37-2.17c-2.32 1-5.23 2.88-9.1 3.46-4.12.61-7.75.24-11.62.36a22.81 22.81 0 0 0 2.26-7.24 5 5 0 0 0 .07-3z"/><path class="b" d="M132.11 89.15c-3.19-4.46-1.42-17.43 3.94-18.83l-1.25 1.61c-2.64 3.55-3.53 12.7-2.66 17.22zm-1.81-32c-.25 5.71-4.69 3.49-13.28 6a31.19 31.19 0 0 0-11 6.11c-.42.35-.76.5-1.24.84l.62 1.55 2.67-2.09c-.35.57 0 .15-.53.69l-2 1.88 10.12 22c.46-5 6-8 11-5.5 4 2 5.16 7.19 6.77 11.57l2.44-.18c0-1.49-1.08-4.45-1.38-6.41l-.47-7.54c5.55 6.15 8.24 7 15.72 11a22.22 22.22 0 0 0-1.51-4.09c-.83-1.71-5.75-2.11-12.58-11.1-1.43-1.87-1.37-1.6-.61-4.33l4.1-7.87c1 .92 2.43 5.37 3.14 6.94 3 6.5 6.31 14.76 9.09 21.45l3.88-.45c-.11-1.25-5.16-12.68-6.07-14.86l-6.38-15.05a38.33 38.33 0 0 1 2.49-2.92l-18.2-1c3.76-.35 6.29-1.74 6.28-5.57a7.08 7.08 0 0 0 0-.82l-.86-.8c-.26.39-.18-.11-.25.55-.06.51.5 4-2.44 4.92l-6.86 1.22zm15.68 6.35a51.4 51.4 0 0 1 5.82-6.79c2.3.6 5.36.85 6.51-1.49s-.9-5.14-1.75-6.8c-1.91-3.71-4.59-8.11-6.76-11.71l-2.88 1.2a59.23 59.23 0 0 0 2.63 6.06c.39.94 2.12 5.27 2.94 5.9 1.07.54 2.46.32 3.46 1a3 3 0 0 1 .79 3.64l-7.8.66-3 7.91z"/><path class="c" d="M74.21 97.18a32.09 32.09 0 0 0 5.16 3.53c1.83 1.17 3.79 2.28 5.63 3.37 1.62.95 4 2.13 4.64 4.06.87 2.67-1.45 5-3.44 5.3-2.15.36-8.63-4.3-11.63-6-5.48-3.18-5-3.32-.36-10.22zm7.8-.15c2 1.11 4.32 2.74 6.25 4 2.26 1.53 4.93 3.27 3.4 6.21 0-4.07-4.42-5.49-7.26-7.52l-3.08-2.01zm0 2.15c1.95 1.24 7.43 4.47 8.33 6.1a2.48 2.48 0 0 1 .26 2.67c-1.27-2.31-1.41-2.45-3.59-3.7l-9.21-5.54c-1-.63-4.13-2.07-2.2-3.91 3.27 5 2.36 1.77 6.39 4.34zm-5.09-4.47c1.34-2.5 2.39-4 3.8-6.3l1.51-2 2.66 3.1-4.69 7.51zM64.8 111.23c-.08.67-.29.59.2.59 0 .6-.08.05.6.18 1.45-2.44 2.71-4.18 4.29-6.46l3.37 2.4-.19.71.09.45c-1.34 0 .06-.18-.56.54l.12.71a4.32 4.32 0 0 0 1.53-1.8c1.09.27 4 2.17 5.06 2.84 1.67 1 3.47 2.27 5.07 3-.11.7 1.2.37 1.79.29 4.41-1.06 8.26-7.62 6.69-10.87-1.06-2.2-8.12-6.21-10.5-7.74a43.79 43.79 0 0 1 3-5.06l.64-.65c2.45 2.41 7.79 7.75 10.2 9.88 1.18 1 2.67 1.74 3.95 2.81 2.36.88 1.51.4 2.94 4.45l2 5.31-2-8.26a34.37 34.37 0 0 0 6.3 1.73 3 3 0 0 0-.32-.8l-.13.12c-.06 0-.16-.21-.2-.14l-.85-.34a25.42 25.42 0 0 1-10.48-5.31 15.82 15.82 0 0 1-1.68-1.33l-4.29-4.4c-2.34-1.94-6.58-6.66-8.72-9l2.81-2.7a146.35 146.35 0 0 0 10.41 11l.64.68 1-.11v-.42c-.85-.39-8-7.67-8.58-8.53.72-1.17 8.7-13.92 9-14.7l-.53-.2c-1.68 1.26-3.56 4.87-4.76 6.82-.71 1.15-1.47 2.4-2.15 3.57a20.87 20.87 0 0 0-2 3.6 30.49 30.49 0 0 1-3.14-2.86s-.13-.07-.15-.17-.1-.13-.15-.19l8.07-12.49 2.91-3.89.21-.89c-3.75 2-9.59 13.65-12.32 17.32-.78 1-1.84 1-2.29 2.61-.56 2 .59.5-1.37 3.51-.71 1.09-3.3 5.59-3.86 5.95-1.13.72-1.31-.08-2.61 2.29-1.45 2.64-2.66 4.08-3.78 6-1.77 3 2-.47-5.27 9.85z"/><path class="b" d="M60.38 115.03c.86-1.36 2.36-3.54 3.5-5.11 1.64-2.27 2.39-2.73 1.23-6.1a9.4 9.4 0 0 0-10.71-6.11c-6.73 1.43-8.31 11.33-1.42 16 2.22 1.52 4 1.65 7.4 1.29z"/><path class="a" d="M86.16 114.71c.25.31.05.21.56.39 1.12.4 14 2.18 14.24 2.19a107.69 107.69 0 0 0-2.5-11 2 2 0 0 1 .69 1.08l1.57 4.13c.63 2.18 1.11 4 1.61 6.08l2.16.28c-.07-2.31-1.24-5.57-2-7.6-.9-2.42-1.62-4.88-2.39-7.16-1.27-1.07-2.76-1.76-3.95-2.81-2.41-2.13-7.75-7.47-10.2-9.88l-.64.65a43.79 43.79 0 0 0-3 5.06c2.38 1.53 9.44 5.55 10.5 7.74 1.57 3.24-2.29 9.81-6.69 10.87z"/><path class="b" d="M113.63 101.05l4.17.25a41.27 41.27 0 0 0-2.08-4.77c-4.79-11-10.34-23-15.61-33.84-5.42-.47-1.46 6.11-.25 8.6 3.73 7.66 7.8 17.62 11.37 24.8a47.2 47.2 0 0 0 2.4 5zm-12.89-39.52h.12l.29.6c.3.62.6 1.23.9 1.85l.54 1c4.24-2.08 1.79-1.37 7.9-3.72a84.62 84.62 0 0 1 8.93-2.77c6-1.59 12.89-3.06 19.08-4.52 1.43-4.67-5.48-2.35-8.44-1.77-6.19 1.21-26.49 6-29.33 9.27zm82.17 32.08c1.6 1.86 2.55 2.53-.23 4.82l3.32 10.83.09.05a5.09 5.09 0 0 1 3.82 1.6 3.13 3.13 0 0 1 .59 1.28 4.66 4.66 0 0 1 .12.79v.3a3.68 3.68 0 0 1-.47 1.83 3.8 3.8 0 0 1-.78 1c-.12.14-.26.29-.41.42a3.17 3.17 0 0 0-.46.47l2.65 18.12c3.75 1.65 2.08.81 3.73 2.65l-3.38-24.73c-.93-3.74-1.95-7.47-3.12-11-1-3-2-8.39-5.47-8.42zm-70.66 7.28c-2.52-4.93-7.37-16.28-10.27-22.42-2.16 3.41-1.95 11.33-1.34 15.67.36 2.63.21 2.45 1.37 3.27 2.49 1.74 7.15 3.61 10.23 3.48z"/><path class="a" d="M97.64 93.64c.39-3.15-.39-7 .2-10.43.31-1.83 1.47-6.2 2.86-7.54a28.86 28.86 0 0 0-1.15-2.7c-.21-.5-.32-.79-.58-1.34-.4-.85-.28-.83-.93-1.21-.29.78-8.27 13.52-9 14.7.62.86 7.74 8.15 8.58 8.53z"/><path class="b" d="M104.48 117.86l1.81.35 1.19.2.4-.47.27-.28c2.26-2.16 7.09-7.18 6.92-10.35-1 0-2-.12-3-.21a21.65 21.65 0 0 1-4.55-.82c-1.54-.52-3-1-4.4-1.61l2 8.18-2-5.31c-.7-2-.85-2.89-1.1-3.39-.61-.28-1.2-.59-1.78-.92.75 2.24 1.46 4.65 2.34 7 .76 2 1.93 5.29 2 7.6zm53.06-1.93l-1.64-4.12c-2.86-.49-17.18-2.78-18.7-3.31l-.19-2.29-1.36.15-1.22.13c.34 6.78.12 5.9-.84 13l2.79-.3 1-6.59z"/><path class="d" d="M102.97 123.71l-1.41-.18h-.64c-2.22 6.84-2.1 9.26-7.9 13.84-9.66 7.64-24.11 6.65-35.22 2.77a48.79 48.79 0 0 1-7.81-3.33c-1.35-.82-6-3.28-7.4-3.58l.93.82a95.12 95.12 0 0 0 14.28 7.27c5.59 2.13 12.85 3.91 19.66 3.09 7.09-.86 12.75-2.19 17.31-5.88 5.23-4.25 7.22-8.1 8.24-14.86z"/><path class="b" d="M84.04 105.71c4.69.49 4.83 3.79 3.82 5.26a3.67 3.67 0 0 1-3.77 1l-2.71-2.53c-2 0-2.72-.15-3.71-1.42-2.67-3.44 2.81-8.28 6.37-2.35zm-9.83-8.58c-4.68 6.9-5.13 7 .36 10.22 3 1.74 9.47 6.4 11.63 6 2-.33 4.32-2.64 3.44-5.3-.63-1.93-3-3.11-4.64-4.06-1.84-1.09-3.8-2.2-5.63-3.37a32.09 32.09 0 0 1-5.16-3.53z"/><path class="c" d="M19.53 132.71a70.6 70.6 0 0 1-6.25-9.86c-.13.23-.45-.35-.16 1.52a41.86 41.86 0 0 0 3.24 9.3c1.85 3.79.14 3.06 1.1 5.43 3.35 8.29 21.83 1 25.35-2.16l-5.68-2.23c-3.41-.48-5 .59-7.14.58 4.15.06 7.15-.39 10.45 1.79a11.94 11.94 0 0 1-3.54 1.87c-2.73 1.16-10.75 3.67-13 2.46 1.07-3.93 1.61-.08 3.48-5.16l-1.37 1.58c-1.37 1.69-4.56 1.76-6.26.4s-.91-2.4-1.56-4.43c-.52-1.63-1.57-2.28-1.69-4.2l.69.86c3.25 5 1.46 2.86 2.25 5.35.59 1.84 2.86 2.53 4.64 2 1.4-.4 1.14-.89 1.28-1.2l-4.86-1.6c-.58-1.78.2-.78-.94-2.31z"/><path class="a" d="M104.92 70.01c.39-.26.69-.42 1.06-.72a31.19 31.19 0 0 1 11-6.11c8.59-2.5 13-.28 13.28-6-4.11.32-16.88 3.93-21.11 5.79L103 66.05l1.88 4z"/><path class="b" d="M97.51 70.21l.15-.61c-.18-.36-.35-.72-.51-1.1a10.36 10.36 0 0 1-1-3.69c0-.06-.05-.12-.07-.17l-2.91 3.89-8.07 12.49c.05.06.12.08.15.19s.12.14.15.17a30.49 30.49 0 0 0 3.14 2.86 20.87 20.87 0 0 1 2-3.6c.68-1.16 1.44-2.42 2.15-3.57 1.2-1.95 3.08-5.56 4.76-6.82zm87.23 68.03a2.25 2.25 0 0 0-1.94-1.53l4.31 1.29-5.78 2.32-.17 4c4.75-1.23 10.17-1.93 12.61-4.72l-1.47-3.12c-1.07 1-1.57 2.41-3.95 2.8l2.2-2.75-9.35-2.78.19 4zm-22.85-15.53c1.78 3.72 8.82 11 13.13 12.34l-.24-4.45a49.23 49.23 0 0 1-4.86-4.18 22.59 22.59 0 0 1-4-4.73l-3.32.62c-1.44.45-.19 0-.75.41zm-45.82-15.36c.69 2.43 4.84 10.52 5.88 12.93 1.4 0 2.81-.12 4.22-.21l-5.65-12.69h-4.1zm61.03 5.02c.47 1.16.71.81 2.16.48 2.56-.57 6.13-1.91 7.32-.91l-8.78 2.44 1 3.53c5.25-1 11.47-1.2 10.53-5.46-.86-3.94-11.19-.95-12.24-.08zm-14.42 2.93c-1.53-3.37-4.18-8.46-5.09-12.07l-3.9.64 5 12.07 3.95-.64zm-97.1-3.3a16.48 16.48 0 0 0-1.27 1.89c-1.54 2.35.44 3.31 1.76 3.33 2.56 0 4.83-7 7-8.56l.19-.71-3.37-2.4c-1.58 2.27-2.84 4-4.29 6.46zm67.5-73.38l2.89 11.39c4.29-.37 5.26 4.59 1.4 5.75-.9.28-.25-.09-1.33.6 1.28 2.06 4 1 4.55-.9.66-2.29-.64-4.56-1.44-6.26l-.94-2.41-.41-1.08c-.26-.6-.58-1.19-.87-1.78s-.71-1.39-1-2.1a10 10 0 0 1-.93-3.45l-.23-.59a13.71 13.71 0 0 0-1.63.82zM76.92 94.71l3.27 2.34 4.69-7.51-2.66-3.1-1.51 2c-1.41 2.3-2.46 3.8-3.8 6.3zm94.27 1.56l1.4 3.24c2-.29 4.16-.75 6-1.17s5-.68 4.27-3c-.82-2.52-6.59.53-11.71 1z"/><path class="a" d="M72.7 110.36l-1.07 2.2c1.22.57 11.84 2.16 12.74 1.87-1.61-.76-3.4-2-5.07-3-1.09-.66-4-2.57-5.06-2.84a4.32 4.32 0 0 1-1.53 1.8z"/><path class="b" d="M147.71 53.8l7.44.88c1.29-1 1.13-1.49.59-3-2.28-.85-6.08-1-8.89-1.39z"/><path class="c" d="M83.16 108.3l1.15-1.93 3.35 1.8-.16 2.24c-2.12.9-3.88 0-4.34-2.12zm.75 2.3c1.06.76 1.34.2 2.35.94-4.22-.74-3.4-.2-4.68-2.64-2.69.15-4.18-.63-4-3.55 1 .62 4.61 2.71 5.06 3.46l.2.39c.13.24.12.29.26.54a2.4 2.4 0 0 0 .76.86zm-2.71-6.84l2.16 3-2.56 1.23-.13-.86.86-.46-1-.58zm-1.4 3.85a2.37 2.37 0 0 1-1.51-2.31c0-1.43.54-1.55 1.88-1.7-.53 2.23-.26 1.76-.9 2.25zm4.22-1.85c-3.56-5.93-9-1.09-6.37 2.35 1 1.27 1.69 1.42 3.71 1.42l2.71 2.53a3.67 3.67 0 0 0 3.77-1c1-1.47.87-4.78-3.82-5.26z"/><path class="b" d="M90.58 107.95a2.48 2.48 0 0 0-.26-2.67c-.9-1.63-6.38-4.85-8.33-6.1-4-2.57-3.12.66-6.39-4.34-1.93 1.87 1.2 3.28 2.2 3.87l9.19 5.49c2.18 1.25 2.32 1.39 3.59 3.7zm7.06-14.31v.42l1.84 1.39c-.24-3.49-1-5.9-.56-9.87l2.47-8.55-.66-1.36c-1.4 1.34-2.55 5.7-2.86 7.54-.59 3.41.19 7.28-.2 10.43z"/><path class="d" d="M59.24 128.16c5.4.29 6.86-1.41 12.32-4.39-2.56.54-10.64 5.8-19.08 1.59l-5.27-2.91c.3.93-.25.11.53.88a9.13 9.13 0 0 0 .74.61 19.92 19.92 0 0 0 10.75 4.23z"/><path class="c" d="M132.11 89.15c-.86-4.52 0-13.67 2.66-17.22l1.27-1.61c-5.36 1.4-7.13 14.37-3.94 18.83z"/><path class="b" d="M162.46 112.45l1.13 2.7c2.28-.37 4.56-.72 6.85-1.07l-.49-1.55zm-6.28-15.05l8.35-1.2c.33-.35.69-.89 1-1.21-3.72-.13-6.67-.09-10.47-.39z"/><path class="e" d="M86.37 127.47l-.06.49-.65.23c-.86.64-1.12 1.37-2.66 1-1.11-.27-1.06-.85-1.57-1.73l-.57-.19-.08-.65a3.9 3.9 0 0 1 .67-3.49 3.34 3.34 0 0 1 3.23-1.06c2.26.49 3.44 2.5 1.69 5.4zm-2.88 2.33c5.12 0 6.4-8.28.83-8.55-3.5-.16-5.85 3.34-3.25 6.85.73 1 .92 1.69 2.42 1.7z"/><path class="b" d="M50.7 130.16c-.73-.72-.52-.14-1.17-.93.08-.93 2.26-.15 2.37 1.89-1-.32-.53-.32-1.2-1zm-3.22-.94v.07c0 .93.28.75-.52.75l.17.65c.95-1.15 2.15-1.29 3.37 0l.13 3.43c-3 .27-2.52-.87-3.56-1.78 0 1.13.1.27.35 1.25 1.82.76 2 1.5 4.51.61l.18-.22.64-.62c-.55-.21-.46.42-.46-.23a3 3 0 0 0-.75-4c-1.68-1.47-2.83-.61-4 .13zm40.78-28.14c-1.92-1.3-4.28-2.94-6.25-4l-.69.62 3.08 2.11c2.84 2 7.24 3.45 7.26 7.52 1.52-2.94-1.14-4.68-3.4-6.21zm-5.1 7.22c.46 2.08 2.22 3 4.34 2.12l.16-2.24-3.35-1.8zm47.86-68.59l2.78 10.74 1.18-.29c.28-.76-1.12-3.79-1.56-5l-1.26-6.08a2.78 2.78 0 0 0-1.14.65z"/><path class="c" d="M139.67 43.71l1.47 2.59c-.42-.09-.66 0-1.08-1a8.71 8.71 0 0 1-.39-1.63z"/><path class="f" d="M81.59 108.9c1.28 2.44.46 1.9 4.68 2.64-1-.74-1.3-.18-2.35-.94a2.4 2.4 0 0 1-.76-.86c-.15-.25-.13-.3-.26-.54l-.2-.39c-.45-.75-4.09-2.84-5.06-3.46-.22 2.92 1.27 3.71 4 3.55z"/><path class="d" d="M46.92 130.04c.8 0 .56.18.52-.75v-.07c.25-.37 1.53-3.51 4.31-1s1 4.22.93 5l-.64.62-.18.22c1.74-.43 2.41-1.69 2.15-3.56a5.43 5.43 0 0 0-1.74-3.12c-1.27-1.17-5.31-2.17-5.39 2.57z"/><path class="b" d="M84.91 123.5l.94 1.54c-2.79-1.06-1.56-.69-3-.55-1.12.1-.32.05-.73-.15.62-1.14 1.58-.9 2.83-.83zm-4.11 3.11l.08.65.57.19c.09-1.67.63-2.81 2.56-2.57 1.76.22 1.86 1.6 1.66 3.29l.65-.23.06-.49c-.06-.46 1.12-4.08-2.08-4.49s-3.23 3-3.5 3.63z"/><path class="d" d="M100.96 117.3l1.36.28c-.49-2.11-1-3.9-1.61-6.08l-1.57-4.13a2 2 0 0 0-.69-1.08 107.69 107.69 0 0 1 2.5 11z"/><path class="c" d="M80.8 126.61c.28-.6.28-4 3.5-3.63s2 4 2.08 4.49c1.75-2.91.57-4.92-1.69-5.4a3.34 3.34 0 0 0-3.23 1.06 3.9 3.9 0 0 0-.67 3.49z"/><path class="b" d="M82.4 127.11a2.51 2.51 0 0 0 2.55.18c-.28.75-.49 1.16-1.44 1.09s-1-.44-1.11-1.28zm.29 1.52c3.39.57 3-2.53 1.77-3.11-1.94-.88-3.53 1.14-1.77 3.11zm57.54-71.27c3.3.18 3.35-.24 5.78-1.83-1 0-3.92-.35-4.56.27a5.7 5.7 0 0 0-.45.63c-.31.4-.46.49-.78.92z"/><path class="c" d="M47.48 129.22c1.2-.74 2.35-1.6 4-.13a3 3 0 0 1 .75 4c0 .65-.09 0 .46.23.1-.83 1.76-2.56-.93-5s-4.06.59-4.31 1z"/><path class="b" d="M48 130.97c1 .56.22.42 2 1.82l.29.25s-.42.88-1.66-.22a1.91 1.91 0 0 1-.58-1.85zm2.65 2.42c.8-2.38-2.16-4.05-3-2.71-1 1.62 1.51 3.84 3 2.71z"/><path class="c" d="M82.69 128.62c-1.76-2-.17-4 1.77-3.11 1.26.58 1.62 3.68-1.77 3.11zm-1.25-1.16c.51.88.46 1.46 1.57 1.73 1.54.37 1.8-.36 2.66-1 .2-1.69.1-3.07-1.66-3.29-1.93-.24-2.48.89-2.56 2.57z"/><path class="b" d="M80.58 106.08l.96.58-.87.46.14.86 2.55-1.23-2.16-2.99-.62 2.32m50.9 22.81a8.62 8.62 0 0 0 1.91-2.65l-3.11.31a7.12 7.12 0 0 0 1.2 2.34zM79.8 107.61l-.53-1.76c.64-.48.37 0 .9-2.25-1.34.15-1.92.27-1.88 1.7a2.37 2.37 0 0 0 1.51 2.31z"/><path class="c" d="M50.64 133.39c-1.53 1.13-4.08-1.09-3-2.71.87-1.35 3.83.32 3 2.71zm-3.55-2.7l-.05 1.61c1 .91.57 2 3.56 1.78l-.13-3.43c-1.22-1.26-2.42-1.11-3.37 0zm35-6.36c.41.21-.39.25.73.15 1.47-.14.25-.51 3 .55l-.94-1.54c-1.24-.07-2.21-.31-2.83.83z"/><path class="c" d="M49.95 132.79c-1.73-1.39-1-1.26-2-1.82a1.91 1.91 0 0 0 .58 1.85c1.24 1.09 1.64.22 1.66.22zm-.42-3.56c.66.79.44.21 1.17.93s.19.65 1.2 1c-.11-2-2.29-2.83-2.37-1.89zm35.41-1.94a2.51 2.51 0 0 1-2.55-.18c.1.84.18 1.21 1.11 1.28s1.16-.35 1.44-1.09z"/><path class="f" d="M139.67 43.71a8.71 8.71 0 0 0 .39 1.63c.42.95.66.86 1.08 1zm29.76 51.26l.93-.39c-1.52.26-.4 0-.93.39z"/><path class="b" d="M116.45 106.18c11.58.27 25.37-1.72 36.89-3.44l14-2.27 4.68 14.57c-16.79 2.5-33.48 5.93-51.14 6.46-4.27.12-46.35-8-49.47-7.91l-2.46 3.54 25.77 4.2c4.29.71 8.64 1.39 12.87 2.08s8.44 1.52 12.73 2c9.8 1 29.55-2 40.24-3.85 2.47-.43 10.74-2.4 12.58-2l2.66 21.24c-.69.65-.52.62-1.44.87-8.75 2.4-18.68 2.67-27.21.07a35.47 35.47 0 0 1-5.91-2.5c-8.43-4.26-10.67-11-12-12.55h-4.13c2.64 5.26 3 6.9 7.2 11.14 9.87 9.89 30.25 11.74 42.66 7.67 3-1 1.84.25 3.75-.35 4-1.27-.51-24.44-1.24-27.39a97.63 97.63 0 0 0-7.09-19.85c-.44-.89-1.38-3.41-3.91-1.95-.69.41-.74 1-1 1.17l-9 1.53c-8.39 1.31-19.65 2.49-28.08 3.26-11.83 1.08-24.68 1.18-32.42-8.45a146.35 146.35 0 0 1-10.41-11c-2.71-.62-3 .8-2.81 2.7 2.14 2.3 6.38 7 8.72 9l4.29 4.4a15.82 15.82 0 0 0 1.68 1.33 25.42 25.42 0 0 0 10.48 5.31c2.06.81 6.39 1 8.58 1z"/><path class="g" d="M138.07 38.71c.83-.51 2.18.3 3 1.82a4 4 0 0 1 .49 3 4.65 4.65 0 0 1 1.3 1.53c.83 1.51.83 3.16 0 3.68s-2.18-.3-3-1.82a4 4 0 0 1-.49-3 4.56 4.56 0 0 1-1.3-1.53c-.83-1.51-.83-3.16 0-3.68zm.33 1.1c.21-.09.66.46 1 1.26s.49 1.49.29 1.6-.66-.47-1-1.26-.49-1.5-.29-1.6zm2.08 5c.21-.09.66.47 1 1.26s.49 1.5.29 1.6-.66-.47-1-1.26-.49-1.5-.29-1.6z"/></svg>