<svg xmlns="http://www.w3.org/2000/svg" viewBox="0 0 367.03 279.59"><defs><style>.a{fill:#010101;}.b{fill:#fff;}.c{fill:#006db0;}</style></defs><title>DET</title><path class="a" d="M240.3 0c6.48 4.2 12.92 8.51 19.71 12.23 7.28 4.31 15.57 6.33 23.53 8.92 5.45 1.63 10.39 5.33 12.69 10.64a47.2 47.2 0 0 1 8.78 4.7c2.93 2.28 4.65 5.68 6 9.07a107.9 107.9 0 0 1 14.42 7.28c6.33 3.95 11.77 9.16 17 14.39a29.41 29.41 0 0 0-10.53 9.46c-1.55 3.8-2.83 7.79-5.39 11.08a14.8 14.8 0 0 1 18.54.49 23.22 23.22 0 0 1 18.53 7.06 13.17 13.17 0 0 1 2.66 13.37c-1.21 2.59-.32 5.65-1.8 8.16-1.17 2.66-3.61 4.34-5.5 6.43-1.92 3.45-4.8 6.5-8.61 7.79-4.08 1.37-8.43.48-12.46-.53-5.51 1-11.24.9-16.48-1.26q-2.27 3.42-4.69 6.73a33.41 33.41 0 0 0 12.82 6.87c5.26 1.47 11.21 2.62 14.48 7.49 9.91-1.7 19.69 5.58 22.27 15a14.92 14.92 0 0 1-.41 9.34c-1 2.79-3.63 4.58-4.53 7.43a11.91 11.91 0 0 1-9.62 7.66 14.86 14.86 0 0 1-17.35 1.89c-5-.58-10.33-.67-14.65-3.56-2.63-1.59-4.51-4-6.56-6.24-5.26-2.45-11.22-1.88-16.82-2.81-8.46-1.36-17-3.24-24.71-7-5.52 1.76-11.32 2.2-17.06 2.6a24.88 24.88 0 0 0-5.51-8.75c-9.61 5.12-19.12 11.33-30.17 12.63a64.1 64.1 0 0 1-3.25 12.13c-2.26 5.6-7.25 9.71-12.74 12 6.28 2.47 11.46 7.95 12.51 14.75 1 5.06-1.77 10.11-5.79 13a13.05 13.05 0 0 1-9 7.52c-3.85 1.16-8-.43-11.75 1.21-5.88 2.13-12.13 0-17.09-3.33-7.37.48-14.75 1.49-22.14.9a14.59 14.59 0 0 1-11.95-9.05 52.24 52.24 0 0 1-9.72 5.61 122.77 122.77 0 0 0-16.12 9.2c.29 1.09-.32 2.81 1 3.33 4.18 2.08 7.7 5.91 8.37 10.65.37 3.55.17 7.35-1.66 10.52-1.18 2.23-3.49 3.52-4.82 5.63a12.36 12.36 0 0 1-7.19 5.42c-2.56.84-5.32 0-7.88.81a16.63 16.63 0 0 1-12.73-1.17 17.34 17.34 0 0 1-8.66-15.3c.55-7.5.8-15 .81-22.56-2.51-4.29-4.14-9.64-1.86-14.39 2-5.28 7.87-7.55 10.35-12.51 2.2-3.94 2.41-8.56 2.73-13 .27-5.23.88-10.44 1.14-15.67-7.23-2.29-14.39-5.39-20.17-10.4a45.62 45.62 0 0 1-11.75-17.44c-2.67-7.22-3-15.15-6.46-22.1a20 20 0 0 0-6.61-7.57 20.12 20.12 0 0 1-18.4-5.82c-3.54-3-5.47-7.8-9.92-9.68-5.66-2.66-11.93-3.62-18.1-4.27 9.45-9.7 21.74-17.23 35.41-18.69a20.54 20.54 0 0 1 16 4.63 22.41 22.41 0 0 1 6.65 10.41 45.88 45.88 0 0 1 24.75 29c1.51 5.31 2.51 11.06 6.18 15.42s9 6.79 14.41 8c5.72-5.3 10.93-11.79 18.58-14.34 3.46-1.3 7.15-2 10.53-3.54 3-2.08 5.58-4.6 8.41-6.85a11.84 11.84 0 0 0 3.43-4c2.92-5.23 5.86-10.52 10.07-14.85a41.09 41.09 0 0 1-4.24-17.63c1.38.46 2.78.9 4.18 1.32.25-9.46 6.67-17 13.13-23.21a32.77 32.77 0 0 1 4.63-16.08 31.41 31.41 0 0 1-4.12-10.09c5.57-.57 11.18-1.5 16.34-3.73 3-1.26 4.91-4.09 7-6.45 3.87-4.23 8.12-8.29 13.37-10.75a45.9 45.9 0 0 1 21.16-4.27 33.5 33.5 0 0 0-7.58-4.33 49 49 0 0 1 20.37-6.48A43.77 43.77 0 0 1 240.27 0z"/><path class="b" d="M243.83 7.69c6.4 3.75 12.15 8.68 19 11.62 6.1 2.53 12.39 4.55 18.67 6.62 4.81 1.28 9.35 4.65 10.53 9.7 4.15 1.95 9 3.18 11.8 7.14 2 2.2 1.73 6.14 4.82 7.36a94.47 94.47 0 0 1 14.87 7.75 105.42 105.42 0 0 1 11 9.53c-2.5 2.24-5.38 4.16-7.33 6.94-2 4.91-3.71 10.31-8 13.75-1.41 1.24-3.46 1.84-4.34 3.62a35.36 35.36 0 0 1 11.49 2.54c2.51-1.54 4.68-3.88 7.74-4.32 3.3-.77 6.54 1 8.67 3.44 6.3-.59 13.41.68 17.43 6.06 2.49 2.77 2 7-.1 9.83 0 2.08.49 4.4-.68 6.27-.9 1.65-2.63 2.51-4.13 3.49-1.4 2.87-3.12 6-6.26 7.19-3.6 1.46-7.53.23-11-1-3.51.6-7.1 1.31-10.67.77a21.35 21.35 0 0 1-7-3.39c-3.85 4.54-6.88 9.7-10.75 14.23 4.43 3.9 9.17 7.66 14.8 9.67a76.42 76.42 0 0 0 9.77 2.9c3.32.87 5.64 3.63 7 6.62 4.27-.9 9.18-1.44 12.9 1.35 3.47 2.59 7.18 5.85 7.79 10.4a8.83 8.83 0 0 1-4.09 8.82c-.48 2-.89 4.21-2.35 5.81-1.54 1.76-3.94 2.28-6.18 2.34a9 9 0 0 1-8.5 3.75c-3-.29-5.21-3-8.31-2.35-6.3.44-12.8-2.61-15.68-8.38a50.74 50.74 0 0 0-18.19-3.39c-9.24-1.06-18.55-3.38-26.69-8A46.83 46.83 0 0 1 257.8 170a22.22 22.22 0 0 0-8.73-10.07c-5.94 3.26-11.89 6.49-17.91 9.59-5.43 2.77-11.56 3.64-17.54 4.27.51 4.54-.9 9-2.36 13.24a20.36 20.36 0 0 1-3 6 26.13 26.13 0 0 1-5.81 4.13c-4.91 2.77-10.71 3.4-15.53 6.34a55.33 55.33 0 0 0-6.9 5.27c2.67.49 5.58 1.81 8.21.5 2.34-.95 4.63-2.24 7.21-2.38 6.9-.86 13.31 4.8 14.85 11.26.84 3.8-1.86 7.07-5 8.77-.87 2-1.81 4.32-3.91 5.39-3.43 1.79-7.4.83-11.07.78-2.85 1.12-5.92 2.58-9 1.66-3.3-.59-5.85-3.08-9.05-3.82-7 .15-14 1.13-21.07 1.11a9.9 9.9 0 0 1-8-4.42c-2.38-3.21-1.14-7.58.62-10.78s4.64-5.3 6-8.5c-.81-1.72-2.89-2.16-4.37-3.15-4.07 7.11-6.58 15.91-13.94 20.44-8.25 4.84-17.54 8.06-24.79 14.52 0 3.08 0 6.16.22 9.24 3.72.59 7.55 2.58 8.7 6.43.91 4.17.41 9.8-4.06 11.72-1 2.26-2.32 4.71-4.83 5.49-2.52 1-5.27-.42-7.77.65a13 13 0 0 1-8.78.09 11.19 11.19 0 0 1-6.81-10.5c-.07-7.8.54-15.59.7-23.38-.5-3.87-4-7.16-3-11.29 2-6.06 9.27-8.09 11.4-14.05 4.25-10.93 2.33-22.87 4.23-34.22a65.94 65.94 0 0 1-18.52-7.47c-5.72-3.49-9.85-9.07-12.78-15-4.09-8.53-4.16-18.4-8.5-26.82a23.66 23.66 0 0 0-9.83-9.8 15.57 15.57 0 0 1-15.18-2.92c-3.48-2.79-5.61-6.88-9-9.74-4.21-2.65-9.32-3.22-14.15-4 9.77-6.46 20.77-12.82 32.77-11.17 6.67.81 11.05 7.16 11.95 13.43a51.34 51.34 0 0 1 14.36 9.53 42.74 42.74 0 0 1 10.51 19.67c1.75 6.81 4.65 13.72 10 18.47a36.11 36.11 0 0 0 17 6.84 160.77 160.77 0 0 1 12-11.71c5.14-4.4 12.27-4.62 18.15-7.48 3.45-2.82 6.74-5.83 10.22-8.61 2.21-1.66 3.2-4.34 4.65-6.61a107 107 0 0 1 10.38-15.21 19.48 19.48 0 0 1-4-10.71l3.82.33a14.33 14.33 0 0 1 0-10.87c2.67-6.11 7.15-11.25 12.07-15.66a29.16 29.16 0 0 1 5.54-18.22 25.07 25.07 0 0 1-3.66-7c5.06-.81 10.38-1.41 14.76-4.28 3-1.63 4.76-4.72 7.14-7.09 4.06-4.18 8.79-8 14.42-9.74a51 51 0 0 1 18.41-2.05c2.16-1.41 4.42-2.66 6.7-3.86a33.63 33.63 0 0 0-7-5.61 48.74 48.74 0 0 1 14.37-1.72c.09-2.56.71-5.09.51-7.64z"/><path class="c" d="M248.14 16.03a76.32 76.32 0 0 0 11.77 7.55c7.34 3.84 15.67 5.1 23.2 8.48 2.81 1.08 4.12 4.1 4 7 3.66 1.72 7.55 3 11 5.17 3.43 2.38 3.15 7.53 6.7 9.77 3.89 1.94 8 3.46 11.79 5.62a59.22 59.22 0 0 1 11.14 8.06c-2.39 1.62-5.23 3.21-5.85 6.31-1.5 5.36-4.68 10.64-10.12 12.71a13.06 13.06 0 0 0 .79-8.3 32.31 32.31 0 0 0-16.08 3.45c0 3-.27 6.41 1.77 8.89a4.14 4.14 0 0 0 5 1c2.61-1.18 4.34-3.57 5.9-5.87.06 2.29-.66 4.94 1 6.88.66 1.77.11 3.73.1 5.58 5-2.42 10.55-.91 15.29 1.29 4.54.84 7-5.79 11.67-4.33 1.23.75 1.75 2.26 2.93 3.06 4.08.93 8.55-.77 12.35 1.42 2 1.07 5 2.74 4.33 5.46a25.49 25.49 0 0 1-2.59 2.48c.5 1.66 1.3 3.36 1 5.14-.77 1.4-2.52 1.62-3.84 2.25-.92 2.24-1.68 4.77-3.76 6.22-3.14.68-6.26-.53-9.22-1.45-4.71 1.21-10.56 2.45-14.51-1.23-2.23-2.55-6.19-.85-8 1.35-4.25 5.1-7.36 11.12-12.08 15.85a176.71 176.71 0 0 1-23.08 19.71 48.73 48.73 0 0 1-19.76 8.9c-2.75-4.29-6.52-8.23-11.47-9.89-13.21-4.57-27.48-4.07-41.14-2.14 11.53.22 23.73 0 34.26 5.42-5.07 2.88-10.2 5.7-15.52 8.07-6.16 2.7-13 2.78-19.58 3.36.8 3.38 2 6.9.93 10.37-1 3.84-1.82 8.17-4.84 11-6.37 4.63-14.79 5.08-21.19 9.66a29.54 29.54 0 0 0-10.52 11.95c4.42.94 8.83 1.94 13.28 2.67 4.9 1.1 8.71-4 13.59-2.78a9.71 9.71 0 0 1 6.79 7.58c-.29 2.32-2.92 2.75-4.7 3.48-.26 1.5-.6 3-1 4.44-3.4 1.19-7 .56-10.41-.14-1.68 1.25-3.57 2.45-5.75 2.38-4 .06-6.53-3.94-10.43-4.14-7.29-.23-14.54 1.44-21.83 1-1.81-.11-4-1.19-4-3.21-.16-3.47 2.68-5.92 4.55-8.49s4.66-5.23 3.51-8.58c-1.41-3.24-5-4.56-7.89-6a73.2 73.2 0 0 1 18.9-16.04c9.32-5.58 18.95-10.82 29.3-14.23a93.42 93.42 0 0 0-43.3 20.1c3-5.87 8.15-10.2 12.77-14.76-9.9 5-17.64 13.63-22.47 23.51-2.87 6.06-5.92 12-9.32 17.81-1.93 3.45-5.75 5.06-9.12 6.75a120.5 120.5 0 0 0-18.25 10.35c-1.93 1.46-4.42 3.07-4.45 5.79a72.06 72.06 0 0 0 .77 14.11c2.48.38 5.12.54 7.34 1.82a6 6 0 0 1 .93 6.18c-.81 1.08-2.38.93-3.55 1.34-.35 1.63-.24 3.69-1.82 4.72-1.9.55-3.84-.09-5.72-.45-1.47.93-3 2-4.86 1.81a5.85 5.85 0 0 1-6.11-6.12c.11-8.28 1-16.54.62-24.82-.06-3.24-3.26-5.61-2.88-8.88 1.68-2.82 4.6-4.55 6.84-6.88 2.94-2.72 4.45-6.56 5.58-10.31 3.39-11.67.93-24.15 4.26-35.83a77.6 77.6 0 0 1-18.56-6 31.83 31.83 0 0 1-13.81-13.33c-2.84-5.08-3.22-11-4.87-16.47a76 76 0 0 0-5.15-13.34c-2.75-5.54-8.28-8.86-13.42-11.9-2.69 1.37-5.89 2.11-8.79.93a22.2 22.2 0 0 1-10.25-8.52c-1.61-2.83-4.85-3.83-7.77-4.71 4.29-1.47 8.92-2.47 13.42-1.49 2.5.5 4.7 1.84 7 2.9-2.37-4.13-7.31-4.65-11.53-5.4 4.79-1.88 10.67-2.15 15 1 3 2.45 3.9 6.46 4.85 10 4.93 2.74 10 5.36 14.3 9.06 5.5 5.24 8.7 12.46 10.35 19.78 1.9 7.94 6.06 15.5 12.58 20.55 6 4.61 13.7 6.56 21.17 7.1a95.1 95.1 0 0 1 12.26-12.29c5.24-4.84 13.14-4.31 18.91-8.16 4.15-3.63 8.68-6.86 12.5-10.84 3.57-5.27 6.33-11.08 10.14-16.21 2.7-3.61 5.7-7 8.73-10.34-2.84-.27-5.71-.94-7.92-2.87 2.94-1.89 7-3.63 7.66-7.47.08-3.29-4-2.12-6-1.5 2.24-9.46 9.62-16.44 16.91-22.32 2.8-2.08 6.25-4.63 6.08-8.52-1.75-3.52-6.16-1.26-8.19.79 1.62-4.12 3.68-8.17 7.07-11.13a11.25 11.25 0 0 1-4.5-3.57c3.26-.27 6.67-.48 9.56-2.21 5.18-2.94 10.29-6.06 15.87-8.22a20.31 20.31 0 0 0-7.25.56c4.82-5 10.88-9.08 17.84-10.17 8.33-1.67 16.83 1 25.13-.65a14.53 14.53 0 0 0-7.18-2.74 41 41 0 0 1 9.55-3.66 40.2 40.2 0 0 0-7.35-5.11c4.17.31 8.37.53 12.41 1.72A16.53 16.53 0 0 1 248.1 16z"/><path class="b" d="M284.6 54.92c3.05-.41 6.3-2 9.29-.51 1.57.61 3.15 1.2 4.74 1.71a26.33 26.33 0 0 0-2.53 4.52 20.75 20.75 0 0 0-11.5-5.73zm-74.7 23.03c5.52-4 11.95-7 18.85-7.41 12-.71 24 5.35 30.91 15.08-8.52-6.23-18.63-11.29-29.42-11.06-6.93-.13-13.73 1.47-20.34 3.39zm-8.38 18.9c8.29-3.58 15.69-9.53 24.82-10.89 6.74-1.19 13.6-.11 20.14 1.66-8.35-.56-16.89.45-24.47 4.16-7 3.34-13.08 8.58-20.57 11a35.66 35.66 0 0 1-24.23.14 61.56 61.56 0 0 0 24.31-6.07zm25.37 5.32c10.13-4.63 21.92-6.37 32.7-3 4 1.32 8.25 3.12 10.45 6.91 1.2 1.87 1.36 4.13 1.54 6.28a49 49 0 0 0 9.28-3.32c.48-2.66 1-5.41 2.68-7.61a6.45 6.45 0 0 1 6.19-2.84c4.3.53 8.3 2.37 12.18 4.21-10.58 7.83-23 12.85-35.51 16.63 1.39-3.66 1.63-8-.73-11.31-3.5-5.25-10.14-6.86-16-7.74-7.64-1.17-15.33.07-22.78 1.78z"/><path class="c" d="M276.87 163.26a129.48 129.48 0 0 0 29.16-22.9 62.49 62.49 0 0 0 11 8.28 67.51 67.51 0 0 0 15.49 5.58c3.72.81 3.9 6 7.65 6.8 3.41.53 7-1.68 10.26 0a15.93 15.93 0 0 1 5.64 5.63c.57 1.17 1.36 2.67.56 3.93-.7 1.51-2.54 1.72-3.9 2.35-.16 2 .23 4.44-1.28 6.08-1.62 1-3.57.12-5.29-.06-.7 1.57-1.2 3.78-3.18 4.18-2.34.59-4.36-1.08-6.16-2.3-4 .21-8.43.53-12-1.74a11.42 11.42 0 0 1-4.24-5.44 50.43 50.43 0 0 0-16.54-4.19c-9.3-.79-18.7-2.27-27.22-6.25z"/></svg>