<svg xmlns="http://www.w3.org/2000/svg" viewBox="0 0 135.6 145"><defs><style>.a{fill:#1f3e77;}.b{fill:#fff;}</style></defs><title>IND</title><path class="a" d="M114.34 20.91c-2.57-3.6-1.55-5.51.25-5.76a22.75 22.75 0 0 1 3.5 0c1.37 0 4 .17 3.76-2.5a74 74 0 0 0-1.63-9.38c-.75-3.5-1-3.25-5.76-3.25a73.88 73.88 0 0 0-8.13.37c-7.26.5-13 1.5-13.26 11.26s2 13 6 19.27 16 25.52 16 43c0 32.19-28.27 46-47.29 46s-47.29-13.84-47.29-46c0-17.52 12-36.78 16-43s6.26-9.51 6-19.27S36.49.89 29.23.39A73.94 73.94 0 0 0 21.1.02c-4.76 0-5-.25-5.76 3.25a74.06 74.06 0 0 0-1.62 9.38c-.22 2.67 2.39 2.5 3.75 2.5a22.85 22.85 0 0 1 3.5 0c1.79.25 2.82 2.16.25 5.76C10.88 35.39-.04 53.3-.04 74.7c0 35.28 30.27 70.31 67.8 70.31s67.8-35 67.8-70.31c.04-21.4-10.88-39.31-21.22-53.79zm-10.18 2.53a2 2 0 1 1 2-2 2 2 0 0 1-2 2zm-72.81-4.07a2 2 0 1 1-2 2 2 2 0 0 1 2.05-1.99zM11.16 71.23a2 2 0 1 1 2-2 2 2 0 0 1-2 2zm10 40.33a2 2 0 1 1 2-2 2 2 0 0 1-2 2zm46.66 23a2 2 0 1 1 2-2 2 2 0 0 1-2.02 2zm46.66-23a2 2 0 1 1 2-2 2 2 0 0 1-2.02 2zm10-40.28a2 2 0 1 1 2-2 2 2 0 0 1-2.01 1.95z"/><circle class="b" cx="104.21" cy="21.4" r="2.03"/><circle class="b" cx="31.4" cy="21.4" r="2.04"/><path class="b" d="M9.1 69.2a2 2 0 1 1 2 2 2 2 0 0 1-2-2z"/><circle class="b" cx="21.14" cy="109.47" r="2.03"/><circle class="b" cx="67.8" cy="132.49" r="2.03"/><circle class="b" cx="114.46" cy="109.47" r="2.03"/><path class="b" d="M122.43 69.2a2 2 0 1 1 2 2 2 2 0 0 1-2-2z"/></svg>