<svg xmlns="http://www.w3.org/2000/svg" viewBox="0 0 153.79 108.68"><defs><style>.a{fill:#bacad3;}.b{fill:#004d55;}.c{fill:#000114;}.d{fill:#fff;}</style></defs><title>PHI</title><path class="a" d="M89.43 10.9l-7.48 8c12.31-5.57 39.11-15.43 39.11-15.43l-8.57 8.59c23.49-7.93 41.29-12 41.29-12a190.13 190.13 0 0 1-12.71 24l11.19-1.86s-8.67 14.47-18.74 25.14l5.66 1.07a153.76 153.76 0 0 1-20.39 23.45c-16.66 15.36-25.33 13.55-25.33 13.55-12.42 9.39-22.42 5.45-22.42 5.45s4.2-10.78-.21-11.62c-4.08-.84-10.17 2.52-10.91 3.81a50.92 50.92 0 0 1-7.47 13.86 45.51 45.51 0 0 1-13.91 11.76 17.18 17.18 0 0 1-5.93-12.61 23.14 23.14 0 0 1-10.38 5.91c-4.54 1.2-10.72.74-17-4C.92 94.74.05 83.21.05 83.21a57 57 0 0 1 11.6-14.41 9 9 0 0 1-3.09-4.15c20.38-9.68 20.37-17.94 36.54-28.8 16-10.7 26-15.78 44.39-24.94"/><path class="b" d="M79.5 18.39l-6.39 6.83c12.68-6.06 39.44-16.28 39.44-16.28l-7.75 7.78C132.26 7.1 149.72 3.4 149.72 3.4a166.73 166.73 0 0 1-13.15 23.42c3.63-.56 11.32-1.78 11.32-1.78a135.88 135.88 0 0 1-18.82 23.92c1.23.11 6.39 1 6.39 1a124.67 124.67 0 0 1-18.57 20.79c-15 13.6-21.82 12.41-21.82 12.41a3.5 3.5 0 0 0 .11-1.29 2.89 2.89 0 0 0-.08-.86c-11.57 11.25-21.32 8.11-21.32 8.11s4.23-10.31-2.43-12c-5.12-1.33-12.91 3.13-13.55 5.32a49.2 49.2 0 0 1-7.08 13.14 43.73 43.73 0 0 1-11.75 10.34s-5.63-3.91-3.75-16.28c.38-2.7-.18-3.73-.47-4.13-1-1.33-8.15.52-9.88 4.49-1.21 2.83 6 4.77 6 4.77a19.34 19.34 0 0 1-9.08 5.18c-3.62.85-9.27.92-15.19-3.72-3.5-2.74-4.3-12.62-4.3-12.62A58 58 0 0 1 14.89 68.7a9.55 9.55 0 0 1-3.24-3.38c16.92-7.91 19.16-18 38.23-30.17A281 281 0 0 1 79.49 18.4"/><path class="c" d="M124.79 50.57a30.79 30.79 0 0 1 5 1C124.02 61 106.69 79.82 97 81.07a6.36 6.36 0 0 0-1.54-3.76c-3.59 6.64-14.71 11.15-19.37 10.38 5.51-20.26-18.29-11.43-20.1-5.87a42.26 42.26 0 0 1-16.64 21.69s-3.89-4-2.3-13.65c1.19-7.09-3.4-6.62-3.4-6.62-1.86 0-8.82 1.14-11 6-1.74 3.86 4.46 6.24 4.46 6.24s-8.88 7.35-19.32-.67c-2.55-2-3.57-10.83-3.57-10.83a57 57 0 0 1 14.21-15.69c-2.89-1-3.79-2.33-3.79-2.33 13.89-6.92 19.25-17.47 31.07-25.67a175.47 175.47 0 0 1 23-13.74l-3.74 4.79s3.14-1.47 4.48-2.23c12.42-6.52 33.48-14 33.48-14l-6.53 6.47a252.34 252.34 0 0 1 24.58-7.68c7.29-1.88 22.57-5.76 22.57-5.76a94.42 94.42 0 0 1-11.09 21.14c4.61-.56 9.57-1.06 9.57-1.06s-5.28 10.67-17.25 22.39"/><path class="c" d="M68.06 39.61l-.45.22a2.68 2.68 0 0 1 .41-.21m-.53.2"/><path class="d" d="M84.11 62.85s-6.68-2.81-17.19 1a53.21 53.21 0 0 1 32.8-6.48 47.9 47.9 0 0 0-28.94 1.55c-3.71 1.57-5.93 2.79-5.93 2.79s.93-.69 2.7-1.78a86.59 86.59 0 0 1 15.95-9.51c4-1.79 12.1-4.3 15.37-4.65a47.26 47.26 0 0 0-16.14 1.3s12.14-5.22 24-6.08c4-.23 13-.27 13-.27-13.09-3.07-26.65-3.13-35.91-1.28-5.24 1.49-9.42 3-9.42 3l2.15-1c3.3-2.09 17-9.92 42.35-15a70.75 70.75 0 0 0-7.2 0 107.36 107.36 0 0 0-12.05 1.9c5.81-2.83 16.72-5.9 30.21-7.83 0 0-20.66-1.33-45.58 7.49a1.16 1.16 0 0 0-.32.16s2.59-1.94 5.6-4c2.15-1.55 5.32-3.9 5.32-3.9s-12.8 3.57-30.09 12.47c-4.86 2.5-7.44 3.93-7.44 3.93.75-.83 4.2-4 5-5.08-12.83 6.79-17.51 11-25.08 19.26-6.8 7.35-6.48 8.58-16.8 14.52a18.34 18.34 0 0 0 15.34-2.62 21.9 21.9 0 0 0 3.78-3.4c2.73-3.19 1.8-6.3 5.44-8.74a12.36 12.36 0 0 0-1.44 4.24 35.06 35.06 0 0 1 8.95-8.08c9.75-6.09 16.22-7.4 16.22-7.4-.29.08-.48.22-.74.29-13.28 6-15.41 13.16-15.48 13.92-.13 1.59 4.8-2.21 8.83-2.91a17.93 17.93 0 0 0-9.61 9.53c-.74 1.76-1 3.73-3.08 5.35a8.81 8.81 0 0 1-2.4 1.64c-2.78 1.37-4.73.83-5.4.45a1.75 1.75 0 0 1-.62-.68 6.62 6.62 0 0 0 4.87-1.21 7.28 7.28 0 0 0 2.64-2.9 3 3 0 0 0 0-3 2.61 2.61 0 0 0-2.09-1.06 11.13 11.13 0 0 1 2-3.13 22.22 22.22 0 0 0-3.9 4 2.78 2.78 0 0 1 2.2 1.11c.9 1.4.06 3.57-1.83 4.71s-4.25 1.1-5.12-.29a3.25 3.25 0 0 1-.27-.56l-.32.15c-.59.33-1.8.87-1.8.87a5.36 5.36 0 0 0 1.83 0c.19 2 1.52 5.26 9 3.05-2.12 2.06-7.23 2.22-10.34.79.44.31.92.59 1.48.91 9.37 5.12 20.06-.69 22.66-2.31.67-.39 1.33-.79 2-1.13a22.59 22.59 0 0 0-4.52 6.15c3.23-4.23 12.71-11.17 25.45-10.32"/><path class="a" d="M49.95 55.69c.37 1.31 2.71-.17 2.71-.17a19.43 19.43 0 0 0-4.43 5.71 4.81 4.81 0 0 1-.46 1.57 3.88 3.88 0 0 0 .91 0 7 7 0 0 0 1.83-.77 5 5 0 0 1-1.83 3.42c2.12-1.63 2.34-3.59 3.08-5.35a17.93 17.93 0 0 1 9.61-9.53c-4 .7-9 4.5-8.83 2.91.07-.76 2.2-7.88 15.48-13.92a2 2 0 0 1-.52.2c-12.15 5-18.52 12.39-17.54 15.87"/><path class="b" d="M44.89 61.34c.64 1 0 2.52-1.39 3.43s-3.07.8-3.69-.22a1 1 0 0 1-.2-.5c-.28.22-.58.39-.85.59a3.21 3.21 0 0 0 .27.56c.87 1.39 3.2 1.55 5.12.29s2.74-3.31 1.84-4.71a2.77 2.77 0 0 0-2.21-1.11c-.22.26-.48.56-.74.89a2 2 0 0 1 1.85.78"/><path class="c" d="M43.5 64.79c1.41-.91 2-2.42 1.39-3.43a2 2 0 0 0-1.85-.79 16.85 16.85 0 0 1-1.91 2.16 2 2 0 0 0 .88 1.82 2.63 2.63 0 0 1-1.42-.25 1.33 1.33 0 0 1-.5-.63c-.17.13-.33.31-.47.41a1 1 0 0 0 .2.5c.61 1 2.28 1.08 3.69.22"/><path class="d" d="M40.59 64.29a2.63 2.63 0 0 0 1.42.25 2 2 0 0 1-.88-1.82 9.55 9.55 0 0 1-1 .94 1.31 1.31 0 0 0 .5.63"/><path class="a" d="M119.77 40.79s-9.05 0-13 .27c-11.84.86-24 6.08-24 6.08a47.28 47.28 0 0 1 16.12-1.31c-3.28.34-11.33 2.86-15.38 4.65a86.67 86.67 0 0 0-15.95 9.51c6.83-4.26 26.29-14.55 51.18-10.7a59 59 0 0 0 5.93-6.09c4.54-5.08 5.47-8.13 5.47-8.13s-21.06-1.13-36.31 1.92c-3.28.69-6.83 1.57-10 2.52 9.25-1.84 22.82-1.79 35.91 1.29"/><path class="a" d="M71.28 67.46c17.19-5 29.19-.61 30.69 4.62l.17-.14a28.83 28.83 0 0 0 7.37-5.64c4.18-4.26 6.82-7.64 7.86-9.88-17.66-7.63-37.08-1.51-46.59 2.55a47.89 47.89 0 0 1 28.94-1.55 53.22 53.22 0 0 0-32.8 6.48c10.51-3.85 17.19-1 17.19-1-12.74-.85-22.22 6.09-25.45 10.32-.26.5-.49 1-.7 1.55 2.94-2.82 6.05-5.16 13.31-7.26m58.62-46.98c-13.5 1.93-24.4 5-30.21 7.83a107.52 107.52 0 0 1 12.09-1.94 70.58 70.58 0 0 1 7.2 0c-25.4 5.12-39 13-42.35 15a116 116 0 0 1 21.13-7.08c9.84-2.38 21.33-3.44 26-4.1a39.76 39.76 0 0 0 9.06-14.45s-11.44 1.49-24.48 4.47a139.81 139.81 0 0 0-24 7.8c24.92-8.82 45.58-7.49 45.58-7.49"/><path class="a" d="M61.64 74.65s4.32-3.4 11.69-2.63c10.91 1.14 10.66 7.81 10.66 7.81a18.54 18.54 0 0 0 7.34-6.62 17.41 17.41 0 0 0-8.68-3.35c-14.51-1.75-21 4.78-21 4.78m-29.51-2.58a6 6 0 0 1-3.85-1.05c-1.85 1-3.26 1.82-3.26 1.82-1.09 1.65 1.23 1.23 2.3.87l4.8-1.63m24.18 1a19.69 19.69 0 0 0-1.45 4.08 38 38 0 0 1-14.97 23.19c-2.19-4.62-1-9.17-.66-10.87a9.06 9.06 0 0 0-1.12-6.68c7.69-.06.19 9.62 3.11 13.5 5.13-3.18 8.2-13.58 8.95-17.28 0-.14-.75-.65-1.38-.83-7.46-2-19.9.67-24.37 3.51-14.08 9-.83 14-.83 14s-8.7 3.24-13.7-4.11c-1.27-2-1.59-5.6-1.9-8.47 5.12-8.72 13.26-12.51 15.5-14.14a17.18 17.18 0 0 0 8.31-.5s9.54 11.04 24.51 4.57z"/><path class="c" d="M25.03 72.82c-1.09 1.65 1.23 1.23 2.3.87l4.8-1.63a6 6 0 0 1-3.85-1.05c-1.85 1-3.26 1.82-3.26 1.82"/></svg>