<?xml version="1.0" encoding="UTF-8"?>
<svg id="Layer_1" data-name="Layer 1" xmlns="http://www.w3.org/2000/svg" viewBox="0 0 312.17 428.9">
  <defs>
    <style>
      .cls-1 {
        fill: #010101;
      }
    </style>
  </defs>
  <path class="cls-1" d="M90.15,138.17c-21.17,18.28-41.65,42.93-61.41,73.95C11.04,239.89,1.52,268.45.18,297.82c-1.02,22.42,2.4,41.85,10.27,58.23,9.03,18.84,22.06,33.51,39.13,43.98,29.77,18.32,66.17,28.69,102.77,28.85,14.9.07,25.47-.26,31.68-.98,65.09-7.62,122.11-42.01,127.69-112.98,1.87-23.67-1.9-46.35-11.29-67.98-17.99-41.52-43.75-74.51-77.47-105.86-1.54-1.48-2.43-3.51-2.43-5.65v-20.19c0-.98.26-1.97.79-2.82,10.27-17.07,21.6-36.89,33.97-59.44,3.25-5.94,4.23-10.9,2.92-14.9-7.35-22.19-38.08-8.6-49.53-6.33-6.17,1.21-10.57.46-13.2-2.26-8.99-9.39-10.5-27.21-28.62-29.34-14.71-1.71-27.9,12.37-39.09,24.36-1.51,1.64-4.14,1.58-5.58-.1-4.76-5.51-10.18-10.77-16.21-15.79C90.84-3.99,63.72.4,60.34,22.82c-.89,5.81-.98,10.18-.3,13.1,5.65,24.26,19.96,54.32,31.94,78.91.92,1.87.79,8.7-.36,20.45-.1,1.12-.62,2.17-1.48,2.89ZM76.46,39.2c-1.58-4.63-1.71-10.41-.39-17.4.26-1.31,1.02-2.49,2.13-3.22,11.55-7.65,23.04,5.78,30.72,14.44,6.56,7.42,11.69,9.22,20.88,7.98,1.94-.26,6.11-3.55,12.54-9.81,8.3-8.14,11.85-11.95,19.89-15.23,3.61-1.48,7.71.03,9.55,3.45,8.04,15,13.82,31.05,34.14,28.2,7.78-1.08,18.87-3.32,33.25-6.63,2.53-.59,4.56,2.13,3.25,4.4l-34.17,59.18c-1.05,1.84-3.02,2.95-5.12,2.95h-93.75c-2.36,0-4.5-1.35-5.55-3.45-11.39-22.98-20.52-44.61-27.38-64.86ZM205.1,123.49v8.47c0,1.02-.85,1.87-1.87,1.87h-93.22c-1.02,0-1.87-.85-1.87-1.87v-8.47c0-1.02.85-1.87,1.87-1.87h93.22c1.02,0,1.87.85,1.87,1.87ZM98.42,151.66c1.41-1.28,3.25-1.97,5.15-1.97h102.02c3.84,0,7.55,1.58,10.18,4.37,13.29,13.98,24.03,25.77,32.14,35.35,20.25,23.93,34.83,49.56,43.75,76.91,3.05,9.32,4.83,21.04,5.32,35.15,1.02,29.77-8.11,54.42-27.38,73.89-35.68,36.07-91.22,41.62-139.01,36.89-39.29-3.91-84.69-22.71-104.81-58.89-16.18-29.05-12.93-72.11-.36-102.87,14.7-36.01,42.02-71.13,73-98.83Z"/>
  <path class="cls-1" d="M174.8,324.58c-21.04,8.96-37.71,4.89-50.02-12.18-.76-1.02-1.94-1.64-3.22-1.64h-7.16c-1.58,0-2.82,1.38-2.69,2.95,1.67,18.05,21.04,27.28,37.09,29.31,1.18.16,2.13,1.05,2.36,2.2.66,3.18.59,6.57-.2,10.21-.49,2.3,1.25,4.46,3.58,4.46h6.63c2,0,3.61-1.58,3.64-3.58l.2-11.39c.03-1.15.82-2.17,1.94-2.49,2.72-.89,7.19-1.77,9.52-2.69,18.51-7.32,26.55-21.04,24.16-41.16-1.51-12.64-9.72-21.2-20.58-25.54-6.4-2.53-18.68-6.6-36.8-12.21-12.7-3.91-17.73-12.24-15.07-25.01,1.31-6.33,4.07-10.47,8.3-12.41,20.88-9.58,37.03-5.25,48.42,12.97.79,1.28,2.2,2.07,3.68,2.07h6.5c3.74,0,6.2-3.91,4.56-7.29-7.06-14.48-18.55-23.04-34.43-25.7-1.58-.26-2.76-1.67-2.76-3.31v-12.9c0-1.61-1.31-2.92-2.92-2.92h-8.47c-1.61,0-2.92,1.31-2.92,2.92v12.8c0,1.64-1.25,2.99-2.89,3.12-12.18,1.08-22.12,7.62-29.77,19.6-.49.82-.92,1.67-1.21,2.56-5.81,18.35-1.64,32.56,12.51,42.7,16.94,12.11,52.49,9.16,60.13,30.46,3.05,8.44-5.19,21.17-12.11,24.09Z"/>
</svg>