<svg xmlns="http://www.w3.org/2000/svg" id="AFLLogo" viewBox="0 0 339.2 169.2">
  <style>
    .afl0 { fill: #002244; }
    .afl { fill: #c41e3a; }
    .afl2 { fill: #fff; }
    .afl3 { fill: #b0b7bc; }
    .afl4 { fill: #c41e3a; }
    .afl5 { fill: #002244; }
    .afl6 { fill: #ffd700; }
  </style>
  <path d="M0 144.8l88.7-16.3 1.4-27.3zm50 5l66.9-1.7-14.2-14.4zM38.4 111l54.9-38.2-2.9 20.1z" class="afl0"/>
  <path d="M219 159.5c74.8-16.6 107.5-81.1 111-88.4 4.1-8.6 3.6-13 3.2-14.3-.3-1.4-1.6-5.6-9-11.6C317.9 40.1 261-4.6 186.3 12c-74.7 16.6-107.5 81.1-111 88.4-4.1 8.6-3.6 12.9-3.2 14.3.3 1.4 1.6 5.5 9 11.6 6.2 5.1 63.1 49.8 137.9 33.2z" class="afl0"/>
  <path d="M309.8 87.1s-39.9 56.9-115 66.8c0 0 15.8 2 29.2-1.5 5.9-1.5 49.9-12.6 85.8-65.3z" class="afl"/>
  <path d="M223.9 30.5c12 .8 24.8 3.5 36.4 7.2-1.5-2.3-3-4.7-4.7-7.1-21.9-5.7-43.9-6.2-65.6-1.4-12.7 2.8-25.7 8.8-38.1 16.6 27.2-13.7 51.9-16.7 72-15.3z" class="afl2"/>
  <path d="M273.9 42.6c-2.4-3.4-4.8-6.2-6.7-8.5-3.9-1.3-7.7-2.5-11.6-3.5 1.7 2.4 3.2 4.8 4.7 7.1 4.8 1.5 9.4 3.2 13.6 4.9z" class="afl2"/>
  <path d="M295.9 54.6c9.1 7.2 11.1 15.3 10.4 22.3 4.5-6.8 7-11.8 7.7-13.4.8-1.6.3-3.6-1-4.7-2.6-2.1-16.6-13.2-38.6-22-2.4-1-4.8-1.8-7.2-2.7 2 2.3 4.3 5.2 6.7 8.5 9.3 3.8 17 8 22 12z" class="afl2"/>
  <path d="M288.4 99.8c2.2-2.3 4.2-4.6 6-6.8 5-5.9 8.9-11.4 12-16.1.7-7-1.3-15.2-10.4-22.3-5-4-12.8-8.2-22-12-4.3-1.8-8.9-3.4-13.7-4.9-11.6-3.7-24.4-6.4-36.4-7.2-20-1.3-44.8 1.6-71.9 15.3-1.4.9-2.7 1.7-4.1 2.6 47.2-17.5 82.4-7.2 93.4-2.9 7.8.6 15.7 1.7 23.4 3.7-28.1 1-52 4.8-72.1 10.1 51.1-.2 77.7 24.7 88.7 39 1.4 1.8 2.6 3.5 3.5 4.9 1.2-1 2.4-2.2 3.6-3.4z" class="afl3"/>
  <path d="M241.3 45.5c-11.1-4.3-46.2-14.6-93.4 2.9-5.9 3.9-11.5 8.2-16.9 12.6-7 5.8-13.5 11.9-19.3 18.1 0 0 7.3-4.3 19.4-9.8 24.1-10.9 67.2-26.8 110.2-23.8zm38.3 62.7c0-.1.1-.2.1-.3-.1.1-.1.2-.1.3 1.8-1.6 3.6-3.2 5.3-4.9-.9-1.4-2.1-3.1-3.5-4.9 0 .8 0 .8 0 0-11-14.3-37.6-39.2-88.7-39-23.8 4.5-44.1 14.6-59.5 24.5-5.6 3.6-9.1 5.9-13.3 9.2-11.2 8.8-18.7 16.9-18.7 16.9 22.4 21.5 49.3 29 49.7 29 5.5 1 16.9 1.9 22.6 2.3 14 1 28.1.2 41-2.6 23.9-5.3 46.1-14 65.1-30.5z" class="afl4"/>
  <path d="M174.7 45.2s.5.4 1.2 1.2c.7.8 1.6 1.9 2.6 3.2 1 1.4 2 3 3 4.8 1 1.8 1.9 3.8 2.7 5.8.8 2 1.5 4.1 2 6.1s.9 3.9 1.1 5.6c.1.8.2 1.6.2 2.3 0 .7.1 1.3.1 1.8 0 1-.1 1.6-.1 1.6s-.5-.4-1.2-1.2c-.4-.4-.8-.8-1.2-1.4-.4-.5-.9-1.2-1.4-1.8-1-1.4-2-3-3-4.8-1-1.8-1.9-3.8-2.7-5.8-.8-2-1.5-4.1-2-6.1s-.9-3.9-1.1-5.6c-.2-1.7-.3-3.1-.3-4.2 0-.9.1-1.5.1-1.5zm45-11.4s.4.5.9 1.4c.5.9 1.1 2.2 1.8 3.8.6 1.6 1.2 3.4 1.8 5.4.5 2 .9 4.2 1.2 6.3.3 2.2.5 4.4.5 6.4 0 2.1-.1 4-.3 5.7-.1.8-.2 1.6-.3 2.3-.1.7-.3 1.3-.4 1.8-.2 1-.5 1.6-.5 1.6s-.4-.5-.9-1.4c-.3-.4-.5-1-.8-1.6-.3-.6-.6-1.3-.9-2.1-.6-1.6-1.2-3.4-1.8-5.4-.5-2-.9-4.2-1.2-6.3-.3-2.2-.4-4.4-.5-6.4 0-2.1.1-4 .3-5.7.2-1.7.5-3.1.7-4.1.2-1.1.4-1.7.4-1.7zm-22.3 4.9s.4.4 1 1.3c.6.8 1.4 2 2.3 3.5.8 1.5 1.7 3.2 2.5 5.1.8 1.9 1.5 4 2.1 6.1.6 2.1 1.1 4.2 1.4 6.3.3 2 .5 4 .5 5.7V69c0 .7-.1 1.3-.1 1.8-.1 1-.2 1.6-.2 1.6s-.4-.4-1-1.3c-.3-.4-.7-.9-1.1-1.5-.4-.6-.8-1.3-1.2-2-.8-1.5-1.7-3.2-2.5-5.1-.8-1.9-1.5-4-2.1-6.1-.6-2.1-1-4.3-1.4-6.3-.3-2-.5-4-.5-5.7 0-1.7 0-3.1.2-4.2 0-.9.1-1.5.1-1.5zm-3.3 83.4c-32.4 11.6-74.9 18.2-106.4.4 3.3-4.8 6.6-9.7 9.8-14.5 25.4 20.6 66.3 19.5 96.6 14.1z" class="afl0"/>
  <path d="M156.898 48.664l21.8 90.822-49.01 11.763-21.8-90.827z" class="afl0"/>
  <path d="M124.18 81.875l14.758 34.91-29.844 12.616-14.758-34.91zm29.432-46.928l27.074 112.8-17.697 4.247-27.08-112.8z" class="afl0"/>
  <path d="M171.4 97.3H153l-3.4 9.7h-11.2l18-47.8h12.3l17.8 47.8h-11.6l-3.5-9.7zm-14.9-9.7h11.6L162.3 71l-5.8 16.6zm35.9 19.4V59.2h30.8v10.1H203v10.1h17.7v9.7H203V107h-10.6zm38.7 0V59.2h10.7v37.6h20.6V107h-31.3z" class="afl5"/>
  <path d="M171 96h-18.5l-3.4 9.7h-11.2l18-47.8h12.3l17.8 47.8h-11.6L171 96zm-15-9.7h11.6l-5.7-16.5-5.9 16.5zm36 19.4V57.9h30.8V68h-20.2v10.1h17.7v9.7h-17.7v17.9H192zm38.6 0V57.9h10.7v37.6h20.6v10.2h-31.3z" class="afl2"/>
  <path d="M161.6 68.2l3 6.2c.2.5.9 1 1.5 1.1l6.8 1-4.9 4.8c-.4.4-.7 1.2-.6 1.7l1.2 6.8-6.1-3.2c-.5-.3-1.3-.3-1.8 0l-6.1 3.2 1.2-6.8c.1-.6-.2-1.3-.6-1.7l-4.9-4.8 6.8-1c.6-.1 1.2-.6 1.5-1.1l3-6.2z" class="afl6"/>
</svg>
