<svg xmlns="http://www.w3.org/2000/svg" viewBox="0 0 512 512" role="img" aria-label="Best Ball #1">
  <!-- On-dark variant of the football mark — white fill for dark panels -->
  <path fill="#ffffff" d="m256 117c-139 0-203 139-203 139c0 0 64 139 203 139c139 0 203-139 203-139c0 0-64-139-203-139z m107 150l-32 0l0 10c0 6-5 11-11 11c-6 0-11-5-11-11l0-10l-42 0l0 10c0 6-5 11-11 11c-6 0-11-5-11-11l0-10l-42 0l0 10c0 6-5 11-11 11c-6 0-11-5-11-11l0-10l-32 0c-6 0-10-5-10-11c0-6 4-11 10-11l32 0l0-10c0-6 5-11 11-11c6 0 11 5 11 11l0 10l42 0l0-10c0-6 5-11 11-11c6 0 11 5 11 11l0 10l42 0l0-10c0-6 5-11 11-11c6 0 11 5 11 11l0 10l32 0c6 0 10 5 10 11c0 6-4 11-10 11z"/>
</svg>
