<svg xmlns="http://www.w3.org/2000/svg" viewBox="0 0 219.69 207.48"><defs><style>.a{fill:#dce0e5;}.b{fill:#fff;}.c{fill:#161413;}.d{fill:#b01742;}</style></defs><title>ATL</title><path class="a" d="M203.9 83.1s13-2 15.36-14.17-5.95-22-20.87-28.74c-21.65-9.84-47.64-19.29-102.36-31.5C66.48 2.1 58.23.03 58.23.03L0 62.21l50-1.58s-16.54 25.2-13.78 66.53 20.35 62 34.25 71.26c9.45 6.3 22.44 9.06 22.44 9.06s-6.69-9.45-4.73-21.26 6.72-18.12 10.24-24.41 26.38-51.18 26.38-51.18 8.27 0 11.81.39 5.91 2 5.91 3.94-2.36 4.72-2.36 4.72 11.81.79 27.17-5.12 20.47-15.75 20.47-15.75a110.43 110.43 0 0 0-14.57-14.57A167.13 167.13 0 0 0 159.06 74h34.64s6.69 0 9.05 2 1.15 7.1 1.15 7.1z"/><path class="b" d="M207.68 78.1s7.48-2.36 8.47-10-3.35-13.19-5.71-15.55-12.8-9.84-31.1-16.34c-15.08-5.35-38-11.42-79.13-20.67-26.71-6-38-6.89-38-6.89L19.3 54.91l44.29-.2s-18.31 22.46-19.88 66.93c-2.36 66.93 42.91 81.1 42.91 81.1a30.77 30.77 0 0 1-3.15-16.93c1.18-9.05 5.12-16.14 9.45-24s27.98-54.71 27.98-54.71h16.5c3 0 7.09 1.57 8.66 3.74a4.12 4.12 0 0 1 .79 3.94s11.43.81 19.09-2.56a47.79 47.79 0 0 0 17.13-12.4 91.5 91.5 0 0 0-19.49-16.72c-11.61-7.28-21.46-12.2-21.46-12.2h54.92s6.69 0 8.66 1.77 1.98 5.43 1.98 5.43z"/><path class="c" d="M210.04 73.23s3.54-2 3.54-7.87c0-4.53-4.33-9.84-7.87-12.4s-11.22-7.28-23.82-11.42-39.17-10.63-62-15.35-60-10.83-60-10.83l3.35 4.92-24.61 26.38 87.4 6.89-.79 1H66.73l4.33 4.33-9.45 16.73 49.21-10.24-1.38 1.38-57.48 19.49 4.92 3.15s-1.77 3.35-3 10.43-2 13.78-2 13.78l49.21-30.12-.2 1.18-54.33 43.31 5.12 1.38a124.62 124.62 0 0 0 1.27 14.75c1 5.51 2.56 11.81 2.56 11.81L100 103.55v1.77l-43.9 64.57h4.33a54 54 0 0 0 7.87 14 73.78 73.78 0 0 0 13.6 12.76s-3-6.18-1.77-16.53c.79-6.69 7.48-17.72 10.63-24s43.31-85.63 43.31-85.63l-7.68-4.13H201s4.53.59 6.69 2.36a7 7 0 0 1 2.35 4.51z"/><path class="b" d="M210.63 68.31a10.28 10.28 0 0 0-.79-6.89c-1.77-3.15-5.71-5.32-5.71-5.32l.79 3.94-20.47 2.56-.79 1.18h19.88a10.15 10.15 0 0 1 4.33 1.48 7.61 7.61 0 0 1 2.76 3.05z"/><path class="b" d="M200.99 57.87a22 22 0 0 0-5.71-5.12c-3.54-2.17-9.84-5.12-9.84-5.12a69.61 69.61 0 0 1 6.5 6.2 20.14 20.14 0 0 1 2.76 3.84z"/><path class="d" d="M177.56 51.38s-26.25-7.1-56.69-13-53-9.45-53-9.45L60.98 37l116.34 15.75zm-70.66 8.86l-31.5.59-4 7.09 35.14-6.69zm-10.74 18.4l-34.15 12.3-2.26 9.05 35.83-20zm-4.82 23.03l-33.17 28.05s.1 3.64.39 5.41.79 3.94.79 3.94l32.09-35.83zm6 22.54s-9.55 14.08-16 24-12.89 19.49-12.89 19.49 1.48 3 2.46 4.53 2.56 3.54 2.56 3.54l24.56-50.67z"/><path class="c" d="M136.81 72.05s17.42 8.56 26.77 14.86A102.89 102.89 0 0 1 179.33 100a24.21 24.21 0 0 1-6.69 6 28 28 0 0 1-9.65 3.84s3.74-3.35 4-5-.39-2.07-1.38-2.07h-10.79a4.74 4.74 0 0 0-1.67 3.94 8.14 8.14 0 0 0 1.38 4.33 10.55 10.55 0 0 1-5.91-3.34c-2.46-2.86-2.46-4.92-2.46-4.92h-22.44l14.07-27.68z"/><path class="d" d="M134.45 94l25.1 3.84-.59 1.18h-27.27z"/></svg>