<svg xmlns="http://www.w3.org/2000/svg" viewBox="0 0 276.89 137"><defs><style>.a{fill:#d1b336;}.b{fill:#fff;}.c{fill:#2d2062;}.d{fill:#c6332c;}</style></defs><title>BAL</title><path class="a" d="M206.06 25.83a17.12 17.12 0 0 1-2.19 8.77c-2.42-8.86-14.88-20.53-14.88-20.53 2.19 2.77 1.5 8.3 1.5 8.3-.81-.69-6.94-4.72-6.94-4.72C171.42 8.99 151.48 0 120.9 0 43.58 0 10.9 49.72 9.54 51.84c0 0-7.53 10.8-9.55 16.87l16.48-9.86c.13-.08 13.7-8.33 34.71-8.33 1.63 0 5.52.19 6.39 2 2.07 4.24-4.39 17.17-11.72 26.59L30.12 99.28 52.33 86.5c.09-.05 9-5 23.74-5 3 0 4.26.48 4.69.71a9.21 9.21 0 0 1-1.66 3.68l-10.87 14.74 16.91-7.06a72.32 72.32 0 0 1 25.32-4.32c8.73 0 14.7 1.7 16.39 4.67 1.56 2.75-.37 7.2-1.17 8.54l-3.48 5.84 6.58 1.68c.74.19 1.68.41 5.48-.36 0 .54-.08 1.08-.08 1.61a31 31 0 0 0 4.37 15.45l6.66 10.32 2.53-12c2.24-10.63 10.75-15.24 16.06-17.11l1.52 5.7 5.29-2.12c4.75-1.9 12.57-7.61 15.39-9.72a91.69 91.69 0 0 1 15.74-1.37c4.37 0 9.48.41 14.89.85 6.8.55 14.51 1.17 22.83 1.17a136.6 136.6 0 0 0 27.29-3l9.66 6.44.43-8.91q.06-1.13.05-2.23c0-18.65-11.54-30.45-24-37.25h.79L240.17 49c-1.87-1.17-5.53-2.07-9.19-2.73l.67-1.34-6-1.59a45.73 45.73 0 0 0-14.8-1.5 18.51 18.51 0 0 0-4.79-16.01z"/><path d="M13.8 54.56S45.46 5.05 120.9 5.05c55.57 0 74.1 31 74.1 31s1-4.71-.34-7.07c0 0 6.4 6.74 6.74 14.82 0 0 3.71-3.71 3.71-5.05 0 0 1.68 5.72 0 9.09 0 0 7.75-2.7 19.2.34l-1 2s11.45 1.35 14.15 3c0 0-6.4.34-6.4 2 0 0 42.44 6.4 40.75 41.43l-4-2.69a131.76 131.76 0 0 1-28.29 3.37c-14.82 0-27.62-2-37.72-2a93.18 93.18 0 0 0-17.85 1.68s-10.1 7.75-15.16 9.77l-1.35-5.05s-20.54 3-24.59 22.23c0 0-6.74-10.44-1.69-21.22 0 0-9.77 2.69-11.11 2.36 0 0 12.81-20.88-19.53-20.88-16.17 0-27.28 4.72-27.28 4.72s9.37-12.4-7.13-12.4-26.27 5.73-26.27 5.73S78.49 45.5 51.19 45.5c-22.86 0-37.39 9.06-37.39 9.06z"/><path class="b" d="M182.87 58.6s-22.23-4-31.83 1.52c0 0 24.76 0 34.35 5.56 0 0-44-6.06-62.14 8.59 0 0 26.78-6.57 47.49-4.55 0 0-7.58 3 .51 8.08s13.14 6.06 11.08 14.7l4.21-6.23 4.72 4.72s12.12-1 20.54 0 19.87 2 26.27 2 23.91-2.36 23.91-2.36-36.65-14.51-69.65-14.51c-3.71 0-7.75.67-5.39 4.71 0 0-11.45-5.65-11.45-8.68s8.76-1.43 8.76-1.43c4 0 76.79 7.41 84.2 20.54 0 0 0-30-60.29-36l6.74 5.73-10.78-1 6.4 5.72s-16.87-5.76-27.65-7.11z"/><path class="c" d="M30.81 43.45S64.16 10.1 120.74 10.1c49.51 0 70.73 27.79 70.73 27.79s9.09 13.64 4 18.69-6.06-12.63-18.69-16.67l10.61 3.54s-11.62-15.16-31.32-11.62c0 0 11.11 2.53 14.14 6.06 0 0-24.75 2.53-25.77 4.55 0 0 19.2 4 20.21 7.07 0 0-18.19.51-23.24 5.05 0 0 33.85 1.52 41.43 4 0 0-22.23-4-31.83 1.52 0 0 24.75 0 34.35 5.56 0 0-44-6.06-62.14 8.59 0 0 26.78-6.57 47.49-4.55 0 0-7.58 3 .51 8.08s13.17 6.1 11.11 14.74c0 0-4 6.06-10.1 8.59l-.51-7.07s-19.2 1.52-27.79 19.2c0 0 1.52-14.65 5.56-18.19l-11.07 3.47s11.11-18.19-16.67-19.7-29.3 3-29.3 3 3.54-13.64-27.79-8.08c0 .04 29.81-48.97-33.85-30.27z"/><path class="b" d="M144.33 22.33c-3.07-4.49-10.61-6.67-23.06-6.67-35.19 0-55.11 10-55.94 10.44l-13.54 7.45 15.54-1.79c.26-.06 22.11-4.86 39.48-5.31-23.38 3-31.63 41.45-32 43.16l-.8 3.84 36.16-1.78.87-1.18c1.48-1.65 12-6.51 20.9-10.07l1.13-.45 3.26-7.09.06-.44a8.25 8.25 0 0 0 .07-1.1 7.77 7.77 0 0 0-2-5.15 15.59 15.59 0 0 0-6.9-4.1c13.62-3.38 17.52-12.74 17.69-13.18a7.27 7.27 0 0 0-.92-6.58zm-45.42 41.1c1.83-5 5.74-13.79 6.7-16.4 1.92 0 11.73-.55 11.73 5.17-.01 2.7-4.55 11.3-18.46 11.24zm9.83-23.79c1.77-3.53 5-11.94 5.74-13.37 2.34.33 11.21 1.21 10.66 5.05-.67 4.72-5.53 8.37-6.74 8.92z"/><path class="a" d="M113.66 42.94l-9-.5 5.47-13.14C86.39 28.8 77.8 70.22 77.8 70.22l30.82-1.52c2-3 22.23-11.11 22.23-11.11l2.48-5.55c1.2-8.77-19.67-9.1-19.67-9.1zm6.57 10.61C115.4 66.66 97.5 66.69 94.47 66.69l9.71-22.68s19.9-.88 16.05 9.54zm1-34.86c-34.86 0-54.56 10.1-54.56 10.1s31.83-7.07 50-5.05c23.73 2.64 6.06 16.17 6.06 16.17 15.66-2 19.7-12.12 19.7-12.12s3.57-9.1-21.19-9.1z"/><ellipse class="d" cx="174.8" cy="48.3" rx="5.76" ry="5.3"/><ellipse class="b" cx="175.98" cy="49.17" rx="5.22" ry="5.39"/><ellipse class="d" cx="176.99" cy="49.51" rx="4.21" ry="4.04"/><ellipse cx="178" cy="49.34" rx="3.54" ry="3.87"/></svg>