<svg xmlns="http://www.w3.org/2000/svg" viewBox="0 0 208.56 149.5"><defs><style>.a{fill:#fff;}.b{fill:#bf2026;}.c{fill:#194787;}</style></defs><title>BUF</title><path class="a" d="M206.69 25.07c-3-5.59-14.35-7.63-22.45-7A52.21 52.21 0 0 0 163.15.42a19.88 19.88 0 0 0-.68 1.89A56.55 56.55 0 0 0 149.15.05v1.68c-5.25.68-12.63 1.63-15.11 2.13.37 1.26.48 1.85.79 2.66-17.87 4.92-34.16 14.35-48.81 27 .64.19 1.08.48 1.31.5-16 6-27.64 15.38-37.82 24.91-12 1.86-33.62 4.66-33.62 4.66L0 94.96l41.94-8.85c-3.5 9.91-13.07 18.76-21.87 24.72a23.58 23.58 0 0 1-9.91 15.54c2.6 2.92-.6 6.6-1.06 9.71 3.56 4.6 10.84 13.41 10.84 13.41l4.47-18.65 9-9.17a7.35 7.35 0 0 0-.19 4c-.81 1.67-3 3.72-3.21 6.62 3.41 4.42 9.95 12.45 9.95 12.45s4.73-12.57 6.87-19l36.34-33.57c2.75-.4 9.46-.32 14.32-.18l2.07-2 10.23-.78c.84 1.38 1.32 2.24 1.88 3.3-1.85 1.06-3.46 1.9-5.23 2.77l-4.67 16.47s8.85-4.78 13.41-7.16a27.74 27.74 0 0 0 7.49-.27c-1 4.67-2.67 14.35-2.67 14.35s7.87-4.22 11.56-6.17c10.06 0 20.19-4 23-5.39 7.72-3.07 5.44-22.21 5.44-22.21 1.55-.2 3.49-.66 5-.2 4.37 1.12 1.5 17.54 1.5 17.54l10.1-9.63 1.09 1.42s6.09-7.59 8.81-11.61c7.43.07 9.17-4.64 10.1-7.83 3.72-12.81 8-11.92 9.66-18.91.95-2.82 4.39-23.87.43-30.61zM5.16 90.94l12.29-24.8 166.14-24.3c-5.15 2.69-5.6 8.52-3.14 11.59C136.77 62.99 5.16 90.94 5.16 90.94zm40.42 32.45c-2.33 5.31-6.3 16.45-6.3 16.45s-4.58-5.31-6.46-7.9c0-1.95 2.07-4 3.11-5.9a3.77 3.77 0 0 1-.13-1.88 17.27 17.27 0 0 0 6.8-10.88c12.56-19.73 36.25-20.67 36.25-20.67zm107.37-18.48c-10.21 5.07-22.24 5.14-22.24 5.14l-7.15 3.78s1.39-6.65 2-9.76c7.89-1.32 19-3.4 23.14-9.67 1.37-2 2.29-5.49 3.21-8.13 1.81-.26 3.37-.53 5.25-.79-.02.01 2.08 16.27-4.2 19.43zm52.63-63.27c-.45 6.5-1.36 14.49-4.74 18.35s-5.79 9.21-7.67 14.89c-1 3.37-2.29 4.91-8.37 5.18a86.61 86.61 0 0 1-7.19 9.78l-.78-1.1c-2.66 2.52-4 4-6.88 6.56.3-3.31.46-7.83-.63-10.2-1.62-2.66-4.35-3.29-7.07-2.9l-12.69 1.94c-.8 2.66-1.63 6.41-3.58 9.13-2.91 6.81-26.64 9.2-30.89 8.56-3 1.49-5.9 3.37-9 4.79.85-3.18 2.81-9.9 2.81-9.9s4.16-2.12 6.16-3.23c-.3-.66-.43-.94-.87-2A24.43 24.43 0 0 0 124.97 86s-18.36 1.22-27 1.8a6.87 6.87 0 0 1-1.68 1.68c-19.63-.84-38.22 1.81-52 15.68-4.41 4.41-9.2 9.16-12 14.22-3.52 3.68-6.52 6.77-10.15 10.43l-3.89 14.09-6.1-8c-.82-1.13 2.87-6.16 1-8.75 4.41-3.17 8-9.36 9-14.53 8.9-6 19.92-16.57 23.19-27.23 0 0 136.23-29.57 138.17-30-.91 2.59-.39 6.15 2.53 7.51a5.5 5.5 0 0 0 4.21-1c-.64-.6-1.88-1.42-2.2-2.66-.59-1.56.26-2.92 1.23-4-1.75-3.89-.33-8.36 2-11.53 1.62-2.14 4.2-4.59 6-6.53L53.99 58.1s18.78-17.53 39.56-23.79c-.63-.27-2.16-.91-3.29-1.31 14.81-12.1 31.43-21 47.76-24.91-.24-.82-.47-1.44-.76-2.36.5-.06 13.92-2 13.92-2 0-.42 0-.47-.08-1.09 3.25 0 10.12 1.77 12.71 2.64.17-.41.39-.87.5-1.15 10 4.47 18.24 16.48 18.24 16.48 6.61-.72 13.53.08 18.84 2.87 4.93 2.54 4.65 11.76 4.2 18.16z"/><path class="b" d="M183.6 41.84L17.46 66.14 5.17 90.94s131.6-28 175.29-37.51c-2.46-3.07-2.01-8.9 3.14-11.59z"/><path class="c" d="M201.39 23.44c-5.31-2.79-12.23-3.59-18.84-2.87 0 0-8.2-12-18.24-16.48-.11.27-.33.74-.5 1.15-2.6-.87-9.46-2.66-12.71-2.64 0 .61 0 .67.08 1.09 0 0-13.42 2-13.92 2 .28.93.52 1.55.76 2.36-16.33 3.89-33 12.8-47.76 24.91 1.13.41 2.66 1 3.29 1.31-20.78 6.3-39.56 23.83-39.56 23.83L197.3 37.25c-1.81 1.94-4.4 4.39-6 6.53-2.33 3.17-3.76 7.64-2 11.53-1 1.1-1.82 2.46-1.23 4 .32 1.23 1.56 2.06 2.2 2.66a5.5 5.5 0 0 1-4.21 1c-2.92-1.36-3.43-4.92-2.53-7.51-1.94.38-138.17 30-138.17 30-3.27 10.66-14.29 21.23-23.19 27.23-1 5.16-4.6 11.35-9 14.53 1.89 2.59-1.8 7.62-1 8.75l6.1 8 3.89-14.09c3.66-3.66 6.66-6.75 10.17-10.4 2.85-5.05 7.64-9.81 12-14.22 13.73-13.87 32.33-16.52 52-15.68a6.86 6.86 0 0 0 1.68-1.68c8.62-.59 27-1.8 27-1.8a24.42 24.42 0 0 1-10.78 5.49c.44 1 .57 1.3.87 2-2 1.11-6.16 3.23-6.16 3.23s-2 6.72-2.81 9.9c3.11-1.42 6-3.31 9-4.79 4.25.64 28-1.75 30.89-8.56 1.95-2.72 2.77-6.47 3.58-9.13l12.69-1.94c2.72-.39 5.45.24 7.07 2.9 1.09 2.37.93 6.89.63 10.2 2.85-2.58 4.22-4 6.88-6.56l.78 1.1a86.49 86.49 0 0 0 7.19-9.78c6.08-.27 7.38-1.81 8.37-5.18 1.88-5.68 4.39-11.14 7.67-14.89s4.29-11.85 4.75-18.35.69-15.72-4.24-18.3z"/><path class="c" d="M151.89 86.27c-.92 2.64-1.84 6.08-3.21 8.13-4.18 6.27-15.25 8.35-23.14 9.67-.58 3.11-2 9.76-2 9.76l7.15-3.78s12-.08 22.24-5.14c6.28-3.14 4.18-19.43 4.18-19.43-1.85.27-3.41.53-5.22.79zM42.61 113.29a17.27 17.27 0 0 1-6.84 10.88 3.77 3.77 0 0 0 .13 1.88c-1 1.95-3.14 3.95-3.11 5.9 1.88 2.59 6.46 7.9 6.46 7.9s4-11.14 6.3-16.45l33.27-30.77s-23.65.93-36.21 20.66z"/></svg>