<svg xmlns="http://www.w3.org/2000/svg" viewBox="0 0 545.43 365.09"><defs><style>.a{fill:#ff4000;}</style></defs><title>CHI</title><path d="M193.93 14.31a289.18 289.18 0 0 0-31.43 11.44 185.48 185.48 0 0 0-35.79 20.43c-30 21.94-50.34 49.82-67.42 82.64-13.33 25.62-31.64 46.8-59.29 57v8.52c17.66-1.25 34.08 14.85 43.86 27.86 12.34 16.41 22.29 34.46 34.93 50.65 11.9 15.25 26.29 28.54 41.79 40.05 48.64 36.11 108.23 52 168.29 52.16a401.7 401.7 0 0 0 50.44-3.07c37.66-4.66 73.64-14.26 107.06-32.59a271 271 0 0 0 26-16.3 223.64 223.64 0 0 0 21.23-17c10.85-9.85 21.53-20.75 29.94-32.74 8.9-12.7 14.25-26.08 18.38-40.17.63-2.16 5.12-26.41 2.81-26.41H439.67c-.15 0-3.55 11.95-4 13.1a57.48 57.48 0 0 1-7.1 12.94c-18.74 25.42-49.36 42.3-79.4 50.34a212.3 212.3 0 0 1-26.68 5.39c-34.49 4.61-68.21 2.08-100.57-11.39a191.5 191.5 0 0 1-24.8-12.5c-18.53-11.11-39.21-25.11-47.15-46.21-17.47-46.31 14-86.26 53.91-105.9a186.76 186.76 0 0 1 32.89-12.43 242.28 242.28 0 0 1 34.41-6.44c37-4.54 80.94.86 113.78 19.79 6.17 3.56 12 7.59 17.94 11.56 2 1.34 8.3 7.09 10.71 7.09h126.43l-1.33-1.95c-29.18-44.21-71.48-78-120.7-97.51a293.72 293.72 0 0 0-44.2-13.83 364.06 364.06 0 0 0-141.68-3.52 328.7 328.7 0 0 0-38.2 9zM53.84 157.11c21.78-30.69 33.39-65.08 62.95-90a271.39 271.39 0 0 1 24.7-18.48c18.66-12.42 39.55-20.63 61.18-26.22 45-11.61 94.22-16.5 140.34-9.79 39.78 5.79 78.84 18.45 113.1 39.71a215.42 215.42 0 0 1 35.93 28.18c5.53 5.35 10.81 10.95 15.92 16.7 2.06 2.32 13.15 14.66 13.15 14.66l-103.71-.08a213.2 213.2 0 0 0-125.1-39.67c-46.67.2-106.85 16.49-137.23 54.7-7.53 9.47-14.43 22.17-17.33 34-5.14 20.91-3.39 41.63 7.83 60.27a100 100 0 0 0 20.22 23.69c33.73 29.38 80 45.63 124.58 45.76 40.52.12 82.06-9.06 115.7-32.5 17.88-12.45 35.47-29.14 41.35-50.83h87.18l-.08.38-.09.44-.07.37v.15c-1.25 14.69-9.55 32.61-16.93 45.17-8.19 13.83-19.72 25.13-31.78 35.66-25.41 22.18-56 38.95-87.73 49.5a310.4 310.4 0 0 1-57.86 12.81c-56.82 7.34-117.92 2.28-170.59-21.51-37-16.72-67.69-42.22-91.43-75.1-17.91-24.81-33.91-53.77-62.84-67.53 1.95 1 11.55-6 13.13-7.23 9.08-6.89 19.21-14.34 25.51-23.21z"/><path class="a" d="M39.97 188.55c8.37-6.15 14.57-11.45 20.65-20 3-4.29 6.53-8.68 9.05-13.31C75 145.45 81.2 134.49 85.8 124.3a105.72 105.72 0 0 1 16.34-25.91c6.91-8 12.5-15.28 20.46-22.16 17.57-15.18 37.35-26.18 58.9-35 26-10.66 53.35-17.92 81.45-20.38a302.56 302.56 0 0 1 40.73-.93c43.61 2.12 89.51 10.17 128.4 30.86a225.31 225.31 0 0 1 29.46 19c7.63 5.74 15.59 11.13 22.59 17.65 2.67 2.48 14.16 13.95 14.16 13.95l-78.65-.1s-10-8.5-15.9-11.51c-5.54-2.84-11.46-5.69-17.13-8.24-8.15-3.66-16.47-6.1-25-8.81a212.58 212.58 0 0 0-54.47-9.42c-36.55-1.72-75.39 2.73-108.33 19.53-8.75 4.46-17.81 9.34-25.71 15.16-11 8.11-20.5 16.1-29 27-8.29 10.59-15.09 22.52-18.65 35.55a85.72 85.72 0 0 0-2 35.24 76.38 76.38 0 0 0 12.85 32.35c12.07 17.34 26.16 31.47 44.4 42.46 22.48 13.54 48 22.54 73.72 27.46 45.07 8.61 95.69 1.94 136.84-18.59 22.88-11.42 46.68-29.9 59.32-52.55.53-1 5.4-9.9 5.4-9.9l64.58.05a54.46 54.46 0 0 1-3 10.68 73.57 73.57 0 0 1-5 11.05c-2 3.45-3.38 5.73-5.54 9.1-4.35 6.79-9.78 12.62-15 18.77a174.66 174.66 0 0 1-37.61 32.71 260.06 260.06 0 0 1-92.89 37.6c-32.39 6.28-63.63 9.6-96.43 5.41-9.14-1.17-18.26-2.55-27.37-3.89-24.94-3.68-49-10.53-71.24-23-8.28-4.62-16.83-9-24.64-14.39-4-2.72-8.1-5.27-11.91-8.16-5.74-4.35-7.63-6.15-11.13-9.08-7.3-6.09-12.9-12.28-19.07-19.12a185.94 185.94 0 0 1-15.66-20.87c-9.95-15-17-31.31-30.37-43.76-1.05-1.04-12.4-12.56-13.73-11.56z"/></svg>