<svg xmlns="http://www.w3.org/2000/svg" viewBox="0 0 179.49 104.48"><defs><style>.a{fill:#13264b;}.b{fill:#de6226;}.c{fill:#fff;}</style></defs><title>DEN</title><path class="a" d="M0 28.14S-.94 45.72 19.58 56.9c0 0 8.26 4.4 27.71 8 17.08 3.15 26.26 9.8 29.9 14 4.66 5.34 9.22 15 11.28 23.51 0 0 0 2.21 1.58 2.11 0 0 1.38.1 1.29-1.88 0 0-.5-13.35 3.36-19.78 3-5.28 8.25-9.85 17-13.06a25.3 25.3 0 0 0 14.16 4.44 29.51 29.51 0 0 0 11.37-2.57s10.58 3.66 11.77 9.4a6.38 6.38 0 0 1-.3 2.38l13.25.69 7.22-6.53s-13.45-1-13.75-4.85c0 0-.21-1.79 3.42-1.79 0 0 8.37-.14 16.16 11.51l4.46-11.72s-3.42-1.71-3.35-4.85a16.38 16.38 0 0 1 1.43-5.76l-5.55-2.52s-3-2.82-21-14.06l2.33-1.5-19.93-8.63s-6.38-10.06-24.18-10.13c0 0-13.9-22.8-36.07-22.8a36.73 36.73 0 0 0-17.55 4.44s-3.75 1.71-7.38 3.77c0 0-7.61 5.27-16.3-6.22 0 0-3.17 13.57 6.36 19.38 0 0-9.11 1.92-12.32-5.9 0 0-2.94-6-2.13-16 0 0-7 6.31-7 18.43 0 0-.07 7.72 5.06 13 0 0-2.59-.39-6.71 2.2.03.01-7.16 5.21-15.17-5.47z"/><path class="b" d="M33.97 8.49s1.34 12 11.53 12a24.63 24.63 0 0 0 7.66-1.39c3.66-1.39 9-4.11 16.12-4.11 0 0 9.3-.89 14.49 9.4a111 111 0 0 1 23 1.43S94.11 3.51 72.1 3.82c0 0-6.43-.35-15 4l-3.46 1.63c-2.52 1.19-3.51 1.78-3.51 1.78a15.05 15.05 0 0 1-7 2s-4.39.35-9.16-4.74zm-12.6.4s-5.9 16.26 7 23.53a21 21 0 0 0 10.57 3.12s17.64-8.41 36.84-10.63c0 0-2.22-4.74-10.9-4.74 0 0-5.3-.31-14.92 2.35 0 0-2.61.66-5.66 1.71-4.37 1.07-11.66 2.15-16.36-.82 0 0-6.41-3.17-6.57-14.52zM4.79 36.24s1.6 8.68 11.56 8.68c0 0 7 .17 16.81-5.84a37 37 0 0 1-5.12-2.44s-3.62-2.74-7.45-1.67a32.72 32.72 0 0 0-4.17 1.62 11.89 11.89 0 0 1-6 1.6s-3.51-.05-5.63-1.95z"/><path class="c" d="M58.66 64.3s19.86-21 48.52-13.7c0 0 1.42 16.44 19.13 17.44a20.22 20.22 0 0 0 11.73-3.65l11.14 4.16-11.68-7.36a15.71 15.71 0 0 1-10.5 3.65c-6.76 0-15-6.85-14.24-16.57a133.73 133.73 0 0 0-26-9.36l4.11 6.49s-26.61-1.69-48.43 15.24c0 0-20.82-4.62-23.33-8.63 0 0 42.86-34.84 97.72-20.71 0 0 .64-.94-1-2.25a17.93 17.93 0 0 0-5.11-2.46s13.42-.72 20.42 9.46l15.43 6.49-1.62 1.14s23.58 14.66 25.16 16.71l3.29 1.38s-2.34 6.85 2.46 10.55l-1.78 4.71s-7.89-8.5-15.75-8.83c0 0-5.81-.14-5.81 4.53 0 0-.7 5 10.89 6.42l-2.39 2.21-8.83-.56s.2-7.19-15.21-12.8c0 0-12.65 7.52-24.64-1.76 0 0-21.84 5.25-23.81 25.35a47.47 47.47 0 0 0-7.74-14.08s2.95-10.27 18.46-15.41c0 0-14-.72-23.77 10.45a51.26 51.26 0 0 0-16.82-8.25z"/><path class="a" d="M130.02 40.52s10.88 1.62 29.59 16.9l-17.68-9.66a10.72 10.72 0 0 0-1.86 1.22 50.43 50.43 0 0 0-10.05-8.46z"/><path class="b" d="M138.89 43.76a2 2 0 0 0-.54 2.07 2 2 0 0 0 1.85 1.27 1.91 1.91 0 0 0 1.86-1.71l-.75-.4-2 1.46.55-2.19z"/><path class="a" d="M170.32 62.24s-1.5.56-1.5 1.9c0 0-.36 1.4 2.66 4.42 0 0-4.48-3.28-5.32-5.25 0 0-.77-1.45 1.41-1.45a12 12 0 0 1 2.75.38zm-50.94-29.91s2.76 0 3.08-.64c0 0 .68-.71-3-2.45 0 0 5.74 1.17 8.34 5.81a46.4 46.4 0 0 0-8.42-2.72z"/></svg>