<svg xmlns="http://www.w3.org/2000/svg" viewBox="0 0 304.41 199.24"><defs><style>.a{fill:#fac400;}.b{fill:#293f38;}.c{fill:#fff;}</style></defs><title>GBP</title><path class="a" d="M304.44 99.61c0 55-68.14 99.62-152.21 99.62S0 154.63 0 99.61 68.14-.01 152.21-.01 304.44 44.6 304.44 99.61z"/><path class="b" d="M297.33 99.61c0 52.46-65 95-145.13 95S7.08 152.09 7.08 99.61s65-95 145.12-95 145.13 42.53 145.13 95z"/><path class="c" d="M280.98 95.65h-152.6v23h88.16c-11.77 17.36-37.27 29.39-66.85 29.39-40.75 0-73.79-22.82-73.79-51s33-51 73.79-51a100.93 100.93 0 0 1 33.83 5.68c14.11 5 25.58 13.12 32.54 23h58.88a76.81 76.81 0 0 0-18.79-23c-23.47-20-61.28-33-103.94-33C81 18.72 23.28 54.9 23.28 99.53S81 180.35 152.21 180.35c60.74 0 111.66-26.33 125.32-61.77a52.7 52.7 0 0 0 3.61-19q0-2-.16-4z"/></svg>