<svg xmlns="http://www.w3.org/2000/svg" viewBox="0 0 219.18 200"><defs><style>.a{fill:#fff;}.b{fill:#b21e35;}.c{fill:#06192e;}</style></defs><title>HOU</title><path class="a" d="M161.72 34.08c46.9 35.69 11.21 41-25.41 46.25 0 0-15.46-4.26-42.24-17.57-60.74-30.17-41.62-44.39 6.12-53-76.41-33.29-140.09 24.67-69.83 81l-19.28 13.78c15.85 9.71 48.64 30.08 43.88 61.26l-16.31 11.67L88.38 200l39.27-17.77c.29-17.28 31.16-26.24 44.44-61.37 73.1-16.77 54.48-81.09-10.36-86.77z"/><path class="b" d="M174.89 39.66c31.49 24.66 9.63 40.41-28.77 44.69 9.71 40.95-20.07 78.46-51.61 107.51l28.91-13.11c2.14-16.64 31.48-25.3 45.37-62.23 65.3-14.56 54.65-61.43 6.09-76.86z"/><path class="c" d="M128.3 83.61C36.53 48.16 30.45 19.09 87.74 9.04 16.1-10.42-25.68 41.5 45.2 91.04l-19 13.59c20.2 13.5 41.6 33.48 34.34 64.93l-9.61 6.8 36.81 16.68c34.26-37.51 52.18-74 40.56-109.44zm-23.12 57.08l-14.1-16-16.19 2.42 7.49-12.33-14.09-16 18.72 8.43 7.46-12.33 4.08 17.48 18.72 8.42-16.2 2.42 4.1 17.53z"/><path class="c" d="M128.3 83.61C36.53 48.16 30.45 19.09 87.74 9.04 16.1-10.42-25.68 41.5 45.2 91.04l-19 13.59c20.2 13.5 41.6 33.48 34.34 64.93l-9.61 6.8 36.81 16.68c34.26-37.51 52.18-74 40.56-109.44zm-23.12 57.08l-14.1-16-16.19 2.42 7.49-12.33-14.09-16 18.72 8.43 7.46-12.33 4.08 17.48 18.72 8.42-16.2 2.42 4.1 17.53z"/><path class="b" d="M174.89 39.66c31.49 24.66 9.63 40.41-28.77 44.69 9.71 40.95-20.07 78.46-51.61 107.51l28.91-13.11c2.14-16.64 31.48-25.3 45.37-62.23 65.3-14.56 54.65-61.43 6.09-76.86z"/></svg>