<svg xmlns="http://www.w3.org/2000/svg" viewBox="0 0 246.95 184.97"><defs><style>.a{fill:#231f20;}.b{fill:#1b5465;}.c{fill:#c7932c;}.d{fill:#8b6828;}.e{fill:none;stroke:#231f20;stroke-width:0.1px;}.f{fill:#fff;}</style></defs><title>JAC</title><path class="a" d="M201.75 123.9s17.18-4.81 25.38-18.5c9.63-2 19.82-12.66 19.82-22.11a20.3 20.3 0 0 0-8.88-17.07s-3.27-8.42-15.64-16.5c0 0 3.44-4 3.44-8.42s-3.44-7.22-9.57-11.68-12.09-6.7-19.65-11.4S172.36 5.45 161.59 3.1 144.18.01 138.1.01c-12.43 0-17.13 2-17.13 2s-3.78-1.6-12.2-1.6-13.52.69-31.45 5.56-31.73 8.25-46.34 9.16S9.73 16.79 5.2 16.79s-5.21 6.3-5.21 8.13c0 12.2 16 28.24 24.52 32.82a63.22 63.22 0 0 0-.75 8.65c0 4.07 1.26 20.28 14.89 35.92 18.1 19.13 35.86 21.71 47.89 29.5s16.1 16.27 22.45 25.89c9.68 16.21 26 27.27 43.71 27.27 28.76 0 41.76-28 41.76-34 0-4-4.81-4.76-4.81-4.76s3.72-11.51.8-22.11a94.89 94.89 0 0 1-10 13.46s-7.45-6.48-6-13.75a29.68 29.68 0 0 0 11.48-7.27 27.17 27.17 0 0 0 14.09-7.79 15.43 15.43 0 0 0 2 2.75l3.84-2.81.23 3.72 1.72-.4s-.98 4.91-6.06 11.89z"/><path class="b" d="M172.83 143.2s1.15-4-4.07-7a16.47 16.47 0 0 1 .34 4.76zm24.84-69.02c5.9-.32 13.49 1.28 13.33 7.17a48.46 48.46 0 0 1 3.88 6.8 20.68 20.68 0 0 0 6.22-9.08c-15.41-7.02-20.14-7.34-23.43-4.89z"/><path class="c" d="M187.58 72.91l12 9.77L183 88.84s1.33-3.93.26-4.46c-12-6.64-32.35-12.54-53-16.47s-31.43-4.22-31.43-4.22l7 1.41 7.17 2.92-24.54 1.75v5.15l-7.49.69c-1.7-3.72-3.61-2.5-5.85-4a7.44 7.44 0 0 1-2.87-4.3c-.21-.9-1.33-.85-3.4-1.43s-2.92-.11-3.35.64 1.81.64 1.81.64c-.8.85-4.2 1.12-4.2 1.12l-.05.27 2 .32a3.31 3.31 0 0 0 .27 4.09 2.46 2.46 0 0 0 3 .05s-.9 1.28-.58 1.7-1.06 1.75-1.06 3.08c0 2.5 3.08 3.72 3.08 3.72l-13.6 5.47-1.34 2.18a3.12 3.12 0 0 1-1.22 2.76 4.87 4.87 0 0 0-1.86 1.86c-.43.48-5 3.88-5 3.88-3.45-3.56-4.2-5.26-4.2-5.26a7.3 7.3 0 0 0 2.6-5.32l-2.28-.32c2.6-1.59 2.87-2.92 2.87-2.92-.48.64-1.49.21-1.49.21-.48-2.44-2.18-2.6-2.76-4.3s-3-1.17-3-1.17a7.58 7.58 0 0 1 1.81-1.7c.74-3.13 1.59-3.29 1.59-4.41 0-2.34-4.36-2.76-4.51-2.23s.9 1.12.9 1.12a12.74 12.74 0 0 0-3.88 1.86c-1.81-14 .64-16.58.64-16.58 12-.43 17.8-6.59 17.8-6.59l-5.58.21-4.43-2.33 9.88-3.35c15.72-.37 27.09-11.1 27.09-11.1s-9.24 5.68-19.23 5.68a38.67 38.67 0 0 1-23.9-9l-.27-1.22c1.81-.27 1.43-1.28 2.18-2.18s2-.37 2-.74-.9-.42-.9-.42l-.05-.64s2.66 0 2.66-1.17-1.86-.16-4.36-1.38l-1.38-3.19c10.36-.58 22.31-3.88 22.31-3.88a4.32 4.32 0 0 0 2.87 2.13l-1.59 1a9.57 9.57 0 0 0 2.23.16 9 9 0 0 1 2.39-.37c1.17.05 2.82.21 2.55-.74s-2.07-1.65-2.07-1.65l.16-.43 2.71.69a3.16 3.16 0 0 1 .05-2.82L90.9 8.16s1.38 3.39 3.93 3.28c4-.53 3.51.9 5.52 1.06a19.34 19.34 0 0 1-2.39-3.67l.32-.21 2.5 2c2.44-2.07 5.37-1 5.52-1.43s-1.33-1.54-1.06-1.86 2 1.59 2.5 1.28-.74-3-.74-3c7.65-.48 19.66.85 19.66.85l.11.42c-2.28.48.37 3 .37 3l-.64.21s-1.38-1.43-2-1.43-1.12.53-1.12 1.49 2 2.13 3.4 2.13a5 5 0 0 0 2.5-.74c0 .58 3.56.32 3.4-.53s-2.13-2.44-2.13-2.44l3.77 1.81 1.38-2.28a118.13 118.13 0 0 1 15.35 4.09 6 6 0 0 0-2.6 1c-.8.43 0 1.54 0 1.54a.74.74 0 0 0-1.06.27 3.16 3.16 0 0 0 3.13 1.75l-.43-1a1.47 1.47 0 0 1 1.38 1s1.43-.05 2.82-.16a4.55 4.55 0 0 1 2.76 1.06l-.22-1.11 1-1.28.69.9h1.86l1.91 1.7.27-1.54a1.72 1.72 0 0 0 1 .9 4.67 4.67 0 0 1 1.28-1.06c-.32-1.06 2-2.55 2-2.55.32-2.44-2.82-2.76-3.56-2.6s-.16 1.06-.64 1.17-.53-1.17-.9-1.12-.21 1.06-.21 1.06-1.59-.16-2.07.21a16.55 16.55 0 0 0-1.7 2.23l-9.19-4.62 2.55-1 .48.58c1-5-5-4.57-5.36-4.46s.74 2.44.21 2.6-1.65-1.7-2.07-1.7a13.74 13.74 0 0 0-2.55 1.38c-2.18-1.22-8.34-2.23-8.34-2.23a39.84 39.84 0 0 1 8.92-1c16.1 0 28.58 5.79 32.46 7.54s4 3.19 4 3.19a8.68 8.68 0 0 0-1.7-.69c-.11 1.12 6.32 3.72 6.32 3.72-1.49-1.65-1.06-2.39-1.06-2.39 1.81 2.12 2.76 1.33 3.29 1.59s19.82 10.63 21.89 11.8 2.23 2.44 1.65 2.71-1.33-1.22-1.33-1.22c-.85.8-.85 2.71-.27 2.87s0-.53.8-.42.58.74 1.91 1.06a11.06 11.06 0 0 1 2.76 1.22l.11-1.43 2.18 2.71c3-.21 5.1 2.5 5.1 5.47a5.82 5.82 0 0 1-1.91 4.46c-11.79-8.5-20.93-11.21-20.93-11.21 6.48 3.29 17.74 12.91 21.14 16.84s4 5.1 4 7-1.22 3.19-1.22 4a1.53 1.53 0 0 0 1.38 1.7c1.54 0 4.3-3.51 4.3-3.51s5 3.61 5 8.13-5.68 2.76-10.25 6.69a102 102 0 0 0-25.07-6.37c-12-1.33-18.85-.53-18.85-.53z"/><path class="d" d="M38.15 31.27a38.38 38.38 0 0 0 22.45 7.89c10 0 19.23-5.68 19.23-5.68s-11.37 10.73-27.09 11.1l-9.91 3.35 4.46 2.34 5.58-.21s-5.79 6.16-17.8 6.59c0 0-2.44 2.6-.64 16.58a12.74 12.74 0 0 1 3.88-1.86s-1.06-.58-.9-1.12 4.51-.11 4.51 2.23c0 1.12-.85 1.28-1.59 4.41a7.58 7.58 0 0 0-1.81 1.7s2.39-.53 3 1.17 2.29 1.86 2.76 4.3c0 0 1 .42 1.49-.21 0 0-.27 1.33-2.87 2.92l2.28.32a7.3 7.3 0 0 1-2.6 5.32s.74 1.7 4.2 5.26c0 0 4.57-3.4 5-3.88a4.87 4.87 0 0 1 1.86-1.86 3.12 3.12 0 0 0 1.22-2.76l1.17-2.18 13.6-5.47s-3.08-1.22-3.08-3.72c0-1.33 1.38-2.66 1.06-3.08s.58-1.7.58-1.7a2.46 2.46 0 0 1-3-.05 3.31 3.31 0 0 1-.27-4.09l-2-.32.05-.27s3.4-.27 4.2-1.12c0 0-2.23.11-1.81-.64s1.27-1.22 3.35-.64 3.19.53 3.4 1.43a7.44 7.44 0 0 0 2.87 4.3c2.24 1.49 4.15.27 5.85 4l7.49-.69v-5.15l24.54-1.75-7.17-2.92-7-1.41s10.84.29 31.45 4.22c4.42.84 8.84 1.78 13.16 2.79a97.26 97.26 0 0 0-7.95-7.5 294.69 294.69 0 0 0-37.42-7.55s11.69.39 33.19 4.76c-7.46-6.06-13.71-7.74-13.71-10.48 0-1.78 3.46-4.52 3.46-4.52l5-4 11.21-4.33-.34-3.22.87-.72s-.82-2.16 1.68-2l.14-.19s-10.2-3.85-34.25-4.09l2.65 2.47a27.94 27.94 0 0 1-4.86-.19 5.7 5.7 0 0 0 .58 4.81l-2.55-.19 3.46 1.73a2.11 2.11 0 0 0-2.26 2.12c0 1.88-2.93 2-2.93 2l.34 1.2-2-.91 1.2 1.49c-5.58.34-7.26-.91-6.06-2.6.48-.63 0-1.4-1-2.31v-1.06s2.65.43 3.46.53a10.87 10.87 0 0 0-3.46-1.73c.34-1.49 1.54-.77 2.36-2.84a22.28 22.28 0 0 1 2.74.87s-.53-1.11-3.66-2c0 0 1.68-.19 2.84-.29a1.15 1.15 0 0 0 1.15-1.11c-11.4.82-22.75 4.28-29.58 6.06l2.31-2.5a58.83 58.83 0 0 1-13.66 2.07c-6.42 0-12.28-1.72-18.1-3.22zm161.34 38.66q-1.22-.17-2.46-.32a102.73 102.73 0 0 0-17.69-.63l-1.05-.49a15.83 15.83 0 0 0-8.71-6.2 41.9 41.9 0 0 1 12.75-2c7.22 0 11.69 2.41 14.82 2.41 2.74 0 2.36-1.73 2.36-1.73 1.54 1.4.48 3.7-2.84 3.9a9 9 0 0 0 2.82 5.06z"/><path class="e" d="M219.6 38.64a6.16 6.16 0 0 1 .9 3.23 5.82 5.82 0 0 1-1.91 4.46 96.25 96.25 0 0 0-8.84-5.67c5.76.51 8.22.17 9.85-2.02z"/><path class="b" d="M118.04 90.66c13.89 5.49 12.17 19 12.92 27.38.17 15.38 2.57 24.47 16.41 31.38 0 0 11.2-6 14.52-16.41-7.37-4.92-7-13.43-7-17.84 0-11.72-2.63-20.69-15.66-23 9 6.17 9.32 26.46 9.32 29.21 0 9.32 2.74 13.6 2.74 13.6s-4.63-1.31-6-16.23c-.67-25.81-15.94-31.41-27.25-28.09z"/><path class="a" d="M159.42 55.75a30.78 30.78 0 0 1 13.56-3.51 74 74 0 0 1 15.58 1.88s2-2 2-6.4c0-7.07-6.3-11.4-6.3-11.4a16 16 0 0 1 1.92 7.46c0 5.05-4.23 7.36-9 7.36a26.34 26.34 0 0 1-13.08-3.94l-9.43-3.85-1.88-3.51.24-3.22a3.63 3.63 0 0 1 1.78-1.44l-.24-1.15 1 .91s2.93-1 2.93-3.27c0-1.3-1.39-2-2.4-2s-1.3.43-2.07.43-.53-.77-1.92 0-5.63 2.12-5.63 2.12-2.31.67-3.37-.91a3.64 3.64 0 0 0-3.28-1.77c-2 .34-.19 1.44-.19 1.44l-.14.19s-2.07-.34-1.79 1.63l-2 6.16-11 2.89-4 4.09v.38a26.76 26.76 0 0 1 10.1-1.2l4 5.53 8.18 4.57 6.78 1.78 4.52 1.68s5.54 2.55 13.54 10.49c0 0-.09-4.28-8.41-13.42z"/><path class="d" d="M154.37 35.31a4 4 0 0 0-1.39 1.3l-.24 3.22 1.88 3.51 9.43 3.85a26.34 26.34 0 0 0 13.08 3.94 10.25 10.25 0 0 0 6.92-2.27 11.7 11.7 0 0 1-4.56.82c-2.79 0-5.1-1.06-10.78-5.44s-10.64-7.43-14.34-8.93z"/><path class="d" d="M188.12 40.35a13 13 0 0 1 2.42 7.37c0 4.38-2 6.4-2 6.4a74 74 0 0 0-15.58-1.88 30.78 30.78 0 0 0-13.56 3.51s7.12-.29 9 6.83c0 0 10.82-7.46 27.08-6.69-.36-5.77-3.86-11.46-7.36-15.54z"/><path class="a" d="M199.5 60.99s.38 1.73-2.36 1.73c-3.13 0-7.6-2.41-14.82-2.41a41.9 41.9 0 0 0-12.75 2l-.54-.11a42 42 0 0 1 8.1-3.69c6.88-2.28 18.28-1.41 22.37 2.48zm-64.03 2.21a294.69 294.69 0 0 0-37.42-7.55s11.69.39 33.19 4.76c18 3.41 42.48 11.3 51.23 16.35 1.06 1.15 1 1 1 2s-1.06 1.39-1.83 1.39-.77.1-3.9-1.54-18.7-8.87-42.27-15.41zm62.82-34.07c-.09.2-.26.22-.43.32a1.92 1.92 0 0 1-.62.27c-.41.07-.92.08-1.13.52.16.07.22.37.3.51a2 2 0 0 0 .39.52 5.82 5.82 0 0 1 1 1c-.29 0-.58-.2-.82-.33s-.61-.12-.79-.26a1.86 1.86 0 0 0 .74 1.29 4.47 4.47 0 0 0 1.82 1l.52.16c.21.07.43.06.64.13s.59.35.89.46a2 2 0 0 0 .48.09c.11 0 .46.15.55.09s-.11-.49-.17-.58-.38-.42-.52-.67c-.29-.5.1-.36.44-.21a6.56 6.56 0 0 1 .9.57 2.68 2.68 0 0 0 1.05.5 3.06 3.06 0 0 0-.2-1.4 5.14 5.14 0 0 0-.72-1.49 6.8 6.8 0 0 0-1.19-.93 3.07 3.07 0 0 0-.62-.36c-.11 0-.36-.19-.46-.16s-.13.2-.25.25c-.41.18-.68-.16-.87-.44a5.13 5.13 0 0 0-.52-.7zm-10.18-8.59c0 .3.18.75-.08 1s-.85-.05-1.19-.2-.76-.44-.89 0c-.08.24.32.69.43 1a.89.89 0 0 1 .33.89.56.56 0 0 1-.59-.17 1.89 1.89 0 0 1-.89-.6c0 .14.14.42.21.55a1.74 1.74 0 0 0 .49.56c.35.3.71.57 1 .87a1.88 1.88 0 0 0 1.29.63 5.36 5.36 0 0 1 1.87.27 1.55 1.55 0 0 1 .91.62 2.91 2.91 0 0 0 .78.93 7.31 7.31 0 0 0 1.51 1c.24.11 1.3.48 1.39 0a1.25 1.25 0 0 1-.35-.55 2 2 0 0 1-.52-.92c-.07-.26-.05-.32.23-.35a.45.45 0 0 1 .49.17c.23.27.35.61.55.86a1.59 1.59 0 0 0 .84.49c.21-.28.06-.4 0-.73s.08-.58-.05-.81a1 1 0 0 0-.45-.37 2.72 2.72 0 0 1-.44-.17c-.23-.27.34-.43.52-.48a1.55 1.55 0 0 0-.42-1.25 2.42 2.42 0 0 1-.84-1c-.31-.08-.31.3-.52.41s-.49-.1-.67-.27a9.07 9.07 0 0 1-1-.91 1.63 1.63 0 0 0-.73-.6 3.06 3.06 0 0 0-1 0 2.78 2.78 0 0 0-.89.2c-.19.07-.48.16-.64 0s-.11-.47-.27-.67zm-7.98 6.39a5.51 5.51 0 0 0 .55.4c.12.09.35.32.51.35.39.41-.49.76-.69 1s-.8.7-.61 1.18a4.34 4.34 0 0 1 .29.61c.07.27 0 .58.1.84a2.3 2.3 0 0 0 1 1.09c.4.13.48-.31.71-.48a.92.92 0 0 1 .68 0 3.24 3.24 0 0 0 .79.15c.17 0 1.15.05.79.4s-.89-.13-1.19.13c0 .2.36.26.52.34a2.74 2.74 0 0 1 .56.38 1.36 1.36 0 0 0 .82.37 1.39 1.39 0 0 0 .65-.07c.21-.07.38-.18.57-.24a3.74 3.74 0 0 1 .77-.08 1.31 1.31 0 0 1 .77.05c.27.12.56.27.84.36a4.36 4.36 0 0 1-.32-.64 1.23 1.23 0 0 1-.17-.73c.08-.25.5-.18.59-.48s-.12-.41-.19-.65a1.1 1.1 0 0 0-.37-.67c-.17-.15-.36-.3-.52-.46a1 1 0 0 1-.23-.38 3.32 3.32 0 0 0-1-1.21 8.92 8.92 0 0 0-1.39-.7c-.28-.13-.44-.31-.76-.32s-.66-.06-.69.17.26.42.3.62c.08.4-.14.43-.45.33a5.31 5.31 0 0 1-1.06-.69c-.26-.16-.52-.29-.78-.43s-.49-.4-.8-.54zm-4.95 5.77c0-.06 0-.11-.1-.1s0 0 0-.07c-.18 0-.35-.36-.42-.49a1.59 1.59 0 0 0-.42-.53c-.39-.3-.84-.57-1.23-.82a4.22 4.22 0 0 1-1.15-1.07 4.22 4.22 0 0 0-.32-.54 1.45 1.45 0 0 0-.61-.35c-.59-.13-1.25.35-1.68.69s-.54.75-.92.71c-.55 0-1-.41-1.58-.47-.07.86 1 .79 1.31 1.41h.07c.08.22.2.47 0 .64s-.58 0-.81-.14-.23-.15-.36-.21-.23-.21-.37-.28a.41.41 0 0 0-.55.38c0 .13.12.25.14.39a1.93 1.93 0 0 1 0 .4.9.9 0 0 1-.22.56c-.17.2-.43.3-.4.62s.49.47.75.64.46.27.52.49c.13 0 .14.14.12.24-.27.15-.63-.1-.92-.16a5.14 5.14 0 0 0-.82-.07c-.26.5.74 1 1.11 1.16a5.41 5.41 0 0 0 1.75.18c.4 0 .75.11 1.16.12s.69 0 1 0a2.21 2.21 0 0 0 .86-.26 1.5 1.5 0 0 0 .65-.6c.32-.43.69-.8 1-1.21s.85-.76.46-1.24a3.38 3.38 0 0 0-.62-.46c-.16-.13-.46-.48-.23-.7s.54 0 .67 0 .46.29.7.42a2.48 2.48 0 0 1 .45.29 4 4 0 0 0 .54.26zm-8.63-11.23c.1.1.25.17.33.24s.39.32.49.41a3.56 3.56 0 0 0 .47.43 3.88 3.88 0 0 1 .45.35c.14.12.4.17.49.37a3.1 3.1 0 0 1 .92.32c.3.12.6.22.89.32a7.08 7.08 0 0 0 2.5.41 1.12 1.12 0 0 0-.18-.92c-.21-.26-.54-.48-.55-.83.5-.27 1.23.53 1.54.83s1 .81 1.41 1.2a1.49 1.49 0 0 0 .73 0c.3-.08.32-.24.51-.44.42-.43 1.11-.34 1.67-.35a1.21 1.21 0 0 0 1.23-.88 2 2 0 0 0 .08-.8 2 2 0 0 0-.34-.63 3.41 3.41 0 0 0-.8-.77c-.31-.21-1-.41-1.16-.76s.31-.44.59-.35.63.52.89.32c-.08-.17-.33-.28-.47-.4s-.38-.32-.56-.5a1.71 1.71 0 0 0-1.29-.54 6.8 6.8 0 0 0-1.46.27c-.32.07-1.26-.06-1.42.22.25.25 1.36.88 1.13 1.38-.1.22-.63.23-.81.13s-.27-.26-.41-.35-.44-.18-.52-.34a4.32 4.32 0 0 1-.64-.43 4.67 4.67 0 0 0-.73-.37 3.15 3.15 0 0 0-1.75-.14 3.34 3.34 0 0 0-.82.34c-.24.16-.41.39-.66.53a4.92 4.92 0 0 0-.87.45c-.27.24.08.44.25.65s.38.3.5.49.07.39.16.57a1.11 1.11 0 0 1-1-.32zm-14.5-.47c.18-.1.6.24.73.35s.49.31.56.47c.23.46-.71.75-1 .91s-.91.38-1.05.78.43.81.5 1.21a1.21 1.21 0 0 1 0 .54 1.63 1.63 0 0 1-1.11-.39 10 10 0 0 0-.91-.47c0 .4.56.86.91 1 .1.25.52.33.72.49s.48.43.4.71-.5.18-.76.05a1.36 1.36 0 0 0-.9-.24c-.06.27-.27.41-.17.71s.3.36.45.54a1.11 1.11 0 0 0 .72.51 6.49 6.49 0 0 0 1.06 0h1.7a7 7 0 0 0 .79-.12 6.08 6.08 0 0 0 .8-.35c.25-.09.33 0 .28-.31a1.92 1.92 0 0 0-.28-.59c-.14-.25-.69-.55-.66-.82.42-.13.6.14.92.35a3.23 3.23 0 0 0 .88.41 3.28 3.28 0 0 0 2-.2 5.48 5.48 0 0 0 1.54-1.15c.42-.36 1.1-.2 1.56-.57s-.13-.73-.19-1.08.07-.38.36-.4a1.52 1.52 0 0 1 .42 0c.17 0 .24.16.39.2s.28-.18.3-.41a3.08 3.08 0 0 0 0-.81c-.11-.54-.83-.78-1.27-1a14.39 14.39 0 0 0-1.41-.65 3.27 3.27 0 0 0-1.77-.12c.19.13.23.27.36.44s.25.16.27.23c.07.29-.51.2-.67.16-.63-.17-1.11-.92-1.79-.52a3.45 3.45 0 0 0-.63.52 1.28 1.28 0 0 1-.87.12 6.63 6.63 0 0 1-.85-.17c-.29-.07-.6-.09-.88-.15a1.68 1.68 0 0 0-.63-.12zm-13.01 5.46c0-.21-.18-.43-.32-.52a2.71 2.71 0 0 1-.66-.51c-.21-.24-.89-.94-.5-1.25a3.83 3.83 0 0 1 .5-.18c.12-.07.25-.15.38-.22s.39-.24.59-.36c.44-.26.63-.68 1-1.05a2.39 2.39 0 0 0 .52-.72 1.27 1.27 0 0 1 .59-.61c.54-.31 1.11.34 1.62.39a1.16 1.16 0 0 1-.58-1 .84.84 0 0 1 .5-.54c.29-.15.56-.28.84-.46.88-.56 1.54-1.93.43-2.6a1.85 1.85 0 0 0-1.41-.29c-.16.07-.31.21-.48.29a2 2 0 0 1-.74.15 4.91 4.91 0 0 1-1.72-.23 9.84 9.84 0 0 1-1-.26 2.49 2.49 0 0 0-1.19-.22c0 .15.21.12.29.2a1.2 1.2 0 0 1 .15.34c.14.37 0 .46-.36.51-.59.07-1.21-.18-1.44.5-.3.9-1 .59-1.77.59-.26 0-.54-.07-.55.25s.27.44.47.58c.65.44 1.27.72 1.55 1.5.21.6-.24.41-.64.17a9.85 9.85 0 0 0-1.19-.69c-.65-.29-1.25-.65-1.91-.91a2.32 2.32 0 0 0-1.65.21 3 3 0 0 0-1.18.89c-.23.36-.56 1.1-.39 1.49a3.65 3.65 0 0 0 1.26 1.31 3.31 3.31 0 0 1 .59.53 1.3 1.3 0 0 1 .22.63 2.35 2.35 0 0 1-.93-.11c-.14 0-.87-.29-.87 0 .3.06.59.43.87.55s.45.14.67.26.46.35.75.3c-.26.52 1.51.42 1.78.43a3.08 3.08 0 0 0 1.51-.2c.23-.1.45-.07.47-.35a.77.77 0 0 0-.13-.55c-.1-.18-.24-.57 0-.69s.72.35.87.49a8.7 8.7 0 0 0 1.13.89 5.49 5.49 0 0 0 1 .54zm-22.4-4.19a8.11 8.11 0 0 1 .12-.89v-1.19s.29-.15.38-.2a8.62 8.62 0 0 0 .75-.5 3.19 3.19 0 0 0 .89-1.31 3.09 3.09 0 0 0 .37-1.77 5.3 5.3 0 0 0-.4-.82 1.85 1.85 0 0 0-.43-.59 2.52 2.52 0 0 0-1.6-.55 4.75 4.75 0 0 0-1.73.09 2.22 2.22 0 0 1-.85.15.85.85 0 0 1-.76-.51 6.48 6.48 0 0 1-.4-.75c-.09-.2-.14-.46-.24-.65s-.42-.39-.44 0a2.24 2.24 0 0 0 .09.33c0 .15 0 .33.07.5a13.25 13.25 0 0 1 .38 3.08c0 .13 0 .21-.1.27s-.34-.24-.46-.39-.27-.37-.41-.59c-.32-.51-.53-1-1.11-1.2s-1 .14-1.48.4a4.82 4.82 0 0 0-1.07.79 1.49 1.49 0 0 0-.43 1.36c.12.5.6.85.63 1.38.05.76-1 0-1.21-.19a4.55 4.55 0 0 1-.95-1.05 2.84 2.84 0 0 0 .12 1.62 4.93 4.93 0 0 0 .95 1.61 4.73 4.73 0 0 0 .67.49 5 5 0 0 0 .82.38 2.71 2.71 0 0 0 2 .24 15.61 15.61 0 0 1 2.78-1.18 2.18 2.18 0 0 1 1.57.25 5.08 5.08 0 0 1 .68.52c.14.13.33.55.47.61zm7.19 16.06a2.88 2.88 0 0 0-1-.95c-.2-.1-.52-.26-.31-.57s.4-.25.56-.39a4.12 4.12 0 0 0 .88-1.32 1.33 1.33 0 0 0 .16-.8 2.12 2.12 0 0 0-.4-.61.91.91 0 0 1-.22-.51c.43-.31.88.28 1.25.35-.11-.16-.16-.35-.26-.5a1.16 1.16 0 0 0-.6-.42c-.22-.1-.49-.24-.41-.55s.39-.24.55-.4.1-.22.12-.41a1.58 1.58 0 0 0 .05-.43c-.06-.23-.43-.39-.6-.48s-.47-.28-.71-.42-.57-.31-.76-.24c-.66.22.31 1.55-.81.82a6.22 6.22 0 0 0-1.58-.79 2.26 2.26 0 0 0-1.61.32 9.73 9.73 0 0 1-1.81.77 2 2 0 0 0-.79.37c-.3.29 0 .42.12.68a6.88 6.88 0 0 1 .4.72 1.06 1.06 0 0 1 .19.69 6.19 6.19 0 0 1-1.36-.47l-.6-.17c-.3-.1-.42-.12-.6.15s-.1.53-.23.79a1.14 1.14 0 0 1-.67.45 6.4 6.4 0 0 0-1 .56c-.23.14-.56.27-.7.5-.34.56.1 1.15.45 1.49s.8.61.69 1.06c-.3 0-1-.13-1.18.15a2.68 2.68 0 0 1 .33.29c.25.19.54.3.79.49s.76.41 1.08.66.41.34.1.43-.71-.05-1.05 0c.06.06.13.06.19.11a3.17 3.17 0 0 0 .31.31 3.23 3.23 0 0 0 .68.15 10.62 10.62 0 0 1 1.4.33 2 2 0 0 0 2 .12c-.32-.11-1.28-.41-1.06-.95.13-.3.59-.12.76 0a5.56 5.56 0 0 0 .84.52c1.27.59 2.24-.91 3-1.63a2.73 2.73 0 0 1 1.17-.87c.4-.09 1.35-.12 1.54.38zM54.97 62.32h-.89s-.56-.3-.82-.27a4 4 0 0 0-2.25-1.17 4.61 4.61 0 0 0-2.5 0 8.07 8.07 0 0 0-1.88 1.86 6.16 6.16 0 0 0-.85 1.13 5 5 0 0 0-.42 1.6c-.24 1.13-1.27.78-2.1 1.21.64.05 1.31 0 2 0 .42 0 1.47-.05 1.67.35-.43.28-1.2.38-1.53.88.21.18.41.19.56.42a4.77 4.77 0 0 1 .4.93 5.78 5.78 0 0 1 .08 1.67 13.92 13.92 0 0 0 .09 2.07 10.25 10.25 0 0 0 .13 1.8 6.31 6.31 0 0 1 2.46 0c-.11.3-.57.42-.83.58l-1.07.64a1.66 1.66 0 0 0-.64 2.19 3.55 3.55 0 0 0 1.62 1.84 4.93 4.93 0 0 0 2.68.62c1.78-.21 2.79-2.43 3.94-3.55.74-.72 1.84-.91 2.45-1.84a5.28 5.28 0 0 0 .75-3.21 3.31 3.31 0 0 0-.58-1.28 2.58 2.58 0 0 0-1.19-.8 1.68 1.68 0 0 0-1.55.1 6.09 6.09 0 0 1-1.34.33 4.24 4.24 0 0 1 1.09-.92c.18-.12.71-.3.82-.48a2.42 2.42 0 0 0 0-1 2.58 2.58 0 0 0-.52-1 7.49 7.49 0 0 1-.88-2.08 2.51 2.51 0 0 0-.3-.94c-.22-.26-.69-.56-1-.36.21-.46 1.6-.66 2.06-.87zm9.79-9.31c0-.26-.75-.63-.91-.77a2.53 2.53 0 0 0-1.2-.42 4.05 4.05 0 0 0-1.14-.27c-.44 0-.55.28-.89.51-.76.52-1.72 0-2.49.31a2.35 2.35 0 0 0-1.4 1.63c.3 0 .29.14.52.25a1.4 1.4 0 0 0 .37.11 4.27 4.27 0 0 0 1 .14.4.4 0 0 1 0 .38 6.06 6.06 0 0 0-.8.14 3.46 3.46 0 0 1-.83 0c-.36-.07-1.19-.47-1.43 0 .51.45 0 .81 0 1.31a4.24 4.24 0 0 0 .71 1.68h.12a2.65 2.65 0 0 0 1.67 1.53 8.78 8.78 0 0 0 1.8.34 5.88 5.88 0 0 0 1.23.09c0-.43-.37-.6-.73-.75s-1.09-.31-.67-.65 1.26.08 1.66.13 1 .23 1.46.26c.76 0 1.88.26 2.46-.31a5.87 5.87 0 0 0 .66-1.1c.25-.38.73-.54.83-1a4.35 4.35 0 0 0 0-1.14c0-.5-.28-.66-.49-1a8.3 8.3 0 0 1-.9-.59 1.81 1.81 0 0 0-.94-.25c-.31 0-.85.08-1-.15s0-.48.29-.59zm19.19-9.53c-.15-.16-.38 0-.61-.09a3.11 3.11 0 0 1-.67-.34 4.52 4.52 0 0 0-1.52-.54c-.11-.45-.25-.62 0-1a3.36 3.36 0 0 0 .56-1 2.26 2.26 0 0 0-.54-2.1c-1.1-1-3.18-1-4.64-1 .15.2.38.26.56.44s.26.46.66.44a.8.8 0 0 1 .19.47h.11c.25.65-2.23.23-2.62.21a1 1 0 0 0-.75.18c-.23.18-.25.49-.52.66s-.89.33-1.28.6a8.82 8.82 0 0 1-2.23 1.29c-.39.12-.89.19-.67.71.13.31.59.61.79.82.05.05.15 0 .21 0a.45.45 0 0 1-.26.52c-.35.19-.65-.13-.94-.3l-1.29-.75a2.22 2.22 0 0 0 .09 1.36c.07.23.22.42.2.67s-.21.39-.38.62c-.85 1.1 1.57 1.2 2.1 1.84-.55.39-1.5 0-2.06-.14a3 3 0 0 0-1.84 0 10.68 10.68 0 0 0 3.15 1.23 16.14 16.14 0 0 0 1.88.35 11.43 11.43 0 0 0 1.69.35 14.67 14.67 0 0 0 1.47-.09 1.73 1.73 0 0 0 1.17-.52 1.55 1.55 0 0 1 1.17-.44 4.81 4.81 0 0 0 1.32-.08c.58-.17 1.66-.68 1.55-1.35s-.84-1.08-.35-1.87c.19-.3.38-.34.68-.5s.42-.37.67-.51a2.3 2.3 0 0 1 1.85-.09zm10.63 13.79c-.36-.07-.71.36-1.05.43a4 4 0 0 1-1.32.06 3.83 3.83 0 0 1-2.14-1.24c-1-1.21-1.49-2.76-2.59-3.9-.3-.31-.8-.53-.94-.92a8.77 8.77 0 0 0-2.14-.23c-.27 0-1.64-.32-1.58.22.44 0 2.42.56 1.75 1.36-.48.57-2.23 0-2.9.14s-.58.56-.77 1-.4.82-.59 1.22-.82 1.93-.53 2.49c.17.33.89.21 1.27.31a4.06 4.06 0 0 1 1.11.4 4.77 4.77 0 0 1-1.67.8c-.57 1.22 1.65 2.46 2.4 3.08.38.32 1 .67 1.24 1.13.32.76-.52 1-1 1.28-.08.4.73.59 1 .68a4.22 4.22 0 0 0 .91.23 3.44 3.44 0 0 1 .87.24 4.3 4.3 0 0 0 3-.32 2.91 2.91 0 0 1 1.33-.45h1.55a8.35 8.35 0 0 0 2.37-.78c.4-.21.67-.38.62-.81a2.35 2.35 0 0 0-.51-1.1c-.32-.39-.69-.78-1-1.17s-.63-.48-.89-.75a2.28 2.28 0 0 1-.47-.8c-.14-.47-.06-.67.39-.85.67-.27 1.28-.73 2-1zm16.68-5.14c-.72-.11-1.22-.52-1.93-.62a.83.83 0 0 1-.09-.33 2 2 0 0 1 1.49-.16 4 4 0 0 0 1.49.47c-.28.09-.65-.57-.82-.72a8.64 8.64 0 0 0-1-.57c-.59-.4-.87-1.1-1.58-1.49-.3-.17-2.55-.58-2.15-1.13.18-.25 1.12.07.88-.35a5.33 5.33 0 0 0-1.25-.61 4.79 4.79 0 0 0-1.27-.13 5.56 5.56 0 0 0-1.49 0c-.34.09-.14 0-.32.26a5.16 5.16 0 0 1-.33.66c-.37.42-.81.19-1.34.26-.21 0-1 .19-1 .46s1 .49 1.29.59 1 .33.74.75-1 0-1.21-.08a3.13 3.13 0 0 0-1.68-.38c.06.54 1.41 1.05 1.88 1.28.2.1.73.23.51.62s-.72.14-1 .14a2.07 2.07 0 0 1 1.2.53 7 7 0 0 1 1.27.84c.37.38.17.73.36 1.19a1.94 1.94 0 0 0 .88.84 2.51 2.51 0 0 0 2.17-.07c.32-.19.74-.4 1.06-.61s.42-.58.77-.83.8-.66 1.26-.6zM62.83 23.06c-.88 0-1.57.4-2.46.44a18.83 18.83 0 0 1-2.83-.53c-1-.09-1.79-.2-2.48.55a11.81 11.81 0 0 1-2 1.88c-.45.31-.34.57-.64.92s-.61.25-.91.3a8.14 8.14 0 0 0-1.09.31 5.69 5.69 0 0 0-1.17.31 2.42 2.42 0 0 0 .86 0 4.3 4.3 0 0 1 1.2.25c.74.19 1.11.43.51 1.15-.35.43-.53.91-.13 1.32a2.62 2.62 0 0 0 .7.45c.19.09.44.15.64.25s.18.28.46.27a.65.65 0 0 1 0 .29c-.66.22-1.93-.38-2.33.36a2.72 2.72 0 0 0 2.24.75 4.47 4.47 0 0 0 2.67-.7 1.64 1.64 0 0 1 1.19-.35 3.84 3.84 0 0 0 .93 0c.25-.07.28-.17.47-.35a1.68 1.68 0 0 1 1.32-.54 1.34 1.34 0 0 0 1-.52 1.43 1.43 0 0 0 .53-1.8 3.31 3.31 0 0 1-.22-.83c0-.46.22-.68.31-1.06a1.68 1.68 0 0 0-.14-1c-.09-.22-.33-.51-.34-.75 0-.7.79-.59 1.19-.83zm26.74-7.33c-.88 0-1.55.81-2.4.23a1.51 1.51 0 0 0-1.12-.32 1.62 1.62 0 0 0-1.18.3c-.74.52-1.61.8-2.28 1.28s-.74.65-1.41.66a8.11 8.11 0 0 0-1.35.08 5.57 5.57 0 0 0-2.57 1.58c-.48.44-1.45 1.86-1.17 2.55a2 2 0 0 0 1.62 0c.13-.05.54-.28.7-.16.34.26 0 .7-.26.84-.55.38-1.12.74-1.67 1.08s-1 .44-1.27 1a8.27 8.27 0 0 0 1.58-.12 4.38 4.38 0 0 1 1.38-.27c.05.23.4.31.59.49a7.78 7.78 0 0 0 .65.68 3.47 3.47 0 0 0 1.14.53 12.07 12.07 0 0 0 3.15.19h2.73a4 4 0 0 0 1.26-.23 3 3 0 0 0 1.16-.92c-.24-.25-1.33-.07-1.71-.09-.28-.62.44-.79.87-.87a2.6 2.6 0 0 0 1.23-.61c.68-.53.86-1.34 1.39-2a3.47 3.47 0 0 1 .93-.63 9.94 9.94 0 0 0 1.14-.91 2.31 2.31 0 0 0 .44-2.62 3.5 3.5 0 0 0-1.69-1 4.56 4.56 0 0 0-2 .7c-.21.13-1.82.86-1.57 0 .16-.54 1.26-.61 1.53-1.09zm13.38 13.42a5.7 5.7 0 0 0 .58 4.81l-2.55-.19 3.46 1.73a2.11 2.11 0 0 0-2.26 2.12c0 1.88-2.93 2-2.93 2l.34 1.2-2-.91 1.2 1.49c-5.58.34-7.26-.91-6.06-2.6.48-.63 0-1.4-1-2.31v-1.06s2.65.43 3.46.53a10.87 10.87 0 0 0-3.46-1.73c.34-1.49 1.54-.77 2.36-2.84a22.28 22.28 0 0 1 2.74.87s-.53-1.11-3.66-2c0 0 1.68-.19 2.84-.29a1.15 1.15 0 0 0 1.15-1.11c.82-.09 1.17-.66 2.45-.66a4.56 4.56 0 0 1 3.34.95z"/><path class="f" d="M176.94 106.08s1.2 7.28-6.47 15.52c0 0 13.35-2.12 20.39-17.24 0 0 .74 2.18.46 7 0 0 3.67-1 9.51-9.28a10.25 10.25 0 0 0 2.29 4.87l5.1-4.3a16.8 16.8 0 0 1 .86 4.64 25.73 25.73 0 0 0 4.52-2.75s.06 3-5.33 13.23c7.5-3.9 14.89-12.37 14.89-16 0-1.72-1.78-3.32-3.9-3.32a6.28 6.28 0 0 0-3.84 1.66 4.52 4.52 0 0 0-3.26-1.43 5.76 5.76 0 0 0-3.72 1.89s.23-1.55-1.78-1.55-10.93 5.97-29.72 7.06zm11.23 25.38a87 87 0 0 1-10.37 14s-.92-2.35-2-2.86a36.71 36.71 0 0 0-4.58 4.13 17.42 17.42 0 0 0-2.46-3.5 26.09 26.09 0 0 0-3.27 3s3.26-5.61.11-15.29c0 0-4.07 12.66-14.89 19.88-.52.46-.69 3 3.38 3a13.5 13.5 0 0 0 10.08-5 50.46 50.46 0 0 1 12.83-.29s2.18 2.06 3.78 2.06 7.9-6.59 7.39-19.13zM42.64 20.31h-3v-1.32s3 .12-27.5.86c0 0 12.09 3.61 18.67 7.22a8.05 8.05 0 0 1 2.69-1c1.09-.06 1.2-.52 2.52-.57s1.2-.86 1.2-.86h2a3.12 3.12 0 0 0-2.12-1.6 29.82 29.82 0 0 1 5.54-2.73zM4.2 24.95a12.54 12.54 0 0 1 4.93 3.59c.06 5.67 4.75 10.48 10.88 15.52h-4a40.21 40.21 0 0 0 10 4.24s-1 .74-4.3 1.09c0 0 5.27 3.49 17.59 3.49 10.31 0 14.78-3.15 14.78-3.15l-8.35-1.19s14.72-1.43 22.28-7.62c0 0-4.64 3-20.51 3s-22.86-4.58-22.86-4.58 9.28 1.72 15.18.57C26.48 30.67 20.12 24.72 4.2 24.95zm208.82 68.46s7.86 0 13.17 5.9c0 0 8.87-1.59 13.12-7.22-4.14.21-5.31-.58-5.31-1.43s1-1 3.45-1h3.29s1.86-.64 2.18-6.43c-3.24 3-7.12 3.82-7.76 2.44-.8-1.7 5.74-2.44 7.65-5.42 0 0 .32-1.43-1-4.52-2.39 4-3.82 4.67-4.89 4-1.65-1.06 3.13-2.87 3.82-5.84l-2.28-2.76c-6.63 13.57-17.95 10.8-25.44 22.28z"/><path class="f" d="M54.83 89.87a12.4 12.4 0 0 1 2.12-1.83l-.46 1.72h.29s1.66-1.89 3.26-2c0 0-.8.86.4 1.32 2.29.86 5.1.4 8.13.8.86.34 1.38.52 3.21-.17a9.91 9.91 0 0 1 3.15-.69s-2.63 1.09-3.15 1.95a4.05 4.05 0 0 1 1.78 3.09 4.9 4.9 0 0 1-2.63 4.58c-2.63 1.55-2.92 3.32-2.92 3.32l1.72-1.09s-.46 4-4.24 4c-2.18 0-2.75-1.2-3.49-1.2-.46 0-1.89 1.6-1.89 1.6s.11-1.55 2.69-4.18a7 7 0 0 0-2.46 1.66c-3.67-2.18-7.79-2.41-7.79-5.73a8.18 8.18 0 0 1 1.15-3.32 1.63 1.63 0 0 0-1.32 1l-.17-1.78-5.64 4.62a75.43 75.43 0 0 0 9.05 8.08 123.92 123.92 0 0 0 25.43 14.55c9.62 4 17.76 8.65 22.28 13.58s8.48 12.15 12.6 18.22 13.75 16.73 23.54 19.25l-2 2.46a57.93 57.93 0 0 0 16.78-.17l-3 3.38c15.7-1.6 28.53-8.71 35.69-22.29 0 0-2.69-2.35-10.2-2.35-11.06 0-21.19 7.1-31 7.1-9.45 0-16.67-8.65-22-16.9s-14.66-27-14.66-40.67c0-22.22 15.7-24.17 15.7-24.17s-20.16-4.47-32.88-5.44c31 1.38 65.42 10.25 81.91 18.44a1.66 1.66 0 0 1-1.43 2.69c-1.49 0-6.13-3.15-17.87-7.1 2.86 5.61 9.79 15.47 23.14 15.47 12.54 0 17.59-8.25 34-8.71.46-9.45-4.07-11.57-14.49-16.73a102.71 102.71 0 0 0-18.35-7.15l-.43.05a65.37 65.37 0 0 1 10.15 6.64l-1.22.69s2.92 1.86 7.17 7.06c0 0-6.71 2.77-11 2.5a1.47 1.47 0 0 1-1.6 1.26c-1 0-4.93-2.06-14.38-6.13s-34.72-12.93-68.67-17.46c0 0 5.47 1.67 7.54 2.63a14.41 14.41 0 0 0-5.21-.42l2.44 1.54s-16.31-.69-26 1.38c0 0 6.32 1.81 8.82 5a59.86 59.86 0 0 0-6.36.43 6.47 6.47 0 0 1 .63 1.83c0 .57-2.06 2-2.06 2h1.55v3.89s-2.18 3.09-8.25 1.55l.23-1-3.61.34a24.7 24.7 0 0 0 3.72-2.18s-3.7 1.55-4.5-.42c0 0-12.27 3-18.17 7.86a18.83 18.83 0 0 1 5.25 1.67m81.52-54.25s-10.92 1.83-16.31 10.63l.87-.24s4.71-5.29 17.46-5.29c14.82 0 24.34 8.37 32.8 9.52 0 0-5.68-1.35-8.08-6.11a3.51 3.51 0 0 0 .1 2.36c-6.11-3.42-9.67-4.76-10.1-10a4.8 4.8 0 0 0-1.44 3.56l-1-.77s-.24 1 1.4 1.88c.58.29-.29 1.06-.29 1.06a11.83 11.83 0 0 1-3.46-1.2s1.25-.1.82-.58a15.42 15.42 0 0 1-2-2.31c-.77-1 1.3-.48 1.3-.48a3.68 3.68 0 0 0-2.5-1.35 1.33 1.33 0 0 1 1.3-.48c.87.14-.19-.91 1-1.25a7 7 0 0 0 3.8-3.18c.77-1.2 2.16.34 2.16.34s-.38-2-3.46-2a11.21 11.21 0 0 0-6.2 2l2.15 1.09a4.17 4.17 0 0 1-2.07-.34c-1.15-.48-1.92 1-1.92 2.5 0 2.12 2.45 2.6 2.45 3.75s-.19 2.12-1.11 1l.1 1.06c-2.36-1.73-4.42-1.64-5.87-4.14l1.68.67s-.14-.63-2-1.59c0 0-.29-.77.24-.77v-2.12h-4.36v.43z"/><path class="b" d="M163.48 51.09v-.38l-6.49-2-.14.58a1.37 1.37 0 0 1 .39 1.11 2.17 2.17 0 0 1-2.41 2.04 2.25 2.25 0 0 1-2.36-2.5s1.78 0 1.78-1.11c0-1.68-7-3.46-16.21-3.13 7.94 6.11 12.55 8.51 15.92 8.51 3.99.01 9.52-3.12 9.52-3.12z"/><path class="f" d="M152.46 49.94s1.78 0 1.78-1.11-2.88-2.19-7.36-2.77c.01 0 2.95 1.86 5.58 3.88zm-21.45-4.91a19.34 19.34 0 0 0-4.28.1 13.55 13.55 0 0 0 3 4.23s-2-.14-2.93-.34c6.21 6.16 11.88 8.32 20.88 8.18l-1.35.72a33.28 33.28 0 0 1 10.5 2.21c-13.51-8.85-12.69-5.09-25.82-15.1z"/><path class="a" d="M101.1 89.64a10.76 10.76 0 0 0-3.15.69s-2.06-4.24-5-4.24-7.56 2.92-7.56 2.92l.23-1.09c-5 0-6.36.29-6.36 2.18s2 2.12 4.24 4.18a3.41 3.41 0 0 1 2.12-1l-2.75 2.58a3.3 3.3 0 0 1 3.67.12c1.95 1.32 6.47-.17 8.25-1.2a4.56 4.56 0 0 1-1.72 1.89s4.12 1.26 6-1c1.09-1.72-.63-4.12-.63-4.12a8.85 8.85 0 0 1 2.66-1.91zm-9.57 14.04c-4.18 1.26-8.76.17-13.69.06l.69-.92a9.75 9.75 0 0 0-2.81.92c-1.26.69-4.12.92-4.12 3.38a4.49 4.49 0 0 0 1.72 3.32l1.6-1.78a2.5 2.5 0 0 1-.4 1.89c5.79 3.72 12.26 1.55 14.84 4.18l3-2.06s.12.63-1.43 3.09c1.89 1.83 3.21 2.41 5 2.41s3-.34 3.21-2.86l.74-.86-1.05.09a3.28 3.28 0 0 0-.4-2.29s.46-.52 1.83.46c0 0 .52 0 1.15-.75l.63-.75-.69.06c-.46-3.5-3.21-5.21-5.16-4.47a2.84 2.84 0 0 0-2.92-2.35c-1 0-2.86 1.15-4.3 1.15z"/></svg>