<svg xmlns="http://www.w3.org/2000/svg" viewBox="0 0 313.45 200"><defs><style>.a{fill:#fff;}.b{fill:#010101;}.c{fill:#b21f36;}</style></defs><title>KCC</title><path class="a" d="M298.31 93.65c-5.58-4.77-12.75-5.09-16.94-13.39-3.19-6.32-10.24-8.72-16.73-9.74-5.07-1.22-8-6.08-11.46-9.74-4.46-7.71-13.49-7.81-21.4-8.72-8.62.31-14-10.1-22.93-12.47-3.31-.88-12.22-.23-18-4.44-5.25-3.84-11.84-7.71-25.11-6-9.94-1.62-17-10.14-27.18-11.46-6.9-2.13-13.08 1-19.88.71-4.77-1.32-8.72-4.67-13.59-5.68-7.31-1.28-9.17 1.58-27.68-2.38-8.71-1.87-19.6-4.66-14 13.49 2.46 8 8.18 27.75-10.45 29.67-6.71.66-12.88-5.48-19-.51-2.06 1.49-6-1.88-8.52-1.12-8.12 2.33-4.87 11.76-5.58 18.26-.2 7.3-5.18 12.68-7.61 19.07-5.78 11.66-3.34 27.58.71 39.25 1.11 6.08-.61 12.37.61 18.36.34 1 1.62 2.43 3.25 1.62 12.31-6 15.42 1.45 19.6-.27 11.54-5.06 19.52-2.79 22 3.11 4.26 12.27-4.87 22.92-2.44 35 2.32 8.12 17.65 1 24.85.72 10-.75 19.77 2.12 29.31.29a57.69 57.69 0 0 1 27.59-6.39c6.69.1 11.87-3.35 17.24-6.49 9.84-6.9 24.75-1.82 34.28-9.54 5.18-4.05 12.78-2.43 18.36-5.58 8.52-7.6 18.66-11.66 29.72-13.28 5.78-2.23 10.24-8.22 15.72-11.06 4.87-3 10.65-3.65 15.32-7.1 7.4-9.73 17.24-17.75 29-19.78 11.27-4.4 7.22-10.74.94-14.41zm-72.12 43.34c-9 8.4-25.93 14.44-42 16.1-19.29 2-38.44-.81-53.76-10.86-9.13-6.7-14.91-17-13.79-28.6.61-11.26 7.63-20.92 16.66-27.61l-2.11-2.32-22 13.45v3.84h5.56v12.38l-4.13 4.67H69.98v-9.61l5-7.36h1.56V58.49h-6.59v-8.61l5.49-6.1h39.24v9.14l-5.52 6.52V75.9l38-21.41v-7.28l3.4-3.44h40.35v9.29l-5 5.42h-11.95c-6.92 4.3-8.06 4.93-15.11 9.17A36.5 36.5 0 0 0 162 71.2c19-4.57 42-4.16 59.13 4l6-4.56h11.27v28.32l-5.32 6.09h-10.19c-8.92-15-25.72-22-43.27-19.21a17.13 17.13 0 0 0-3.24.92c6.3 6.87 7.12 7.7 13.26 14.25h2.63v11.74l-4.07 5.26h-41.07v-9.96l2.65-4.6c-.36-.42-.62-.61-1.18-1.16a11.77 11.77 0 0 0-4.46 11.67c1.93 10.14 12.07 15.52 21 17.65 14.81 3.25 31.95 1.92 45-4 11.71-6.81 12.53-13 13-13.49h15.53c-.32 7.46-4.82 15.7-12.48 22.87z"/><path class="b" d="M286.44 74.05c-7.28-4.68-5.48-14-22.52-16.21-8.89-1.27-9.1-14.17-29.11-18-9.46-1.8-15.72-11.16-25.56-12-8.92.2-17.95-.1-24.64-5.58-6.7-6.39-17-2.94-25.66-4.87-7-2.47-10.52-7.18-17.83-9.31-8.09-2.56-14.63.39-21-1.34-8.21-.91-14.5-7-23.53-5.58-8.83 2.43-18.56.2-27.38-.51-5.28-.61-20.92-4-18.16 11.26 1.72 7.2 3.35 14.4 5.17 21.5 3.44 11.37-.22 12.22-5.58 12.68-5.17.4-6.39-6.39-11.06-6.9-3.77-.6-9.38 3.46-13.9 5s-6.49-3.35-10.45-3.65c-8.4-.08-8.82 11.05-7.3 12.88a26.06 26.06 0 0 1 1.32 19.37 72.2 72.2 0 0 0-7.41 16.94c-3.25 15.21-2.23 32.76 3.25 46.66 1.82 7.71-4.87 16.63 2 22.52 6.29 4.16 11.25-1.9 17.14-3.25 4.33-1 11.52 2 15.1 0 8.33-4.13 13.15-.62 12.18 4.94-2.23 9.23-4.26 18.56-7.2 27.48-1.76 6.55 6.24 12.44 10.35 11.77 5.57-1 11.15-2 16.63-3 12.78-1.93 24.54 4.77 36.61.31 8.11-4 16.22-8 26.58-6.6 7 .91 12.37-2.33 17.65-5.58 6.49-3.85 18.64-5.46 22.56-5.37 7.2.3 11.73-4.87 18-6.79 4.79-1.6 13.14-1.66 14.91-2.94 4.36-3.55 9.89-8.85 13.84-9.44 11.56-2.23 21.35-7.39 30.48-15.61 1.24-1.26 10.91-3.16 13.8-4.26 6-2.34 10-8.22 13.18-13.49a23.74 23.74 0 0 1 12.48-8.42c8.21-1.32 16.43-8.37 20-15.72 3.24-6.69 1.89-7.83 1-8.92a156.74 156.74 0 0 0-25.94-19.97zm11 34c-11.76 2-21.61 10-29 19.78-4.67 3.45-10.45 4.06-15.32 7.1-5.48 2.84-9.94 8.83-15.72 11.06-11.06 1.62-21.2 5.68-29.72 13.28-5.58 3.15-13.18 1.52-18.36 5.58-9.53 7.71-24.44 2.64-34.28 9.54-5.37 3.14-10.55 6.6-17.24 6.49a57.7 57.7 0 0 0-27.59 6.39c-9.53 1.83-19.27-1-29.31-.29-7.2.31-22.53 7.4-24.85-.72-2.44-12.07 6.69-22.72 2.44-35-2.47-5.9-10.44-8.17-22-3.11-4.18 1.72-7.29-5.73-19.6.27-1.62.81-2.9-.58-3.25-1.62-1.22-6 .51-12.28-.61-18.36-4.06-11.67-6.49-27.59-.71-39.25 2.43-6.39 7.4-11.77 7.61-19.07.71-6.49-2.54-15.93 5.58-18.26 2.54-.77 6.46 2.6 8.52 1.12 6.08-5 12.26 1.17 19 .51 18.63-1.92 12.91-21.71 10.45-29.67-5.6-18.15 5.3-15.36 14-13.49 18.51 4 20.37 1.09 27.68 2.38 4.86 1 8.82 4.36 13.59 5.68 6.79.3 13-2.84 19.88-.71 10.14 1.32 17.24 9.84 27.18 11.46 13.27-1.7 19.86 2.17 25.11 6 5.77 4.22 14.67 3.56 18 4.44 8.94 2.38 14.31 12.78 22.93 12.47 7.91.91 16.94 1 21.4 8.72 3.45 3.65 6.39 8.52 11.46 9.74 6.49 1 13.55 3.41 16.73 9.74 4.19 8.3 11.36 8.62 16.94 13.39 6.21 3.68 10.26 10.02-.98 14.41z"/><path class="b" d="M210.17 127.62c-13.08 5.88-30.23 7.21-45 4-8.92-2.13-19.07-7.51-21-17.65a11.77 11.77 0 0 1 4.46-11.67c.56.55.81.74 1.18 1.16l-2.65 4.6v10h41.06l4.07-5.26v-11.74h-2.63c-6.14-6.55-7-7.38-13.26-14.25a17.28 17.28 0 0 1 3.24-.92c17.55-2.84 34.35 4.2 43.27 19.21l10.17-.05 5.27-6.08V70.64h-11.27l-6 4.56c-17.14-8.11-40.17-8.52-59.13-4a36.48 36.48 0 0 1-3.15-3.55c7-4.23 8.19-4.87 15.11-9.17h11.97l5-5.42v-9.29h-40.34l-3.4 3.44v7.28l-38 21.41V59.47l5.52-6.52v-9.14H75.41l-5.49 6.1v8.61h6.59v42.43h-1.56l-5 7.36v9.61h40.63l4.13-4.67v-12.3h-5.56v-3.84l22-13.45 2.11 2.32c-9 6.7-16.05 16.35-16.66 27.61-1.11 11.56 4.67 21.91 13.79 28.6 15.32 10 34.46 12.83 53.76 10.86 16.05-1.66 33-7.69 42-16.1 7.66-7.17 12.16-15.41 12.5-22.85h-15.5c-.45.57-1.28 6.71-12.98 13.52zm2.94-53a82 82 0 0 1 8.44 3.36l6-4.78h8.22v25.18h-8.32c-12.78-15.92-34.26-19.08-54-14.72l-9.37-10.12c15.25-4.64 34.63-4.33 49 1.04zM106.38 96.05v8.09h5.79v7.35H77.23v-7.44h6.43V52.17h-6.43v-6h35v6h-5.81v28.36l50.82-28.35h-5.53v-5.92h36.53v6h-8.89c-10.08 6.09-24.92 15.07-24.92 15.07l34.32 36.72h.93v7.39h-36.7v-7.39h5.34c-14.78-16.21-23.29-25.44-23.29-25.44-9.35 5.59-12.05 7.22-28.65 17.44zm129.35 21.18c-5.18 19.6-26.41 28.29-44.73 30.82-17.15 2.37-34.69.2-49.39-6.09-10.25-4-19.23-13.9-20.08-25.15a30.79 30.79 0 0 1 13.95-28.45l11 11.61c-3.55 4.06-5.68 8.93-4.66 14.51 1.72 10.75 13.29 18.15 23 20.18 17.54 2.84 37.12 1.72 51.73-7 7.21-5.16 10.13-10.44 10.13-10.44 3.94-.01 5.2-.01 9.05-.03z"/><path class="c" d="M158.3 104.05h-5.34v7.36h36.7v-7.39h-.93l-34.34-36.84s14.84-9 24.92-15.08h8.89v-6h-36.53v5.92h5.53l-50.82 28.49V52.15h5.81v-6h-35v6h6.43v51.9h-6.43v7.38h34.94v-7.35h-5.79v-8.09c16.6-10.18 19.3-11.8 28.63-17.38.04.02 8.55 9.25 23.33 25.44z"/><path class="c" d="M227.41 98.31h8.32V73.15h-8.22l-6 4.78a82 82 0 0 0-8.44-3.36c-14.4-5.37-33.78-5.68-49-1l9.35 10.06c19.74-4.4 41.22-1.24 53.99 14.68zm-10.85 29.31c-14.6 8.72-34.18 9.84-51.73 7-9.74-2-21.3-9.44-23-20.18-1-5.58 1.12-10.45 4.66-14.51l-11-11.61a30.79 30.79 0 0 0-13.95 28.45c.86 11.25 9.84 21.2 20.08 25.15 14.71 6.29 32.24 8.46 49.39 6.09 18.32-2.54 39.56-11.22 44.73-30.82h-9c-.05-.01-2.97 5.28-10.18 10.43z"/></svg>