<svg xmlns="http://www.w3.org/2000/svg" viewBox="0 0 114.4 121.52"><defs><style>.a{fill:#fff;}.b{fill:#010101;}.c{fill:#d2d3d4;}</style></defs><title>OAK</title><path class="b" d="M59.4 78.98c.05 0 0 .09 0 .11a.08.08 0 0 0 .11 0c-.05 0 0 0 0-.07s-.07 0-.11 0"/><path class="a" d="M57.08 0C41.68 14.22 21.4 14 .55 11.56c-4 51.05 13.92 101.24 57.31 110 43.65-9.16 60.46-59.57 55.78-110.58C94.27 13.12 74.19 14.09 57.08.04"/><path class="b" d="M57.06 4.98C44.2 15.62 23.81 18.43 4.29 15.76c-2.48 46.54 13.11 91.86 53.41 102 40.15-10.64 55.34-56 52.26-102.55-19.87 2.42-39.91.28-52.9-10.21"/><path class="a" d="M73.27 85.02a16.21 16.21 0 0 1-1.6 3.5 8.77 8.77 0 0 1 .83 2.15c3.15 2.38 6.61 4.6 15.37 2.38-1.57-.46-11.41-5.25-14-7.62zm-32.32 1.64a15.08 15.08 0 0 0 2 2.6s.63.55.42 2.54c-3.51 2.67-12.12 3.82-16.51 2.13 0 0 10.51-4.25 13.41-6.9zm27.32-1.08c-.21.23-.38.46-.6.67a2.87 2.87 0 0 1-.25.29c-.24.18-.46.35-.71.53s-.46.65-.23.85.58.36.82 0c.13-.21.41-.25.58-.39a2.8 2.8 0 0 0 .89-1.58c0-.22-.14-.33-.29-.48 0 .18-.19.12-.21.26a1.3 1.3 0 0 0 0-.13m-22.37.83c.26.68.85 1 1 1.27.28.44.42.9.69 1.33-.46.27-.81 1-1.26.79-.23-.11-.3-.59-.44-.93-.36-.86.13-1.58 0-2.46"/><path class="c" d="M53.86 36.84c-5.29 0-10.73 1.42-12.33 6.49 0 0-2.69 10.2-2.5 11.8-1.47.47-4.45 1.93-3.48 10 0 0 3.34 14.57 4.8 17.41h.92s.83-.89.7 2a2.5 2.5 0 0 0 1.08 2.69s.57-2.45 1 1.23c.11 3.58 1.27 7.33 6.53 11 0 0 2.46-1.62 2.73-1.74a16.81 16.81 0 0 1-5.55-3.41s.55 2.54-1.57-.33c0 0-1-1-1.65-7.62 0-.92-.09-1-.84-2-2.94-5.85-5.36-19.4 0-24.47 5.7-.42 19.33-.85 24.45 0 2.1.5 3.13 1.15 3.64 4.75 1.06 4.54.47 13.65-1.83 21a5.27 5.27 0 0 1-1.16 2.33 11.48 11.48 0 0 0-4.3 4.71 5.79 5.79 0 0 1-3 2.51c-1.63 1-7.65 2.57-5.25 5.19a13.28 13.28 0 0 1-1.89.67s.33 1.47 1 1.23a3.71 3.71 0 0 0 1.64-1.25c3.56.42 8.1-.45 10.84-3 1.09-.74 3.12-1.72 3.34-3.64 0 0 1.15-2.19-.81-5.85.72-1.29 1.88-3.76 1.7-5.62a32 32 0 0 0 6.81-16.89s-.92-5.69-.62-.26c0 0-.07.94-.59 3.71 0 0-1.11 4.22-.52.17a85.77 85.77 0 0 0-.65-12.15s-.21-2.13 1 1c.16.55-.19-.71-.19-.71s.6 3.92.71 1.14c-.73-3.25-.91-4.05-1.89-4.38a46.45 46.45 0 0 0-2.46-9.41l-.47.62c1.67 4.51 2.86 19.53 2.51 23.86 0 0-1 8.51-1.86 7.94 0 0 1.31-14.36.62-19.68-.37-6.77-1.35-8.4-1.77-11.06 0 0-2.19-5.57.06-2.55l.27-.17c-1.94-4.85-4.83-7.2-13.46-7.28l1.37 21.1-7.76.1z"/><path class="a" d="M44.28 64.5s1.73-.31 1.7-.31c1.91 0 6.42-.08 7.39.3.5.19 1.37-.28 1.81-.45a17.5 17.5 0 0 0 3.52-1.84c.28-.16 2.29-1.39 1.92-1.43-4.68-.48-14.21-.32-16.09.26a2.51 2.51 0 0 0-1 .39c-.88 1-.69 1.08-1.3 2.46.39-.91-.2 1.13-.25 1.31-.16.52.74.48.91.24.32-.46.38-1 1.4-.92"/><path class="a" d="M70.48 78.76a22.4 22.4 0 0 1-.67 3 4.45 4.45 0 0 1-1.55 2.44c-.25-1.93-.8-2.88-.7-3.59-.74.3-.63 1.4-.7 2.41a4.77 4.77 0 0 0 .23 2.33c.05.23-.55.68-.77 1a15.31 15.31 0 0 1-2.37 3c-.14.13-.17.41-.31.47-.52.23-.66.57-1 .92a5.48 5.48 0 0 1-1.24.72 6.31 6.31 0 0 1-1 .33 5 5 0 0 1-1.34 0c-.57 0-1.36-.73-2-.87-1.8-.42-2.21 1.21-5 .64-1.16-.24-1.4-1-2.12-1.82-.14-.15-.83-1-.94-1.1a9.72 9.72 0 0 1-2.37-3.35 6 6 0 0 1-.05-3.44c.08-.56 0-2-.57-2.08-.49.52-.13.85-.27 1.58s.52.73 0 2.32c-.13.45-.38.34-.53 0-.54-1.12-.29-3.55-1.48-4.49a.85.85 0 0 1-.07-1.06c.36-.27.72.16 1.19 0 .08 0 0-.59 0-.67-.4-.45-1.25-.26-1.25-.31a3.51 3.51 0 0 0-.23-2.2c-.44-.61-1.07-.71-1.33-1.32a5.14 5.14 0 0 1-.43-2.33 4.82 4.82 0 0 1-.06-1.66c-.13 0-.09-1.06-.08-1.13.07-.8.22-.76.33-1.51 0-.47 1.16-.75 1.17.32-.27 1.4.16 2.5.21 3.91 0 .16.29.32.48.37 3.08.86 5.38.51 8.44.41.82 0 1.3-1 1.47-1.85a12.07 12.07 0 0 0 .27-3.23c.15-.39.51-.29.79 0 .53.6.12.83.26 1.6.11.6-.66 1.5-.66 1.5s-.24 2-.15 2-.1 1.82-.14 1.77c-.11 1 .57.62.47 1.34 0 .33-.18.79-.17.85.1.67-1.39.54-1.15.55-.33 0-.59-.16-.58-.42s-.09-.67-.08-1c-.73 0-.42.55-.46 1.3 0 .33.2.6.76.69s.66.16.93 0 .6-.21.68-.44c.28 1.08.61 1.22 1.41 1.19.34 0 1.12.11 1.42-.67.07-.2.6-.17.68-.37 1.37.26.54.83 2.2.29a1 1 0 0 0 .47-1.47c-.05-.07-.32-.07-.33 0-.17 1.44-.74 1-1.28 1-1.77-.08-.83-.83-2.32 0-.18.09-.7.82-1.4.27-1-.83.07-1.45.17-2.37a40.71 40.71 0 0 0 0-4.23c-.11-1.8.36-.72.66-1.5-.25.07-.14-2.2-.16-2.32-.16-.81-1.1-.49-1.35-.79 0 0-.12-.63 0-.66a15.56 15.56 0 0 0 3.38-1.32 51.37 51.37 0 0 0 4.58-2.51c.32-.2.45-.64.62-.63 2.05-.06 4-.49 5.86.52a3.51 3.51 0 0 1 1.93 2.59c-.14 0 .13 1.29.14 1.4v2.64a21 21 0 0 1-.1 5.29s-.27.65-.36.65a6.1 6.1 0 0 1-1 1.17c-.14.12-.08.51 0 .44a8 8 0 0 1 1.21-.48 19.41 19.41 0 0 1-.36 3.68"/><path class="b" d="M66.79 66.19a8.24 8.24 0 0 0-1.35-.91c-.3-.16-1.52.68-1.82.71-1.26.14-2 .21-3.32.26-.33 0-.8 0-1-.28a.73.73 0 0 1 0-.73c.39-.51 1.19.35 1.67-1l2-.09c1.58-.1 3.91-.1 3.7.09.19-.17.51.69.83.9.6.4.42-.14.7.69-.19-.17.17.5 0 .33a1.93 1.93 0 0 1-.15.52 3.81 3.81 0 0 1-.72-.16s-.56-.35-.52-.35m-7.61 1.14c.92-.54-.7-.69-.4.9 0-.15.3-.06.32-.12a4.48 4.48 0 0 0 .07-.77m-.87 3.6c.22 1.07 0 .92-.08 1.92s.67 1.1.66.08c0-3.76-.28-2.72-.58-2m10.55 5.3c-.09.21-.22.22-.39.33s-.27.28-.21.42a.38.38 0 0 0 .3.13c.12 0 .22-.14.26-.24a2.28 2.28 0 0 0 0-.65m-9.46-1.28a.23.23 0 0 0 .24-.22.24.24 0 0 0-.23-.25.235.235 0 0 0 0 .47m8.27-6.35c-.34.17-.63.13-1 .32.5-.29-2.75-.44-1.53-.34-.87-.07-1.59-.25-2.5-.24 0 0-.17.14-.16.1-.45.12-.69-.24-1-.46s-.45 0-.67 0c0-.09-.08-.14 0-.2a.55.55 0 0 1 .27-.15 5.76 5.76 0 0 0 1.22-.15c1.32-.47 2.35.15 3.71.1a2.29 2.29 0 0 1 1.4.17c.09.06.09.2.14.24s.5 0 .6.15-.2.35-.44.48m-1.32 1.9c-.09 0-.12-.12-.19-.12a5.35 5.35 0 0 1-2.17-.48c-.25-.1-.48.09-.73.13s-.69-.1-1 0-.39.39-.21.49a1 1 0 0 0 1.06-.12 1.83 1.83 0 0 1 1.42-.08 1.47 1.47 0 0 0 .39.11c.48 0 .93.11 1.39.07m-4.86-1.2c0-.1-.18-.08-.12-.2-.31-.09-.61.2-.92.08s-.28-.25-.45-.33c0 .25-.11.6.12.69.44.19.91-.37 1.38-.09a1.23 1.23 0 0 1 0-.13"/><path class="a" d="M35.15 50.14l-2.84 2.85a45.58 45.58 0 0 0 2.87 4c.51-1 1.35-2.33 2.49-2.41l.19-1.45zm-10.7-11.18h1.52c2 2.2 7 8.64 7 8.64l-.75 1.82a20.81 20.81 0 0 0 3.74-3.75c1.39-1.53 2.66-.34 1.56.68-.72 1.42-4.22 4.31-6.49 6.33-6.47 5.93-18.9-3.34-8.65-12.48z"/><path class="b" d="M22.52 42.45c1.12-1.41 2.14-.64 1.25.18-.67.62.62 2 1.45 1.66.66-.27 1.46.77 1.27 1.17-.5 1.06.49 2.14 1.25 1.77.42-.2 1.3.48 1 1.11a1.1 1.1 0 0 0 1.52 1.46c1.11-.57.49.94.49.94-5.56 4.79-13.84-4.17-8.24-8.29"/><path class="a" d="M23.08 40.38a1.81 1.81 0 1 0 .12-3.62 1.8 1.8 0 1 0-.15 3.59"/><path class="b" d="M23.65 37.47c1.1.57.17 2.18-.55 2s-.18-.34-.18-.34c.72.11 1.37-1.06.46-1.43-.34-.14.28-.25.28-.25"/><path class="a" d="M88.62 38.42l-1.52.08c-1.92 2.3-6.6 9-6.6 9l.83 1.78a21.41 21.41 0 0 1-3.92-3.56c-1.46-1.46-2.67-.21-1.52.74.79 1.38 4.43 4.1 6.8 6 6.77 5.6 18.73-4.85 8-13.48z"/><path class="b" d="M90.94 41.07c-1-1-1.7-.4-1.43.41s-.81 2.66-1.38 2.3c-.75-.47-1.5.8-1.21 1.24.48.74-.42 2.23-1.15 1.84-.41-.22-1.25.6-1 1.15.47.9-.52 1.75-1.46 1.52-1.2-.3-.44 1-.44 1 5.79 4.5 13.83-5.59 8-9.44"/><path class="a" d="M90.08 39.2c-1 .1-1.89-.06-2-1s.65-2.44 1.65-2.54a1.8 1.8 0 0 1 .33 3.58"/><path class="b" d="M89.36 36.32a1.05 1.05 0 0 0 .65 2c.77-.21.17-.34.17-.34-1 .19-1.75-.84-.53-1.41.33-.15-.29-.24-.29-.24"/><path class="a" d="M78.76 50.21c.39.22 2.75 2.31 3.33 2.67a42 42 0 0 1-3.07 6.67c-.08-2.65-.48-5.64-1.94-5.64l-.28-1.07z"/><path class="b" d="M69.75 92.45c.1-.8-.61-1.54-1.09-.91-.27.34-.29 1-.6 1.31-.87.9-1.42 1.07-1.93 1.62s-.71 1-.18 1.76a2.29 2.29 0 0 0 .72 1.29c.7.53 1.71 0 2.76-1.38a2.07 2.07 0 0 0 .24-1c.13-.87 0-1.75.09-2.64m-4.5 4.99c0 2.2-3.25 3.1-4.54 2.39-.21-.12-.9-.73-.77-1.15a1.56 1.56 0 0 1 .95-.81c.4-.16.74 0 1.12-.37s.88-.55 1.49-1.14a1.14 1.14 0 0 1 1.34 0 .87.87 0 0 1 .38 1.09c0-.09 0 0 0 0"/><path class="a" d="M68.81 94.17c-1.36.92-3 1.72-1.42 2.55.36.19 1.35-.53 1.59-1.36a8.23 8.23 0 0 0-.17-1.19m-4.61 4.32a10.82 10.82 0 0 1-1 .59 3 3 0 0 1-1.91.41c-.6-.11-.36-.62-.23-.64 1.68-.24 2-1.19 3.05-1.61.31.07.38.54.33.68a1.55 1.55 0 0 1-.26.57"/><path class="b" d="M51.43 78.76c-.42.54 0 .62-1 1.61-.29.29-.82.5-1.08.86a1.42 1.42 0 0 0 0 .49c.65.21 1.82-.32 3.06-.34a9.63 9.63 0 0 1 2.24.37 16.4 16.4 0 0 0 4.16-.15c1.92-.12 2.29.33 2.9.26 1.19-.14 1.91-.73 1.39-.59.13 0-1 .12-.9 0-.33-.06-.54.12-.81.16a4.24 4.24 0 0 1-2-.18c-1-.32-2.11.19-3.16.19-1.7 0-3.61-.58-5.73-.35a8.92 8.92 0 0 1 1.58-1.38c.56-.71.67-1.66.78-1.35 0-.09-.57-.62-1.41.47m2.32 5.38c1.46-.13 4.21.57 5.49.1 0 .12 1.07-.35 1.05.17 0 .73-1.8.61-2.27.5-1.28-.28-1.73.12-4.37.08-.11 0-1.33.2-1.69-.75-.09-.25.68-.29 1.79-.11m8.63-4.64c-.13.34.22.56.4.37a.41.41 0 0 0-.2-.63c0 .17-.16.15-.21.26m-.57-.69a1.84 1.84 0 0 0-.4-.24c-.46-.1-.83-.35-1.29-.42-.12 0-.17-.22 0-.31a1.22 1.22 0 0 1 .91.1c.39.13.46.6.78.79.09.06.35.08.28.22s-.32.08-.36-.13h.07"/><path class="a" d="M63.2 80.76c.11 0 .19-.11.19-.26s-.09-.25-.19-.25a.24.24 0 0 0-.19.26c0 .13.09.25.19.25M91.71 26.3a5 5 0 0 0 2.68 1.09c.55 0 .85-.22.85-.56 0-.5-.55-.55-1.43-.73-1.82-.38-2.76-1.37-2.78-2.93 0-2.23 1.72-3.9 4.44-3.92a7.29 7.29 0 0 1 3.61.93l-1.14 2.8a3.78 3.78 0 0 0-2.2-.81c-.54 0-.83.2-.83.52 0 .52.72.59 2 .86a2.85 2.85 0 0 1 2.4 2.85c0 2.28-1.78 4-4.58 4.06a8.4 8.4 0 0 1-4.21-1.16zm-72.26-1.28h.6c.73 0 1.13-.38 1.12-1a1 1 0 0 0-1.15-1h-.59zm-3.81-4.8h4.82c2.86 0 4.33 1.28 4.35 3.57a2.49 2.49 0 0 1-2 2.75l2.89 4.32h-4.3l-1.9-3.52v3.53h-3.76zm19.48 6.54l-.34-1.2a11.43 11.43 0 0 1-.46-2.35h-.07a10.84 10.84 0 0 1-.41 2.35l-.32 1.21zm-2.92-6.79h4.27l3.83 10.65h-4.12l-.36-1.35h-2.9l-.31 1.35h-4.12zm11.42-.01l3.9-.04.1 10.68-3.9.03-.1-10.67m14.24 5.21c0-1.4-.8-2.06-2.35-2h-.16v4.14c1.7 0 2.49-.65 2.47-2.1m-5.84-5.29h3.1a9.84 9.84 0 0 1 4.24.63 5.24 5.24 0 0 1 .74 8.94c-1.38 1-3 1.09-5.16 1.11h-2.82zm13.87-.17l7.15-.07.02 2.9-3.37.04v1.02l3.07-.02.02 2.73-3.06.03.02 1.12 3.46-.03.03 2.9-7.24.06-.1-10.68m15.35 4.7h.6c.73 0 1.13-.39 1.12-1a1 1 0 0 0-1.14-1h-.58zm-3.8-4.8h4.82c2.86 0 4.33 1.28 4.35 3.57a2.48 2.48 0 0 1-2 2.75l2.9 4.32h-4.3l-1.97-3.53v3.53h-3.77z"/></svg>