<svg xmlns="http://www.w3.org/2000/svg" viewBox="0 0 287.5 203.38"><defs><style>.a{fill:#03577a;}.b{fill:#058d97;}.c{fill:#f58220;}</style></defs><title>MIA</title><path class="a" d="M58.79 138.1a4.75 4.75 0 0 1-5.34.95c-2.28-.87 3.66 1.31 6.3.84a15.27 15.27 0 0 0 1.88-3.3c1.19-2.11 2.24-6.62 1.23-8.87-1.54 3.43-1.23 8-4.07 10.38"/><path class="b" d="M41.51 134.74c4.11 1.62 4.7 1.89 8.79 3.58.23.1 4.73 1.56 6.84 1.37-.09-.43.45.34 2-1.6 2.48-2.92 2.82-6.45 3.78-10.09-.46-2.51-2.56 2.87-5.65 2.94-4.23.74-5.45.15-8.71-.45-5.66-.6-8.57-.65-10.2 0-1.22.24-2.21 1.86-2.21 1.86m185.07-25.55c1-2.48 1.06-3.22 1.9-5.74-.14-.1.44-2 .3-2.11-1.17.88-3.62 3.5-4.73 4.45q-6.8 5.82-14 11.07a66.49 66.49 0 0 1-.36 7.21c-.9 5-2 9.92-3 14.89-.23 1.59.29 1.57.31 1.59a29.1 29.1 0 0 0 4-3.28c7.28-7 10.18-13.64 14.22-24.32"/><path class="a" d="M283.95 42.74c-2.95.67-4.51 1.29-7.43 2.07a74.77 74.77 0 0 0-17 7.2c-13.66 7.61-25.39 17.82-37.22 27.87-5.1 4.34-10.14 8.74-15.23 13.1-7.54 6.45-10.18 8.85-17.88 15.57a87.3 87.3 0 0 1-8.57 6.58 61.8 61.8 0 0 1 4.05-6.69c3.3-5.52 6.79-10.93 10-16.5 4.46-7.71 9.49-14.91 16.78-20.28 2.54-1.87 7.85-5.93 23.82-15.1-.66 0-15.47 7.54-16 7.77a56.07 56.07 0 0 0-24.93 21.1c-5.5 9-10.69 18.29-16.53 27.1-9.18 13.85-20 26.31-33.65 36a10.72 10.72 0 0 1-3.3 1.34v-.08a110.13 110.13 0 0 0 7.1-14.44l.83-1c-1.1.48-2.14 1.06-2.55 1.25-10.15 4.68-20.37 9.18-31.16 12.26a113.65 113.65 0 0 1-25.07 4.49c-8.52.46-17.08.2-25.38-1.82-1.33-.32-2.65-.67-4-1l-.41-.09c-13-3.47-14.12-5.87-19.39-9.69-1.31-1.39-3.09-4.07-5.31-5.44 1.51 2.53 3.82 6.21 5.34 8.74-13.3 3.53-34-8.81-41-24.65a13 13 0 0 0 1.06 5 35.62 35.62 0 0 0 10.44 13.45c5 4 7.06 5.38 16.7 8.36 3.63.78 4.45 1 11.44 1.18 1 .14 4.55-.47 5.57-.39 1.27.57 0 0 2.36 1.19a112.16 112.16 0 0 0 20.91 7.11c4.87 1.12 9.77 2.17 14.69 3a45.4 45.4 0 0 0 7.25.43c8.68.1 17.37.16 26-1.38a128.69 128.69 0 0 0 23.84-6.44c-.28 1.47 2.53 1.53 4.07.88a16.25 16.25 0 0 0 2.72-1.35c2.43-1.63 4.69-3.54 7.23-5 4.1-2.31 8.39-4.27 12.54-6.48a310 310 0 0 0 38.03-23.47q7.17-5.27 14-11.07a47.57 47.57 0 0 0 4.21-3.57c-.85 2.52-1.89 6.29-2.84 8.77-5.42 17-11.79 23.07-18.38 29.55.58.19.84.09 1.62-.29.51-.18 10.2-9.39 13.57-15.55 4.45-8.13 7.83-17.83 10.64-26.67 0 0 1.42-1.56 3.52-3.48 6.13-6 11.9-11.95 18.18-17.77a122.25 122.25 0 0 1 10-8.75c7.09-5.26 14.44-10.17 21.61-15.32 2.67-1.92 6-3.42 6.47-7.6a.9.9 0 0 0-1.14-.5"/><path class="a" d="M91.13 147.93a128.54 128.54 0 0 0 22.21-6.67c13.5-5.58 26.09-12.83 38.31-20.77.45-.29 1.58-1 1.69-1.54a27.82 27.82 0 0 0 .86-6.41c.68-.27.43-1.9.46-2.17-.46.26-1.42 1.33-1.86 1.61-1.69 1.3-3.29 2.51-4.86 3.75-13.43 10.64-27.59 20.17-43.74 26.1a118.89 118.89 0 0 1-33.86 6.93c-2.75.07-5.65-.21-8.12.26 7.64.86 21.92.35 28.91-1.09zm40.58-67.5c3.7.19 6.66-.37 10.66-.09 8.85.62 10.64-2.17 14.69-5.73-7.54 1.91-7.78 1.76-13.13 1.94-8.71.24-12.21.44-17.52 1.49a40 40 0 0 0-10.67 3.61c-1.7 1.18-3.14 1.38-6 5.52 3.16 0 16.82-6.66 20-6.79m106.44-31.1c2.7-.87 5.44-1.66 8.16-2.51 2-.62 6.26-2.43 8.19-3.27-1.3-.17-6 .22-7.13.26-3 .12-4.37.13-7.42.26a15.73 15.73 0 0 0-12 5.57c2.88-1.67 7.72-2.41 9.86-2.44s1.78.55.4 2.12"/><path class="b" d="M229.1 47.49a27.53 27.53 0 0 1 8.37-2.9c4.61-.76 9.23.15 14-1-1.93.83-3 1.49-7.11 3.19-2.72.84-5.45 1.63-8.16 2.51-4.71 1.39-6 1.63-10.61 4.28a26.76 26.76 0 0 0-4 3c1.54-2.89 2.08-4.79 4.33-6.66M36.46 135.49c7.27 8.44 17.37 14 28.32 13.6 1.85-.05 8.23-.18 10.07-.3 11.66-.71 18.49-3 29.37-7 16.15-5.93 30.31-15.46 43.74-26.1 1.57-1.24 3.16-2.45 4.86-3.75l1.38-1.06v.24c0 .27-.07.53-.1.8a91.29 91.29 0 0 1-6 23.42c-2 4.94-5.12 10-7.86 14.7-.23.39.19.52.17.55a15.92 15.92 0 0 0 3.84-2.07c13.65-9.73 24.46-22.18 33.65-36 5.84-8.81 11-18.06 16.53-27.1 5.38-8.85 12.19-13.42 22.49-19.17 17.08-10 17.75-9 25.16-12.89a123.92 123.92 0 0 1 24.42-10c5.89-1.66 12.79-4.16 19-4.4a3.08 3.08 0 0 1 2.1.32c-.4-4.23-7.25-5.2-12.22-4-4.27 1.15-8.48 2.57-12.76 3.67a14 14 0 0 1-5.09.35c-1.52-.19-3-.49-4.53-.8-19.93-5.82-39.65 1.29-39.65 1.29a107.13 107.13 0 0 0-12.6 4.57 128.68 128.68 0 0 0-19.78 11 148.52 148.52 0 0 0-23.38 18.48c-1.85 1.65-8.8 5.82-9.9 5.81-4.06 0-12.73.08-16.79.25a40.4 40.4 0 0 0-9.93 1.23c-5.16 1-10.77 4.17-12.06 7.78-.07 1.47 1.61 1.21 1.77 1.22 3.85.12 6.53-.59 10.38-.61a15.33 15.33 0 0 1 7.88 2c4 2.32 4.61 6.95 1.38 10.16-5.82 5.78-11.65 11.56-17.57 17.23a115.17 115.17 0 0 1-18.65 14.7 56.09 56.09 0 0 1-22.51 8.31 62.12 62.12 0 0 1-15.47 0 35.78 35.78 0 0 1-16.34-6.57c-7.55-5.39-16.07-8.13-25-9.56a20.54 20.54 0 0 1-9.26-3.7c-.77-.56-3.35-2.76-4.47-3.72-1.3-1.2-.83.29-.72.79 7 15.84 29.73 28.39 43 24.86"/><path class="c" d="M246.92 104.64c2.88-1.74 5.82-3.39 8.81-4.92 2.13-1.08 6-2.53 8.41-3.59a54.77 54.77 0 0 1-7.71-.45 26.92 26.92 0 0 1-10.86-3.4 4.16 4.16 0 0 1-2.25-4 14.83 14.83 0 0 1 .56-3.6c-1.93 2-4 3.86-6 6 0 .73.11 3.55.23 5.58a64.85 64.85 0 0 1-.59 14.26 85 85 0 0 1-3.73 14.95c-4.46 12.6-12.58 22.63-22.61 31.15a67.29 67.29 0 0 1-23.21 12.52c-6.93 2.24-14.06 3-21.24 3.49a59.36 59.36 0 0 1-6.27-.14 55.66 55.66 0 0 1-7.82-1 70.11 70.11 0 0 1-26.67-10.87l-2.55-1.73c-2.24.38-5.59.79-7.83 1.06-2.84.34-5.66.8-8 1.14l-5 11.06a21.81 21.81 0 0 0 4.16-2.47c4-2.8 8.08-5.66 13.29-5.71 1.52 0 3.25-.27 4.21 1.43 1.72 3.06 1.58 6.39 1.33 9.73-.09 1.22-.17 2.45-.29 4.17 1.22-.64 2-1.08 2.84-1.48 2.83-1.37 5.61-2.88 8.54-4 2.06-.81 3.42 0 3.7 1.82a52.88 52.88 0 0 1 .75 7.18c.1 6.79 0 13.58 0 20.64a23.41 23.41 0 0 0 2.22-2.97c1.38-2.5 2.45-5.18 4-7.59 2.8-4.47 5.7-8.89 8.82-13.15 1.75-2.39 4.55-2.29 6.27 0 1.85 2.47 3.29 5.26 4.92 7.92.18-.3.55-.88.88-1.49a28.67 28.67 0 0 1 6.47-8.68c2.32-2 5.39-1.74 6.92.88 1.93 3.3 3.59 6.76 5.32 10.17.91 1.79 1.72 3.62 2.64 5.56.32-1.45.35-3.61.58-4.69.07-.34.32-3.8.34-4.15.17-3.33.1-1.24.58-5.77.68-3.93 2.12-4.82 5.1-4.24a9.17 9.17 0 0 1 2.84 1.4c1.24.76 2.41 1.63 3.56 2.42.32-1.8.29-3.91.52-5.52.25-1.77.65-3.08 1-4.81.89-1.59 2.63-.87 3.15-.72a9.48 9.48 0 0 1 3.62 1.82c4.05 2.82 8 5.86 11.89 8.85 2.07 1.57 4.08 3.21 6.12 4.82-3.66-7.63-4.1-8.18-4.78-9.42-2.15-4.75-4.61-9.41-5.37-14.59-.47-3.23-1-5.67 4-6.27a49.35 49.35 0 0 1 8.4.19c1.67.09 3.33.38 4.68.54-1.45-4-2.89-7.73-4.2-11.54-.95-2.74 1-4.68 4.17-4.54a27 27 0 0 1 5 .18c1.14.13 2.26.33 3.4.46 1.74.21 3.51.26 5.23.59 5.91.54 7.94.93 12.65 1.55a41.6 41.6 0 0 1-4-2 64.67 64.67 0 0 1-17.15-12.18c-2-2.13-2.09-2.82-1.58-4.9 1.88-2.61 11.74-3.85 18.49-4.43-1.82-1.24-3.2-2.14-4.54-3.1a51.11 51.11 0 0 1-6.4-4.77c-1.78-1.76-1.77-3.56 0-4.66m-163.71-2.68c9.34 3.44 2.69 13.54-5.83 18.54a34.69 34.69 0 0 1 7.84.6c4.68.86 6.53 3 4.83 7.84-.48 1.37-1.1 2.7-1.82 4.43a52.52 52.52 0 0 0 10.21-6.6 40.59 40.59 0 0 1-3.47-11.07 126.77 126.77 0 0 1-1.88-13.13 36.28 36.28 0 0 1 .3-7.65 110.12 110.12 0 0 1 2-13.1 72.63 72.63 0 0 1 50.2-51.56 83.5 83.5 0 0 1 17.59-2.76 80.15 80.15 0 0 1 17.78 1.52 72.44 72.44 0 0 1 22.26 8.7c1.63.88 2.5 1.33 2.5 1.33 3.73-1.3 8.35-2.68 14.52-4.39-.74-1.77-.53-2.12-.21-3.8-8.27 3.68-12.19 3.93-14.82 2.88-3.6-1.43-2.72-7.1-1.76-10.94a59.41 59.41 0 0 1 2.83-7.8c-3.33 3.81-4.17 4.77-5.36 5.68-4.12 3.3-7.06 6.24-10.18 4.83-3.77-1.25-2.43-17.85-1.86-25.49-3.19 7.73-5 11.16-7.24 15.74a40.94 40.94 0 0 1-5.45 7.66c-1.39 1.65-2.57 1.41-4.15.06-3.08-3.32-4-7.17-5.31-11.29-1.2 3.65-1.67 5.78-2.86 7.88a5.56 5.56 0 0 1-8.54 1.76c-3.57-2.69-5.8-6.42-7.76-10.33-1.63-2.67-2.33-5.2-3.41-7.3-.52 3.86-.89 8.12-1.61 11.94a55.3 55.3 0 0 1-2.25 8.24 2.27 2.27 0 0 1-2.88 1.54 35 35 0 0 1-5.08-2.33c-1.05-.57-2.81-2.88-3.78-3.61.69 3.66 2 10.67-.67 12.73-6.23 4.8-21.85-10.3-25.7-13.31 2.73 7 10.94 19.82 8.29 26.48-2.07 3.79-9.26 2-14.71-.14 3.23 4 6.67 9.19 5.15 12.05-4.75 6.43-22.63-.88-28-2.53 2.87 2.39 6.41 4.34 9.08 6.23 4.16 3 8.07 5 10.92 9.47 3.24 4.75-6 7.78-10.77 8.12 4.72 1.57 8.92 4.5 8.42 6.86-1 6.71-12.46 8.09-25.89 9.79"/></svg>