<svg xmlns="http://www.w3.org/2000/svg" viewBox="0 0 113.92 152.06"><defs><style>.a{fill:#3c1e5e;}.b{fill:#fff;}.c{fill:#eec6a5;}.d{fill:#eebf1b;}</style></defs><title>MIN</title><path d="M106.22 85.51c.29-1.6 1.18-3.37.41-5.08.85-.47 1.8-1 2.72-1.42a7.53 7.53 0 0 0-3.84-6.5s1.57-.54.83-3.72c-4.31.35-3.19-4.49-4.37-6.91a7.48 7.48 0 0 0 3.43-9c-1.09 1.91-2.54 3.54-4.55 3.84-9.88-25.63-35.08-32.06-50-31.24a20.38 20.38 0 0 1-1.29 5.19C38.69 27.83 38.99 15.96 33.85 8.52c-1.21-1.69-4.46-5.81-8.17-6.5-.73-.1-1 .41-.92.71 7.68 5.2 8.48 14 9.22 22.51.62 7.15 5.12 11.21 9.79 14.7a6.71 6.71 0 0 0-.87 1.48 23 23 0 0 1-18.3-2.65C14.44 32.11 16.95 19.42 14.13 9.4c-.83-2.6-2.16-6.16-4.83-7.56-.84-.46-1.65 0-1.25.58a17.76 17.76 0 0 1 3.54 9.33c.06 9-2.13 18.52 1.32 27 5.13 11.45 14.62 19.71 26.15 22.14a40.24 40.24 0 0 0 .71 11.34c-12.37 6.7-22 13.73-37.84 38.29-.49 1 0 1.94 1.32.7 15.57-14.47 41.23-21.63 57.35 2.46 7.75 12.22 7.07 20.82 6.59 28.85 0 2.79-1.7 6.67.82 7.74 2.7 1.16 5.39-5.67 5.39-6.62a4.53 4.53 0 0 0 .92-2.7c.56-.42.86-2.37.73-3.41 1.62-1.92 3.06-6.71 1.27-9.5a13.89 13.89 0 0 0-.33-8c.56-2.44 1.13-8-.88-10.51a30.2 30.2 0 0 1 10.5-7.56c.94 7.15 2.36 16.26-3.91 21.16-.42.28-.35.76.42.55 10.07-3.37 12.21-22.55 12.9-24.94 3.35-1.74 12.9-4.32 15.76-5.37s.92-5.18-.25-6.61c-.66-.79-2.35-1.16-4.31-1.25zm-1.56-16l.14 1.11c-2.07.51-5.16 2.52-5.83 1.16-.6-1.2 2.11-1.4 2.58-2 .26-.33 0-.89-.59-1a11.87 11.87 0 0 0-2.89.23c-1.26 1-1.16 3.63-.6 4.46-2.73 1.24-5.42 4-7 5.64-.71-3.54 1.89-6.08 4.49-7.92.59-.56.24-4.13-.24-6-.49-.21-1.32 0-1.39-.41s3.24-.48 4.59-.54a1.75 1.75 0 0 1 3.16-1.32c1.04 2.23.34 6.24 3.59 6.59zm-.15-13.48a5.57 5.57 0 0 1-2.83 4.13c-4.31 1.89-10-.89-14 1.83.06-1.48.81-3.53 3.06-3.69 5.65-.27 9.68 1.61 13.77-2.27zm-6 .71a70.59 70.59 0 0 0-23.24 2.89c-1.06 10.88-13.9 15-21.42 6.62 0 0-2.85.63-11.46 4.55-1.06-1.42-2-4.89-.32-5.66a24.37 24.37 0 0 1 6.25-2.76c1.94-.44 5 .54 6.55 1 8.54 5.14 17.26 5.27 19.44-10 0 0 11-2.72 21.51-2a22.42 22.42 0 0 1 2.72 5.35zM41.39 63.3v-1.89l3.25.47a22.68 22.68 0 0 0-3.22 1.41zM52.2 26.97c33 .84 42.53 22.68 42.53 22.68-6.33-.53-14.46.64-20.85 2-3.42-8.67-8.59-12.23-28.36-10.52 2.74-4.94 6.03-8.19 6.71-14.17zm-13.76 5.26a31.53 31.53 0 0 1-3.26-11c0-.15.12-.16.19-.1a15.55 15.55 0 0 0 1.66 5.33c.17.17.48.1.41-.21a35.2 35.2 0 0 1-1.75-6.78c.08-.11.16-.25.24 0 .62 1.6 1.6 4.34 2.33 5.14.11.14.47.11.44-.18-.29-.85-.94-2.52-1.14-3.36-.12-.28.11-.17.2-.1a17.68 17.68 0 0 0 8.06 9.77c1.26.86.83 4.37-2 5-2.4.29-4.23-1.71-5.36-3.52zm3.52 23.11c-.7-.9-3.81 1.54-4.22 1.1-.25-.2 1.4-.83 1-1.12-1.06-.71-2.87.71-3.13.41s.67-.41.41-.83c-.75-.76-3.43.74-3.66.3s2-.71 1.54-1.3c-.7-.68-2.89.78-6.09-.68-11.87-6.25-15-18.7-15.38-23.89 0-.17 0-.22.15-.08.93 4.55 2.73 10.85 6.84 14 .21.14.43-.16.3-.3-4.37-3.44-6-11.2-6.24-17.9 0-.26.07-.28.16-.06.3 5.08 1.71 11.17 5.79 15 .17.14.47-.09.3-.29-3.95-4.73-5.09-10.74-5.07-16.53 0-.23.19-.15.18-.08a22.21 22.21 0 0 0 9 17.2c10.57 8 28.23-.45 38.26 2.93 15 4.4 10.3 17.58 5.81 19.87-1-1.07-1.71.41-2.12.18s.52-.73-.07-1.09-1.25.61-1.76.38c-.3-.13.52-.72.11-1-.89-.59-2 1.26-2.41 1s1.52-1.15.77-1.78c-1-.74-2.3 1.23-2.72.89-.65-.46 2.7-1.94 1.42-2.54-.71-.36-2.94 2-3.43 1.54s2.74-1.63 1.85-2.27c-.74-.41-4.54 2.29-5.1 1.86s3.36-2.16 2.48-2.86c-1.1-.75-4.74 3.12-5.43 2.45-.53-.43 3.1-1.86 2.22-2.74s-4.53 2.87-5.53 2.15c-.46-.31 3.71-2 2.6-2.8-1.09-.63-5.45 2.94-5.85 2.38s3.68-2 3.13-2.66c-1.12-1.07-5.16 2.46-5.67 1.95s3.18-1.71 2.51-2.23c-1.12-.79-4.86 2.13-5.23 1.52s3.13-.98 2.28-2.08zm-27.37 45.42a54.31 54.31 0 0 0-8.74 7c-.28.21-.41-.14-.13-.49 18.8-28.06 41.22-37.06 46.67-38.45 1.07-.21 1 .38.53.66-10.29 4-27.41 14.17-34.72 26.53-1.11 1.89-2.01 3.67-3.6 4.75zm14.17-4.26c-3.94 1.13-7.24 2-10.66 3.22-.31.13-.82.07-.63-.33 8.05-14.53 22.86-23.26 37.1-29.46.42-.21.72.27.38.41-10.55 5.13-18.18 15.36-24.52 25a4.63 4.63 0 0 1-1.66 1.17zm3.8-.35a.81.81 0 0 1-.37-1.14c6.79-8.33 12.1-18.91 22.44-23.16.82-.23 1.9-.81 2.77-.46a14.42 14.42 0 0 0 9.63 1 13.68 13.68 0 0 0 9.41-10.67 43.87 43.87 0 0 1 6.38-1.42c-2.42 14-21.92 19.79-22.68 34.44-5.79 1.14-13-3.4-14.11-10.16a28.75 28.75 0 0 1-6.75 9.22c-1.92 1.5-4.75 2.98-6.71 2.36zm37.91 17.46c-1.27-1-2.42-2.25-4-2.72-.18-5.44 3.56-11.6 4.8-13.5.48-.75 1-.26 1.25.73 2.78 8.3-1.37 11.76-2.04 15.5zm3.54-3.13c1.34.84.64 7.66-.83 11.16a27.22 27.22 0 0 0-2.93-3.42c.93-2.19 3.15-8.01 3.78-7.73zm-2.24-27.12c-.22.1-.82-.7-1.14-.53s1 2.13 1 2.13c0 11.3-5.95 13.66-5.91 20.55a18.87 18.87 0 0 0-4.32-2.93C58.68 91.91 71.83 77.8 72.57 78.41c.29.36-.52 4.73-.79 4.97zM38.66 95.97a19.89 19.89 0 0 0 6.72-7.86c.36.89.9 1.87 1.24 2.72-1.6 2-3.93 4.64-6.28 5.5-.86.15-2.24.18-1.68-.36zm15.49 7.49a31.71 31.71 0 0 0-12-6.43 29.48 29.48 0 0 0 5.37-5.14c.22.21.55.57.73.75a10.48 10.48 0 0 0 6.05 10.05c.66.28.19 1.11-.15.76zm-4.34-9.43a15.72 15.72 0 0 0 10 2.84v5.16c-9.85-1.21-10-8-10-8zm10.15 15.3c-1-.63-5.24-4.55-3.7-5.81 1.64-1.7 8.92 3.13 8.92 3.13a23.25 23.25 0 0 0-.24 3.54s-3.82-.09-4.98-.86zm3.09 5.42c-.53-1-1.58-2.22-1-3 1-.88 5.39.63 7.66 3.11-.24 1.11-.56 1.89-.83 3-2.18-.34-4.6-.75-5.78-3.12zm3.84 7.62c-.46-.84-1.16-2.74-.41-3.37.93-.51 4.82 1.38 6.12 3.75a3.84 3.84 0 0 1-1.28 2.65c-.36.19-3.72-1.5-4.36-3.03zm6.09 8.1c0 .82-.68 1.9-1 1.87-.41.12-3.6-1.73-3.84-3.57-.18-.94-.28-2.66.19-2.85.91-.26 3.98 2.59 4.69 4.54zm-4.79 18.72c-1-.56-.4-2.76.29-4a13 13 0 0 1 1.63 1.7c-.15.59-.91 2.68-1.87 2.3zm2.49-3.41c-.83-.87-1.13-1.61-2.19-2.26-.35-.35 0-1.19.23-1.12a5.46 5.46 0 0 1 2.42 2.93c.13.29-.11.7-.42.45zm.9-2.12a20.12 20.12 0 0 0-2.8-2.89c-.46-.27 0-1.11.55-1 1.19.41 2.14 2.06 2.67 3.37.11.41-.24.65-.38.51zm.79-2.27c-.4-1-2.48-3-3.63-4.07-.63-.49.45-1.54.87-1.19 1.82 1.36 3.95 4.33 2.81 5.25zm.69-2.45a11.36 11.36 0 0 0-4-4.93c-.63-.35-.56-1.85 0-1.71a8.26 8.26 0 0 1 4.62 5.31c.21.76-.22 1.95-.57 1.32zm2.41-9.16c.68.5.15 4.17-1.07 5.83l-1.54-2.12c.87-1.32 2.18-4.02 2.65-3.72zm-1.78-.31c-.28-1.23-1-1.89-1.38-3 .28-.42 2.27-4.73 2.68-4.59.76.32-.03 5.54-1.26 7.58zm1.18-21.8c1.12-4.67-.71-8.8-2.42-12.64.61-3 .74-5.56 1.12-8.59.23-.65 1-.77 1.3-.33.82 6.76 3.6 9.13 9.63 8.8l.41 4.55c-3.79 1.57-7.04 4.89-9.95 8.2zm9.71-14.85c-5.58 1.67-8.79-1.75-8.29-9.42-.67-1.07-2.48 1.36-2.72.59-.05-8.08 3.49-8.48 4.83-10.43a5.26 5.26 0 0 1 3.47 1.61c2.16 3.38 1.62 7.46 2.92 11.24.32.67.95 0 .95 0-1.42-5.2.12-12.58-6.2-14.77 2.54-3.48 3.53-7.28 4.6-11.36a1.84 1.84 0 0 1 1.78-.4c-.18 1.59-.82 3-.59 4.84.14 1.09 2.22-1.32 3.43-1.89 1.7-.87 4.45-.66 6.81-.3.49.07.42.55-.07.62-2.3.24-5.84.69-6 1.69 0 .74 2.66 1.48 4.25 1.54a7.69 7.69 0 0 1 .33 2.94 8.78 8.78 0 0 0-4.6 11.34 39 39 0 0 0-4.85 12.14zm10.13 1.92c-2.55 7.74-3.71 18-7 22.48-.06.09-.24.08-.17-.1 3.87-7.72 3.17-14.66 5.44-22.09.12-.28-.19-.65-.44-.23-2.59 3.41-3 17-5.22 21.15-.07.16-.32.19-.24-.13 2.6-9.81.55-19.24 4.59-26.76.15-.27-.31-.7-.71-.24a33.14 33.14 0 0 0-3.27 17.47c0 .43-.32.49-.38 0-1.12-9-2-18.07 4.36-25.88 2.68-3.29 6.7-6.34 9.39-7a5.63 5.63 0 0 1 7.21 4.61c-7.36 2.11-11.31 10.15-13.51 16.7zm2.09.64c-.37-.23-.34-1 0-1.12 2.2-.6 8.44-2 8.76-1.35.19.12-8.25 2.69-8.71 2.45zm13.62-3.89a50.34 50.34 0 0 0-13.17 1.12c.76-4.59 6.88-11.55 8.09-10.88s-1.35 3.9.06 4.89c1.07.63 2.33.21 3.22.54 2.04.87 2.52 4.11 1.86 4.31z"/><path class="a" d="M74.34 53.38c-2.19 15.22-10.9 15.09-19.44 10-1.51-.42-4.62-1.4-6.55-1a24.32 24.32 0 0 0-6.25 2.76c-1.64.77-.74 4.24.32 5.66 8.61-3.92 11.46-4.55 11.46-4.55 7.52 8.34 20.35 4.25 21.42-6.62a70.59 70.59 0 0 1 23.24-2.89 22.41 22.41 0 0 0-2.69-5.38c-10.47-.7-21.51 2.02-21.51 2.02z"/><path class="b" d="M111.75 85.65a5.35 5.35 0 0 0-3.44-1.62 7.75 7.75 0 0 0 .27-2.75l1.53-.79a1.67 1.67 0 0 0 .91-1.39 8.87 8.87 0 0 0-3.15-6.91 6.21 6.21 0 0 0 .1-3.8 1.67 1.67 0 0 0-1.77-1.29c-1.22.1-1.5-.12-1.93-2.87-.09-.57-.18-1.14-.31-1.7a9 9 0 0 0 3-10.29 1.69 1.69 0 0 0-3-.19 7.88 7.88 0 0 1-2.15 2.54A48.54 48.54 0 0 0 78.5 29.68a57 57 0 0 0-27.76-5.88 1.67 1.67 0 0 0-1.57 1.46 27.06 27.06 0 0 1-.64 3.31c-5.36-2.07-7.25-7.09-9.25-12.39a39.67 39.67 0 0 0-4.08-8.63c-1.7-2.38-5.15-6.43-9.25-7.19-3.28-.28-3.35 3-2.17 3.74 7.06 4.78 7.78 13.16 8.49 21.27.62 7.11 4.71 11.39 8.93 14.73a21.44 21.44 0 0 1-15.71-2.73C19 33.11 18.03 26.23 17.34 18.6a72.65 72.65 0 0 0-1.64-9.71c-1.06-3.31-2.55-6.91-5.64-8.52a2.67 2.67 0 0 0-3.3.41 2.07 2.07 0 0 0-.1 2.64c3.28 4.48 3.48 8.5 3.2 12.93-1.39 12.14-.73 18.29 2.24 24.86 6.92 13.33 17.36 19 25.17 21a41.69 41.69 0 0 0 .62 9.14C26.7 77.5 16.61 84.71.5 109.63c-1.33 1.75.3 5.7 3.86 2.83 9.85-9.15 22-13.87 32.62-12.64 8.84 1 16.31 6 22.18 14.79 7.31 11.54 7 20.74 6.05 30.24-.23 2.42-.9 5.7 2.1 7a3.45 3.45 0 0 0 3.32-.38c2.19-1.43 3.85-5.23 4.29-7a6.28 6.28 0 0 0 1-2.79 7.16 7.16 0 0 0 .8-3.51c1.73-2.48 2.88-7 1.37-10.24a16.41 16.41 0 0 0-.38-8c.31-1.64 1.08-6.71-.54-10.13a28.51 28.51 0 0 1 7.05-5.28c.52 6.38 1.72 12.78-3.58 17.34-1.33 1-1.23 4.3 2 3.46 9.75-3.15 12.86-19.5 13.83-25.37 2.4-1.07 13.9-4.6 14.88-5a3.85 3.85 0 0 0 2.5-2.66c.58-2.5-1.11-5.43-2.1-6.64zm-1 7.67c-2.86 1-12.41 3.63-15.76 5.37-.7 2.39-2.83 21.57-12.91 24.94-.77.21-.84-.27-.42-.55 6.26-4.9 4.85-14 3.91-21.16a30.21 30.21 0 0 0-10.49 7.56c2 2.53 1.44 8.07.88 10.51a13.89 13.89 0 0 1 .33 8c1.79 2.79.36 7.59-1.27 9.5.13 1-.16 3-.73 3.41a4.52 4.52 0 0 1-.91 2.7c0 1-2.7 7.78-5.39 6.62-2.52-1.07-.83-5-.82-7.74.49-8 1.16-16.63-6.58-28.85-16.11-24.1-41.78-16.93-57.35-2.46-1.33 1.24-1.81.29-1.32-.7C17.8 85.91 27.39 78.88 39.76 72.18a40.28 40.28 0 0 1-.71-11.34c-11.53-2.43-21-10.69-26.15-22.14-3.46-8.44-1.27-18-1.32-27a17.77 17.77 0 0 0-3.54-9.33c-.4-.55.41-1 1.25-.58 2.67 1.39 4 5 4.83 7.56 2.81 10 .3 22.71 10.47 29.37a23 23 0 0 0 18.3 2.65 6.71 6.71 0 0 1 .87-1.48c-4.67-3.49-9.17-7.55-9.79-14.7-.74-8.5-1.54-17.31-9.22-22.51-.06-.3.2-.81.92-.71 3.71.69 7 4.81 8.17 6.5 5.14 7.44 4.84 19.32 15.71 22.15a20.38 20.38 0 0 0 1.29-5.19c15-.82 40.16 5.61 50 31.24 2-.3 3.46-1.93 4.55-3.84a7.48 7.48 0 0 1-3.43 9c1.18 2.42.06 7.27 4.37 6.91.74 3.18-.83 3.72-.83 3.72a7.53 7.53 0 0 1 3.84 6.5c-.92.47-1.87 1-2.72 1.42.77 1.71-.12 3.49-.41 5.08 2 .09 3.65.46 4.23 1.21 1.18 1.48 3.26 5.52.26 6.66z"/><path class="b" d="M45.85 30.68a17.68 17.68 0 0 1-8.06-9.77c-.09-.08-.33-.18-.2.1.21.84.85 2.5 1.14 3.36 0 .28-.33.31-.44.18-.73-.8-1.71-3.54-2.33-5.14-.08-.21-.16-.06-.24 0a35.21 35.21 0 0 0 1.75 6.78c.07.31-.24.38-.41.21a15.56 15.56 0 0 1-1.66-5.33c-.07-.06-.16 0-.19.1a31.53 31.53 0 0 0 3.26 11c1.12 1.83 3 3.84 5.38 3.43 2.83-.57 3.26-4.06 2-4.92z"/><path class="b" d="M44.96 55.92c.67.52-3 1.75-2.51 2.23s4.55-3 5.67-1.95c.55.71-3.48 2.2-3.13 2.66s4.76-3 5.85-2.38c1.11.84-3.07 2.49-2.6 2.8 1 .72 4.68-3 5.53-2.15s-2.75 2.31-2.22 2.74c.69.67 4.33-3.2 5.43-2.45.88.7-2.9 2.54-2.48 2.86s4.36-2.27 5.1-1.86c.89.64-2.23 1.92-1.85 2.27s2.72-1.9 3.43-1.54c1.29.6-2.07 2.08-1.42 2.54.42.33 1.74-1.63 2.72-.89.75.63-1.13 1.54-.77 1.78s1.53-1.57 2.41-1c.41.26-.4.85-.11 1 .51.23 1.2-.61 1.76-.38s-.38.8.07 1.09 1.1-1.25 2.12-.18c4.49-2.3 9.17-15.48-5.81-19.87-10-3.38-27.68 5-38.26-2.93a22.21 22.21 0 0 1-9-17.2c0-.07-.14-.15-.18.08 0 5.79 1.12 11.8 5.07 16.53.17.21-.12.44-.3.29-4.08-3.84-5.49-9.93-5.79-15-.09-.22-.17-.2-.16.06.22 6.7 1.87 14.46 6.24 17.9.14.14-.09.43-.3.3-4.11-3.17-5.91-9.47-6.84-14-.11-.14-.12-.09-.15.08.36 5.18 3.51 17.64 15.38 23.89 3.19 1.45 5.39 0 6.09.68.43.59-1.7 1-1.54 1.3s2.91-1.06 3.66-.3c.26.41-.6.54-.41.83s2.07-1.12 3.13-.41c.4.29-1.25.92-1 1.12.41.44 3.52-2 4.21-1.1.84 1.1-2.61 1.56-2.27 2.11s4.09-2.34 5.23-1.55z"/><path class="c" d="M94.09 69.31a7.66 7.66 0 0 0-.33-2.94c-1.6-.06-4.27-.79-4.25-1.54.19-1 3.73-1.46 6-1.69.49-.07.56-.55.07-.62-2.36-.35-5.11-.57-6.81.31-1.21.57-3.29 3-3.43 1.89-.23-1.83.41-3.25.59-4.84a1.84 1.84 0 0 0-1.78.4c-1.06 4.08-2.06 7.87-4.6 11.36 6.32 2.19 4.78 9.57 6.2 14.77 0 0-.63.68-.95 0-1.3-3.78-.76-7.86-2.92-11.24a5.25 5.25 0 0 0-3.47-1.61c-1.34 1.95-4.88 2.34-4.83 10.43.24.77 2.05-1.66 2.72-.59-.49 7.68 2.71 11.1 8.3 9.42a39 39 0 0 1 4.86-12.16 8.78 8.78 0 0 1 4.63-11.35z"/><path class="c" d="M97.96 64.29c-1.35.06-4.6.13-4.59.54s.9.2 1.39.41c.47 1.83.83 5.4.24 6-2.6 1.83-5.2 4.37-4.49 7.92 1.54-1.65 4.24-4.4 7-5.64-.56-.84-.65-3.42.6-4.46a11.88 11.88 0 0 1 2.89-.23c.62.12.85.67.59 1-.47.59-3.18.79-2.58 2 .67 1.36 3.76-.65 5.83-1.16l-.14-1.11c-3.25-.35-2.54-4.36-3.54-6.54a1.75 1.75 0 0 0-3.2 1.27zm10.72 22.85c-.9-.33-2.15.08-3.22-.54-1.41-1 1.09-4.25-.06-4.89S98.07 88 97.31 92.59a50.34 50.34 0 0 1 13.17-1.12c.66-.2.18-3.44-1.8-4.33zm-33.72-1.05c-.27-.44-1.07-.32-1.3.33-.38 3-.51 5.56-1.12 8.59 1.71 3.84 3.54 8 2.42 12.64 3-3.31 6.21-6.62 10-8.21l-.41-4.55c-6.05.33-8.81-2.04-9.59-8.8zm21.91 8.14c-.36.13-.4.9 0 1.12s8.9-2.28 8.78-2.47c-.34-.68-6.58.75-8.78 1.35z"/><path class="d" d="M41.42 61.4v1.89a22.68 22.68 0 0 1 3.25-1.42zm32.49-9.75c6.4-1.37 14.53-2.54 20.85-2 0 0-9.53-21.84-42.53-22.68-.68 6-4 9.23-6.67 14.18 19.76-1.73 24.93 1.88 28.35 10.5zm16.82 6.66c-2.24.15-3 2.21-3.06 3.69 4-2.72 9.69.06 14-1.83a5.58 5.58 0 0 0 2.83-4.13c-4.08 3.87-8.11 1.99-13.77 2.27zM46.04 84.56c1.1 6.77 8.32 11.3 14.11 10.16.77-14.65 20.26-20.44 22.69-34.44a43.87 43.87 0 0 0-6.38 1.42 13.68 13.68 0 0 1-9.41 10.67 14.42 14.42 0 0 1-9.63-1c-.87-.35-2 .23-2.77.46-10.35 4.28-15.69 14.86-22.45 23.2a.81.81 0 0 0 .37 1.14c2 .62 4.79-.86 6.72-2.39a28.75 28.75 0 0 0 6.75-9.22zm6.92-15.07c.43-.27.53-.86-.53-.66-5.45 1.39-27.87 10.39-46.67 38.45-.28.35-.14.7.13.49a54.31 54.31 0 0 1 8.74-7c1.6-1.08 2.49-2.86 3.6-4.74 7.29-12.36 24.4-22.57 34.73-26.54z"/><path class="d" d="M54.96 70.34c.35-.14 0-.62-.38-.41-14.24 6.2-29 14.92-37.1 29.46-.19.4.32.47.63.33 3.42-1.22 6.73-2.09 10.66-3.22a4.63 4.63 0 0 0 1.66-1.2c6.34-9.6 13.97-19.83 24.53-24.96zm53.39 7.69a5.63 5.63 0 0 0-7.21-4.61c-2.68.7-6.7 3.75-9.39 7-6.37 7.81-5.48 16.84-4.36 25.88.06.48.41.41.38 0a33.18 33.18 0 0 1 3.27-17.47c.4-.46.87 0 .71.24-4 7.52-2 17-4.59 26.76-.08.32.16.29.24.13 2.18-4.18 2.63-17.74 5.22-21.15.25-.42.56-.05.44.23-2.28 7.43-1.57 14.36-5.44 22.09-.07.18.1.19.17.1 3.28-4.47 4.44-14.75 7-22.49 2.17-6.57 6.12-14.61 13.56-16.71zm-35.81.41c-.74-.62-13.89 13.5-11.17 24.17a18.89 18.89 0 0 1 4.32 2.93c0-6.89 6-9.26 5.91-20.56 0 0-1.34-1.9-1-2.13s.93.63 1.15.53 1.11-4.61.79-4.94zM46.61 90.83c-.34-.85-.88-1.84-1.24-2.72a19.89 19.89 0 0 1-6.72 7.86c-.55.54.82.52 1.67.37 2.36-.87 4.7-3.56 6.29-5.51zm7.67 11.86a10.48 10.48 0 0 1-6.05-10.05c-.18-.18-.51-.54-.73-.75a29.59 29.59 0 0 1-5.38 5.14 31.7 31.7 0 0 1 12 6.43c.37.34.84-.49.16-.77z"/><path class="d" d="M59.85 96.85a15.71 15.71 0 0 1-10-2.84s.18 6.82 10 8zm11.48.56c-1.24 1.9-5 8.07-4.8 13.5 1.54.47 2.69 1.69 4 2.72.67-3.75 4.82-7.21 2.1-15.49-.33-.99-.83-1.49-1.3-.73zm-6.1 9.24s-7.28-4.83-8.92-3.13c-1.54 1.25 2.65 5.18 3.7 5.81s5 .87 5 .87a23.25 23.25 0 0 1 .22-3.55zm7.97 15.01c1.47-3.51 2.17-10.32.83-11.16-.63-.28-2.85 5.51-3.76 7.74a27.22 27.22 0 0 1 2.93 3.42zm-3.43-6.79c-2.27-2.48-6.69-4-7.66-3.11-.6.77.45 2 1 3 1.18 2.36 3.6 2.78 5.85 3.13.26-1.14.57-1.91.81-3.02zm1.6 10.53a3.85 3.85 0 0 0 1.28-2.65c-1.3-2.36-5.2-4.26-6.12-3.75-.75.62-.05 2.52.41 3.37.66 1.53 4.02 3.22 4.43 3.03zm.98 1.03c.36 1.14 1.11 1.8 1.38 3 1.27-2 2-7.26 1.3-7.62-.42-.12-2.4 4.22-2.68 4.62zm-3.99-.52c-.47.19-.37 1.91-.19 2.85.24 1.84 3.43 3.69 3.84 3.57.33 0 1-1 1-1.87-.7-1.95-3.77-4.8-4.65-4.55zm4.55 7.57l1.54 2.12c1.23-1.65 1.76-5.33 1.07-5.83-.48-.3-1.79 2.4-2.61 3.71zm-3.84-1.19c-.56-.14-.63 1.36 0 1.71a11.37 11.37 0 0 1 4 4.93c.35.63.78-.57.57-1.33a8.27 8.27 0 0 0-4.57-5.31zm.59 3.84c-.42-.35-1.5.7-.87 1.19 1.15 1 3.23 3.08 3.63 4.07 1.14-.93-.99-3.9-2.76-5.26zm-.29 3.64c-.51-.12-1 .72-.55 1a20.32 20.32 0 0 1 2.8 2.89c.14.14.49-.1.42-.52-.53-1.31-1.49-2.96-2.67-3.37zm-.6 2.62c-.28-.07-.59.77-.24 1.12 1.06.65 1.36 1.39 2.19 2.26.3.21.55-.16.46-.45a5.45 5.45 0 0 0-2.41-2.93zm-.24 2.84c-.7 1.2-1.27 3.39-.3 4 1 .39 1.71-1.7 1.92-2.26a13 13 0 0 0-1.62-1.74z"/></svg>