<svg xmlns="http://www.w3.org/2000/svg" viewBox="0 0 126.95 154.92"><defs><style>.a{fill:#fff;}.b{fill:#c6a876;}</style></defs><title>NOS</title><path d="M113.69 61.36c-11.41-6.63-22.62-5.09-31.13-1.3a50.37 50.37 0 0 0-2.32-9.46c-1.8-5.35-3.78-10.46-5.52-15-2.29-5.92-4-11-5-14.39L63.47 0l-6.44 21.27c-1 3.38-2.68 8.48-5 14.41-1.73 4.5-3.69 9.62-5.48 15a50.62 50.62 0 0 0-2.31 9.47c-8.51-3.77-19.74-5.27-31.13 1.37-9.3 5.45-14.28 14.9-13 24.68a21.59 21.59 0 0 0 15.96 18.26l6.42 1.76 1.57-6.47c.23-.87 2.54-9 9.84-8.83 5.05.09 9.27 4.57 11.36 7.47a16 16 0 0 0-.7 7.13l-2.85-3.81-5.17 3.86c-4.65 3.46-11.41 12-7.23 22.13 1.82 4.41 5.73 7.42 11 8.46a25.51 25.51 0 0 0 10.31-.25 35.87 35.87 0 0 0 8.22 14.16l4.68 4.89 4.67-4.9a35.84 35.84 0 0 0 8.2-14.17 25.8 25.8 0 0 0 10.31.24c5.28-1.06 9.18-4.08 11-8.49 4.18-10.18-2.6-18.72-7.23-22.18l-5.18-3.83-2.87 3.83a16.1 16.1 0 0 0-.71-7.13c2.09-2.91 6.28-7.39 11.34-7.5 7.31-.16 9.63 7.93 9.88 8.86l1.57 6.47 6.41-1.83a21.54 21.54 0 0 0 15.85-18.3c1.25-9.78-3.75-19.23-13.07-24.64"/><path class="a" d="M61.38 22.18c-.79 3.7-2.81 9-5.16 15.08-1.72 4.47-3.67 9.53-5.42 14.78a38.27 38.27 0 0 0-2.33 12.31 29.45 29.45 0 0 0 .25 3.33c-6.49-4.46-19.29-10.57-33.25-2.4C7.72 69.8 3.56 77.59 4.6 85.59a17.25 17.25 0 0 0 12.69 14.6l2 .55.51-2.06c.13-.51 3.2-12.42 14.2-12.2 8.85.19 14.64 8.8 16.21 11.44a11.54 11.54 0 0 0-1.36 5.44 12.62 12.62 0 0 0 2.82 7.66c-.8 1.09-2.13 2.43-3.68 2.56-2.2.19-4.43-2.14-5.91-4.11l-1.24-1.66-1.65 1.25c-3.39 2.51-9 9.3-5.81 16.93 1.26 3.05 4 5.08 7.82 5.84a22.31 22.31 0 0 0 12.59-1.55A32.07 32.07 0 0 0 62.06 147l1.49 1.57 1.5-1.58a32 32 0 0 0 8.23-16.74 22.23 22.23 0 0 0 12.6 1.52c3.85-.78 6.55-2.78 7.8-5.84 3.13-7.64-2.45-14.43-5.85-16.93l-1.65-1.23-1.25 1.69c-1.47 2-3.7 4.32-5.91 4.14-1.54-.12-2.87-1.47-3.69-2.56a12.66 12.66 0 0 0 2.81-7.62 11.66 11.66 0 0 0-1.38-5.47c1.56-2.66 7.32-11.28 16.18-11.47 11-.25 14.1 11.64 14.22 12.15l.52 2.07 2-.57a17.22 17.22 0 0 0 12.71-14.67c1-8-3.15-15.76-10.91-20.29-14-8.13-26.78-2-33.26 2.49a29.1 29.1 0 0 0 .25-3.23 38.4 38.4 0 0 0-2.39-12.41c-1.77-5.24-3.73-10.3-5.45-14.76-2.37-6.1-4.41-11.36-5.2-15.07l-2-9.49-2 9.49"/><path d="M63.56 145.56a30.22 30.22 0 0 0 8-18.81c3.51 3.5 17.13 5.84 20.18-1.61 3.34-8.18-5.16-14.47-5.16-14.47-8.25 11-13.78.22-13.78.22C79.08 104.1 74.37 98 74.37 98c.41-1.23 7.37-13.4 18.52-13.64 12.84-.28 16.28 13.74 16.28 13.74 13.48-3.73 16.09-22.52 1.25-31.14-18.81-10.95-35.2 5.73-35.2 5.73 1.53-6.24 2-10.91-1.12-20-4.18-12.35-9.29-23.39-10.71-30.06-1.42 6.67-6.51 17.73-10.65 30.09-3.05 9.12-2.6 13.78-1.07 20 0 0-16.43-16.63-35.22-5.65-14.81 8.66-12.16 27.44 1.32 31.14 0 0 3.4-14 16.26-13.78 11.15.23 18.14 12.37 18.55 13.59 0 0-4.7 6.14 1.59 12.91 0 0-5.51 10.84-13.78-.21 0 0-8.49 6.34-5.12 14.51 3.08 7.43 16.68 5.06 20.18 1.55a30.23 30.23 0 0 0 8.05 18.79"/><path class="b" d="M97.26 66.36c-15.3 0-27.87 17.4-27.87 17.4.54-2.84 7.1-15.64 1.17-30.95s-7.09-21.46-7.09-21.46v.18-.17s-1.2 6.16-7.09 21.48.69 28.1 1.24 30.95c0 0-12.6-17.36-27.91-17.34S1.65 83.89 15.8 94.19c0 0 4.14-12.86 18.41-12.89 10.5 0 21 11.25 21.45 16.83 0 0-4.8 6.79 1.88 12.45 0 0-7.22 15.18-17.23 4.25 0 0-7.7 9.62 2.37 11.94 8 1.85 15.84-6.25 15.84-6.25s-.86 12.8 5.05 19.79v-.06.06c5.9-7 5-19.8 5-19.8s7.88 8.08 15.86 6.22c10.06-2.36 2.34-12 2.34-12-10 10.95-17.23-4.21-17.23-4.21 6.66-5.68 1.84-12.46 1.84-12.46.43-5.57 10.92-16.86 21.42-16.86 14.27 0 18.44 12.84 18.44 12.84 14.12-10.33 1.33-27.73-14-27.7"/></svg>