<svg xmlns="http://www.w3.org/2000/svg" viewBox="0 0 234.97 234.97"><defs><style>.a{fill:#9babb6;}.b{fill:#fff;}.c{fill:#231f20;}.d{fill:#f1c817;}.e{fill:#204182;}.f{fill:#bf2026;}</style></defs><title>PIT</title><path class="a" d="M117.48 0a117.48 117.48 0 1 0 117.48 117.48A117.48 117.48 0 0 0 117.48 0zm0 217a99.56 99.56 0 1 1 99.56-99.56A99.56 99.56 0 0 1 117.52 217z"/><path class="b" d="M66.2 115.19c0-1.55-.37-2-1.56-2-1.5 0-1.42 1.35-1.42 2.73v.62h3zm-13.04-2.03c-1.49 0-1.42 1.35-1.42 2.73v.65h3v-1.32c-.04-1.57-.39-2.06-1.58-2.06zm30.91 2.03c0-1.55-.37-2-1.56-2-1.49 0-1.43 1.35-1.43 2.73v.62h3z"/><path class="b" d="M117.52 17.88a99.56 99.56 0 1 0 99.56 99.56 99.56 99.56 0 0 0-99.56-99.56zM34.77 126.6c-3.86 0-5.24-2.54-5.24-6.16v-1.49h3.21v1.19c-.07 2 .44 3.41 2 3.41 1.35 0 2-.84 2-2.38a3.22 3.22 0 0 0-1.29-2.68c-1.68-1.54-3.76-2.65-5.08-4.68a6.4 6.4 0 0 1-.83-3.11c0-3.46 1.66-5.35 5.05-5.35 5.12 0 5 4.65 5 6.65h-3.1c0-1.81-.11-3.59-1.88-3.59-1.08 0-1.77.51-1.77 1.89 0 1.54.83 2.14 1.84 2.89a30 30 0 0 1 3.9 3.33 5.8 5.8 0 0 1 1.45 4.24c.05 3.84-2.12 5.84-5.26 5.84zm12.19-13.16h-1.27v9.46c.07.65.9.57 1.27.52v2.75c-1.77.24-4.25.43-4.25-2.4v-10.34h-1.22v-2.57h1.19v-1.25l3-2.94v4.19h1.27v2.57zm10.74 5.78h-6v2.21c0 2 .67 2.38 1.56 2.38 1.1 0 1.42-.95 1.38-2.87h3c.11 3.41-1.09 5.57-4.13 5.57-3.45 0-4.85-1.92-4.78-6.4v-4c-.14-3.59 1.42-5.65 4.36-5.65 4.16 0 4.59 2.54 4.59 6.7v2.05zm2.53.9v-4c-.14-3.59 1.42-5.65 4.37-5.65 4.16 0 4.59 2.54 4.59 6.7v2.06h-6v2.22c0 2 .66 2.38 1.56 2.38 1.1 0 1.42-1 1.38-2.87h3c.12 3.41-1.08 5.57-4.13 5.57-3.43.01-4.84-1.93-4.77-6.42zm56.21 96.71c-5.28-28.09-15.07-43.71-50.3-49.69 35.23-6 45-21.59 50.3-49.68-5.28-28.09-15.07-43.7-50.3-49.69 35.23-6 45-21.6 50.3-49.69 5.28 28.09 15.07 43.71 50.3 49.69-35.23 6-45 21.6-50.3 49.69 5.28 28.09 15.07 43.7 50.3 49.68-35.23 5.98-45.02 21.59-50.3 49.68zm-44.22-90.71v-20.28h3v20.28zm10.42-2.3c1.1 0 1.42-.95 1.38-2.87h3c.11 3.41-1.08 5.57-4.14 5.57-3.44 0-4.85-1.92-4.77-6.4v-4c-.14-3.59 1.42-5.65 4.36-5.65 4.16 0 4.59 2.54 4.59 6.7v2.06h-6v2.22c.05 1.99.69 2.37 1.59 2.37zm10-10.25a5.22 5.22 0 0 1 1.17-2.16 2.32 2.32 0 0 1 1.86-.81v4.16c-1.66-.19-2.92.3-3 2.54v8.81h-3v-15.25h2.87v2.68zm8.35 10.25a1.3 1.3 0 0 0 1.24-1.7c0-.87-.9-1.35-1.47-1.81l-1.63-1.33a5.81 5.81 0 0 1-2.46-4.81c0-2.35 1.58-3.7 4.45-3.7s4.23 1.78 4.16 5.06h-3c.07-1.7-.35-2.35-1.38-2.35a1.15 1.15 0 0 0-1.26 1.24c0 .89.55 1.3 1.13 1.76l2.43 1.95a5.39 5.39 0 0 1 2 3c.25 2.65-.3 5.41-4.43 5.41-1.58 0-4.55-.78-4.2-5.43h3c-.14 2.78.78 2.71 1.46 2.71zm65.74 43.19c-5.28-28.09-15.07-43.7-50.3-49.69 35.24-6 45-21.6 50.3-49.69 5.28 28.09 15.07 43.71 50.3 49.69-35.19 5.98-44.97 21.6-50.26 49.69z"/><path class="c" d="M34.73 113.19c-1-.75-1.84-1.35-1.84-2.89 0-1.38.69-1.89 1.77-1.89 1.77 0 1.91 1.78 1.88 3.59h3.1c0-2 .11-6.65-5-6.65-3.4 0-5.05 1.89-5.05 5.35a6.39 6.39 0 0 0 .83 3.11c1.31 2 3.4 3.13 5.08 4.68a3.22 3.22 0 0 1 1.29 2.68c0 1.54-.64 2.38-2 2.38-1.59 0-2.09-1.43-2-3.41v-1.19h-3.25v1.49c0 3.62 1.38 6.16 5.24 6.16 3.14 0 5.31-2 5.31-5.84a5.8 5.8 0 0 0-1.45-4.24 29.69 29.69 0 0 0-3.91-3.33zm10.97-6.52l-3 2.94v1.25h-1.19v2.57h1.22v10.33c0 2.84 2.48 2.65 4.25 2.4v-2.76c-.37.06-1.2.14-1.27-.51v-9.46h1.27v-2.57h-1.27v-4.19zm7.41 3.79c-2.94 0-4.5 2.05-4.36 5.65v4c-.07 4.49 1.33 6.4 4.78 6.4 3 0 4.25-2.16 4.13-5.57h-3c0 1.92-.28 2.87-1.38 2.87-.9 0-1.54-.38-1.56-2.38v-2.21h6v-2.06c-.01-4.16-.45-6.7-4.61-6.7zm1.61 6.05h-3v-.62c0-1.38-.07-2.73 1.42-2.73 1.19 0 1.54.49 1.56 2v1.38zm14.42 4.44h-3c0 1.92-.28 2.87-1.38 2.87-.89 0-1.54-.38-1.56-2.38v-2.21h6v-2.06c0-4.16-.44-6.7-4.59-6.7-2.94 0-4.5 2.05-4.37 5.64v4c-.07 4.49 1.34 6.4 4.78 6.4 3.05.03 4.24-2.15 4.12-5.56zm-5.92-5.05c0-1.38-.07-2.73 1.42-2.73 1.19 0 1.54.49 1.56 2v1.37h-3zm9-10.06h2.99v20.28h-2.99zm14.83 13.38v-2.06c0-4.16-.44-6.7-4.59-6.7-2.94 0-4.5 2.05-4.36 5.64v4c-.07 4.49 1.33 6.4 4.77 6.4 3.06 0 4.25-2.16 4.14-5.57h-3c0 1.92-.28 2.87-1.38 2.87-.9 0-1.54-.38-1.57-2.38v-2.22h6zm-6-3.33c0-1.38-.07-2.73 1.43-2.73 1.2 0 1.54.49 1.56 2v1.38h-3zm8.72-5.02v15.25h3v-8.81c0-2.25 1.31-2.73 3-2.54v-4.16a2.32 2.32 0 0 0-1.86.81 5.23 5.23 0 0 0-1.17 2.16v-2.71zm6.9 10.21c-.34 4.65 2.62 5.43 4.2 5.43 4.13 0 4.69-2.75 4.43-5.41a5.4 5.4 0 0 0-2-3l-2.46-1.93c-.57-.46-1.12-.87-1.12-1.76a1.14 1.14 0 0 1 1.26-1.24c1 0 1.45.65 1.38 2.35h3c.07-3.27-1.26-5.06-4.16-5.06s-4.45 1.35-4.45 3.7a5.81 5.81 0 0 0 2.46 4.81l1.63 1.33c.58.46 1.42.95 1.47 1.81a1.3 1.3 0 0 1-1.24 1.7c-.69 0-1.6.08-1.38-2.73z"/><path class="d" d="M116.44 117.45c5.28-28.09 15.07-43.7 50.3-49.69-35.23-6-45-21.6-50.3-49.69-5.28 28.09-15.07 43.71-50.3 49.69 35.23 6 45 21.6 50.3 49.69z"/><path class="e" d="M116.44 117.45c-5.28 28.09-15.07 43.7-50.3 49.69 35.23 6 45 21.6 50.3 49.69 5.28-28.09 15.07-43.71 50.3-49.69-35.23-5.99-45.01-21.6-50.3-49.69z"/><path class="f" d="M166.77 67.63c-5.28 28.09-15.07 43.71-50.3 49.69 35.24 6 45 21.6 50.3 49.69 5.28-28.09 15.07-43.7 50.3-49.69-35.23-5.99-45.01-21.6-50.3-49.69z"/></svg>