<svg xmlns="http://www.w3.org/2000/svg" viewBox="0 0 183.98 99.66"><defs><style>.a{fill:#12274b;}.b{fill:#3997d3;}.c{fill:#f0c818;}</style></defs><title>SDC or LAC</title><path class="a" d="M83.23 0c2 2.05 5.88 7.37 5.88 7.37-50.68-2.31-77.25 32.12-77.25 32.12l8 .73c-26 34.59-19 59.31-19 59.31 19.15-26.1 31.71-42.14 64.54-54.56a79.88 79.88 0 0 0-5.12-7.14c46.8-4.26 90.83 24 90.83 24s-4.28-10.27-5.33-12.58c21 17.93 38.06 50.39 38.06 50.39C185.73 70.2 170.58 3.16 83.23 0z"/><path class="b" d="M180.45 87.46c-4-44.41-33.88-79.25-90.08-83.88l5.45 7.33c-53.13-3.92-76.41 26-76.41 26s3.59.37 6.69.61C1.79 66.26 3.31 90.43 3.31 90.43c18.37-24.42 32.06-36.27 57.1-47a48.52 48.52 0 0 0-7-8c47-7 91.15 19.3 91.15 19.3s-4.39-10.55-8.24-16.15c24.92 14.57 44.13 48.88 44.13 48.88z"/><path class="c" d="M95.89 6.76c1.45 2 3 4 5.26 7.09-14-1.24-49.84-3.5-75.91 21 0 0 6 .55 6 .59-9 9.57-22.11 29.74-24.9 47 19.85-26.58 38.54-35 50.12-40.11a43.88 43.88 0 0 0-8.88-8.48c28.6-6.4 65.71 1.29 91.6 15-2.62-5.8-6.78-11.71-9.91-16.85 25.34 10.84 42.12 36.68 47.42 44.87-2.82-14.2-15.88-62.66-80.8-70.11z"/></svg>