<svg xmlns="http://www.w3.org/2000/svg" viewBox="0 0 155.51 62.4"><defs><style>.a{fill:none;}.b{fill:#fff;}.c{clip-path:url(#a);}.d{fill:#00143f;}.e{fill:#fdffff;}.f{fill:#fefefd;}.g{fill:#52b845;}.h{fill:#2d597f;}</style><clipPath id="a" transform="translate(-338.91 -273.83)"><path class="a" d="M548.43 213.42v173.16H251.57V213.42"/></clipPath></defs><title>SEA</title><path class="b" d="M59.73 48.66l8.17-.01 51.83-29.32-5.51-6.32-39.56-5.72-49.37 4.63-17.5 12.25-2.26 4.44 54.2 20.05"/><g class="c"><path class="d" d="M20.84 0s.71 3.49 9 3.71l68.28.11s14.97-.65 22.17 8.61c0 0 36.07 2.34 35.2 20.44 0 0 .11 14-19.29 29.54 0 0 8.5-10.46-6.76-11.77 0 0-8-1.2-62-1.31 0 0-6.91 0-4.7-5.38l5.31-8.5-11.28-9.32S67.44 13.34 81.5 13.26c0 0 5.8-.33 15 3.76 0 0 13.45 7.6 19.41 1.92 0 0-4 2.9-15.29-2.78 0 0-10.83-5.93-21.42-5.68 0 0-10-.69-22.19 9.4a15.78 15.78 0 0 1-12.28 4.39l-36.94-.1z"/><path class="e" d="M140.95 50.52s-13.68-9.48-44.49-11.28c0 0-12.26-.57-15.86 7.44h4.28s1.38-5.46 16.21-4.6c0 0 24.6 1.63 39.86 8.45"/><path class="b" d="M75.24 46.78H69.6s6-13.59 18-12.77h14.85s7 1.07 10.41-5.2c0 0 3.92-11.06 12.26-12.15 0 0-3 2.18-.87 3.65 0 0 1.58.82 6.81 1.31 0 0 25.94 2.94 11.39 27 0 0-16-10.46-46.43-11.61 0 0-15.37-1.84-20.8 9.83"/><path class="f" d="M84.87 18.04s-5.69-1.85-15.27 6.1c0 0 6.45 7.25 13.75 7.06h16.57s9.53 0 11.2-6.68h-5s-2.32 5.25-13.19 4.36c0 0-11 .25-11-4.36 0 0-.22-2.37 2.91-6.49"/><path class="g" d="M90.36 19.02l3.67 1.36s-2.6 3.36 2.59 4.39a4.1 4.1 0 0 0 3.88-1.59l1.63.53s-.94 4-9.69 2c0 0-6.72-.67-2.09-6.73"/><path class="h" d="M5.53 28.61h39.56s6.89-.16 10.08 3.27l6.91 5.44-4.09 7.56a3.86 3.86 0 0 0 1.27 4.46h-46s-13 1.47-13.28-7.48c0 0-.26-5.15 5.53-13.24"/></g></svg>