<svg xmlns="http://www.w3.org/2000/svg" viewBox="0 0 838.57 489.79"><defs><style>.a{fill:#c9b074;}.b{fill:#840026;}.c,.d{fill:#fff;}.c{fill-rule:evenodd;}</style></defs><title>SFO</title><ellipse cx="419.29" cy="244.89" rx="419.29" ry="244.89"/><ellipse class="a" cx="421.76" cy="246.63" rx="366.1" ry="219.42"/><ellipse class="b" cx="422.38" cy="246.38" rx="338.28" ry="211.75"/><path d="M552.74 209.5a61.16 61.16 0 0 0-3.78-16.5c-4.65-12.14-13-22-23.07-29.69a102.84 102.84 0 0 0-13-8.37l30.21-.24V70.96h-71.67l-8.69 7.82a493.5 493.5 0 0 0-86.41-8.21c-29.7 0-61.9 3.26-89.75 14.83-13.9 5.81-26.78 13.82-37.2 24.88a86.63 86.63 0 0 0-21.57 41.23c0 .09-.06.28-.1.41s0 .17-.06.25a30.29 30.29 0 0 0-.7 6.74 41.08 41.08 0 0 0 5.19 19.64 54.76 54.76 0 0 0 14.52 16.71c7.36 5.78 17 11 29.66 15.24h-46v112.81h43.84l2.93-1.46a51.33 51.33 0 0 0 12.87-9.78 52.77 52.77 0 0 0 9.09-12.52c.18-.34.33-.73.5-1.08 16.56 5.93 46.22 13.84 87.79 14.79v61.64a10.55 10.55 0 0 1-1.34 3.32c-1.5 2.48-4.45 6.23-12.35 10s-20.88 7.19-41.41 7.68l-13.52.33v44.21h211.8v-46.19H516.6c-.17 0-3.42 0-8.06-.48a95.34 95.34 0 0 1-12-1.94 61.74 61.74 0 0 1-9.26-2.87 26.8 26.8 0 0 1-9.61-6.07 10.89 10.89 0 0 1-2.08-3.16 11 11 0 0 1-.82-4V349h51.53a56.46 56.46 0 0 1 15.38 6.59 31.13 31.13 0 0 1 9.28 8.71 21.5 21.5 0 0 1 3.64 12.46v13.86h47.51v-129h20.61a22.62 22.62 0 0 1 11 4.33 21 21 0 0 1 5 5.78 37.24 37.24 0 0 1 4.38 12.08 60.94 60.94 0 0 1 1.07 11.45c0 1.41 0 2.54-.09 3.26 0 .36 0 .62-.06.77v.13l-1.68 15.32h50.1V209.5zm-211.58 41.43a159.73 159.73 0 0 1-25.86-10.64 118.09 118.09 0 0 1-33.13-25.23l-3.41-3.78c4 1.27 8.19 2.47 12.76 3.57 13.54 3.23 29.91 5.63 49.65 6.9zm66.33-117.68h-5.18q-4.28.07-8.23.07a269 269 0 0 1-32.17-1.58 80.92 80.92 0 0 1-13.78-2.71 25.24 25.24 0 0 1-5.08-2.1c-1.55-.93-1.61-1.26-1.65-1.29v-.1a15 15 0 0 1 2.79-2.16 44.57 44.57 0 0 1 12.62-5 77.32 77.32 0 0 1 18.48-2.17c1.84 0 3.71.06 5.59.19 14.45 1 34.12 2.9 53.22 8.08a141.31 141.31 0 0 1 27.39 10.32c2.83 1.45 5.5 3 8.11 4.7a295 295 0 0 0-62.12-6.25zM554.6 278a26.29 26.29 0 0 1-2.6 6.67 25.33 25.33 0 0 1-10.43 10c-5.51 3-14 5.52-27.19 5.53h-2.09c-.55 0-3.49.14-7.81.14-5.43 0-13-.19-20.7-.94-1.37-.13-2.74-.29-4.1-.46a178.38 178.38 0 0 0 18.84-8.11c14.78-7.57 27.81-17.15 37.6-29.24h18.71l.44 11.58a22.52 22.52 0 0 1-.67 4.83z"/><path class="c" d="M526.57 78.85h-52.46l-9.9 8.91s-202.89-44.54-225.65 61.36c0 0-15.83 59.38 156.37 53.44 0 0 90.4-7.92 83.14 32.66-7.52 42.08-85.11 32.67-85.11 32.67s-78.19 1-123.71-49.49h-27.72v85.12h26.72s17.82-8.91 19.8-29.69c0 0 36.62 19.79 104.91 19.79s141.53-28.7 143.51-82.15-73.24-71.26-136.58-70.27-74.23-8.91-75.22-21.77 24.74-24.74 54.43-22.76 82.15 7.92 111.84 38.6l35.61-.27z"/><path class="c" d="M446.4 217.41h-94v23.75h28.7s15.86 2.98 15.86 17.84c0 0 64.33 7.92 68.29-26.72-.05-.02 2.92-13.88-18.85-14.87z"/><path class="d" d="M398.56 307.81v61.69s0 32.66-68.62 34.31v16.83h184.09v-18.47s-54.76.33-55.75-32v-40.92h67s40.58 7.92 40.58 41.57h19.79V266.9h-19.16s1.65 41.9-56.08 41.24c0 0-34.31 1.65-54.43-5.61-.02 0-24.76 8.58-57.42 5.28zm153.08-90.4h124.38v77.53h-20.79s5.28-48.16-34-53.11h-76.85s6.93-5.94 7.26-24.42z"/></svg>