<svg xmlns="http://www.w3.org/2000/svg" viewBox="0 0 147.15 134.81"><defs><style>.a{fill:#fff;}.b{fill:#bfc0c0;}.c{fill:#b21e35;}.d{fill:#db6126;}</style></defs><title>TBB</title><path d="M144.49 0a61.71 61.71 0 0 1 2.65 18.51c0 10.91-3 17.77-3.74 20.46a8.35 8.35 0 0 1-2.23 2.3l1.56 1.28s-3.31 10-6.19 16.14c-3.16 6.7-10.54 19.86-16.3 24.38l-18.54 30s-4.17.63-6.94-1.6-2.62-4.36-2.62-4.36l11.24-16.71a56.68 56.68 0 0 1-8.53.63c-4.83 0-16.33-.44-31.13-7.14s-22.17-10.4-32.92-10.4c-9.82 0-20.92 7.52-24.11 20.41 0 0-6.69-8-6.69-18s9.5-17.14 13.25-19.09 5.1-3.82 5.1-6.57c0-3.37-3.26-8.14-7.81-12.29l10.84-3.71-2.13-3s7.24 1.29 13.31-6.12c0 0-4.15-.39-18.81 6.34.11-.34 4.13-11.27 22.51-20.2 18.67-9.08 34-6.59 50.66.16s21.15 8.88 32 8.88a41 41 0 0 0 22.52-6.43A91.41 91.41 0 0 0 144.49 0z"/><path d="M103.76 112.55s2.51 4.36-.18 11.28-10.26 14-20.29 9.67a2.28 2.28 0 0 1-1.95 1.23 2.19 2.19 0 0 1-2.1-1.73 2 2 0 0 1 .45-1.62s-2.84-2.68-3-3.87.21-1.54.42-1.67a1.42 1.42 0 0 1 1.46.56c.63.66.89 1 .89 1l8.77-13.6s-2.93-3.46-2.81-7.58a6.89 6.89 0 0 1 6.56-.84s-2.5 1.43-.36 5 6.92 4.29 7.88 4.35 3.9-.21 4.26-2.18zm-6.3 15.39a11.44 11.44 0 0 0 1.57-8.91 8.13 8.13 0 0 1-2.49-.18l-9.05 13.21c1.5.42 7.08.63 9.97-4.12z"/><path class="a" d="M99.03 119.03a11.44 11.44 0 0 1-1.57 8.91c-2.91 4.75-8.47 4.54-10 4.12l9.11-13.21a8.13 8.13 0 0 0 2.46.18z"/><path class="b" d="M97.93 108.93a2.5 2.5 0 0 1-2.28-1.87l12-17.55 3.92-1.11z"/><path class="c" d="M5.31 83.25S-.3 75.38 9.25 65.17a17.91 17.91 0 0 1 10.09-1.43s-8.61 1.6-10.52 8.73c0 0 4.52-7.75 19-7.05 0 0-4.05-5-13.48-4.05 0 0 2.06-2.49 10.29-3.59a20.12 20.12 0 0 0-7.17.12 10.92 10.92 0 0 0 4.4-8.84c0-6-5.84-10-5.84-10a48.28 48.28 0 0 1 9.2-3 7 7 0 0 0-2.14-3s9.39.47 14.53-11a6.67 6.67 0 0 0-2.66-.6c-2.45 0-7.36 1.11-13.09 3.84 0 0 3.49-4.2 13.31-9.11s16.59-5 16.59-5a10 10 0 0 1 3.78.63s-4.59.14-12 3.64a69.52 69.52 0 0 1 10-.91 31.35 31.35 0 0 1 10.28 2.09s-1.55-2.86-6.26-3.7c0 0 .72-.66 3.34-.66 3 0 7.52 2.39 7.52 2.39a12.12 12.12 0 0 0-6-3.94s9.62-.91 26.13 5.85c15.16 6.21 21 7.16 30 7.16 9.9 0 21.12-4.18 25.77-7.28a19.73 19.73 0 0 1-.15 5.4c-.54 3.11-2.77 5.3-14.18 5.4 0 0 6.37 3 12.65 1.64a100.52 100.52 0 0 1-4.48 15.26 148.1 148.1 0 0 1-13 26.42 66.29 66.29 0 0 1-6.18 8.69 109.84 109.84 0 0 1-10.41 3.93s2.5-2.87 2.62-4.77c0 0-4.65 4.65-9.19 6.56 0 0-4.42 1.55-12.29 1.55-24.7 0-40.11-16.7-61.23-16.7-17.16-.01-23.17 13.41-23.17 13.41zm80.66 47.68s-2.37.55-4.52-2.36c0 0-.31-.26.12-.93l8.1-12.55a21.12 21.12 0 0 0 5.49 3.22 6.49 6.49 0 0 1-4.58-1 3.37 3.37 0 0 0 1.91 3.24 7.48 7.48 0 0 1-3.7-.85s-.34 1.88 2.15 3.28c0 0-2.37.64-3.79-.43 0 0-.36 1.39 1.82 3a10.26 10.26 0 0 1-3.82-.42 4.34 4.34 0 0 0 2 3.16 7.83 7.83 0 0 1-3.79-.57s-.08 1.54 2.61 3.21z"/><path d="M57.87 69.82l-.21.3-1.74 1-2.58.81-4.56.16-1.54-.8-.87-.16-.3-.21-.46.14a26.27 26.27 0 0 0-3.77-2.25l-1.18-1.61v-.19l-.25-.07a1.58 1.58 0 0 0 0-.95l-.46-1.41h-.27l-.64-.87.53-2.18 2-2.09.61-1h.23v-.23l1.59-1h2l.84.37.16.71.39.84.22.11h2.46l1.41.32 1-.21 1-.93a14.29 14.29 0 0 0-2.61-2.94 28.14 28.14 0 0 0-2-3.45l-.41-.64-1.89-3.66 1.22-.86a6.88 6.88 0 0 0-1.54-.2l-1-2.52-.14-2.12.07-3.73a18 18 0 0 1 .42-2.79 12.61 12.61 0 0 0 .85-3.82l1.25-2.07.43-1.77a1.26 1.26 0 0 1 .25-.45 15.68 15.68 0 0 0 1.86-2.85l1.47-1.61a11.32 11.32 0 0 1 2.57-1.77l-.59 2a20.35 20.35 0 0 1-.3 3.7 4.87 4.87 0 0 1-.54 1.39v2.22a18.61 18.61 0 0 0 .77 6 26.83 26.83 0 0 1 1.28 3.27s1.3 3.06 2.33 5.51a14.6 14.6 0 0 0 3 3.93l2.4 2.54a24.57 24.57 0 0 1 2.66 1.82 2.59 2.59 0 0 1-.3-.75c0-.32-.07-1.5-.07-1.5a2 2 0 0 1-.59-1.2l1.82-5.43a8.2 8.2 0 0 1-1.6-5.71h.66s.18 0 .14-.14l-.75-1 .3-5.43.87.32a5.5 5.5 0 0 0 .55-2c.13-1.31.27-2.84 2.56-5.18.37-.37 2.55-3.74 6.1-4.66a53.38 53.38 0 0 0 5.41-1.66l1.55.23a11.44 11.44 0 0 1 4.66-.82 8.29 8.29 0 0 1 5.45 1.52c1.05.77 5.64 4.38 5.75 4.68a.7.7 0 0 1 0 .53 12 12 0 0 0 2.21 2.32 5.2 5.2 0 0 1 .95 1.79 5.55 5.55 0 0 1 .44 1.73 7.75 7.75 0 0 1-.21 1 2.45 2.45 0 0 1 .21.71 13.56 13.56 0 0 1-2.14 5.16c-.4.55-1 .9-1 1.37l1.36.18s-1.6 2.32-3.5 4.6a12 12 0 0 1-2.84 3 1.44 1.44 0 0 0-1-.06v.81s-2.18 1.4-2.66 1.58c0 0-1.49 3.58-2.51 5.34l-1.34.63a4.64 4.64 0 0 0-1.2 1.22l-1.76 1s6.86-1.52 8.41-2 1.58-.87 2.5-1.13 2.33-.54 2.33-.54 1.64-1.07 1.79-1.1a4.48 4.48 0 0 1 1.31.36l.09-1.31 2.39-1.43c.83-.51 2-1.73 2.8-2.33s1.85-1.13 2.18-1.4a35.44 35.44 0 0 0 5.64-6.17 13.34 13.34 0 0 0 1-2l1.73-1.29a3 3 0 0 1 .42-1.34c.39-.6 1.31-1.82 1.31-1.82s.15.12.27.75a2 2 0 0 0 .33.87 18 18 0 0 0 .18 2.2l-.33 1.43-.09 2s-.56 1.14-.87 1.91a12.87 12.87 0 0 0-.48 2.3l-1.34 2.21a17 17 0 0 1-2.27 4.17c-1.43 1.82-2.86 3.58-2.86 3.58l-1.31 1.37-2.18 1.46s-.24.14-.75.51l-1 .77c-.12.09-.33.14-.81.39-1.72.91-5.54 2.87-8.95 4.71a6.32 6.32 0 0 1-1.22.39c-.63.12-1.85.21-1.82.66a7.25 7.25 0 0 0 .24 1.17s.12.42.84.68a2.42 2.42 0 0 1 1.1.12 4.49 4.49 0 0 1 1.22.66 6.13 6.13 0 0 1 1.25.36l.66-.39a2.51 2.51 0 0 0 .87-.75h1.16a16.45 16.45 0 0 0 1.67.6 13.63 13.63 0 0 0 .63 1.52l-.06.3.12.12-.18 1.17a20.46 20.46 0 0 1 .18 2.56s-.66 1.4-1 2c0 0-1 .42-1.16.54l-.18-.09s-2.06 1.16-2.18 1.82l-.3-.06a.09.09 0 0 1-.06.15c-.15 0-2.21 1-2.21 1a29.63 29.63 0 0 0-4.74.48l-.39-.27h-.71s-.18-.3-2.42 0c0 0-3.16-1.61-3.61-1.76l-1.67-1.7-.33-.45-.27-.57-.24-.54s-.09-.12-.45 0a19.1 19.1 0 0 0-2.86.74 15 15 0 0 0-3.61.3 14.75 14.75 0 0 0-3.22-.21s-1.55-.21-1.79-.21a29.12 29.12 0 0 0-4.21-1.43 5.77 5.77 0 0 1-.87-.39 15.66 15.66 0 0 0-2.3-1.58 16.59 16.59 0 0 0-2.26-1.98z"/><path class="d" d="M63.2 62.8s2.52-.25 3.32-.22l.47-.5.14-.86 1.8-.07a4 4 0 0 1-.58 1.22s-.12.16.13.16h1.59s.19 0 .23-.19.16-.89.46-1a1.84 1.84 0 0 1 .74-.08l.75.14.1.08-.15.48-.46.54s-.06.14.1.14a8.82 8.82 0 0 1 1.6.38s.29.15.37 0 .19-.46.19-.46v-.6s0-.14.25-.14a3.63 3.63 0 0 1 1.26.44.39.39 0 0 1 0 .37 5.49 5.49 0 0 1-.39.94l1.41.7a2.51 2.51 0 0 1 .52-.56l.13-.74s0-.21.22-.1l1.19.6a.21.21 0 0 1 0 .23c-.06.15-.25.77-.25.77a.35.35 0 0 1-.18.15.29.29 0 0 0-.08.43l2.12 1.2-2.08-.72s-.14 0-.18.06l-.4.74a8.13 8.13 0 0 1-1.62-.06 4.47 4.47 0 0 1 .45-1.3l-1.41-.5-.56.6-.19 1a3.8 3.8 0 0 1-1 .15 1.53 1.53 0 0 1-.79-.21l.35-1a2 2 0 0 1 .43-.87s0-.29-1.66-.43a6.55 6.55 0 0 0-.85 2 2.1 2.1 0 0 1-1.56-.52l.23-.73.44-.54v-.52a8.42 8.42 0 0 0-1.6-.16s-.42.2-.58 1l-.13.56-.81-.12-.75-.54a2.11 2.11 0 0 1 .48-.89s.1-.15-.07-.16zm.4 6.45s4.54 2.67 6.45 3.09c2.26.5 1.46-2 1.46-2a16 16 0 0 0 6.1 1.31 13 13 0 0 0 7.2-2.13 7 7 0 0 0-.25-1.59c-.18-.4-1-1.58-1.19-2.16a6.64 6.64 0 0 0-1.23-1.55 48.47 48.47 0 0 0-4.07-2.92c-.94-.47-2.05-.94-2.49-1.19a4.62 4.62 0 0 0-1.15-.4l-.94-.22a11 11 0 0 1-1.22-.18 19.63 19.63 0 0 1-2.27-.22h-.61a13.38 13.38 0 0 1-3.17.36s-3.53 1.12-4.83 1.44a3.62 3.62 0 0 0-1.08.54 18.8 18.8 0 0 1-2.23 1 1.15 1.15 0 0 0-.61.58l-.69.65.07 1.37a14.71 14.71 0 0 1 1.52 2.37s3 2.88 3.57 3.64a12.91 12.91 0 0 1 1.69.86.68.68 0 0 0 .58-.72 6.75 6.75 0 0 0-.64-1.94z"/><path class="a" d="M67.8 52.06a7.53 7.53 0 0 1 .67-2.12c.49-.88.54-3.93.54-3.93a12.65 12.65 0 0 1 .86 2.69 14.54 14.54 0 0 1 .19 2.32l.11.16 1.18-1.24 1.59.78s.11 0 .05.4l-.24 1.59 1.53-1.56 1.77.64s.11.05.08.4 0 1.61 0 1.61l1.48-1.67 2 .11a1.1 1.1 0 0 1 .08.27c0 .16.16 1.59.16 1.59l1-1.62.13-.11 2-.05.14.8s-1.56 3.42-8.31 2.88c0 0 .81.7 4.06.91 0 0-.62.62-2.85.62s-5.22-1.42-6.24-3a23.31 23.31 0 0 0-1.98-2.47zm3.36-8a8.85 8.85 0 0 1-.08 1.53l1 .57.29-.72-1.1-1.43zm2.1 1.69l-.37.91s0 .24.16.32 1.24.61 1.24.61l.51-1.26-.54-.81zm2.07 2s-.14.19.05.24 1.43.46 1.51.43.16 0 .24-.17.46-1.07.46-1.07l-.65-1.08-1 .38a.7.7 0 0 0-.19.27c-.13.12-.42.93-.42.93zm2.76.75a.22.22 0 0 0 .25.24c.27 0 1.58.11 1.58.11l.54-1.32-.75-.83-.94.4a1.35 1.35 0 0 0-.38.53c-.13.29-.3.77-.3.77zm3.69-1l-.46 1.21s-.1.19.16.19h1.09l.41-1v-.16l-.7-.45zM67 35.76l-.22 3.56a2 2 0 0 0 .26.91 3.51 3.51 0 0 0 1.22.9s2.47.71 2.76 2.2l2.33 1.49 1.3-.13 1 1 1.49-.3 1.14 1 1.66-.38 1.19.8 1.56-.55 1.1.71a6.47 6.47 0 0 1 1.57-.16 7.78 7.78 0 0 0 1.11-1.16l-.91-2a6.69 6.69 0 0 0 2.5.35 7.28 7.28 0 0 0 5.63-2.29 8.34 8.34 0 0 1-.46-2.7c0-1.49 1.59-3.74 3.34-4.72v-1.4a11.28 11.28 0 0 0-.55-2.1 6.88 6.88 0 0 0-3.18-2.45c-2.07-.95-5.7-2.12-5.7-2.12a31.11 31.11 0 0 1 6.35-.48s-1.61-1.9-7.64-2.68a11.6 11.6 0 0 1 5-.06 3.94 3.94 0 0 0-2.78-1s-.26-.48-2.1-.48a13.49 13.49 0 0 0-2.6.22c-.18 0-1.35.24-3 .55-.77.15-1.7.22-2.57.47-2.45.71-5 1.9-6.05 3.85a7.68 7.68 0 0 1 1.62-.53 31.27 31.27 0 0 0-3.14 3.11c-.35.64-.87 2-1.16 2.36a2.52 2.52 0 0 0 0 1.88 8 8 0 0 1 4-4.11 12.62 12.62 0 0 0-3.69 7.35zm5.79-4l4-.25s.72 2.2 4.92 3.43c0 0-1.11.23-1.39.68a5.44 5.44 0 0 1-4.44 2.66c-1.88 0-3.85-2.41-3.85-2.41s.13-1.54 3.3-3zm10.61 3.56l.34-.06s-.07.13 1.91.13a11.44 11.44 0 0 0 4.27-1.16l3.4 1.7-3.14-.13a6.2 6.2 0 0 1 1.06 2.53c0 1-.2 1.19-.32 1.32a8.48 8.48 0 0 1-3.23.82 3.63 3.63 0 0 1-2.76-.85 4.87 4.87 0 0 1-.9-3.48zm-6.18 6.27a12.35 12.35 0 0 0 4.23-4.06l.21-.27s.15-.11.15 0-.38 3.28.7 5.26c0 0 .09.1-.12.24l-2.58 1.37a5.33 5.33 0 0 1 .29-1 8.85 8.85 0 0 0 .45-2.73 11.8 11.8 0 0 0-1.91 3.49.37.37 0 0 1-.2-.19zm4.76 20.56l-1.61-1.19.69-.21.33-.06.24-.06 1.28-.24h.48a22 22 0 0 1 4.71-1.4c2.42-.39 1.88-.33 2.33-.51l2.36-1s1.79-.8 2-.9a11.76 11.76 0 0 1 3-1.31 12.33 12.33 0 0 0 3.28-1.7c.19-.08 1.76-1.41 3.37-2.54.69-.48 1.46-.8 2-1.16a17.38 17.38 0 0 0 3.43-3.34s1.25-1.11 1.55-1.34a50.46 50.46 0 0 0 3.79-5.4s.33 1-1.79 5.58l-.78 2a14 14 0 0 0-1.11 1.73 38.54 38.54 0 0 0-2.51 3.82s-2.45 2.36-3.07 3c0 0-2.8 1.58-5.73 3.64l-4.09 2.21a51.55 51.55 0 0 0-6.83 2.3 33.7 33.7 0 0 0-4.41.89l-1.32-1.56s7.55-2.21 8.2-2.56l.6-.48 4.21-1.55a22.39 22.39 0 0 1 2.41-1.58 10.77 10.77 0 0 1 1.22-.48 10.19 10.19 0 0 0 3.76-3.16l-2.5 1.31s-1.91 1-2.93 1.61-3.94 1.79-3.94 1.79l-3.49 1.31a15.23 15.23 0 0 0-2.15.81 15.77 15.77 0 0 1-4.3 1.28c-1.16.05-2.68.35-2.68.35zm-.32 11.72v-.14a19.65 19.65 0 0 1 2.77-1.19 5.61 5.61 0 0 0 2.68-2.42v-1.4l-.28-1.07a3.32 3.32 0 0 0-.35-2.26s1.71-.46 2.37-.56a6.57 6.57 0 0 1 .1 3.72.38.38 0 0 0 .32.53 2.39 2.39 0 0 1 1.52.38 5.82 5.82 0 0 0 1.35.38 1.54 1.54 0 0 1 1.14.56c.28.3 1 .27 1 .27a2.28 2.28 0 0 1 1.42.6c.53.56 1.49.14 1.49.14l.38-1.1a.57.57 0 0 1 .77-.32c.53.25.35.51.35.51l-.56 2s.05.18.42.21a.93.93 0 0 1 .11 1.56.17.17 0 0 1-.21-.16l-.07-.46s-.07-.14-.17.14a6.52 6.52 0 0 1-.42.79 1.22 1.22 0 0 1-.67-.14 22.94 22.94 0 0 1-1.49 1.91A15.44 15.44 0 0 1 89.35 78l-.85-.24a7.64 7.64 0 0 1-6.84-3.99zM58.08 59.64a15.38 15.38 0 0 0-1.76-1.4 10 10 0 0 0-2.83 3.43l-.39.09a3.06 3.06 0 0 0-1.14-.36c-.48 0-.45.12-.83.12s-1.1-.3-1.43-.3-1.25.18-1.49.18a5.58 5.58 0 0 0-1.46-.33 5.89 5.89 0 0 0-1.16.15 1.77 1.77 0 0 1-1-.48l.45-1.1s.13-.4-.37-.55-.79.45-.79.45-.52 1.1-.74 1.71l-.12.14a1.39 1.39 0 0 0-.45-.09c-.22 0-1.21.15-1.21 1.09 0 0 0 .22.09.3a1.53 1.53 0 0 1 .76-.52 3.64 3.64 0 0 0-.27 1c0 .19.52.19.52.19s.14 0 .11.27a9.63 9.63 0 0 0-.06 1.31c0 .78.09.78.09.78a9 9 0 0 0 3.97 3.38 1.75 1.75 0 0 0 .45.12 4.5 4.5 0 0 1 1.6.51 5.25 5.25 0 0 0 2.15.28 12.21 12.21 0 0 0 5.8-1.61s-2.09-2.88-2.34-5l1.28-1.39.38-.2a4.47 4.47 0 0 1 2.19-2.27zm1.75.33a24 24 0 0 0-2.78-2.24 4 4 0 0 1-1.53-1.58 20 20 0 0 0-3.06-3l-2-3.35s-1.83-4.87-2.44-5.4c0 0-.38-2.8-.57-3.57a2.27 2.27 0 0 1 .12-1.42s.45-3 .53-5l1.79-5.15a7 7 0 0 1 1.38-2.52 32.4 32.4 0 0 0-.6 5.69s.37 1.75.45 2.36a15.44 15.44 0 0 0 .35 2.76c.08.21.25 1 .25 1a15.6 15.6 0 0 1 .86 1.71c.12.41 1.21 3.86 1.21 3.86l.94 1.79 1.42 1.43a25 25 0 0 0 2.44 3.53 4.34 4.34 0 0 1 .85 1.25l3.61 2.81s1 1.21 1.27 1.5a26.82 26.82 0 0 1 2.15 1.66 5.36 5.36 0 0 0-1.91.57 20.55 20.55 0 0 0-3.14-1.95A15 15 0 0 0 60 55.28a18.79 18.79 0 0 0-1.3-1.77c-.64-.79-1.52-1.69-2.19-2.37a42.79 42.79 0 0 1-2.52-3.51c-.39-.6-.78-1.47-1.13-2.07-.92-1.57-1.62-2.69-1.66-2.84l.11 2 .66 1.79a9.45 9.45 0 0 1 1.7 3.2l2.65 3.26a3 3 0 0 1 .29.68s3.53 3.82 5.52 5.52z"/><path d="M84.29 73.73a8.66 8.66 0 0 0 4.27-3.82 2.37 2.37 0 0 1 .25 2.26 4.07 4.07 0 0 0 1.66-.56 1.8 1.8 0 0 1 0 1.21 2.3 2.3 0 0 0 1.63-.56 1.25 1.25 0 0 1 .18 1.23 2.06 2.06 0 0 0 1.63-.53 1.49 1.49 0 0 1 .14 1.21 3.68 3.68 0 0 0 2.08-.83s-.86 2.73-3 3.19a6.59 6.59 0 0 1-2.05-.62 9.76 9.76 0 0 0-6.36-.94s-.61-.17-.43-1.24zm-30.31-6.14a6.65 6.65 0 0 1-1.18-3.07 8.38 8.38 0 0 1 .24-1.79 3 3 0 0 0-1.76 1.72s-.07.16-.19.06a2.65 2.65 0 0 1-.84-1.06s-.45 0-.86.91a.25.25 0 0 1-.36 0 2.66 2.66 0 0 1-.7-1s-.48.09-1.06 1a1.19 1.19 0 0 1-1-1.06 1.56 1.56 0 0 0-1 1 .37.37 0 0 1-.31-.12 2.42 2.42 0 0 1-.84-1.33s-.54.16-.54 1.88a2.12 2.12 0 0 0 .87 2 9.89 9.89 0 0 0 3.06.23 9.5 9.5 0 0 1 5 1.37.63.63 0 0 0 .79 0zm46.71 17.25s7.7-11.07 16.29-29.85a45.14 45.14 0 0 1-7.89 19.86c-.79 1.12-3.44 6.61-8.4 9.99z"/></svg>