<svg xmlns="http://www.w3.org/2000/svg" viewBox="0 0 183.49 129.98"><defs><style>.a{fill:#fff;}.b{fill:#1f3263;}.c{fill:#668fca;}.d{fill:#c5c8d1;}.e{fill:#c02026;}</style></defs><title>TEN</title><path class="a" d="M59.24 75.83a31 31 0 0 0 3.43 11.22c3.06 5.91 9.48 13.78 22.71 18.24a53.4 53.4 0 0 0 7.37 9.17 53.18 53.18 0 1 0 46.13-90.16 36.4 36.4 0 0 0-33-8.43l-1.09.31c-5.35 1.78-8.11-.26-9.9-1.66a52.2 52.2 0 0 0-6.24-4.32c-7.1-4-17.2-4.14-25.7-.71-5.6 1.92-8.42-.55-10.1-1.71C41.76.13 28.12-1.7 13.65 1.49 3.91 3.63.02 5.62.02 5.62A63.33 63.33 0 0 1 13.66 9.5c5.73 2.4 10.28 5.47 13.73 11 0 0 2.17 3.19.76 4.13-1.57 1.05-3.22-1.52-3.22-1.52A48.6 48.6 0 0 0 25 28.2c.8 14.71 3.8 23.54 10.9 30.29 3.22 3.07 8.67 6.06 17.09 9.37 3.8 1.51 5.88 3.47 6.25 7.97z"/><path class="b" d="M165.46 41.54a49.43 49.43 0 0 0-28.12-14 33.2 33.2 0 0 0-30.53-8.37c3.54.52 5.9 2.64 5 5-.61 1.55-3.18 1.63-4.35 1.64-3.74 0-7-2.25-9.53-4.34s-7-6-11-8.24c-7.28-4.1-18.85-3.59-27.21 1.76 5 .34 11 1.78 14.61 4.75 2 1.66 4.56 5 2.47 6.57-1.84 1.37-6.35.66-8.65-.67a36.7 36.7 0 0 1-8.91-7.63C46 2.41 27.24 1.54 11.75 5.36 21.91 8.21 28.69 14 32.87 23.97s7.44 14.22 14.34 16.92c4.32 1.69 5.49 2 5.15 3.92-.5 2.8-5.61 1.46-9.52-.07-4.75-1.85-11-7-14.75-16.59.68 12.44 3.05 21.26 10.06 27.93 3 2.83 8.45 5.76 17 9.06 5.47 2.1 9.79 3.37 13.86 7 4.75 4.25 2.72 7.06-.42 6.53-3.56-.6-6.11-4.24-6.11-4.24s0 20.27 25.06 28.07a50.27 50.27 0 0 0 7.56 9.55 49.79 49.79 0 0 0 70.31-70.52z"/><path class="c" d="M162.81 44.05a45.64 45.64 0 0 0-27.42-13.19c-8.91-8.88-17.79-8.46-17.79-8.46 3.9 2.45 1.89 7.89-6.79 9.09s-19.51-1.73-24.82-7.92c-5.48-6.38-9.61-6.68-9.61-6.68 4.75 3 5.09 6.53 8 12s8.82 7.38 14 7.72c5.45.35 5.58 2.82 1.19 5.43-4.79 2.84-9 .15-12.12-2.88-4.87-4.8-9.72-5.73-16.42-5.64s-15.56 1-23-1.83-12.48-12.64-12.48-12.64c3.71 13.06 11.92 19.26 19.54 20.75 10.08 2 17 4.37 21.3 7.82A23.07 23.07 0 0 1 84.33 59c1.2 3.58 1.42 8.33.23 8.62-1.39.33-1.68-1.58-3.31-4.92a18.25 18.25 0 0 0-8.32-8.9c-5.9-3.15-11.67-3-17.56-2.88a39.53 39.53 0 0 1-7.4-.47s.19.63 7.79 2.33c8.47 1.9 16.65 6.68 22.11 18.31 4.63 9.89 2.21 16.86-8.06 13.71 0 0 4.8 10.66 20.47 14.46a46.23 46.23 0 0 0 7.51 9.83 46 46 0 0 0 65-65z"/><path class="a" d="M130.29 32.85a43.73 43.73 0 1 1-30.92 12.81 43.44 43.44 0 0 1 30.92-12.81z"/><path class="b" d="M130.36 116.53a40 40 0 1 1 39.89-40 40 40 0 0 1-39.89 40z"/><path class="a" d="M120.52 68.49h-11.83l-3.9 7-5.25-14.88h61.41l-5.25 14.84-3.87-7h-11.64l-9.86 43.13z"/><path class="d" d="M160.95 60.57H99.54l.99 2.81h29.28l-9.29 5.11 9.82 43.13V63.38h29.62l.99-2.81"/><path class="e" d="M100.1 26.05c-8.91-.26-12.53-3.78-18.06-8.23a18.64 18.64 0 0 0-14.28-3.93c4.5-2.57 13.34-2.68 19.7 2.91 5.74 5 8.53 7.71 12.64 9.25zm-76-19.6s8.33-.2 15.62 12.87c6.12 11 17.79 13.18 26.34 10.76a22 22 0 0 1-17.42-11.21C42.39 7.71 34.1 4.61 24.1 6.45zm47.21 63.27S70.1 57.57 52.82 54.05 33.15 41.44 33.15 41.44s.12 13.08 15.11 17.1c10.47 2.8 18.15 4.41 23.05 11.18zm64.99-12.99l-2.35-7.01 5.95-4.37-7.39.07-2.32-7.02-2.22 7.05-7.38.04 6.02 4.29-2.25 7.04 5.94-4.41 6 4.32m-26.36 24.76l-4.89 5.54-6.77-2.97 3.76 6.36-4.92 5.52 7.22-1.61 3.73 6.38.69-7.35 7.23-1.58-6.78-2.94.73-7.35m34.62 10.45l7.25 1.46.81 7.35 3.63-6.44 7.24 1.5-5-5.44 3.66-6.42-6.72 3.07-4.97-5.47.84 7.34-6.74 3.05"/></svg>