<svg xmlns="http://www.w3.org/2000/svg" viewBox="0 0 261.73 155.08"><defs><style>.a{fill:#1a191a;}.b{fill:#84161c;}.c{fill:none;stroke:#000;}.d{fill:#fff;}.e{fill:#fdbd12;}</style></defs><title>ARI</title><path class="a" d="M0 0s4 13.83 19.41 24.63l-9-1a76.66 76.66 0 0 0 26.57 21.72l-9.34-.85A83.43 83.43 0 0 0 65.5 74.23s2.55 16.26 24.51 30.94c0 0 20.87 12 23.3 23.06 0 0 40.19-2.66 84.19 26.82 0 0 10.38-42.48 64.21-47.61 0 0 0-23.06-30.46-38.34 0 0-12.51-47.85-88.23-53.05l-63.83.2S30.5 13.06 0 0z"/><path class="b" d="M18.38 12.46s13 17.06 50 25.69l-33.32-3s12.45 11.94 49.38 21l-33.42-2.91a98.86 98.86 0 0 0 47.9 22.66l-17.86 2.81s1.61 9 32.32 28.9c0 0 10.14 8.53 8 10.64 0 0 16.66.2 45.77 13.85 0 0 27.9-14.25-11-55.8 0 0-17.87-19.67-37.94-32.52 0 0 30.31-7.22 68 14.45 0 0 19.27 14.45 36.93 7.22 0 0-7.23-36.53-75.27-42.35H73.99s-31.32-2.41-55.61-10.64z"/><path class="c" d="M18.38 12.46s13 17.06 50 25.69l-33.32-3s12.45 11.94 49.38 21l-33.42-2.91a98.86 98.86 0 0 0 47.9 22.66l-17.86 2.81s1.61 9 32.32 28.9c0 0 10.14 8.53 8 10.64 0 0 16.66.2 45.77 13.85 0 0 27.9-14.25-11-55.8 0 0-17.87-19.67-37.94-32.52 0 0 30.31-7.22 68 14.45 0 0 19.27 14.45 36.93 7.22 0 0-7.23-36.53-75.27-42.35H73.99s-31.32-2.41-55.61-10.64z"/><path class="d" d="M162.11 56.22s4 31.51 34.93 29.91c0 0 10.84-2.61 13-13.85h-4.21s-3.61 11.44-14.45 9.23c0 0-6.52-.1-12.85-9.64l10.24-1.4s-18.03-5.62-26.66-14.25z"/><path class="c" d="M162.11 56.22s4 31.51 34.93 29.91c0 0 10.84-2.61 13-13.85h-4.21s-3.61 11.44-14.45 9.23c0 0-6.52-.1-12.85-9.64l10.24-1.4s-18.03-5.62-26.66-14.25z"/><path class="e" d="M203.5 100.31s31.42-5.75 52.57 4.59c0 0-26.85 1.11-44.79 16.27a26.36 26.36 0 0 0-7.78-20.86z"/><path class="c" d="M203.5 100.31s31.42-5.75 52.57 4.59c0 0-26.85 1.11-44.79 16.27a26.36 26.36 0 0 0-7.78-20.86z"/><path class="e" d="M203.92 92.71s34.39-1.5 52.33 9.83c-4.24-16.73-33.1-29.77-30.76-28.62a37.56 37.56 0 0 1-21.57 18.79z"/><path class="c" d="M203.92 92.71s34.39-1.5 52.33 9.83c-4.24-16.73-33.1-29.77-30.76-28.62a37.56 37.56 0 0 1-21.57 18.79z"/></svg>