<svg xmlns="http://www.w3.org/2000/svg" viewBox="0 0 233.57 126.09"><defs><style>.a{fill:#2296cf;}.a,.b,.c,.d{fill-rule:evenodd;}.b{fill:#fff;}.d{fill:#cfd1d4;}</style></defs><title>CAR</title><path class="a" d="M178.42 126.05l-11.3-.2c-18.62-.48-44.56-11.1-44.56-11.1l-20.38-8.27a158.08 158.08 0 0 0-42.12-10.36l-1.14-.09C17.09 93.77 0 100.8 0 100.8c50.46-60 91.69-74.14 91.69-74.14-6.68-7.84-7.29-13-7.29-13-.6-5.48 5.26-4.71 5.26-4.71a49.66 49.66 0 0 0 13.84-1.58c7.67-2.42 18.84-4.5 18.84-4.5A179.81 179.81 0 0 1 154.27.12c21.5-.83 43.09 7 43.09 7 4.67 2.42 14 3 14 3 3.08-.33 2.92 1 2.92 1 .42 7.42-6.09 12.75-6.09 12.75 1.5 1.5 1.17 5.33 1.17 5.33 12.58.92 17.84 4.67 17.84 4.67-6.92-2.67-18-2.92-18-2.92-.42 3.5-.67 3.17-.67 3.17 17 .75 22.84 5.5 22.84 5.5-10.34-4-23.17-3.58-23.17-3.58-.67 2.58-.88 3.36-.88 3.36 22.83 2.57 26.26 7.38 26.26 7.38-16.32-6.37-27.12-5.37-27.12-5.37a89.59 89.59 0 0 1-21.16 34.27 26.91 26.91 0 0 1 .63 8.76s-.47 16.66-12.68 20.23l.09.23a153.9 153.9 0 0 1 5.08 21.14"/><path class="b" d="M163.09 18.75c-5.15-.17-11.71-1.63-18.45-1.25-.64-.79.57-1.74.63-2.82a37.73 37.73 0 0 0-7.51-.63c8.88-3.88 20.54-.34 25.33 4.7zm36.91-.34c-3.75.06-9.47-.13-11.89 2.19-1.03-5.51 9.22-5.19 11.89-2.19zm-11.57 6.91c-3.67 2.59-7.54 5-9.38 9.38-1.82-5.27-6.06-8.12-10.95-10.32 6.02-2.23 15.04-1.15 20.33.94zm.94 20.33c-1.6 5.91-3.54 11.47-7.2 15.33.23-3.05 2-8.11.94-12.51-3.61-2-10.53-1.28-14.7-.31-2.32 3.53-4.67 8.41-7.51 11.89-.82 1-1.77 2.63-2.81 2.19 1.94-4.22 3.36-11.38 1.56-16.58 7.27-3.68 22.51-3.96 29.72-.01zm-10.01 28.76c5.79 11.85-9.15 15.42-18.14 11.58a45.67 45.67 0 0 0 5.31-10.58 12.51 12.51 0 0 1 .31 7.82c7.33 2.41 12.49-1.95 12.52-8.82zm-24.72-48.15a13.66 13.66 0 0 1-2.8 2.15 116.16 116.16 0 0 0-38.16-2.19c-.48-.17 0-.33.31-.31 12.12-2.69 28.73-2.21 40.65.35zm-5.32 4.69c-.07 1.18-1.18 1.32-1.25 2.5-9.94-1.82-25.67-.72-33.79 0 9.86-2.59 22.67-3.43 35.04-2.5zm-2.48 7.19c-9.68 0-22.2 1.66-31.91 2.82.78-.09-1.9.83 0 0 6.79-2.69 18-4.06 26.59-4.38 1.7-.06 5.44-1.59 5.32 1.56zm-40.68 10.01c3.21 16.43 14.31 25.58 28.47 31.59.48.2 1.84 0 1.56.94-18.02-2.64-32.77-10.16-30.03-32.53z"/><path class="c" d="M154.33 60.35c-5.62 16.4-.81 40.13 18.14 38.16 6.38-.66 10.49-4.62 12.51-10.32-1 10-6.58 18-19.39 17.21 4.17 5.73 9.63 12.89 12.82 20.65-45.05 1.25-68.37-21.92-106.67-28.47 4-15.91 12.94-26.89 23.46-36.29-15.69 8-27.44 19.9-36.29 34.72-12.67-1.13-26.65-.56-38.79.63 18.68-32.73 48.25-54.56 81.65-72.57-6.43 2.09-8.94-1.3-12.2-5.63-2-2.7-4.37-5.36-4.07-7.82 11 .67 28.7 3 34.72-4.69 14.06-6.39 39.53-5.42 46 7.19.42-7.22-8.15-8.1-12.2-11.89 13.94 1.91 29 2.74 34.72 12.83 8.26-2.56 16.12 1.54 19.08 7.19-.88-4-2.68-7.12-5.63-9.07 3.77-.53 8.54-1.65 12.2-1.25.25 4.86-3.33 8.54-6.26 11.26-6.63-1.3-15.76-1.39-19.08 3.13 7.44 1.33 11 13.07 4.69 18.46 5.7-1.19 8.25-11.59 4.07-15.33 12.68 5.17 3.26 21.68-1.56 30.34a129 129 0 0 1-10.95 16.89c.79 2.33.62 5.64.63 8.76-.3-12.2-11.73-21.41-5.32-33.47-11.06 9.08 3.83 20.44 1.88 31.59-1.3 7.42-14.19 11.13-21.9 6.88-7.94-4.36-8.15-18.71-6.26-29.09z"/><path class="d" d="M137.75 14.06a37.73 37.73 0 0 1 7.51.63c-.05 1.07-1.26 2-.62 2.82 6.74-.38 13.31 1.08 18.45 1.25-4.79-5.05-16.45-8.59-25.34-4.7zm50.37 6.57c2.42-2.32 8.14-2.13 11.89-2.19-2.68-3.03-12.93-3.35-11.89 2.19z"/><path class="a" d="M168.09 24.41c4.89 2.2 9.12 5.06 10.95 10.32 1.84-4.41 5.72-6.8 9.38-9.38-5.28-2.12-14.3-3.2-20.33-.94zm-54.11 1.53c-.33 0-.79.15-.31.31a116.16 116.16 0 0 1 38.17 2.16 13.66 13.66 0 0 0 2.81-2.19c-11.93-2.52-28.54-3-40.67-.28zm.31 7.47c8.12-.72 23.84-1.82 33.79 0 .07-1.18 1.18-1.32 1.25-2.5-12.38-.89-25.19-.05-35.04 2.5zm27.21 3.17c-8.63.32-19.8 1.69-26.59 4.38-1.9.83.78-.09 0 0 9.71-1.15 22.23-2.79 31.91-2.82.14-3.15-3.6-1.62-5.32-1.56z"/><path class="d" d="M159.65 45.65c1.8 5.2.38 12.36-1.56 16.58 1 .44 2-1.19 2.81-2.19 2.84-3.48 5.19-8.36 7.51-11.89 4.17-1 11.1-1.65 14.7.31 1 4.4-.71 9.46-.94 12.51 3.65-3.86 5.59-9.42 7.2-15.33-7.21-3.94-22.45-3.66-29.72.01z"/><path class="a" d="M136.19 80.69c.28-.9-1.08-.73-1.56-.94-14.16-6-25.26-15.17-28.47-31.59-2.74 22.36 12.01 29.88 30.03 32.53z"/><path class="d" d="M166.84 83.19a12.51 12.51 0 0 0-.31-7.82 45.67 45.67 0 0 1-5.32 10.64c9 3.85 23.93.27 18.14-11.58-.02 6.85-5.18 11.21-12.51 8.76z"/><path class="a" d="M149.35 12.64s-6.7-1.14-12.21 1.54c0 0 6.37.08 8.12.65-.01 0 .89-2.11 4.09-2.19z"/></svg>