<svg xmlns="http://www.w3.org/2000/svg" viewBox="0 0 406.47 201.33"><defs><style>.a{fill:#fff;}.b{fill:#da2128;}.c{fill:#0d2240;}.d{fill:#d1d3d4;}</style></defs><title>NEP</title><path class="a" d="M401.34 27.19c-51.31 11.33-53-18.89-129.74-25.88C168.31-8.1 80.6 36.24 11.01 40.83c-15.11 1-13.4 13.85-2.59 16.22 26.05 6.74 53.08 6.46 77.87 3.54-.86 2-1.75 5.13 1 7.59 9.64 8.66 49 10.13 66.28 9.45 5.87-.23 18.42-1.21 18.42-1.21-3.58.28-9.36 11.29 2.39 14.65 72.56 22.2 106.26 56.51 144.69 110.25 16.06-1.78 31.48-21.16 25.32-36.28l3.34-8 11.9-5.35-2.9-27 18.13-8.29s29.37-76.21 31.12-81.73-1.6-8.1-4.64-7.44"/><path class="b" d="M198.76 33.93C148.14 36.02 86.93 64.05 9.91 49.59c68.65-8.13 121.26-30.26 185.1-38.26z"/><path class="c" d="M206.66 63.93c20.55-1.86 38.62-.81 58.09 11.84-41-5.33-61.35 6-87 8.13 90.07 25.94 122.26 78.36 144.18 107.49 15.82-6.5 16.92-20.41 13-25.44l4.21-8.75.29-5.69 10.9-5-2.93-27.55 20.4-8.09L396 36.42c-45.64 8.76-59.83-21.51-124.44-26.81a365 365 0 0 0-72.33 1.21l3.22 23c14.9-.24 28.87 2 42.06 8.38a160.39 160.39 0 0 0-40.66 2z"/><path class="b" d="M203.68 64.2c-28 2.84-60.63 10.22-107.28.31 40.36-.35 70.82-13.57 104.19-19.71z"/><path class="d" d="M275.34 128.49c24.15 17.94 36.36 37.55 48.81 54.75 6.53-2.64 8.71-10.27 6.62-13l-6-7.87 7 .55 3.34-5.67-8.72-.68-9.87 1.63 10.11-6.79 7.58.6.36-4.41-7.72-3.93 2.71-2.93 14.33 1.19-3.53-32.7c-5.66-.81-10.48 2.14-12.69 10.47l-25.44-2.03c3.72-8.2 9.37-11.81 19.92-10.25-5.78-8.59-34.71-9.92-39 3.3l22.13 19.2 2.58 17.22-9-13.84c-8.18-7.47-16.78-12.79-23.57-4.82"/><path class="a" d="M352.13 45.82l1.5 16.4 17.94 7.25-17.03 4.03 1.28 22.11-14.31-18.94-22.01 4.86 13.84-15.84-10.91-15.31 18.59 6.9 11.11-11.46"/></svg>