<svg xmlns="http://www.w3.org/2000/svg" viewBox="0 0 166.81 131"><defs><style>.a{fill:#b21e35;}.b{fill:#25316a;}</style></defs><title>NYG</title><path class="a" d="M162.15 1.72h-24.89v58.84c0 1.41-.39 8.58-6.32 8.58a4.79 4.79 0 0 1-3.75-1.33c-1.86-1.89-2.21-5.52-2.19-6.76V1.72H84.61v24h4.58c4.19 0 5.57 1.07 6 1.53a2.13 2.13 0 0 1 .46 1.38 2.63 2.63 0 0 1 0 .29c0 .13-.06.31-.06.31v40.02c0 7.67 2.54 14.26 7.34 19 5 5 12.17 7.72 20.21 7.71a33 33 0 0 0 14.24-3.1v1.71c0 4-.12 7.48-.75 8.23-.16.13-1.06.61-5.25.62H11.85v27.6h128.61c9.42 0 16.54-2.74 21.16-8s5.2-11.66 5.2-15V1.72h-4.64z"/><path class="a" d="M11.85 94.29h28.6V32.63a5.85 5.85 0 0 1 1.13-4c1.28-1.43 3.75-1.73 5.6-1.73a5.85 5.85 0 0 1 4.36 1.4 6.92 6.92 0 0 1 1.6 4.42V79.1v-.24c0 .71-.12 7.06 4.14 11.47a13.29 13.29 0 0 0 9.84 3.9h24.52V70.04l-5.23.68a5.26 5.26 0 0 1-3.56-.78 4.67 4.67 0 0 1-1.08-3.32V23.18c0-.39.36-9.69-6.15-16.46C71.33 2.26 65.29 0 57.62 0c-7.86 0-13.54 2.19-17.6 4.88V1.72h-40v25.11l5.57-1.18c1.12-.24 3.82-.36 5.07.76.91.82 1.19 2.45 1.19 3.89v64z"/><path class="b" d="M98.09 69.24c0 7 2.28 13 6.59 17.26 4.51 4.5 11.06 7 18.43 7a29.74 29.74 0 0 0 16.76-4.9v6.18c0 5.27-.22 8.54-1.47 9.81-.93.94-3 1.32-7 1.33l-117 .08v22.55l126.07-.1c8.66 0 15.14-2.4 19.26-7.11a20.22 20.22 0 0 0 4.68-13.22 16.51 16.51 0 0 0-.09-1.8l-.08-102.06h-24.46v56.31c0 .45-.14 11.1-8.84 11.1a7.36 7.36 0 0 1-5.57-2.1c-3-3.06-2.9-8.51-2.9-8.56V4.25H87.14v18.93h2.06c3.85 0 6.6.86 7.94 2.48a4.75 4.75 0 0 1 .95 3.68z"/><path class="b" d="M14.37 91.76h23.55V32.92a8.41 8.41 0 0 1 1.72-6c1.52-1.73 4-2.6 7.51-2.61a8.28 8.28 0 0 1 6.18 2.18 9.57 9.57 0 0 1 2.29 6.21v46.32c0 .17-.16 5.83 3.44 9.56a10.7 10.7 0 0 0 8 3.13h22V72.86l-2.37.34s-3.42.47-5.54-1.36c-1.24-1.08-1.88-2.84-1.88-5.24V22.98c0-.27.27-8.53-5.5-14.53-3.8-3.95-9.23-5.94-16.13-5.94-10.35 0-16.59 4-20.12 7.65V4.24h-35v19.5l2.52-.56s4.65-1 7.28 1.34c1.33 1.18 2 3.11 2 5.76z"/></svg>