<svg xmlns="http://www.w3.org/2000/svg" viewBox="0 0 310.21 174.07"><defs><style>.a{fill:#0c371d;}.b{fill:#fff;}</style></defs><title>NYJ</title><path class="a" d="M310.2 87.03c0-42-68.87-87-155.1-87C72.54.03 0 45.33 0 87.03s72.54 87 155.1 87c86.23 0 155.1-45 155.1-87z"/><path class="b" d="M215.09 41.76v9.14h14.66c.78-.05 2.06.15 2.35.62s.17 2-1.84 5.16l-19.23 32-20.5-32.8c-1.7-2.61-1.5-3.65-1.3-4 .37-.69.94-.88 2.13-1h10.6v-9.14h-79v9.11h10c2 0 3.44.41 4.27 1.25 1.4 1.4 1.68 4.35 1.68 8.35v33.54l-40-52.21H59.46v9.56h13a4 4 0 0 1 2.85.78c1 1 1 3.53 1 6v52.67c0 8.72-.93 11.11-4.35 11.14H59.35v8.43h42.3v-8.53H89.71c-2 0-3.44-.08-4-.58-1.11-1.11-1.21-6-1.21-10.46V64.41l54.5 66h8.54s.06-73.48 0-74.79c-.1-2 .45-4.28 4-4.74h8.49c3.93 0 6.5 4.74 9.14 9.23 0 0 20.41 34.69 23.12 39.28v16.74c0 5.68-2.52 5.68-3.59 5.68h-9.58v8.54h50.21v-8.62h-9.16c-3.55-.19-4.79-1.21-4.65-6.49V97.98l24.5-41.1c3.5-5.44 3.87-6 8.68-5.94h8.31v-9.19z"/><path class="a" d="M217.37 44.04v4.58h12.19s9-.75 2.63 9.28l-21.13 35.19-22.48-36c-5.83-9.26 2.87-8.49 2.87-8.49h8.22v-4.58h-74.41v4.54h7.7c7.39 0 8.23 4.76 8.23 11.88v40.28L97.78 44.09h-36v5h10.68c6.81 0 6.07 5.35 6.14 10.57v51.14c0 7.11-.3 13.38-6.62 13.42h-10.3v3.87h37.73v-4h-9.66c-6.46.05-7.45-.93-7.45-13.32V57.5l57.86 70.64h4.72v-68.2c0-7.11.14-11.06 6.75-11.32h9.39c5 .36 7.68 6.16 11.23 12.25l22.4 37.92v17.36c0 5.4-2.11 8-5.87 8h-7.32v4h45.64v-4.05h-7c-5.57-.28-7-3.16-6.86-8.83V97.35l23.08-39c5.16-7.74 5.44-9.8 12.42-9.7h6v-4.62z"/><path class="a" d="M190.22 129.22c0-10.32-15.6-21.39-35.12-21.39-18.69 0-35.12 11.13-35.12 21.39s16.43 21.38 35.12 21.38c19.52 0 35.12-11.06 35.12-21.38z"/><path class="b" d="M187.86 128.09c-1.14-8.84-15.26-17.87-32.76-17.87-16.75 0-31.55 9.08-32.77 17.87zm-65.52 2.25c1.19 8.79 16 17.89 32.77 17.89 17.51 0 31.64-9 32.78-17.89z"/><path class="a" d="M143.25 136.85a7.64 7.64 0 1 1 0-15.27h23.7a7.64 7.64 0 1 1 0 15.27z"/><path class="b" d="M168.18 125.81c-.05-.23-.11-.45-.17-.68h-2.24a7.49 7.49 0 0 1 .21.72 13.67 13.67 0 0 1 .37 2.21h-4a13.1 13.1 0 0 0-.33-2h-2.17a10.71 10.71 0 0 1 .42 2h-4.05v-1.91h-2.24v1.94h-4.06a11 11 0 0 1 .41-2h-2.16a14.47 14.47 0 0 0-.33 2h-4a13.48 13.48 0 0 1 .38-2.21c.06-.24.13-.49.2-.72h-2.24l-.16.68a15.55 15.55 0 0 0-.38 3.46 16.27 16.27 0 0 0 .51 4h2.26a13.7 13.7 0 0 1-.57-3h4a12.54 12.54 0 0 0 .34 2.1h2.13a10.63 10.63 0 0 1-.39-2.07h4.07v2h2.24v-2h4.07a10.58 10.58 0 0 1-.4 2.07h2.13a12.46 12.46 0 0 0 .34-2.1h4a13.79 13.79 0 0 1-.57 3h2.24a15.82 15.82 0 0 0 .52-4 16.28 16.28 0 0 0-.38-3.46z"/><path class="a" d="M257.3 71.86c-2.32-4.39-8.46-6.9-17.75-7.25-6.83-.22-12.18.13-16.42 1.22H111.44l5.71-10.67H89.61l-18.92 35.6c-1.53 2.25-1.75 2.38-3.32 2.21a5.26 5.26 0 0 1-1-.17 21.59 21.59 0 0 1 1.82-3.56l6.58-10.83H49.13l-.77 1.06c-7.05 9.71-9.14 17.55-6.19 23.27 2.82 5.5 9.76 8.26 20.61 8.19s17.84-.58 23.33-4.16h55.72l14.36-26.82h12.38l-14.29 26.77h28.44l8.94-16.77h12l-.63 1.52c-2.2 5.4-1 9 .36 11 2.7 4 8.49 6.06 17.21 6.08 14.69 0 24.07-1.38 28.56-8.21 3.72-5.65 4.27-10.79 1.56-14.49a10 10 0 0 0-3.26-2.66h8.1l.76-1.21c2.84-4.58 2.12-8 1-10.12z"/><path class="b" d="M70.24 81.03H50.46c-13.31 18.31-6.78 27.51 12.32 27.39 17.39-.11 23.5-1.22 30.74-14.47l19.35-36.17h-21.7L72.89 92.09c-1.71 2.51-2.67 3.76-5.78 3.43-4.92-.52-3.58-3.4-1.09-7.6l4.22-6.95zm88.33 23.17h22.61l14.25-26.54h10.42l4.99-9.27h-45.77l-4.88 9.05h12.66l-14.28 26.76m46.89-11.7c-3.45 8.49 1.78 13.54 15.2 13.57 14.53 0 22.66-1.37 26.4-7.06 2.55-3.87 4-8.34 1.62-11.57-1.62-2.33-7.48-4.35-13-5.43-3.53-.69-4.77-1.53-4.53-3.61.22-1.89 2.58-2.33 4.35-1.81 1.43.42 2 2.19 1.82 4h16.82c4.55-7.33-.72-12.92-14.66-13.45-17.25-.57-23.82 2.61-27.3 11.39-1.73 4.07-1.45 7.2 1.08 8.86 3.15 2.07 11.87 3.38 14.47 4.34a2.35 2.35 0 0 1 .91 3.66 3.88 3.88 0 0 1-5.08.72c-1.07-.83-.9-1.87-1.26-3.66zM97.02 104.25h43.26l4.86-9.04h-23.68l2.27-4.34h21.06l4.94-9.22h-19.79l1.98-4.17h21.41l4.81-9.04h-41.95l-19.17 35.81"/></svg>