<?xml version="1.0" encoding="UTF-8"?>
<svg id="Layer_1" data-name="Layer 1" xmlns="http://www.w3.org/2000/svg" viewBox="0 0 40 40">
  <path d="M1.18,27.69h9.41c.65,0,1.18-.69,1.18-1.54v-12.31c0-.85-.53-1.54-1.18-1.54H1.18c-.65,0-1.18.69-1.18,1.54v12.31c0,.85.53,1.54,1.18,1.54ZM2.35,15.38h7.06v9.23H2.35v-9.23Z"/>
  <path d="M20,33.85c0,.85.53,1.54,1.18,1.54h7.06v-3.08h-5.88V7.69h5.88v-3.08h-7.06c-.65,0-1.18.69-1.18,1.54v12.31h-5.88v3.08h5.88v12.31Z"/>
  <path d="M31.76,12.31h7.06c.65,0,1.18-.69,1.18-1.54V1.54c0-.85-.53-1.54-1.18-1.54h-7.06c-.65,0-1.18.69-1.18,1.54v9.23c0,.85.53,1.54,1.18,1.54ZM32.94,3.08h4.71v6.15h-4.71V3.08Z"/>
  <path d="M31.76,40h7.06c.65,0,1.18-.69,1.18-1.54v-9.23c0-.85-.53-1.54-1.18-1.54h-7.06c-.65,0-1.18.69-1.18,1.54v9.23c0,.85.53,1.54,1.18,1.54ZM32.94,30.77h4.71v6.15h-4.71v-6.15Z"/>
</svg>