<svg xmlns="http://www.w3.org/2000/svg" style="display: none;">
  
    <symbol id="icon-shield" viewBox="0 0 512 512">
      <path d="m384 274l0-183-128 0 0 325c23-12 43-25 61-39 45-35 67-69 67-103z m55-219l0 219c0 17-3 33-10 49-6 16-14 30-23 43-10 12-21 24-34 36-13 12-25 22-36 30-11 8-23 15-35 22-12 7-20 12-25 14-5 2-10 4-13 6-2 1-4 1-7 1-3 0-5 0-7-1-3-2-8-4-13-6-5-2-13-7-25-14-12-7-24-14-35-22-11-8-23-18-36-30-13-12-24-24-34-36-9-13-17-27-23-43-7-16-10-32-10-49l0-219c0-5 2-9 6-13 3-4 7-5 12-5l330 0c5 0 9 1 12 5 4 4 6 8 6 13z"/>
    </symbol>
  
    <symbol id="icon-sort" viewBox="0 0 512 512">
      <path d="m402 311c0 5-2 9-5 13l-128 128c-4 3-8 5-13 5-5 0-9-2-13-5l-128-128c-3-4-5-8-5-13 0-5 2-9 5-13 4-4 8-5 13-5l256 0c5 0 9 1 13 5 3 4 5 8 5 13z m0-110c0 5-2 9-5 13-4 4-8 5-13 5l-256 0c-5 0-9-1-13-5-3-4-5-8-5-13 0-5 2-9 5-13l128-128c4-3 8-5 13-5 5 0 9 2 13 5l128 128c3 4 5 8 5 13z"/>
    </symbol>
  
    <symbol id="icon-sort-alpha-asc" viewBox="0 0 512 512">
      <path d="m359 117l50 0-20-63-4-13c0-3 0-5 0-6l-2 0 0 6c0 0-1 2-1 5-1 3-2 6-3 8z m-130 294c0 3-1 5-3 7l-91 91c-2 2-5 3-7 3-2 0-4-1-7-3l-91-91c-3-3-4-6-2-10 2-4 4-6 9-6l54 0 0-393c0-3 1-5 3-6 2-2 4-3 7-3l54 0c3 0 5 1 7 3 2 1 3 3 3 6l0 393 54 0c3 0 5 1 7 3 2 2 3 4 3 6z m238 34l0 67-166 0 0-26 105-151c2-3 4-6 6-8l3-2 0-1c0 0-1 0-2 1-1 1-1 2-2 2-2 0-5 1-8 1l-67 0 0 33-34 0 0-66 162 0 0 26-105 151c-2 2-4 4-6 7l-4 4 0 0 4 0c2-1 5-1 9-1l71 0 0-34 34 0z m26-256l0 30-82 0 0-30 21 0-13-41-70 0-13 41 21 0 0 30-82 0 0-30 20 0 66-189 46 0 66 189z"/>
    </symbol>
  
    <symbol id="icon-sort-alpha-desc" viewBox="0 0 512 512">
      <path d="m359 409l50 0-20-62-4-14c0-3 0-5 0-5l-2 0 0 5c0 1-1 2-1 6-1 3-2 6-3 8z m-130 2c0 3-1 5-3 7l-91 91c-2 2-5 3-7 3-2 0-4-1-7-3l-91-91c-3-3-4-6-2-10 2-4 4-6 9-6l54 0 0-393c0-3 1-5 3-6 2-2 4-3 7-3l54 0c3 0 5 1 7 3 2 1 3 3 3 6l0 393 54 0c3 0 5 1 7 3 2 2 3 4 3 6z m264 71l0 30-82 0 0-30 21 0-13-41-70 0-13 41 21 0 0 30-82 0 0-30 20 0 66-189 46 0 66 189z m-26-329l0 66-166 0 0-25 105-151c2-4 4-6 6-8l3-3 0-1c0 0-1 1-2 2-1 1-1 1-2 1-2 1-5 1-8 1l-67 0 0 33-34 0 0-65 162 0 0 25-105 151c-2 2-4 4-6 8l-4 3 0 1 4-1c2 0 5-1 9-1l71 0 0-34 34 0z"/>
    </symbol>
  
    <symbol id="icon-sort-amount-asc" viewBox="0 0 512 512">
      <path d="m210 411c0 3-1 5-3 7l-91 91c-2 2-4 3-6 3-3 0-5-1-7-3l-91-91c-3-3-4-6-2-10 1-4 4-6 8-6l55 0 0-393c0-3 1-5 3-6 1-2 4-3 6-3l55 0c3 0 5 1 7 3 1 1 2 3 2 6l0 393 55 0c3 0 5 1 7 3 1 2 2 4 2 6z m302 37l0 55c0 3-1 5-3 6-1 2-3 3-6 3l-238 0c-3 0-5-1-6-3-2-1-3-3-3-6l0-55c0-3 1-5 3-7 1-1 3-2 6-2l238 0c3 0 5 1 6 2 2 2 3 4 3 7z m-55-146l0 55c0 2-1 4-2 6-2 2-4 3-7 3l-183 0c-3 0-5-1-6-3-2-2-3-4-3-6l0-55c0-3 1-5 3-7 1-2 3-2 6-2l183 0c3 0 5 0 7 2 1 2 2 4 2 7z m-55-147l0 55c0 3-1 5-2 7-2 2-4 2-7 2l-128 0c-3 0-5 0-6-2-2-2-3-4-3-7l0-55c0-2 1-4 3-6 1-2 3-3 6-3l128 0c3 0 5 1 7 3 1 2 2 4 2 6z m-55-146l0 55c0 3 0 5-2 7-2 1-4 2-7 2l-73 0c-3 0-5-1-6-2-2-2-3-4-3-7l0-55c0-3 1-5 3-6 1-2 3-3 6-3l73 0c3 0 5 1 7 3 2 1 2 3 2 6z"/>
    </symbol>
  
    <symbol id="icon-sort-amount-desc" viewBox="0 0 512 512">
      <path d="m347 448l0 55c0 3 0 5-2 6-2 2-4 3-7 3l-73 0c-3 0-5-1-6-3-2-1-3-3-3-6l0-55c0-3 1-5 3-7 1-1 3-2 6-2l73 0c3 0 5 1 7 2 2 2 2 4 2 7z m-137-37c0 3-1 5-3 7l-91 91c-2 2-4 3-6 3-3 0-5-1-7-3l-91-91c-3-3-4-6-2-10 1-4 4-6 8-6l55 0 0-393c0-3 1-5 3-6 1-2 4-3 6-3l55 0c3 0 5 1 7 3 1 1 2 3 2 6l0 393 55 0c3 0 5 1 7 3 1 2 2 4 2 6z m192-109l0 55c0 2-1 4-2 6-2 2-4 3-7 3l-128 0c-3 0-5-1-6-3-2-2-3-4-3-6l0-55c0-3 1-5 3-7 1-2 3-2 6-2l128 0c3 0 5 0 7 2 1 2 2 4 2 7z m55-147l0 55c0 3-1 5-2 7-2 2-4 2-7 2l-183 0c-3 0-5 0-6-2-2-2-3-4-3-7l0-55c0-2 1-4 3-6 1-2 3-3 6-3l183 0c3 0 5 1 7 3 1 2 2 4 2 6z m55-146l0 55c0 3-1 5-3 7-1 1-3 2-6 2l-238 0c-3 0-5-1-6-2-2-2-3-4-3-7l0-55c0-3 1-5 3-6 1-2 3-3 6-3l238 0c3 0 5 1 6 3 2 1 3 3 3 6z"/>
    </symbol>
  
    <symbol id="icon-star" viewBox="0 0 512 512">
      <path d="m494 185c0 4-3 9-8 14l-103 101 24 143c0 1 0 3 0 5 0 4-1 8-3 10-2 3-4 5-8 5-4 0-8-2-12-4l-128-67-128 67c-4 2-8 4-12 4-4 0-7-2-9-5-2-2-3-6-3-10 0-1 0-3 1-5l24-143-104-101c-4-6-7-10-7-14 0-7 6-12 16-13l144-21 64-130c4-8 8-12 14-12 6 0 10 4 14 12l64 130 144 21c10 1 16 6 16 13z"/>
    </symbol>
  
    <symbol id="icon-trophy" viewBox="0 0 512 512">
      <path d="m149 252c-14-31-21-66-21-106l-73 0 0 28c0 15 9 30 27 46 18 16 40 27 67 32z m308-78l0-28-73 0c0 40-7 75-21 106 27-5 49-16 67-32 18-16 27-31 27-46z m37-37l0 37c0 13-4 27-12 41-8 13-19 26-32 37-14 11-30 20-50 28-19 7-40 11-61 12-8 11-17 20-27 27-8 7-13 14-15 21-3 7-4 16-4 26 0 10 2 19 8 26 6 7 15 10 28 10 14 0 27 5 38 13 11 9 17 20 17 33l0 18c0 3-1 5-3 7-1 2-3 2-6 2l-238 0c-3 0-5 0-6-2-2-2-3-4-3-7l0-18c0-13 6-24 17-33 11-8 24-13 38-13 13 0 22-3 28-10 6-7 8-16 8-26 0-10-1-19-4-26-2-7-7-14-15-21-10-7-19-16-27-27-21-1-42-5-61-12-20-8-36-17-50-28-13-11-24-24-32-37-8-14-12-28-12-41l0-37c0-7 3-14 8-19 6-6 12-8 20-8l82 0 0-28c0-12 4-23 13-32 9-9 20-13 33-13l164 0c13 0 24 4 33 13 9 9 13 20 13 32l0 28 82 0c8 0 14 2 20 8 5 5 8 12 8 19z"/>
    </symbol>
  
    <symbol id="icon-bar-chart" viewBox="0 0 512 512">
      <path d="m137 290l0 103l-69 0l0-103z m102-136l0 239l-68 0l0-239z m102 68l0 171l-68 0l0-171z m103-103l0 274l-69 0l0-274z m34 299l0-324c0-2-1-4-3-6c-1-2-3-3-6-3l-426 0c-3 0-5 1-6 3c-2 2-3 4-3 6l0 324c0 2 1 4 3 6c1 2 3 3 6 3l426 0c3 0 5-1 6-3c2-2 3-4 3-6z m34-324l0 324c0 12-4 22-13 30c-8 9-18 13-30 13l-426 0c-12 0-22-4-30-13c-9-8-13-18-13-30l0-324c0-12 4-22 13-30c8-9 18-13 30-13l426 0c12 0 22 4 30 13c9 8 13 18 13 30z"/>
    </symbol>
  
    <symbol id="icon-plus" viewBox="0 0 512 512">
      <path d="m457 210l0 55c0 8-3 14-8 20-5 5-12 8-19 8l-119 0 0 118c0 8-3 15-8 20-5 5-12 8-20 8l-54 0c-8 0-15-3-20-8-5-5-8-12-8-20l0-118-119 0c-7 0-14-3-19-8-5-6-8-12-8-20l0-55c0-7 3-14 8-19 5-5 12-8 19-8l119 0 0-119c0-8 3-14 8-19 5-6 12-8 20-8l54 0c8 0 15 2 20 8 5 5 8 11 8 19l0 119 119 0c7 0 14 3 19 8 5 5 8 12 8 19z"/>
    </symbol>
  
    <symbol id="icon-ambulance" viewBox="0 0 512 512">
      <path d="m171 393c0-10-4-18-10-25c-7-6-15-10-24-10c-10 0-18 4-25 10c-6 7-10 15-10 25c0 9 4 17 10 24c7 6 15 10 25 10c9 0 17-4 24-10c6-7 10-15 10-24z m-103-137l103 0l0-68l-42 0c-3 0-5 1-6 2l-52 52c-2 2-2 4-3 6z m342 137c0-10-4-18-10-25c-7-6-15-10-25-10c-9 0-17 4-24 10c-6 7-10 15-10 25c0 9 4 17 10 24c7 6 15 10 24 10c10 0 18-4 25-10c6-7 10-15 10-24z m34-180l0-51c0-2-1-4-3-6c-1-2-3-2-6-2l-60 0l0-60c0-3 0-5-2-6c-2-2-4-3-6-3l-51 0c-3 0-5 1-6 3c-2 1-3 3-3 6l0 60l-60 0c-2 0-4 0-6 2c-1 2-2 4-2 6l0 51c0 3 1 5 2 6c2 2 4 3 6 3l60 0l0 60c0 2 1 4 3 6c1 1 3 2 6 2l51 0c2 0 4-1 6-2c2-2 2-4 2-6l0-60l60 0c3 0 5-1 6-3c2-1 3-3 3-6z m68-145l0 307c0 5-2 9-5 12c-3 4-7 6-12 6l-51 0c0 18-7 34-20 48c-14 13-30 20-49 20c-18 0-34-7-48-20c-13-14-20-30-20-48l-102 0c0 18-7 34-20 48c-14 13-30 20-48 20c-19 0-35-7-49-20c-13-14-20-30-20-48l-34 0c-4 0-8-2-12-6c-3-3-5-7-5-12c0-4 2-8 5-12c4-3 8-5 12-5l0-111c0-4 1-9 4-15c2-6 5-10 8-14l53-52c3-4 8-7 14-9c5-2 10-3 15-3l43 0l0-86c0-4 1-8 5-12c3-3 7-5 12-5l307 0c5 0 9 2 12 5c3 4 5 8 5 12z"/>
    </symbol>
  
    <symbol id="icon-ambulance-2" viewBox="0 0 512 512">
      <path d="m165 402c0-10-4-18-11-26-7-7-16-10-26-10-10 0-19 3-26 10-7 8-11 16-11 26 0 10 4 19 11 26 7 7 16 11 26 11 10 0 19-4 26-11 7-7 11-16 11-26z m-110-146l110 0 0-73-46 0c-2 0-4 1-6 2l-56 56c-1 2-2 5-2 6z m366 146c0-10-4-18-11-26-7-7-16-10-26-10-10 0-19 3-26 10-7 8-11 16-11 26 0 10 4 19 11 26 7 7 16 11 26 11 10 0 19-4 26-11 7-7 11-16 11-26z m36-192l0-55c0-2-1-4-2-6-2-2-4-3-7-3l-64 0 0-64c0-2-1-5-3-6-1-2-3-3-6-3l-55 0c-3 0-5 1-7 3-1 1-2 4-2 6l0 64-64 0c-3 0-5 1-7 3-1 2-2 4-2 6l0 55c0 3 1 5 2 7 2 2 4 2 7 2l64 0 0 64c0 3 1 5 2 7 2 2 4 3 7 3l55 0c3 0 5-1 6-3 2-2 3-4 3-7l0-64 64 0c3 0 5 0 7-2 1-2 2-4 2-7z m73-155l0 329c0 5-2 9-5 13-4 3-8 5-13 5l-55 0c0 20-7 38-21 52-15 14-32 21-52 21-20 0-37-7-52-21-14-14-21-32-21-52l-110 0c0 20-7 38-21 52-15 14-32 21-52 21-20 0-37-7-52-21-14-14-21-32-21-52l-37 0c-5 0-9-2-13-5-3-4-5-8-5-13 0-5 2-9 5-13 4-3 8-5 13-5l0-119c0-5 2-11 4-17 2-6 6-11 9-14l57-57c3-3 8-7 14-9 6-2 12-4 17-4l46 0 0-91c0-5 1-9 5-13 4-4 8-5 13-5l329 0c5 0 9 1 13 5 3 4 5 8 5 13z"/>
    </symbol>
  
    <symbol id="icon-calendar" viewBox="0 0 512 512">
      <path d="m55 475l82 0 0-82-82 0z m100 0l92 0 0-82-92 0z m-100-100l82 0 0-92-82 0z m100 0l92 0 0-92-92 0z m-100-110l82 0 0-82-82 0z m210 210l92 0 0-82-92 0z m-110-210l92 0 0-82-92 0z m220 210l82 0 0-82-82 0z m-110-100l92 0 0-92-92 0z m-100-247l0-82c0-3-1-5-3-7-2-2-4-2-7-2l-18 0c-2 0-4 0-6 2-2 2-3 4-3 7l0 82c0 2 1 5 3 6 2 2 4 3 6 3l18 0c3 0 5-1 7-3 2-1 3-4 3-6z m210 247l82 0 0-92-82 0z m-110-110l92 0 0-82-92 0z m110 0l82 0 0-82-82 0z m9-137l0-82c0-3-1-5-3-7-2-2-4-2-6-2l-18 0c-3 0-5 0-7 2-2 2-3 4-3 7l0 82c0 2 1 5 3 6 2 2 4 3 7 3l18 0c2 0 4-1 6-3 2-1 3-4 3-6z m110-18l0 365c0 10-4 19-11 26-7 7-16 11-26 11l-402 0c-10 0-19-4-26-11-7-7-11-16-11-26l0-365c0-10 4-19 11-26 7-7 16-11 26-11l36 0 0-27c0-13 5-24 14-33 9-9 20-13 32-13l18 0c13 0 24 4 33 13 9 9 13 20 13 33l0 27 110 0 0-27c0-13 4-24 13-33 9-9 20-13 33-13l18 0c12 0 23 4 32 13 9 9 14 20 14 33l0 27 36 0c10 0 19 4 26 11 7 7 11 16 11 26z"/>
    </symbol>
  
    <symbol id="icon-line-chart" viewBox="0 0 512 512">
      <path d="m549 439l0 36-586 0 0-438 37 0 0 402z m-37-357l0 125c0 4-2 6-6 8-3 2-7 1-10-2l-34-35-181 181c-2 2-4 3-7 3-2 0-4-1-6-3l-67-66-119 118-55-54 168-168c1-1 4-2 6-2 3 0 5 1 7 2l66 67 133-133-35-34c-3-3-3-7-2-10 2-4 5-6 9-6l124 0c3 0 5 1 6 3 2 1 3 4 3 6z"/>
    </symbol>
  
    <symbol id="icon-standings" viewBox="0 0 479.25 479.25">
      <rect fill="none" stroke="currentColor" stroke-linecap="round" stroke-linejoin="round" stroke-width="20.25" x="10.12" y="320.62" width="153" height="148.5"/>
      <rect fill="none" stroke="currentColor" stroke-linecap="round" stroke-linejoin="round" stroke-width="20.25" x="163.12" y="266.63" width="153" height="202.5"/>
      <rect fill="none" stroke="currentColor" stroke-linecap="round" stroke-linejoin="round" stroke-width="20.25" x="316.12" y="374.63" width="153" height="94.5"/>
      <path fill="none" stroke="currentColor" stroke-linecap="round" stroke-linejoin="round" stroke-width="20.25" d="M310.8,111.89c-6.77,40.95-18.25,58.84-21.56,63.77-8.09,12.02-24.92,37.05-49.2,36.96-24.55-.09-41.35-25.79-49.67-38.52-3.8-5.82-14.19-22.84-21.09-62.21-3.96-22.59-7.67-57.72-2.34-101.77,48.08.07,96.17.13,144.25.2,6.62,44.04,3.31,79.28-.38,101.57Z"/>
      <path fill="none" stroke="currentColor" stroke-linecap="round" stroke-linejoin="round" stroke-width="20.25" d="M239.69,266.63v-54.01"/>
      <path fill="none" stroke="currentColor" stroke-linecap="round" stroke-linejoin="round" stroke-width="20.25" d="M164.33,47.76c-16.33.01-32.66.02-48.99.04-.54,1.56-12.37,37.6,7.28,68.18,12.53,19.5,33.12,29.39,53.71,26.2"/>
      <path fill="none" stroke="currentColor" stroke-linecap="round" stroke-linejoin="round" stroke-width="20.25" d="M314.72,47.76c16.4.01,32.8.02,49.19.04.54,1.56,12.36,37.6-7.28,68.18-12.32,19.18-32.45,29.06-52.7,26.35"/>
      <line fill="none" stroke="currentColor" stroke-linecap="round" stroke-linejoin="round" stroke-width="20.25" x1="239.67" y1="394.88" x2="239.67" y2="340.87"/>
      <line fill="none" stroke="currentColor" stroke-linecap="round" stroke-linejoin="round" stroke-width="20.25" x1="230.55" y1="421.88" x2="248.79" y2="421.88"/>
      <line fill="none" stroke="currentColor" stroke-linecap="round" stroke-linejoin="round" stroke-width="20.25" x1="230.46" y1="313.87" x2="248.79" y2="313.87"/>
    </symbol>
  
    <symbol id="icon-paypal" viewBox="0 0 512 512">
      <path d="m471 185c3 16 3 35-2 58-16 84-70 127-161 127l-13 0c-4 0-9 1-12 4-4 4-6 8-7 13l-1 5-16 99 0 4c-1 5-4 9-7 12-4 3-8 5-13 5l-72 0c-4 0-7-1-9-4-3-3-3-7-3-11 2-10 4-26 8-48 3-21 6-37 7-48 2-10 5-26 8-47 3-22 6-38 8-48 1-7 5-11 12-11l37 0c26 1 48-1 68-6 33-7 61-21 82-41 19-18 34-42 44-70 5-14 8-26 10-38 0-1 1-2 1-2 0-1 0-1 1-1 0 0 1 1 2 1 15 12 24 27 28 47z m-50-81c0 20-4 43-13 67-15 45-44 75-86 90-22 8-46 12-72 12 0 1-9 1-26 1l-25-1c-19 0-31 10-34 28-1 1-9 52-24 151-1 2-2 3-4 3l-84 0c-4 0-8-1-11-5-2-3-3-6-3-11l66-420c1-5 4-10 8-14 5-3 9-5 15-5l171 0c6 0 16 1 28 4 12 2 22 5 32 9 20 8 36 19 46 35 11 16 16 34 16 56z"/>
    </symbol>
  
    <symbol id="icon-user-secret" viewBox="0 0 512 512">
      <path d="m201 439l28-128-28-37-36-18z m73 0l37-183-37 18-27 37z m46-289c0 0-1-1-1-1-2-2-11-3-28-3-13 0-29 2-47 6-2 0-4 0-6 0-3 0-5 0-6 0-19-4-35-6-48-6-16 0-26 1-27 3-1 0-1 1-2 1 1 4 1 6 2 8 0 1 1 1 2 2 1 1 1 2 2 3 0 1 1 3 2 6 1 3 2 5 2 6 0 0 1 2 2 4 1 3 2 5 3 5 0 1 1 2 2 4 1 2 3 3 4 4 1 1 2 2 4 3 1 1 3 2 5 2 1 1 3 1 5 1 3 1 5 1 7 1 7 0 13-1 17-4 5-2 8-5 10-8 1-4 3-7 4-10 1-3 2-6 3-9 1-2 3-3 5-3l3 0c3 0 4 1 5 3 2 3 3 6 4 9 1 3 2 6 4 10 2 3 5 6 9 8 5 3 10 4 17 4 2 0 5 0 7-1 2 0 4 0 6-1 2 0 3-1 5-2 1-1 3-2 4-3 1-1 2-2 3-4 2-2 2-3 3-4 0 0 1-2 2-5 1-2 2-4 2-4 1-1 1-3 2-6 1-3 2-5 3-6 0-1 1-2 2-3 1-1 1-1 2-2 0-2 1-4 1-8z m119 251c0 23-7 42-21 55-14 13-32 19-55 19l-250 0c-23 0-42-6-56-19-13-13-20-32-20-55 0-11 0-22 1-33 1-11 3-23 5-36 3-13 7-25 11-35 4-11 10-21 18-30 8-9 17-16 27-21l-26-63 61 0c-4-12-6-25-6-37 0-2 0-5 1-9-37-7-56-17-56-27 0-11 20-21 60-29 3-11 8-24 15-38 6-14 13-24 20-32 6-7 13-11 22-11 5 0 13 3 24 9 10 6 18 9 24 9 5 0 13-3 24-9 10-6 18-9 24-9 8 0 15 4 21 11 7 8 14 18 21 32 6 14 11 27 14 38 40 8 60 18 60 29 0 10-18 20-55 27 1 16-1 31-6 46l61 0-23 64c12 6 22 16 31 28 8 12 14 25 18 41 4 15 7 29 9 43 1 14 2 28 2 42z"/>
    </symbol>
  
    <symbol id="icon-wrench" viewBox="0 0 512 512">
      <path d="m128 421c0-5-2-10-5-13-4-4-8-6-13-6-5 0-10 2-13 6-4 3-6 8-6 13 0 5 2 9 6 12 3 4 8 6 13 6 5 0 9-2 13-6 3-3 5-7 5-12z m184-120l-195 194c-7 7-15 11-26 11-9 0-18-4-26-11l-30-30c-7-7-11-16-11-26 0-10 4-19 11-26l195-195c7 19 18 35 32 50 15 14 31 25 50 33z m181-125c0 8-2 18-6 31-9 25-25 46-47 62-23 16-47 24-74 24-36 0-66-13-91-38-25-25-37-55-37-90 0-36 12-66 37-91 25-25 55-37 91-37 11 0 22 1 34 4 13 3 23 8 31 14 3 2 5 4 5 8 0 3-2 5-5 8l-84 48 0 64 56 30c1 0 8-5 22-13 14-9 27-17 39-24 12-6 18-10 20-10 3 0 5 1 7 3 1 2 2 4 2 7z"/>
    </symbol>
  
    <symbol id="icon-beer" viewBox="0 0 512 512">
      <path d="m448 128c-15 0-96 0-96 0l0-64c0-35-79-64-176-64-97 0-176 29-176 64l0 384c0 36 79 64 176 64 97 0 176-28 176-64l0-64c0 0 80 0 96 0 16 0 32-15 32-32 0-17 0-175 0-192 0-17-14-32-32-32z m-352 288l-32 0 0-256 32 0z m96 32l-32 0 0-256 32 0z m96-32l-32 0 0-256 32 0z m-112-320c-62 0-112-14-112-32 0-17 50-32 112-32 62 0 112 15 112 32 0 18-50 32-112 32z m240 224l-64 0 0-128 64 0z"/>
    </symbol>
  
    <symbol id="icon-file-text" viewBox="0 0 512 512">
      <path d="m456 136c3 3 5 6 8 10l-135 0 0-135c4 3 8 6 10 8z m-136 47l155 0 0 302c0 7-2 14-8 19-5 5-11 8-19 8l-384 0c-8 0-14-3-19-8-6-5-8-12-8-19l0-458c0-7 2-14 8-19 5-5 11-8 19-8l229 0 0 155c0 8 2 15 8 20 5 5 11 8 19 8z m46 210l0-18c0-3-1-5-3-7-2-1-4-2-6-2l-202 0c-2 0-4 1-6 2-2 2-3 4-3 7l0 18c0 3 1 5 3 7 2 1 4 2 6 2l202 0c2 0 4-1 6-2 2-2 3-4 3-7z m0-73l0-18c0-3-1-5-3-7-2-2-4-2-6-2l-202 0c-2 0-4 0-6 2-2 2-3 4-3 7l0 18c0 3 1 5 3 7 2 1 4 2 6 2l202 0c2 0 4-1 6-2 2-2 3-4 3-7z m0-73l0-18c0-3-1-5-3-7-2-2-4-3-6-3l-202 0c-2 0-4 1-6 3-2 2-3 4-3 7l0 18c0 3 1 5 3 6 2 2 4 3 6 3l202 0c2 0 4-1 6-3 2-1 3-3 3-6z"/>
    </symbol>
  
    <symbol id="icon-users" viewBox="0 0 512 512">
      <path d="m151 256c-31 1-56 13-76 37l-38 0c-15 0-29-4-39-12-11-8-16-19-16-34 0-67 12-101 35-101 1 0 5 2 13 6 7 4 16 8 27 12 12 5 23 7 34 7 13 0 26-3 38-7-1 7-1 13-1 19 0 26 8 51 23 73z m306 182c0 23-7 41-21 54-14 13-32 20-55 20l-250 0c-23 0-41-7-55-20-14-13-21-31-21-54 0-10 0-20 1-30 1-9 2-20 4-31 2-11 4-21 7-31 3-9 8-19 13-28 5-9 11-16 17-23 7-6 15-11 25-15 9-4 20-6 32-6 2 0 6 2 12 6 6 5 13 9 21 14 7 5 18 10 30 14 13 4 26 6 39 6 13 0 26-2 39-6 12-4 23-9 30-14 8-5 15-9 21-14 6-4 10-6 12-6 12 0 23 2 32 6 10 4 18 9 25 15 6 7 12 14 17 23 5 9 10 19 13 28 3 10 5 20 7 31 2 11 3 22 4 31 1 10 1 20 1 30z m-292-365c0 20-8 38-22 52-14 14-31 21-52 21-20 0-37-7-51-21-15-14-22-32-22-52 0-20 7-37 22-52 14-14 31-21 51-21 21 0 38 7 52 21 14 15 22 32 22 52z m201 110c0 30-11 56-32 77-22 22-48 33-78 33-30 0-56-11-78-33-21-21-32-47-32-77 0-30 11-56 32-78 22-21 48-32 78-32 30 0 56 11 78 32 21 22 32 48 32 78z m164 64c0 15-5 26-16 34-10 8-24 12-39 12l-38 0c-20-24-45-36-76-37 15-22 23-47 23-73 0-6 0-12-1-19 12 4 25 7 38 7 11 0 22-2 34-7 11-4 20-8 27-12 8-4 12-6 13-6 23 0 35 34 35 101z m-36-174c0 20-7 38-22 52-14 14-31 21-51 21-21 0-38-7-52-21-14-14-22-32-22-52 0-20 8-37 22-52 14-14 31-21 52-21 20 0 37 7 51 21 15 15 22 32 22 52z"/>
    </symbol>
  
    <symbol id="icon-user" viewBox="0 0 512 512">
      <path d="m457 401c0 23-7 41-21 55-14 13-32 19-55 19l-250 0c-23 0-41-6-55-19-14-14-21-32-21-55 0-10 0-20 1-29 1-10 2-20 4-31 2-11 4-22 7-31 3-10 8-19 13-28 5-9 11-17 17-23 7-7 15-12 25-16 9-3 20-5 32-5 1 0 5 2 12 6 6 4 13 9 21 14 8 5 18 9 31 13 13 4 25 6 38 6 13 0 25-2 38-6 13-4 23-8 31-13 8-5 15-10 21-14 7-4 11-6 12-6 12 0 23 2 32 5 10 4 18 9 25 16 6 6 12 14 17 23 5 9 10 18 13 28 3 9 5 20 7 31 2 11 3 21 4 31 1 9 1 19 1 29z m-91-255c0 31-11 56-32 78-22 21-48 32-78 32-30 0-56-11-78-32-21-22-32-47-32-78 0-30 11-56 32-77 22-22 48-32 78-32 30 0 56 10 78 32 21 21 32 47 32 77z"/>
    </symbol>
  
    <symbol id="icon-user-plus" viewBox="0 0 512 512">
      <path d="m165 256c-31 0-57-11-78-32-21-22-32-47-32-78 0-30 11-56 32-77 21-22 47-32 78-32 30 0 56 10 77 32 22 21 32 47 32 77 0 31-10 56-32 78-21 21-47 32-77 32z m274 37l100 0c3 0 5 0 7 2 2 2 3 4 3 7l0 55c0 2-1 4-3 6-2 2-4 3-7 3l-100 0 0 100c0 3-1 5-3 7-2 2-4 2-6 2l-55 0c-3 0-5 0-7-2-1-2-2-4-2-7l0-100-101 0c-2 0-4-1-6-3-2-2-3-4-3-6l0-55c0-3 1-5 3-7 2-2 4-2 6-2l101 0 0-101c0-2 1-5 2-6 2-2 4-3 7-3l55 0c2 0 4 1 6 3 2 1 3 4 3 6z m-210 64c0 9 3 18 10 25 8 8 16 11 26 11l73 0 0 68c-13 10-29 14-49 14l-249 0c-23 0-42-6-56-19-14-13-21-32-21-55 0-10 1-20 1-29 1-10 2-20 4-31 2-11 5-22 8-31 3-10 7-19 12-28 5-9 11-17 18-23 7-7 15-12 24-16 10-3 21-5 32-5 4 0 8 1 11 5 15 11 30 20 45 26 14 6 30 8 47 8 17 0 32-2 47-8 14-6 29-15 44-26 4-4 7-5 11-5 25 0 46 9 62 27l-64 0c-10 0-18 4-26 11-7 7-10 16-10 26z"/>
    </symbol>
  
    <symbol id="icon-user-times" viewBox="0 0 512 512">
      <path d="m165 256c-31 0-57-11-78-32-21-22-32-47-32-78 0-30 11-56 32-77 21-22 47-32 78-32 30 0 56 10 77 32 22 21 32 47 32 77 0 31-10 56-32 78-21 21-47 32-77 32z m307 91l71 72c2 1 3 3 3 6 0 3-1 5-3 6l-38 39c-2 2-4 3-7 3-2 0-5-1-6-3l-71-71-72 71c-1 2-3 3-6 3-3 0-5-1-6-3l-39-39c-2-1-3-3-3-6 0-3 1-5 3-6l71-72-71-71c-2-1-3-4-3-6 0-3 1-5 3-7l39-38c1-2 3-3 6-3 3 0 5 1 6 3l72 71 71-71c1-2 4-3 6-3 3 0 5 1 7 3l38 38c2 2 3 4 3 7 0 2-1 5-3 6z m-142 0l-52 52c-7 7-10 16-10 26 0 10 3 19 10 26l24 24c-4 0-8 0-13 0l-249 0c-23 0-42-6-56-19-14-13-21-32-21-55 0-10 1-20 1-29 1-10 2-20 4-31 2-11 5-22 8-31 3-10 7-19 12-28 5-9 11-17 18-23 7-7 15-12 24-16 10-3 21-5 32-5 4 0 8 1 11 5 30 23 60 34 92 34 31 0 61-11 91-34 4-4 7-5 11-5 5 0 11 0 16 1-5 6-9 10-12 15-2 4-3 9-3 16 0 10 3 19 10 26z"/>
    </symbol>
  
    <symbol id="icon-commenting" viewBox="0 0 512 512">
      <path d="m183 256c0-10-4-19-11-26-7-7-16-11-26-11-10 0-18 4-26 11-7 7-10 16-10 26 0 10 3 19 10 26 8 7 16 11 26 11 10 0 19-4 26-11 7-7 11-16 11-26z m110 0c0-10-4-19-11-26-7-7-16-11-26-11-10 0-19 4-26 11-7 7-11 16-11 26 0 10 4 19 11 26 7 7 16 11 26 11 10 0 19-4 26-11 7-7 11-16 11-26z m109 0c0-10-3-19-10-26-8-7-16-11-26-11-10 0-19 4-26 11-7 7-11 16-11 26 0 10 4 19 11 26 7 7 16 11 26 11 10 0 18-4 26-11 7-7 10-16 10-26z m110 0c0 33-11 64-34 92-23 28-54 50-93 66-40 17-83 25-129 25-21 0-41-2-60-5-33 33-75 54-125 65-9 2-18 3-24 4-2 0-5-1-6-2-2-1-4-3-4-5-1-3 1-6 6-11 1-1 3-3 6-6 4-3 6-5 8-6 1-2 3-4 6-8 3-3 6-6 7-9 2-2 4-6 6-10 2-5 4-9 6-14 1-5 2-10 4-16 1-7 2-14 3-21-27-17-49-38-65-62-16-24-24-50-24-77 0-33 11-64 34-92 23-28 54-50 93-66 40-17 83-25 129-25 46 0 89 8 129 25 39 16 70 38 93 66 23 28 34 59 34 92z"/>
    </symbol>
  
    <symbol id="icon-comments" viewBox="0 0 512 512">
      <path d="m402 219c0 27-9 51-27 74-17 22-42 40-73 53-31 13-64 20-101 20-16 0-33-2-50-5-24 17-50 29-80 37-6 1-15 3-24 4l-1 0c-2 0-4 0-6-2-2-2-3-4-3-6 0-1 0-1 0-2 0-1 0-1-1-2 0 0 1-1 1-1l1-2 1-1 1-2 1-1 1-2c1-1 3-3 7-7 3-3 6-6 7-8 2-2 4-5 7-8 2-4 5-8 7-11 2-4 4-8 6-13-24-14-42-31-56-51-14-20-20-41-20-64 0-26 9-51 27-73 17-22 42-40 73-53 31-13 64-20 101-20 36 0 70 7 101 20 31 13 55 31 73 53 18 22 27 47 27 73z m110 74c0 22-7 44-20 64-14 20-32 36-56 50 2 5 4 9 6 13 2 4 4 7 7 11 3 3 5 6 6 8 2 2 4 5 8 8 3 4 5 6 6 8 1 0 1 0 2 1 0 1 1 1 1 1 0 1 1 1 1 2 0 0 1 1 1 1l1 2 0 1 0 2 0 2c0 3-2 5-4 6-1 2-4 3-6 2-9-1-18-2-24-4-30-8-56-20-80-37-17 3-34 5-50 5-52 0-97-13-135-38 11 1 19 1 25 1 31 0 60-4 88-13 29-8 54-20 76-36 24-18 42-38 55-61 12-23 19-47 19-73 0-14-2-29-7-43 25 14 44 30 59 51 14 20 21 42 21 66z"/>
    </symbol>
  
    <symbol id="icon-user-md" viewBox="0 0 512 512">
      <path d="m165 384c0 5-2 9-6 13-3 3-8 5-13 5-5 0-9-2-13-5-3-4-5-8-5-13 0-5 2-9 5-13 4-3 8-5 13-5 5 0 10 2 13 5 4 4 6 8 6 13z m292 17c0 23-7 42-21 55-14 13-32 19-55 19l-250 0c-23 0-41-6-55-19-14-13-21-32-21-55 0-13 0-25 1-37 1-12 4-25 7-39 4-15 8-27 14-38 5-11 13-21 23-30 10-8 21-14 34-17-4 10-6 21-6 34l0 58c-11 4-20 11-27 20-6 10-10 20-10 32 0 15 6 28 16 39 11 11 24 16 39 16 16 0 28-5 39-16 11-11 16-24 16-39 0-12-3-22-10-32-7-9-16-16-26-20l0-58c0-12 2-20 7-26 25 20 53 29 84 29 31 0 59-9 84-29 5 6 7 14 7 26l0 19c-20 0-37 7-51 21-15 14-22 32-22 52l0 25c-6 6-9 12-9 20 0 8 3 15 8 20 5 5 12 8 20 8 7 0 14-3 19-8 5-5 8-12 8-20 0-8-3-14-9-20l0-25c0-10 3-19 11-26 7-7 16-11 25-11 10 0 19 4 26 11 7 7 11 16 11 26l0 25c-6 6-9 12-9 20 0 8 3 15 8 20 5 5 12 8 19 8 8 0 14-3 20-8 5-5 8-12 8-20 0-8-3-14-9-20l0-25c0-13-4-25-10-37-7-11-16-20-27-26 0-2 0-6 0-13 0-6 0-10 0-13 0-3 0-7-1-12 0-5-1-10-2-14-1-4-2-7-4-11 13 3 25 9 35 17 10 9 17 19 23 30 5 11 10 23 13 38 4 14 6 27 7 39 1 12 2 24 2 37z m-91-255c0 31-11 56-32 78-22 21-48 32-78 32-30 0-56-11-78-32-21-22-32-47-32-78 0-30 11-56 32-77 22-22 48-32 78-32 30 0 56 10 78 32 21 21 32 47 32 77z"/>
    </symbol>
  
    <symbol id="icon-helmet" viewBox="0 0 512 512">
      <path d="m311 76c-148-10-178 98-184 130-1 5 2 12 4 15 26 29 64 20 83 52l33-7 1 0 0 0c2 0 3 0 5 0 13 0 24 9 27 22 1 7 0 15-4 21-4 6-9 10-16 11l-2 1-33 7c0 12-2 22-3 28-4 27 30 31 67 39 37 8 46-14 68-30 17-12 47-14 65-18 12-2 17-8 19-10 56-75 36-249-130-261z m35 36c-11-2-21-3-32-3-49 0-92 24-123 69l-1 1c-3 4-8 11-14 15-5 2-19 5-25-7-2-6-1-14 1-19 17-38 56-79 138-79 6 0 12 0 19 1 49 3 89 23 114 56-17-15-42-27-77-34z m-79 179c-2-8-10-13-17-11l-1 0-66 13c-3 0-4 2-3 4l4 21c0 2 2 4 4 3l67-13c8-2 14-9 12-17z m-14 10c-4 0-8-3-8-7 0-4 4-7 8-7 4 0 7 3 7 7 0 4-3 7-7 7z m-55 32c-1 1-3 1-4 2-10 6-20 10-30 13-8 2-14 3-19 4 0-13 0-27 1-40 0-21 1-39 1-49l7 2c5 2 10 4 15 6 5 3 10 6 14 8 0 1 0 1 0 1l15-3c0 0-1-1-1-2-2-2-4-4-6-6l0 0c-6-5-13-9-23-13-3-1-6-2-10-3 0 0-6-3-6-3-22-8-34-19-40-28-1-1-4-2-6-2-1 0-3 0-4 1-1 1-3 3-3 4 0 2 0 4 2 6 5 7 15 18 32 26l0 2c0 12 0 38-1 65 0 9 0 19-1 27-18-2-35-9-46-14-8-4-15-7-19-9-2-1-4-2-5-3l-2-1c-1-1-2-1-3-1-3 0-5 1-6 3-1 1-1 3-1 5 1 2 2 3 3 4 1 1 4 2 9 5-3 8-6 16-8 25-1-1-3-1-4-1-2 0-4 1-6 4-1 1-1 3 0 5 0 2 1 3 3 4 0 0 2 1 4 2-2 11-3 23-3 36 0 9 1 17 1 22-2 0-3 0-4 0l-1 0 0 2-1-2 0 0c-4 0-7 2-7 6 0 2 1 4 2 5 1 1 3 2 5 2 0 0 2 0 7 0 11 0 29-1 47-7 10-3 19-7 27-13 7-6 13-13 17-21l0 0c25-1 46-10 58-17 3-1 6-3 6-6 3-13 6-31 7-47 0-3-5-11-13-6z m-83 86c-9 6-21 12-35 14-6 1-12 2-18 3 0-5-1-13-1-22 0-10 1-20 2-28 4 2 9 4 14 6 10 5 20 9 29 11 7 2 13 4 19 4-2 4-6 8-10 12z m14-25c-6 0-12-2-19-4-15-4-30-11-40-15-1-1-3-2-5-3 2-10 5-18 8-26 2 1 4 2 6 3 19 8 36 13 52 16-1 11-1 21-2 29z m63-15c-9 5-27 14-49 15 0-8 1-17 1-29 6 0 14-1 24-4 10-3 19-7 28-12-1 12-3 22-4 30z"/>
    </symbol>
  
    <symbol id="icon-trophy-1" viewBox="0 0 512 512">
      <path d="m347 415c0 6-5 11-11 11l-157 0c-6 0-11-5-11-11l0-44c0-6 5-11 11-11l157 0c6 0 11 5 11 11z m91-303c-2-3-6-4-9-4l-69 0c0-14 0-22 0-22l-204 0c0 8 0 15 0 22l-69 0c-4 0-8 1-10 4-2 3-3 7-2 11 0 2 36 128 157 147 2 8 2 57-19 63l47 0 0-1 42 0c-19-6-21-53-19-62 1 0 2 0 3-1 118-21 154-145 154-146 2-4 1-7-2-11z m-335 20l54 0c5 47 17 78 31 99-50-26-75-74-85-99z m86-21l31-2c-8 57 26 137 26 137-60-40-57-135-57-135z m146 115c15-29 21-65 23-94l53 0c-10 23-32 67-76 94z"/>
    </symbol>
  
    <symbol id="icon-whistle" viewBox="0 0 512 512">
      <path d="m456 289l-141-147c0 0-10-10-10-10-15-13-43-31-83-28-23 1-45 4-71 20-5 3-66 38-90 102-10 20-15 50 3 89 0 0 49 81 107 66 0 0 22-9 35-14 0 0 41-16 67-1l46 48c8 8 18 13 29 12 9-1 18-4 25-11l82-72c15-14 16-39 1-54z m-25 29l-82 72c-1 1-2 1-2 1 0 0-1 0-2-1l-162-167c0 0-22-22-47-33 28-33 56-51 85-53 40-3 69 28 69 28l141 148c1 2 1 4 0 5z m-171-48l-19-22 54-46 19 22z"/>
    </symbol>
  
    <symbol id="icon-submit" viewBox="0 0 512 512">
      <path d="m288 73l-73-45c-5-3-11-4-17-1-6 1-11 6-13 12l-30 79c-3 8-1 16 4 22 4 4 9 6 15 6 2 0 5 0 7-1l30-10c0 1 0 2 1 3 3 9 92 219-124 319-11 6-16 19-11 30 4 8 12 13 20 13 4 0 7-1 9-2 256-119 148-375 147-378l31-10c8-3 13-9 14-18 1-7-3-15-10-19z m-154 200l31-31c9-9 9-23 0-32-8-9-23-9-31 0l-32 32-31-32c-8-9-23-9-31 0-9 9-9 23 0 31l31 32-31 31c-9 9-9 23 0 31 4 5 10 7 16 7 5 0 11-2 15-7l32-31 31 31c4 5 10 7 16 7 5 0 11-2 16-7 9-8 9-23 0-31z m258 148l31-31c9-9 9-23 0-32-9-8-23-8-31 0l-31 32-32-32c-9-8-23-8-31 0-9 9-9 23 0 32l31 31-31 31c-9 9-9 23 0 32 4 4 10 6 16 6 5 0 11-2 16-6l31-32 31 32c5 4 10 6 16 6 6 0 12-2 16-6 9-9 9-23 0-32z m18-106c-44 0-80-36-80-80 0-44 36-80 80-80 45 0 80 36 80 80 0 45-35 80-80 80z m0-118c-21 0-38 17-38 38 0 21 17 39 38 39 21 0 39-18 39-39 0-21-18-38-39-38z"/>
    </symbol>
  
    <symbol id="icon-scoreboard" viewBox="0 0 512 512">
      <path d="m448 97c18 0 32 14 32 32l0 269c0 17-14 32-32 32l-379 0c-19 0-33-14-33-32l0-269c0-17 14-32 33-32z m0-23l-379 0c-31 0-56 25-56 55l0 269c0 30 25 55 56 55l379 0c30 0 55-25 55-55l0-269c0-30-25-55-55-55z m-13 49c9 0 16 7 16 16l0 249c0 9-7 16-16 16l-354 0c-8 0-15-7-15-16l0-249c0-9 7-16 15-16z m0-7l-354 0c-13 0-23 10-23 23l0 249c0 13 10 23 23 23l354 0c13 0 24-10 24-23l0-249c0-13-11-23-24-23z m-312 162c-2 1-4 2-6 2-2 0-4 1-6 1-4 0-8-2-10-5-3-3-4-7-4-13 0-6 1-10 4-13 2-3 6-5 11-5 1 0 3 1 5 1 1 0 3 1 5 2l0 7c-2-1-3-2-5-2-1-1-3-1-4-1-3 0-5 1-7 3-1 2-2 5-2 8 0 4 1 6 2 8 2 2 4 3 7 3 0 0 1 0 2 0 1 0 1 0 1 0l0-7-4 0 0-5 11 0 0 16z m4-31l7 0 0 20c0 3 0 5 1 6 1 1 2 2 3 2 2 0 3-1 4-2 1-1 1-3 1-6l0-20 7 0 0 20c0 5-1 9-3 11-2 2-4 3-9 3-4 0-6-1-8-3-2-2-3-6-3-11z m28 0l18 0 0 6-11 0 0 7 11 0 0 6-11 0 0 8 12 0 0 6-19 0z m42 1l0 7c-1-1-3-2-4-2-2 0-3-1-4-1-2 0-3 1-4 1-1 1-1 2-1 3 0 0 0 1 1 2 0 0 1 1 2 1l3 1c3 0 6 2 7 3 1 1 2 4 2 7 0 3-1 6-3 8-2 2-4 3-8 3-2 0-3 0-5-1-2 0-4-1-5-2l0-7c1 1 3 2 5 3 1 0 3 0 4 0 2 0 3 0 4-1 1 0 1-1 1-2 0-1 0-2-1-3-1-1-1-1-3-1l-3-1c-2-1-5-2-6-3-1-2-1-4-1-7 0-3 0-6 2-7 2-2 5-3 7-3 2 0 3 0 5 0 2 1 3 1 5 2z m3-1l24 0 0 6-9 0 0 27-7 0 0-27-8 0z m105 0l7 0 0 13 10 0 0-13 7 0 0 33-7 0 0-14-10 0 0 14-7 0z m41-1c5 0 8 2 11 5 2 3 3 7 3 13 0 5-1 9-3 13-3 3-6 4-11 4-4 0-7-1-10-4-3-3-4-8-4-13 0-6 1-10 4-13 3-3 6-5 10-5z m0 6c-2 0-3 1-5 3-1 2-1 5-1 8 0 4 0 7 1 8 2 2 3 3 5 3 2 0 4-1 5-3 1-1 2-4 2-8 0-3-1-6-2-8-1-2-3-3-5-3z m18-5l8 0 7 18 6-18 8 0 0 33-6 0 0-24-6 18-5 0-6-18 0 24-6 0z m34 0l19 0 0 6-12 0 0 7 12 0 0 6-12 0 0 8 13 0 0 6-20 0z m-198-64c0 9-2 15-6 20-3 5-9 7-16 7-7 0-12-2-16-7-4-5-6-11-6-20 0-9 2-16 6-21 4-5 9-7 16-7 7 0 13 2 16 7 4 5 6 12 6 21z m-14-1c0-6 0-11-1-14-2-2-4-4-7-4-3 0-5 2-6 4-1 3-2 8-2 14 0 7 1 12 2 15 1 2 3 4 6 4 3 0 5-2 7-4 1-3 1-8 1-15z m33-1c-4-1-6-3-8-5-1-1-2-4-2-7 0-5 2-8 5-11 3-2 8-3 15-3 6 0 11 1 14 3 4 3 6 6 6 11 0 3-1 5-3 7-1 2-4 4-7 5 3 1 6 2 8 5 2 2 2 5 2 8 0 5-1 9-5 12-3 2-9 4-15 4-7 0-12-2-16-4-4-3-5-7-5-12 0-3 0-6 3-8 2-3 4-4 8-5z m10 4c-2 0-4 1-6 2-1 2-2 4-2 6 0 3 1 5 2 6 2 2 4 2 6 2 3 0 5 0 6-2 1-1 2-3 2-6 0-2-1-4-2-6-1-1-3-2-6-2z m-7-15c0 2 1 4 2 5 1 1 3 2 5 2 2 0 4-1 5-2 1-1 2-3 2-5 0-2-1-4-2-5-1-1-3-1-5-1-2 0-4 0-5 1-1 1-2 3-2 5z m41-1l13 0 0 14-13 0z m0 26l13 0 0 14-13 0z m55-15c3 2 6 3 8 5 1 2 3 5 3 9 0 5-2 9-6 12-4 3-10 4-18 4-3 0-6 0-8 0-3-1-6-2-8-2l0-11c2 1 5 2 8 3 2 1 5 1 7 1 4 0 6-1 8-2 2-1 3-3 3-5 0-3-1-5-3-6-1-1-4-2-8-2l-6 0 0-8 6 0c3 0 6-1 8-2 1-1 2-3 2-5 0-2-1-3-2-5-2-1-4-1-7-1-3 0-5 0-7 0-2 1-4 1-7 3l0-10c3-1 6-2 8-2 3-1 6-1 8-1 7 0 12 1 16 3 3 3 5 6 5 11 0 3-1 5-3 7-2 2-4 4-7 4z m24-24l34 0 0 10-23 0 0 8c1-1 2-1 4-1 1 0 2 0 3 0 7 0 11 1 15 5 4 3 6 7 6 13 0 6-2 10-6 14-4 3-10 5-17 5-3 0-5-1-8-1-3-1-6-2-9-3l0-10c3 1 5 3 8 3 2 1 5 1 7 1 4 0 6 0 8-2 2-2 3-4 3-7 0-3-1-5-3-6-2-2-4-3-8-3-2 0-4 0-6 1-2 0-5 1-7 2l0-29z m-220 203l33 0 0 14-54 0 0-14 27-23c2-3 4-5 5-7 1-2 2-4 2-6 0-3-1-6-3-8-3-2-6-3-10-3-3 0-6 0-9 1-4 2-8 3-11 6l0-16c4-2 8-3 12-4 4 0 8-1 12-1 9 0 16 2 21 6 4 4 7 9 7 16 0 5-1 8-3 12-2 3-6 8-13 14z m53 1l17 0 0-47-17 3 0-12 17-4 18 0 0 60 16 0 0 13-51 0z m129 0l17 0 0-47-17 3 0-12 17-4 18 0 0 60 16 0 0 13-51 0z m79-26c-4-1-7-3-9-6-3-3-4-6-4-10 0-7 2-12 7-14 5-4 12-5 20-5 9 0 16 1 21 5 4 3 7 8 7 14 0 4-1 7-4 10-2 3-5 5-10 6 5 2 9 4 12 7 2 3 4 7 4 12 0 7-3 12-8 16-5 4-12 6-21 6-10 0-17-2-22-6-4-4-7-9-7-16 0-5 1-9 4-12 2-3 6-5 10-7z m14 6c-4 0-6 1-8 3-2 2-3 5-3 8 0 4 1 7 3 9 2 1 4 2 8 2 3 0 6-1 8-2 2-2 3-5 3-9 0-3-1-6-3-8-2-2-4-3-8-3z m-9-21c0 3 1 6 2 7 2 1 4 2 7 2 3 0 6-1 7-2 2-1 3-4 3-7 0-3-1-5-3-6-1-2-4-2-7-2-3 0-5 0-7 2-1 1-2 3-2 6z"/>
    </symbol>
  
    <symbol id="icon-numberone" viewBox="0 0 512 512">
      <path d="m332 39c19 0 33 6 44 17 15 15 16 36 16 45l0 1c0 5 0 116 0 174 0 8 1 18 4 27 1 2 3 7 4 10 4 8 6 12 6 15 2 14 0 31-6 45l-28 63c-9 21-34 37-57 37l-118 0c-24 0-48-17-56-40l-37-113c-8-24 4-52 27-62l100-44c11-5 23-8 34-8l1 0c1 0 2 0 3 0l1 0c0-2 0-3 0-4l0-68c0-16 0-29 0-31l0-4c1-27 18-60 62-60z m0-19c-54 0-80 39-82 78l0 6c0 2 0 14 0 30l0 53c-9 2-18 5-27 9l-100 44c-32 14-49 52-38 86l37 114c11 30 43 54 75 54l118 0c31 0 63-21 76-50l27-63c8-17 11-39 7-56-1-6-3-12-7-20 0-1-3-6-3-8-2-7-4-15-4-21 0-67 0-167 0-173l0-2c1-11-1-39-21-60-14-14-34-21-58-21z m-43 227c4 0 7-2 9-4 2-2 3-5 3-8l0-113c0-5 0-10 0-13 0-2 0-3 0-4 0-1 0-1 0-1l0-1c0 0 0 0 0-1 0 0 0 0 0-1 1-7 3-15 7-20 2-3 5-5 9-7 4-2 9-3 15-3 5 0 9 1 13 2 3 1 6 3 8 5 3 3 5 7 6 12 1 4 1 7 1 10l0 1c0 0 0 0 0 1 0 0 0 1 0 1l0 1c0 2 0 9 0 18l0 169c0 3 1 7 1 10l7 4c-1-5-2-10-2-14l0-169c0-5 0-10 0-13 0-2 0-3 0-4 0-1 0-1 0-1l0-1c0 0 0-1 0-1 0 0 0 0 0-1 0 0 0-1 0-1 0-3-1-7-2-12-1-5-3-10-7-14-3-3-7-5-11-7-4-1-9-2-14-2-7 0-13 1-18 4-7 2-12 8-15 14-2 5-4 12-4 18 0 1 0 1 0 1l0 1c0 0 0 1 0 2 0 3 0 9 0 17l0 113c0 1-1 3-2 4-1 1-2 2-4 2-1 0-3 0-4-1 2 2 3 5 4 7z m-55 195l-40 0c-4 0-9-2-13-5-4-3-8-7-9-11l-15-47c-2 0-5-1-7-3l17 52c2 6 6 10 11 14 4 4 10 6 16 6l40 0z m139-124l-8-5-55-32c-1 0-7-4-15-4-2 0-4 0-6 1-2 0-4 0-6 2l0 0c-1 0-2 0-2 1l0 0c-1 0-2 1-3 2-4 2-8 5-15 9-4 2-10 6-17 9l-1 0c-1 0-2 1-3 1l-7 3c-2 1-4 2-6 3-2 1-4 2-7 3-2 0-3 1-5 2-1 2-2 4-2 6 0 2 0 3 1 5 2 5 5 12 11 17 2 1 4 3 6 4 1 0 7 3 12 5 3 0 6 1 10 1 10 0 23-4 40-11l0 0c2 2 3 4 5 6 3 4 6 7 9 9-7 1-19 4-31 10-10 5-19 12-27 22-7 10-12 24-12 41 0 2 0 7 1 11l1 9 77 0c5 0 11-2 16-6 6-3 10-8 12-13l32-71c1-4 2-9 2-14 0-7-2-15-5-21 0-1-1-3-2-5z m1 38l-32 71c-2 4-5 8-10 11-4 3-9 4-14 4l-71 0c0-4-1-11-1-14 0-16 4-28 11-38 10-14 25-21 37-25 7-3 12-4 17-4 2-1 3-1 4-1 1 0 1 0 1 0l1 0 7 0-6-5c0 0 0-1 0-1-2-1-6-5-10-9-2-2-4-4-6-6-1-1-1-2-2-3 0 0-1-1-1-2l0-2-3 1c-17 8-30 12-40 12-11 0-19-4-24-8-5-5-8-11-10-15-1-2-1-2-1-3 0 0 0-1 1-1 0 0 1-1 3-2 19-7 32-14 41-19 10-5 15-9 19-11 3-2 7-3 10-3 4 0 7 1 9 2 1 0 2 0 2 1l1 0 62 37c1 1 2 2 2 4 3 4 5 11 5 17 0 4-1 9-2 12z m-231 0c0 0 0 1 0 1l2 7c3 2 8 6 13 8 3 1 6 2 8 2 3 0 5-1 8-2l7-2c8-2 14-9 16-17 5 7 13 11 21 11 2 0 5-1 7-2l7-2c4-1 7-3 9-5-2-1-4-1-6-2-2 0-3 1-5 2l-7 2c-2 1-3 1-6 1-8 0-16-6-18-14l-17-55c-1-2-1-4-1-6 0-8 5-16 14-19l7-2c2 0 4 0 6 0 8 0 16 5 19 14l6 22 6-3-8-29c-1-2-1-4-1-6 0-9 5-17 14-19l7-2c2-1 4-1 6-1 8 0 16 5 19 14l6 21c2 0 3-1 6-2l-7-21c-1-1-1-3-3-5-6-11-21-13-21-13l0 0c-3 0-5 1-8 2l-7 2c-11 3-18 13-18 24 0 1 0 2 0 2-4-4-10-6-16-6-3 0-5 0-8 1l-7 2c-10 4-17 13-18 24-4-4-10-6-16-6-2 0-4 0-7 1l-7 2c-10 3-18 13-18 24 0 2 1 7 1 7l14 42z m-10-52c0-9 5-17 14-20l7-2c2-1 4-1 6-1 6 0 13 4 17 9l0 1 17 54c0 1 0 1 0 1 0 9-5 17-14 19l-7 3c-2 0-4 0-6 0-6 0-12-3-16-7l-17-53c-1 1-1-3-1-4z"/>
    </symbol>
  
    <symbol id="icon-chalkboard" viewBox="0 0 512 512">
      <path d="m452 70l-385 0c-31 0-56 25-56 56l0 273c0 31 25 56 56 56l385 0c31 0 56-25 56-56l0-273c0-31-25-56-56-56z m33 329c0 18-15 32-33 32l-385 0c-18 0-32-14-32-32l0-273c0-18 14-33 32-33l385 0c18 0 33 15 33 33z m-130-76c-1 0-1 0-2-1l0 0c-2 0-3-1-5-2l0 0 0-1 1 0-1 0 0 0c0 0-1-1-1-1 0 0 0-1 0-1 0 0 0 0-1 0 0 0-1 0-2 0l0 0 0 0-1 0c0 1-1 1-1 1l-1-1 0 0c0 0-1 1-1 1l-1-1 0-1 1-1 0 0 0-1 0-1 1 0c0 0 0-1 0-1l2 1 0 0 1 1 0 0c1 0 2 0 2 0 0 0 1 0 1 0l0-1 0 1-1-1-1-1c1-1 1-1 2-1 0 0 0 0 0 0l0 0 1 0c0 0 1 0 1 0l0 0 1 0c0 0 0 0 0 0l-1 0 0-1c0 0-1 0-1 0l0-1 0 0c0 0 0 0-1 0l-1-1c-2 1-3 2-5 3l0 0 0 0c-1 0-2 0-2 1l-2-1c0 0 0 0 0 0-1 0-1 1-2 1l0 0-1-1c0 0-1 1-2 1 0 0 0 0 0 0-1 1-1 2-2 3l0 0-1 1c0 0 0 0-1 0-1 0-1 0-1 0l0 1-2 1c0 1-1 2-2 2l1 1c1-1 1-2 2-3 1 0 2-1 3-1l1 0c0 0 0 0 0 0l2-1c0 0 1 0 1 0l1 1 0-1 2-1 0 1 1 0 0 0 0 1 0 1-1 1c0 0 0 0-1-1l0 0c0 0 0-1 0-1l-1 0c0 1 1 1 1 1 0 0 0 1-1 1l0 0c-1 1-3 2-4 3l-1 0 1 0-1 1-1 0c0 0 0 0-1 0l0 0 0 1-1 0 1 1c-3 1-5 4-7 6l0-1 0 1 1 0c-1 0-1 1-1 1l0 1-1 0c0 0 0 0 0 1l0 1 0 0-1 0 0 0 0 1 0 0 0 1c0 0 0 0 0 0l1 0c0 0 0 1 0 1 0 1 0 1 0 1 0 0 0 0 0 1 0 0 0 0 0 0 0 0 0 1 0 1 0 0 0 1-1 1l0 0c0 0 0 0 0 0l1 2 0 2 1 0 0 0 1 0 1 0 0 1 0 1c0 0 0 0 0 0 1 0 1 0 1 0l1 1 0 1 0 0 1 0 0 1 0 1c0 0 0 1 0 1 0 0 0-1 1-1 0-1 1-1 1-1 1 0 2 1 2 2 1 0 1 0 1 0 1 0 1 0 2 0l0 0 1 0 0 0 1 0c1 0 1 0 1 0 1 0 1 0 1 0l0 0 1 1 0 0 0 0c0 0 1-1 1-1l1 1 0-1c1 0 1-1 2-1 1 0 1 0 2 0l0 1 0-1c0 0 1 1 1 1l0-1 0-1 0 0 0 0c1-1 2-1 2-1 1 0 1 0 1 0l2 0 0 0c0-1 0-2 0-2l0 0 1-1 0 0 1-1 0 1 1-2 1 1 1 1 0 0c0 0 0-1 0-1 0 0 0 0 1-1-1-1-1-1-1-1l0 0c0 0-1 0-1-1l1-2 0 0c0 0 0-1 0-1 0 0 0-1 0-1l0-1c0-1 0-1 0-1l1-1-1 0-1-1 0-1 1 0-1 0c0 0 0-1 0-1 0 0 0-1 0-1l1 0 0 0 0-2-1 0c0 0-1 0-1-1 0 0 1-1 1-1 0 0 0 0 0 0l0-1 0-1 0 0 1-1 0 0c0-1 0-2 0-3z m84-210l-359 0c-13 0-24 10-24 23l0 253c0 13 11 24 24 24l359 0c13 0 24-11 24-24l0-253c0-13-11-23-24-23z m-210 128l0 1 0 0-1 1 0 0 0 1-2 0c0 0 0 0-1 0 0 0 0 0 0 0l-1 0 0 1 0 0 0 1 0 0c0 0-1 1-1 1l-1-1 0 1c0 0 0 0-1 0l-1 0c0 1 0 1 0 1l0 0c0 1 0 1 0 1l1 0 0 0 0-1 0 0 0 0 1-1c0 0 1 1 1 1l1 0 0 1c1 0 1 0 1 0 0 1 0 1 0 1l0 2 0 0c0 0-1 1-1 1l0 1 0 0-2 0c0 0 0 0 0 0l-1 0c0 0 0 1 0 1l0 0 0 2-1 0 0 0c0 0-1 0-1 0 0 0 0 1 0 1l-1 0 0 1 0 0c-1 0-1 0-1 0l0 0 0 0-1 1-1 0 0-1 0 0 0 0-1 0c0 0 0 1-1 1 0 0 0 0 0-1l-1 1-1-1 0-1 1-1 0 0-1-1 0 0 1 0 0-1c0 0-1 0-1 0 0 1 0 1 0 1 0 0-1 1-1 1-2 1-2 1-2 1l0 0-1 0c0 0 0 0 0 0l-1 1c0 0 0 0 0 0l0 0-2 1c0 0 0 0 0 0l-2-1c0 0 0 0 0 1 0 0-1 0-1 0-1 0-1 0-1 0l0 0c0 0-1 0-1 0 0 0 0 0-1 0 0 0 0 0-1 0l1 2-1 0 1 0 0 0-1 1 0 0 1 1 1 4-1 0 1 0 0 0 0 1 0 0 0 0 1 2-1 0 0 0 0 1c1 0 1 0 1 1 0 0 0 0 0 0 0 0 0 1 0 1 0 0 0 1 0 1 0 0 0 1 0 1l-1-1 0 0-1 2 0 0 0 0 0 0 0 1 1 0 0 0 0 1 0 1 0 1c0 0 0 0 0 1l-1 0 0 1 0 0c0 0 0 0 0 0 1 0 1 0 1 1 0 0-1 1-1 1l0 0c0 0 0 1 0 1l-1 1c0 0 1 0 1 0 0 1-1 1-1 1l0 0 0 0 0 1c0 0 0 0 0 0l0 1c0 0 0 0 0 1l0 1-1 1 1 1c0 0 0 0 0 0 0 1-1 1-1 1l0 1 0 0 0 0 0-1 0 1-1 0 1 1 0 0c0 1 0 1 0 1l-2 0 0 0 0 0 0 0 0 1-1 0c0 0 0 0 0 0l0 2 1 1c0 0-1 0-1 0 0 0 0 0 0 0l0 1 1 0c0 0 1 0 2 1 0 0 0 0 1 1l-1 1c1 0 1 1 2 2l-1 1c-1 0-2 0-3 0 0 0 0 0 0 0l-1 0 0 1c0 0 0 1 0 1l0 1-1 0c0 0 0 0-1-1l0 0 0 1-1 0-1 1-2 0-1 1c-1 0-1 0-1-1l0 0-1 0-1-1 0-2c0 1 0 1-1 1l0 0-1-1c-1 1-2 1-3 1l0-1-1 0c-1 0-1 0-1 0 0 0 0 0-1 0-1 2-2 3-3 3l0 0 0 1c-1 1-2 1-2 1l-2 0c0 1 0 1-1 1l-1 0c0 0 0 0 0 0 0 0-1 0-1 0 0 1 0 2 0 2 0 1 0 1 0 1l0 1c0 0 0 1-1 1l0 0c-1 0-1 1-1 1l-1 1c0 0 0 0 0 0 0 1 0 2-1 2l1 0 0 0c0-1 0-2 1-2 0-1 1-1 1-2l1 0c0-1 0-1 0-1l1 0c0 0 0 0 0 0l2 0 0 0 1-1 1 1 1 0 0 0 0 1 0 1c0 1 0 1-1 1 0 0 0 0-1 0 0 0 0 0 0 0l0 0-1 2c0 0 0 1 0 1l-1 1-1 0 0 0 1 1c-1 2-1 4-1 6l-1 0 1 0 0 0 0 1 0 1 0 0 0 0 0 1 1 1 0 1 0 0-1 0 0 1 0 0 0 1 1 0c1 0 1 0 1 0l1 1 0 0 0 1c0 0 0 0 0 0l1 1c0 1-1 2-1 2 1 0 1 0 1 0l1 2 0 1 1-1 0 0 1 1 0 0c0 0 0 0 1 0 1 0 1 1 1 1l0 0 0 0 1 0 0 1c0 0 0-1 1-1 0 0 1 0 1 0 1 0 1 0 1 0 1 0 1 0 1 0 1 0 1 0 2 0l1 0 0 0c0 0 1-1 1-1l1 1c0-1 1-1 1-1l1 0 0 1 1 0c0 0 0 0 1-1l0 0 1 1 0-1c0-1 0-1 1-1 0-1 1-1 1-1l1 0 0 0 1 0c0 0 0 0 1 0l-1 0 1-1 0 0 0-1c1 0 1 0 2 0 0 0 1-1 1-1l2 0 0 0c0 0 0-1 0-1l0-2 1 0 0 0 0 0 0 0 0 0 0 1 1-1c0 0 1 0 1 0l0 1 1-1c-1-1-1-1-1-1l0 0c0 0 0 0-1 0l1-2c0 0 0 0 0 0 0-1 0-1 0-1l0 0 0 0-1-1c0 0 1-1 1-1-1 0-1-1-1-1l0 0 1-1c0 0-1 0-1-1l1 0 0-1-1 0c0 0 0-1 0-1 0 0 0-1 0-1l0-1 0-1 1 0c0-1 0-1 0-2l0 0c0 0 0 0-1 0l-1 0 0-1c0 0-1 0-2 0 0 0-1 0-1 0l-1-1 0 0c0-1 0-1 0-1l0 0 0 0c0 0-1 0-1 0-1 0-1-1-1-1l0-1-1 0 0-1 0 0-1 0-1-2 1-1 1 0 0-1c0 0 1 0 2 0l0 0 1 0 1 1 0 0 2 1c0 0 0 0 0 1 0 0 0 0 1 0l1 0 1 1 0 0 0-1 1 0 0 0 0-1 2 1c0 0 0 0 0 0 0 0 1 0 1 0l0 1c0 0 1 0 1 0 1 0 2 0 2 1 0 0 0 0 0 1 1 0 1 1 1 1l0 0 0 0c0 0 0 0 1 0 0 0 0 0 0 0l0-1 1-1 0 0c-1 0-1 0-1-1-1 0-1 0-2-1l0 0 0 0-1-1c0 0-1-1-1-1l0 1 0 0c0 0-1-1-1-1l-1-1c0 0 0-1-1-1l0-1c0 0 0-1 0-1-1 0-1-1-1-1l1-2 1 0c0 0 1 0 1 0 1 0 1 0 1 0l1 0 1 0 1 1-1 1c1 0 1 1 2 1 1 0 1 1 2 1l0 0 0 0 0 0 1 0 1 1c0 0 0 0 0 1l1-1c1 0 1 1 2 2l0 0-1 1c1 0 1 0 1 1 0 0 1 0 1 0 0 0 0 0 1 0 0 0 0 1 0 1 0 0 0 1 0 1l-1 0c0 0 1 0 1 0 0 0 1 0 1 0l1 0 1 2 1 1-1 0 1 0c0 1 0 2 0 2l1 1 1 1-1 0 0 0c-1 0-1 0-1 0l-1-1c0 0 0 0 0 0 0 0 0 0 0 0l0 1c0 0 0 0 1 0 0 0 0 0 1 0l0 0c0 0 1 0 1 0 0 0 0 0 0 1l1 1c0 0 0 1 0 1l-1 1 0 0 0 1 0 0 0 1c0 1 1 1 1 2l0 2-1 0c0 0 0 1 0 2 0 0 0 1 0 1l0 1 0 1-2 1 0 0-2 0-1 0c0 1 0 3-1 5 0 0 1 1 1 2 0 1-1 2-1 3-1 1-1 2-1 2l-2 1c0 0 0 0 0 1l0 0-1 0c0 1 1 1 1 1 0 1-1 2-1 2l-1-1 0 1c-1 0-1 0-1 1l0 1-1 0c0 1 0 1-1 1 0 0-1-1-2-1 0 0 0 0 0 0 0 0 0 0 0 0 0 0 0 1 0 1l1 0 1 1 0 1-2 0c0 0 0 0 0 0l-1 1-1 0c0 0-1 0-1 0 0 1 0 1 0 1 0 1 0 1 0 2-1 0-1 0-2 0l-1 0 0 0c-1 1-3 2-4 3-1 0-1 1-2 1l0 0-1-1 0-1 0 0c-1 0-1 0-1 0l0 0c1 1 1 1 1 1l-1 1-1 0 0 0-1-1-1 0c0 0 0 1 0 2-1 0-2 1-3 1l-1 0c0 0-1 0-2 0l0 0-1 0-1 0c0 0-1 1-3 1l0 0 0-1c-1 0-1 0-2 0 0 0 0 0 0 0l0 0c-1 1-1 1-2 1 0 0-1 0-1 0-1 0-2 1-3 1l-1-1 0 1-1-1c0 0 0 0 0 0 0 0 0 0-1 0 0 0 0 0-1 0l-1 0 0 0c-1 0-1 0-1 0l-1 0 0-1 0 0-1 0 0 0 0 0 0 0-2 0c0 0 0 0-1-1 0 0 0 0 0 0-1 0-1 0-2-1l0 1-1-1-1 0-1-1c0 0 0 0 0 0l-1 1 0 0c0 0-1 0-1 0l-1-1c0 0 0-1 0-1l-1 0 0 0c0 0 0 0-1 0l0 0 0-2c0 0 0-1 1-1 0 0 0 0 0 0 0 0 0 0 0 0 0 0-1 0-1 0l0-1c0 0-1 0-1 0l0 0c-1 1-1 1-2 1-1 0-1 0-2 0l-2-1-1 0c-1-1-2-2-2-3-1-2-1-2-2-3l0-1c-1 0-1-2-1-2-1-1-1-2-2-3l0 0c0 0-1-1-1-1 0-1 0-1 1-1l0-2 1 0c0 0 0 0 1 0l0 0c0 0 0 0 0 0-1-1-4-2-5-3-1 0-2-1-2-2 0 0 0-1 0-2l0 0c0-1 0-1 0-2l1-1-1-1c0-1 0-1 0-3 0-1 0-1 0-2l0-1c0 0 0 0 0 0 0-1 0-1-1-2l1 0 0-1c0-1 0-1 0-1l0-1 0 0 0-1 1 0-2-1 1-1 0 0 0-1c0 0 0-1 0-1 0 0 0 0 0 0l1 0c0 0 0 0 0 0 1-1 1-1 1-1 0 0 0 0 0 0 0-1 0-1 0-1 0-2 0-2 0-3 1 0 1 0 1-1l1 0c0 1 2 1 2 1 1 0 2 1 3 2l0 0c0 1 0 1 0 2 0 1 0 2 0 3-1 0-1 1-1 1l-2 0c0 0 0 0-1-1 0 0 0-1-1-1 0 0 0 0 0 1l0 1-1 0 0 0c0 1 1 2 1 3l0 0c0 0 0 1 0 2l0 0 0-1c0 0 0 0 0 0l2-1 0 0c0 0 0-1 0-1l0 0 1-2c1 0 1 1 2 1 0 1 0 1 0 2 0 1 0 2 0 3 0 0 0 0 0 0l0 2c0 0 0 1 1 1 0 0 0 1 0 1 0 1 0 2 0 2 0 0 0 0 0-1l1 0c0 0-1 0-1 0l0-1c0 0 0-1 0-1 0-2 0-3 0-4l0 0 0-1-1 0 0-1c0 0 0-1 1-2 0 0 0-1 1-1l0 0c0-1 1-1 1-1 1 0 1 0 1 0l0-1 0-1 1 0-1 0c1-1 1-1 1-1l1-1 0 0 1 0 0-2 0 0c0 0 0-1 0-1l0-1 1 0-1-1 1-1 1-1c0 0 0 0 0-1l0-1 2 0 1 1 1 0 1-2 0 0c0 0 0 0 0 0l0 0c0-1 0-1 0-1 0-2 0-2 1-3l1 0c0 0 1 0 1 0 1 0 1-1 1-1 1 0 1 0 1 1 1-1 2-2 3-2 1-1 2-2 3-2l1-1 0 0c0 0 1 0 1 1 0 0 1-1 1-1l0 0-1 0 0-1-1 0c0 0 0 0 0-1l0 0 0 0 0-1c0 0 0-1 0-1l0-1 0 0 2 0 1 0c0 0 0 0 1 1l0 0 0-1c0 0 0 0 0 0-1 0-1-1-1-1l0 0 0-1c0 0 0 0 0 0l0-1c0 0 0 0 0 0l-1-1c0 0 1-1 1-1l0-1-1-1c0 0-1 0-1-1 0 0 1 0 1 0l0-1c0 0 0 0 0-1l0 0 0-1c0 0 0 0 0 0 0 0-1 0-1-1l0 0 1-1c0 0 0 0 0 0l0-1c0 0 0 0 0 0l-1-1 0-1 1-2 0 0c0 0 0 0-1 0l0 0c-1 0-1 0-1-1 0 0 0 0 0-1l0 0c0 0 0 0 0-1l-1 0-1-1 0-1 0-1 0 0 0-1 0 0c0-1 0-1 0-1l-1-1 0 0c-1 0-1 0-1-1 0 0 0 0 0 0l1-1 0 1 0-1 0 0 0-1c0 0 0 0-1 0 0 0-1 0-1-1 0-1 0-3 0-4l0-1c0-1 0-1 0-2 1 0 1 0 1 0l1 0 0 0c0-1 0-1 0-1 0-1 1-1 1-1 1 0 1 0 1 0l0 0c0-1 0-1 1-1 0-1 0-1 1-1 0 0-1 0-1 0 0 0 0 0 0 0-1 0-1 0-1 0l-1 0 0 0 0 1c0 0-1 0-1 0l-1-1-1 0 0-1c0 0 0 0 0 0l0 0 0 0c-1 0-1 0-2 0l0 0 0-1 0 1 0 0-1 0-2 0 0 0 0-1c0 1 0 1 0 1-1 0-1 1-1 1l-1-1-1 0-1-1c0 0 0 1-1 1 0 0 0 0-1 0l-2 0c0 0 0 0 0 1 0 0 0 0-1 0l0 0-1 0 0 0 0 0-1-1 0 1-1 0 0 0c-1 1-2 2-3 2l0-1-1-1 0 1 0 0 1 0c-1 1-1 2-1 2-1 0-1 0-1 0l-1-2c0 0 0 0 0 0-1 0-1 0-1 0l0-1c0-1 0-1 1-2l0-2-1-1c0-1 1-2 1-2 1 0 2-1 2-1l0 0 1 0 0 0 0-1 1-1 1 0c1 0 1 0 2 0l0 0 0 1c0 0 0-1 1-1 1 0 1-1 2-2l0 0 1-1 0 0 2 1c0 0 0 0 0 0l1 0 0 1c0-1 1-2 1-2l0-1 1 0c1 0 1 0 1 0l1 0 0 0c0 0 0 0 0 0 1-1 1-1 2-1l0 0c0 0-1 0-2 0 0 0-1 0-1 1l0-1c0 0-1 0-1 0 0 0-1 0-1 0l0 0-2 0 0-1 0 0 0-1c0 0 0 0-1 0l0 3 0 0c0 0-1 0-1 0-1 0-1 0-1 0l-1-1 0 0c0 0-1 0-1 0-1 0-1 1-1 1l-1-2c0 0 0 0 0 0l0-1c1 0 1 0 1 0l2 0 0 0 0 0 0 0c0-1 0-1 1-1l0 0 0 0c0 0 1-1 1-1l1 1 0-1 1-1c0 0 1 1 1 1l0-1 0 0 3-1 0 1 0-1 1 0 1 0 0 0 1-1 5 0 0 0 0 0 1 0c0 0 0 0 0-1l0 0 1 0 1 0 0-1c1 0 1 0 2 0l0 1 0 0 1 0c0 0 0-1 0-1 0 0 0 0 1 0 0 0 0 0 0 0 0 0 1-1 1-1 1 0 1 1 1 1 0 0 0 0 0 0 1 0 1 0 1 0l1 1 0-1 2 1 0 0 1 0 0 0 1 0 0-1 1 0 0 0c1 0 1 0 1 0 0 0 1 0 1 0l1 0 0 0 0 0 1 0 0 1c0 0 0-1 0-1 1 0 1 0 1 0 1 0 2 0 2 0 0 0 0 0 1 0l0 0 1 1c0 0 1-1 1-1 0 0 1 1 1 1l0 0 1 1 1-1 1 1 0-1c0 0 0-1 1-1 1 0 1 1 2 1l0 0 1-1 1 0c0 0 1 1 1 1l1 1 0 0 1 1 1-1c1 0 1 0 1 0 1 0 1 0 1 0l0 0 0 1 1 0 1 1-1 0c0 0 0 0 0 0l1 0c0 0 0 0 0 0 0 0 1 0 1 0 0 0 0 0 0-1l2 0c0 0 0 0 0 0l0 0 0 0 1-1c1 0 1 1 1 1l1-1c0 0 0 0 0 0l0 0c0 0 0 0 1 0 0 0 1 0 1 0l0 0 0 0 1 0 0 1c0 0 0 0 0 0 1 0 1 0 1 0l1 1c0 0 0 1 0 1 0 1 0 1 1 1 0 0 0 0 0 0l0 0c1-1 1-1 1-2 0 0 1 0 2-1l1 1 0 0 0 0 1 0 1 1c0 0 0 1 0 1l1 1 0 0 1 1z m-56 79c0 0 0 0 0 1 0 0 0 0-1 0 0 0 0 0 0 0l-1-1 1-1-1-1 0-1 1-1c0 0 0 0 1 0l0 0 2 1c1-1 2-1 3-1l1 2c-1 0-3 0-4 1l0 0 0 0-1 0c0 1 0 1-1 1z m213-63l-1 0c0 0 0 1 0 1 0 0-1 0-1 0 0 0 0 1 0 1 1 0 1 1 1 1 0 1 0 2-1 2 0 0 0 1-1 1l0 0c-1 0-2 0-3 0-1 0-2-1-3-1-1-1-1-2-1-3 0-1 0-2 0-3l0 0 2-1c0 0 1 0 1 1 0 0 1 0 1 0 0 0 0 0 0 0l1-1 0 0c0-1 0-1 0-2 0 0-1-1-1-1 0 0-1 0-1-1l0 0 0 1c0 0 0 0 0 0l-1 1 0 0c0 0 0 1 0 1l-1 1 0 0c-1 0-2 0-2 0 0-1 0-2 0-2 0-1 0-1 0-1 0-1 0-1 0-1l-1-1 0-1c0 0-1 0-1-1 0 0 0-1 0-1 0-1 0-1-1-1 0 0 0 0 0 0l0 0c0 0 0 0 0 0l0 1c1 1 1 2 1 3 0 0 0 1 0 2l-1 1 1 0 1 0c0 0 0 2 0 2 0 1 0 1 0 1 0 1 0 1-1 1l0 0c-1 1-1 1-1 1 0 1-1 1-1 1l1 0 0 1 0 1 0 0c0 1 0 2 0 2l0 0-1 1 0 0 1 1c0 1 0 1 0 1l-1 1 1 0 0 2-1 0c0 1 0 1 0 1l0 1 0 1-2 0-1 0 0 2 0 0c0 0 0 0 0 1l0-1c0 1 0 1 1 2 0 0 0 0 0 1l0 0-1 1c0 0 0 1 0 1 0 1-1 1-1 1l-1 1c0 1 0 2-1 3 0 1 0 2 0 3l-1 0c0 0 0 1-1 1 0 0 0 1 0 2 0 0 0 1-1 2l-1 0c0 0 0 1 0 1 0 0-1 1-1 1 0 1 0 1 0 1l-1 0c-1 2-1 3-2 4 0 2 0 3-1 5 1 0 2 0 2 0 3 1 5 2 7 4l-1 1c0 0 0 0 0 0 0 0 0 0 1 0 0 0 0 0 1 0l-1 2 0 0 1 0c0 0 0 1 1 1l0-1 0-1c0 0 0 0 1 0 0 1 0 1 1 1 0 0 0 1 1 1l-1 1c1 0 1 1 2 2l-2 1c0 0 0 0-1 0 0 0 0 0 0 0 1 0 1 0 1 1l0 0 1-1c1 1 1 2 1 3l0 1 0 0-1 0c1 0 1 1 1 1 0 0 0 0 0 0l1 1c1 0 1 0 1 1 0 0 0 1-1 1l0 0c0 1 0 1 0 1 1 0 2 0 2 0l1 2 0 0 0 1 0 0 0 1c0 0 0 0 0 1 0 0 1 0 1 0l0 2-1 0c-1 0-1 0-1 0l-1-1c0 0 0 0 0-1 0 0 0 1 0 1l0 0c0 0 1 0 1 1 0 0 1 0 1 0l0 0c0 0 0 0 0 0 1 1 1 1 1 1 0 0 0 1 0 1l0 1-1 1 1 0 0 0c0 0 0 1 0 1 0 0 0 0-1 0l0 1c0 1 1 2 1 2l0 2 0 0c0 1 0 1 0 2 0 0 0 1-1 2 0 0 0 0 0 0l0 1 0 1-2 0 0-1-2 1 0 0c0 2-1 3-2 5 1 1 1 1 1 2 0 2-1 3-1 4 0 1-1 2-1 3l-1 0c0 0 0 1-1 1l0 0-1 0c0 1 0 1 0 1 0 1 0 2-1 2l0 0c0 0 0 1-1 1 0 0-1 1-1 1l0 1 0 1c-1 1-1 1-2 1 0 0-1-1-2-1 0 0 0-1 0-1 0 1-1 1-1 2l2 0 0 2 0 0-2-1c0 0 0 0 0 0 0 0 0 1-1 1l-1 1c0 0-1 0-1 0 0 0-1 0-1 0 0 0 0 0 0 0 0 1 0 1-1 2 0 1-1 1-2 1 0 0-1 0-1 0l0 0c-1 0-2 1-3 1-2 1-3 1-4 2l-1 0-1-1 0-1-1 0c0-1 0-1-1-1l0 0c1 1 1 1 1 2 0 0 0 1-1 1l-1-1-1 0 0 0 0-1 0 0c-2 1-3 3-5 3l-1 0-1-1c0 0 0 0-1 0 0 0-1 0-1-1l-1-1c0 0 0 0 0 0l0 0-1 0c-1 0-2 0-2 0-1 0-2 0-3 0l0-1c0 0-1 0-1-1-1 0-1 0-1 0l0 0 0 0c-2 0-3 0-4-1-1 1-2 1-2 1l-1-1 0 0c0-1-1-1-1-1l0-1c0 0 0 0 0 0-1 0-1 0-2 0l0 0-1 0c0-1-1-1-1-1 0 0 0 0 0 0-1 0-1 0-2-1l1-1 0-1-2 0 0 0-1 0-1 0c0-1 0-1 0-1 0 0 0 0 0-1 0 0 0 0-1 0 2 0 2 0 2 0l-1 0 0-2-1 1-1-1c0 0 0 0 0 0l-1 0c0 0-1 0-1 0l-1-1c0-1 0-2 0-2 0 0 0 0 0 0l0-1c-1 0-1 0-1 0 0 0 0 0 0 0l0-2 1 0c0 0 1 0 1 0 0 0 1 0 1 0l-1 0-1-1 1-1c0 0-1 0-1 0l0 0c-1 0-2 0-3 0 0 0-1 0-1 0-1 0-1 0-1-1l-1 0-1-1c-2-3-2-5-2-9l0 0c0-1 0-3 0-4 0-1-1-2-1-3l0 0c0-1 1-2 1-3 0 0 0 0 0 0l0-1 1-1 1 0 0 1 1 0c0 0 0 0 0 0-1-2-3-5-4-7 0-1 0-1 0-2 0-1 1-2 1-3 1-1 1-2 1-2l2-1 0 0 0 0-1-1c2-1 3-3 3-4l0-1 1 0c0-1 0-1 1-1 0-1 0-1 0-1l0-1 1 0 0 0c0-1 1-1 1-2 0 0 0-1 1-1l0 0 0 0 1 0-1-2 1 0 0-1c0 0 0-1 1-1l1 1c0 0 1-1 1-1 0 0 0 0 1 1 0 0 0-1 0-1 0 0 0-1 0-2 1 0 1 0 2-1 0 0 0 0 1 0l0 0 1 0c0 1 1 1 2 2 0 1 1 2 1 3l0 0c0 2-1 3-2 4-1 1-2 1-2 2l-2-1c0 0 0-1 0-2 0 0 0 0 0 0 0 0 0 0-1 1l-1-1 0 0c0 0-1 1-1 1-1 1-1 2-2 2l1 1c0 0 0 0 0 1l0-1c0 0 0 0 0 0l2 0 0 0c1-1 1-1 1-1l2 0c0 0 0 1 0 1 0 1 0 2 0 2-1 0-1 1-2 1 0 1-1 2-1 2l0 0 0 2c0 0 0 0 0 0 0 2 0 2-1 3 0 0 0 0 0 0 0 0 0 0 1 0l0 1c0-1 0-1 0-1l0-1c0-2 1-2 2-3 1-1 1-1 1-2l1 0 0 0 0-1 0 0c0-1 1-1 1-2 1-1 2-1 2-1l0 0 0 0 1 0c0 0 1 1 2 1l0 0c0 0 0 0 0-1l1-1 0 0c1 0 1-1 2-1 0 0 1 0 1 0 0 0 0 0 0 0l1 0 0-1 0 0c0-1 0-1 1-2l1 0 0 0 1-2 1 0c0 0 1 0 1-1l1 0 1 0 1 1 1 0 1-1 0 0c0 0 0 0 0-1l0 0 0 0c0-1 0-1 1-2 0 0 0 0 1 0l1 0c0 0 0 0 1 0 0 0 0-1 1-1 1 0 1 0 1 1 1 0 2-1 4-1 1-1 3-2 3-2l1 0 1 0 0 1c0 0 0 0 1 0 0 0 1 0 1 0 1-1 1-1 3-1 0 0 0 0 1 0l0 0c0 0 0-1 0-1l1 0 0 0c0-1 1-1 1-1 0 0 0 0 1 0l-1-1 1-1c0-1 0-1 0-2l1 0 0 0c0-2 1-3 2-5l1 1 0 0c0-1 0-1 0-2 0 0 1 0 1 0 0-1-1-2-1-3 0-1 0-1 0-2l1-1-1 0c1-1 1-2 1-3l1-1c0 0 0 0 0 0 0 0 0-1 1-1l0 0c0-1 0-1 1-1 0-1 0-1 0-1 0-1-1-3-1-3 0-1 0-1 0-1 0-1 0-1 0-1l0-1c1-1 1-1 1-1l0-1c0-1-1-2-1-2 0-1 0-1 1-2l-1 0c1 1 1 1 1 2 0 2-1 3-1 4l-1 0 0 1 0 1c0 0 0 1 0 1-1 0-1 1-1 1l-1 0 0 1 0 2-1 0 0 1 0-1-2 0-1-1c0 0 0-1 1-1 0 0 0 0 1 0 0 0 0 0 1 0l0-1c-1 0-1 0-1 0-1-1-1-1-1-1l0-1c0-1 1-3 1-5l1 0-1 0 0-1 1-1c0 0 0 0 0 0l0-1-1 0c1-2 1-4 1-5 0-1 0-3-1-4l1 0 0 0-1 0c0-1 0-1 0-1 0 0 0-1 0-1l-1 0 1-1 0 0-1-1 0 0-1-1 0 0c0 0 0-1 0-1l0 0 1 0-1-2 0 0 0-1-1 0c-1 0-1 0-1-1l-1 0 0-1-1 0c0-1 0-1 0-1l0 0 0-2c0 0 1 0 1-1 0 0 0 0-1 0l0-1c0 0-1 0-1 0l-1 0 0-1 0-1 1 0 0 0-1 0-1-2 1-1 1 0c0 0 0 0 0 0l-1 0c0 0 0 0 0 0 0 0 0 0-1 0l-1 1-1 0 0-1-1 0-1-1 0 0 0 0 0-2c0 0 0 0 0 0-1 0-1 0-1 0-1 0-1-1-2-1 0 0 0 0-1-1l1 0-2 0 0 0 0-2 0 0c0 0 0-1 1-1 0 0 0 0 0 0-1 0-1 0-2 0 0 0-1 0-1 0-1 0-2 0-2 0 0 0-1-1-1-2l0 0c-1 0-1-1-2-1 0 0-1-1-1-1l-1-1 0-1 0 0-1 0c-1 0-1 0-1-1-1 0-1-1-1-1-1 0-1 0-1-1l0-1 0 0-1 0c0 0 0 0-1-1l0 0 0 0 0-2-1 1c-1 0-2-1-2-1-1 0-2-1-2-2l0 0-1-1 0 0c0 0 0-1 0-1l0 0-1 1-1 0c0 0 0-1 0-1l-1 0c-1 0-1-1-2-2-1-1-1-1-1-1l-1-2 0 0 0 0c-1 0-2 0-2 0l-1 0-1 0 0-1 0-1-2-1 0-2 1 0c0 0 1 0 1 0-1 0-1 0-1 0-1 0-1-1-2-1-1 0-1 0-1 0 0 0 0 0-1 1l-2-1 0 0c-1-1-2-1-3-1l1 0c0 0 0 0 1 0l0 0c1 0 1 1 1 1l0 0 1 1c0 0 0 0 0 1l0 1c0 0 0 0 0 1l-1 0 1 2 0 1 1 0 0 0 0 0 1 1-1 0 0 1c0 0 0 0 0 0 1 0 1 0 1 1 0 0 0 0 0 1l0 0 0 0 0 1 0 0c0 0 0 0 1 0 0 0 0 0 1 1 0 0 1 1 1 1 0 0 0 1-1 1 0 0 1 0 1 0 0 0 0 0 0 1l0 1c0 0 0 0 0 1 0 0 0 0 0 0 0 0 1 0 1 0l-1 1 1 0 0 1 0 0 1 1c1 0 1 1 1 1 0 0 0 1 0 1l0 1 1 0 0 1c0 0 0 1 0 1l0 1-1 0 0 1 1 1 1 0 0 0c0 1 0 1 0 1l0 1-1 0 0 0 1 1-1 0-1 0c0 0 0 0 0 0l0 1 1 0c0 0 0 0 1 0l0 2c0 0 0 0 0 0l0 0 2 1 0 0c0 0 0 0 0 0l0 1 0 0 1 1 0 0c0 1 0 1 0 1l0 0c1 0 1 0 1 1 0 0 0 0 0 1l0 1 0 0 0 1c-1 0-1 0-1 1l0 0 0 1c0 0 1 0 1 0 1 0 2 0 2 0l1 2c0 0-1 0-1 0l0 0 0 1 0 1-1 1 0 1 0 1 0 1c0 0-1 0-1 0l-1 0 0 0-1 0 0 0 0 0-2-1-1-1-1 0 0-1c0 0 0 1 0 1l0 0-1 0-1 0 0 0c0 0-1 0-1 0l0-1c0 0-1 0-1 0l-1-1c0 0 0 0 0 0 0 0 0 0 0 0-1 0-1 0-1 0 0 0 0 0 0 0l-1 1 0 0 1 0 1 0 0 1 0 1 0 1c0 1-1 1-1 1l-1 0c0 0-1 0-2 0l0 0-1 1 0 0-1-2 0 0 0 0c0 0 0 0-1 0 0 0 0 0 0 0l-1 0c0 0 0 0-1 0 0-1 0-1 0-1l0 0-1 0c0 0 0 0 0 0l-1-1 0 0 0 0 0 0 0-1 0 0-1 0 0 0-1-1 0 0 1 0 0 0 0-1 0 0 0 0-1 0-1-1c0 0 0-1 0-1l-1-1 0 0 1 0 0 0 1-1 0 1c1 0 1-1 1-1l0-1 1 0 0 1 0 0 0-1c0 0 0 0 0 0-1 0-1 0-1 0-1 0-2-1-2-1l0 0-1-1 0-1-1 0 0 0-1-1 0 0-1 0 0-2 1 0c0 0-1 0-1 0l-1-1-1-1c0 0 0-1 1-1-1 0-1-1-1-1-1 0-1-1-1-1l0-1 0 0c0 0 0 0-1-1 0 0 0 0-1-1l1-1c0 0-1 0-1 0l0-1c0 0 0 0 0 0l0-1 0-1 0 0c0 0 0 0 0 0l-2 0 0-1c0 0 0 0 0 0l-1-2 0 0 0-1 0 0-1-1c0 0 1 0 1 0l0-1c0 0-1 0-1 1l-1 0-1-1 0 0c0-1 0-1 0-1l0-1c0 0 0 0 0 0l-1 0-1 1-1-1c-1 0-1-1-1-1 0-1 0-1 0-1l0 0c0-1 0-1 0-1l0 0-1-1 0-1c0 0 0 0 1-1l-3 0c0 0 0 0-1 0 0 0 0 0 0-1 0 0 0 0 0 0l0 0 0 0 0 0 0-2 0 0 0-1c0 0-1 0-1 0l0-1-1 0 0-1 0 0-1 0 0-1 0 0 0-1c0 0 0 0 0-1 0 0 0-1 1-1 2-1 3-1 5-2 0 0 1 0 1 1l1 0c0 1 0 1 0 1l0 0 0 0 0 0-1 2 0-2c1 0 1 0 2 0l1 0 0 1c0 0 0 1 0 1l1 0c0 0 0 0 0 0 0 0 1 0 1 1l0 0c0 0 0 0 1 0-1-1-1-1-1-1 0-1 0-1 0-1l0 0 0-1 0 1c0-1-1-1-1-1 0-1 1-1 1-2l0 0c1 0 1 0 1-1l0 0 0 0 0-1c0 0 0 0 0 0l-1-1 0 0 0 0 0 0 0-1-2-1 0-1 1 0-1 0c0 0-1-1-1-1l1-1c0 0 0-1 0-1 0 0 0 0 0 0-1 0-2 0-3-1l0 0c-1-1-1-1-1-1 0-1 0-1 1-1l-1 0c0 0 0 1-1 1 0 1 0 1 0 1l-1-1c0 0 0 0 0 0l-1 0-1-2 1-2 0 0 0-1c-1 0-1 0-2 0l0-1 0 0 0 0-2-2 0-1c0 0 1 0 1 0 0 0 1 0 1 0l0 0c1 0 2 0 3 0l0 0c0 0 0 0 0 0 0 0 0 0 0-1-1 0-1-1-1-1l1 0c0 0 0-1 0-1l0 0 1-1 2 1 1-1 0 0 1 0 1 0 0 0c0 0 1 0 1 0l1 0-1 0 1 0 0 0 0-1 0 0 1 0c1 0 1-1 1-1l1 0 0 0 1 0c0 0 0 0 0-1l1 0 1-1c0 0 0 1 1 1l0 0c0-1 0-1 1-1 0-1 1-1 1-1 0 0 0 0 0 0 0-1 0 0 0 0-1 0-2 0-2 0l-1 0c0 0 0 0-1 0l0 0-1 0-2 0 0-1 0 0 0 0 0 1 0 0 0 1c0 0-1 1-2 1 0 0 0-1-1-1l0-1 0 0c-1 0-1 0-2 1l-1-2 3-1 0 0 0 0 0 0c0 0 0 0 1-1l0 0 0 0c0 0 1-1 1-1l1 0 0 0c0 0 0-1 0-1 1 0 1 0 1 1l0-1 3-1 0 1 0-1 1-1 0 0 1 0 0-1 5-1 0 0 0 0 0 0 0 0 0-1 1 1 0 0 0-1 1 0 1-1 0 0c0 0 1 0 1 0l0 1 0 0 0 1 2-1 0-1 0 0 1 0 0-1 1 0c0 0 0 0 0 0l1 0c1 0 1 0 1 0l0 1c0 0 0-1 0-1l2 0 1 0 0 0 1 0 0-1 0-1 1 1c0 0 0 0 0 0 0 0 0 0 0 0 0 0 0 0 0-1 1 0 2 0 2 0l0 0 0 0 0 0 1 0 0 0 0 0 0 1 0-1 1-1 1 0c0 0 0 0 1 0 0 0 0 0 0 0 0 0 0 0 1-1l0 0c0 0 1 0 2 0 0 0 0 0 0 0 1 0 1 0 1 0l1 1 0 0 1 0 0 0 1-1c0 0 0 0 1 0 0 0 1 0 1 0l0 0 1-1 0 0c1 0 2 0 2 0l1 0 0 1 1 0 0-1 0-1 1 0c0 0 1 0 1 0l0 0 0 1 1 0 1 0 0 1 0 0 0 1 1 0c0-1 0-1 0-1l0 0c0 0 0 0 0-1l2-1c0 0 0 1 0 1l0 0 0-1 1-1 0 0c1 0 1 0 1 0l0 0 1 0 0-1c0 0 0 0 1 0l0 0 0 0c1 0 1-1 2-1 0 0 1 1 1 1l0 0 0 0 1 1c0 0 1 1 2 1l0 0c0-2 0-3 1-4l2 0c0 0 0 1 0 1l0 0 0 0 1 0c1 0 1 0 1 1l1 1 0 0 2 0 0 1c0 0 0 1-1 1l1 0-1 1 0 0 0 1 1 0-1 0-1 1 0 0-1 0 0 1c0 0 0 1 0 1l0 0 0 0 0 0c0 1 0 1 0 1l0 0-1 0 0 1 0 1 0 0c-1 0-1 0-1 0 0 0 0 0 0 1l1 0 0 0 0 0 0-1 1-1 0 0 2 0 1 1c0 0 1 0 1 0l0 2c0 0 0 0 0 1 0 0 0 0 0 1l0 1-2 0c0 0 0 0 0 1l0 0c0 0 0 0 0 0 0 1 0 1 0 1l0 0 0 1-1 1 0 0-1 1 0 0c0 0 0 1 0 1l-1 0 0 1c0 0 0 0 0 0l-1 0 0 0-1 2-1 0 0-2 0 0 0 1-1 1 0 0c0 0 0 0-1 0l0 0-1 1 0 0 0-1 0-1 0 0 0-1 0 0-1 0 0-1 0 0 0 0 0 0c0 0-1 0-1 1 0 0 0 0 0 0 0 1 0 2 0 2-1 0-1 0-1 0l0 1-2 0 0 0-1 0 0 0 0 1-2 0 0 0-2 0 0-1c0 1 0 1 0 1l0 1 0 1-1 0c0 0-1 0-1 0l0-1c0 1 0 1-1 1 0 0-1 0-1 0l-1 0-1 0c0 0 0 0 0 1 0 0 0 1-1 1l-1-1c0 0 0 0 0 0l0 0c0 0 0 1-1 1l0 0-1 0 0 0c0 0 0 0 0 0l-1 0 0 1-1 0c0 0 0 1 0 1l-1 0c1 0 1 0 1 0 1 0 2 0 2 0l1 0 0 2 1 0 0 1 0 0c1 0 1 0 2 0 0 0 1 0 1 0l0 1 0 0c0 0 1 0 1 0l1 0 1 0c0 0 1 1 1 2 0 0 0 1-1 1 0 0 0 0 0 0 1 0 1 0 1 0l0-1 0-1 2 0 0 2 1 1 0 0 0 1c1-1 1-1 3-1 0 0 1 0 1 0 0 1 0 1 1 2l0 0c0 0 1 1 1 1 1 0 2 0 2 1 1 0 2 1 2 1l-1 1c0 1 0 1 0 1 0 0 0 0 0 1 0-1 0-1 1-1 0-1 0-1 1-1l1 1 0 0 0 1c1-1 1-1 2-1 1 0 2 1 3 2l0 1c0 0 1 0 1 1l0 1 0 0c1 0 1 0 2 1 1 0 1 0 2 1l-2 0c0 1 1 1 1 1 0 1 0 1 0 1l0-1c1 0 2 1 3 2l1 0 1 1 1 0 0 1 1 0 1 0 0 1c0 0 1 0 2 0l-1 1 1 0 0 0 1 1 0 1c0 0 0 0 0 0 0 0 0 0 1 0 0 1 0 1 0 1l1 1 0 0 0 1c0 0 0 0 1-1l0 0 1 0 1 1c0 0 0 1 0 1l0 0c0 0 1 0 1 0l0 0 0 2c0 0 0 1-1 1 0 0 0 0 0 0 0 0 1 0 1 0l0 1 1 0c0-1 1-1 2-1 0 0 1 0 1 0l1 0 1 0c2 1 3 3 4 5l0 1c0 1 1 1 1 2 0 1 1 2 1 2l1 0c0 1 0 1 0 2l0 0 0 2-1 0c0 0 0 0-1 0l0 0c2 1 4 1 6 3 1 0 1 1 2 2 0 1 0 2 0 2 0 1 0 1 0 1l-1 2 1 0c0 1 0 2 0 2 0 1 0 1 0 2 0 0 0 1 1 1l-1 1c0 1 1 1 1 1 0 0 0 1 1 1l-1 1 0 0c0 1 1 1 1 2l0 1-1 0 1 0 0 0 1 1 0 1 0 0c0 0 0 1 0 1z"/>
    </symbol>
  
    <symbol id="icon-standings-1" viewBox="0 0 512 512">
      <path d="m132 431c0 13-4 23-14 31-8 8-19 11-32 11-18 0-31-5-42-16l14-21c8 7 16 11 26 11 5 0 8-2 12-4 4-2 6-6 6-10 0-11-9-15-26-13l-7-14c2-2 5-5 8-11 4-5 8-9 11-13 2-3 6-6 8-9l0-1c-2 0-6 1-11 1-6 0-10 0-12 0l0 13-26 0 0-37 81 0 0 22-23 27c8 2 15 6 19 12 5 6 8 13 8 21z m0-151l0 38-87 0c-1-6-2-10-2-13 0-8 3-16 6-23 3-6 8-11 13-16 6-4 11-8 17-12 5-3 10-6 13-10 4-3 6-7 6-11 0-4-2-7-3-9-3-3-6-3-11-3-6 0-13 5-19 14l-20-14c4-9 9-16 16-20 8-4 17-7 27-7 11 0 21 4 29 10 8 7 12 16 12 28 0 7-2 15-8 22-5 6-11 11-18 15-7 4-13 8-19 12-5 5-8 9-8 13l30 0 0-14 26 0z m341 77l0 47c0 1-1 3-2 5-2 1-4 2-6 2l-294 0c-2 0-4-1-5-2-2-2-3-4-3-5l0-47c0-2 1-4 3-6 1-1 3-2 5-2l294 0c2 0 4 1 6 2 1 2 2 3 2 6z m-340-218l0 24-81 0 0-24 26 0c0-6 0-16-1-29 0-13 0-23 0-29l0-3c-2 2-6 7-13 13l-17-18 33-31 26 0 0 97 27 0z m340 94l0 46c0 3-1 4-2 6-2 2-4 3-6 3l-294 0c-2 0-4-1-5-3-2-2-3-3-3-6l0-46c0-2 1-4 3-5 1-2 3-3 5-3l294 0c2 0 4 1 6 3 1 1 2 3 2 5z m0-124l0 47c0 2-1 4-2 5-2 1-4 2-6 2l-294 0c-2 0-4-1-5-2-2-1-3-3-3-5l0-47c0-2 1-3 3-5 1-2 3-3 5-3l294 0c2 0 4 1 6 3 1 2 2 3 2 5z"/>
    </symbol>
  
    <symbol id="icon-sign-in" viewBox="0 0 512 512">
      <path d="m375 256c0 5-2 9-6 13l-155 155c-4 4-8 6-13 6-5 0-9-2-13-6-3-3-5-8-5-13l0-82-128 0c-5 0-9-2-13-5-4-4-5-8-5-13l0-110c0-5 1-9 5-13 4-3 8-5 13-5l128 0 0-82c0-5 2-10 5-13 4-4 8-6 13-6 5 0 9 2 13 6l155 155c4 4 6 8 6 13z m100-101l0 202c0 22-8 42-24 58-16 16-35 24-58 24l-91 0c-3 0-5-1-7-3-2-2-2-4-2-6 0-1-1-3-1-6 0-3 0-6 0-8 0-2 1-4 1-6 0-3 1-5 3-6 1-1 3-2 6-2l91 0c13 0 23-4 32-13 9-9 14-20 14-32l0-202c0-12-5-23-14-32-9-9-19-13-32-13l-89 0-3-1-4 0-2-2-2-3 0-3c0-1-1-3-1-6 0-3 0-6 0-8 0-2 1-4 1-6 0-3 1-5 3-6 1-1 3-2 6-2l91 0c23 0 42 8 58 24 16 16 24 36 24 58z"/>
    </symbol>
  
    <symbol id="icon-activity" viewBox="0 0 512 512">
      <path d="m346 122c32-4 55-34 51-66-5-33-34-56-67-51-32 4-55 34-51 67 5 32 34 55 67 50z m146 61c-4-10-16-14-26-10 0 0-84 29-129-4-1-1-3-2-4-3 0 0-1-1-1-1-1-1-2-2-4-3-5-5-10-9-16-12-2-2-5-3-8-5-1 0-2-1-3-1-3-1-5-2-7-3-5-3-11-5-18-6-2-1-5-1-8-1-46-6-120 15-135 19-10 3-17 14-14 24 3 10 14 16 24 14 38-10 94-23 120-19-25 61-66 124-87 153-15 19-23 25-36 36-17-6-51-20-96-43-11-6-25-2-31 9-6 12-2 26 10 32 67 35 120 50 130 48 43-12 74-50 87-68 3 1 73 25 86 41 7 25 18 74 16 103-1 13 8 24 21 25 1 0 1 0 2 0 12 0 22-10 23-22 3-48-19-125-20-128l-1-3-2-4c-16-22-58-45-83-57 13-18 35-41 49-85 30 17 73 17 100 13 28-4 49-13 51-13 9-5 14-16 10-26z"/>
    </symbol>
  
    <symbol id="icon-banknote" viewBox="0 0 512 512">
      <path d="m503 169l-160-160c-8-8-20-11-31-8c-5 1-11 4-15 8c-3 4-6 9-8 14c-7 23-19 43-38 62c-25 25-57 43-91 63c-36 21-74 43-104 74c-26 26-44 55-55 89c-3 11 0 23 8 32l160 160c8 8 20 11 31 8c5-1 11-4 15-8c3-4 6-8 8-14c7-23 19-43 38-62c25-25 57-43 91-63c36-21 74-43 104-74c26-26 44-55 55-89c3-11 0-23-8-32z m-311 311c-53-53-107-107-160-160c45-147 243-141 288-288c53 53 107 107 160 160c-45 147-243 141-288 288z m121-242c-5-4-10-7-16-8c-5-2-10-2-16-2c-5 0-10 2-16 4c-5 2-10 4-16 7c-8-10-17-20-26-29c4-4 8-5 12-6c3 0 7 1 10 2c3 0 7 1 9 2c3 0 6 0 8-2c2-2 4-5 4-8c0-3-1-6-4-9c-3-4-7-6-12-7c-5-1-10-1-15 0c-5 1-10 3-15 6c-4 3-8 5-10 8c-2-1-3-2-4-3c-1-1-2-2-4-2c-2 0-3 1-4 3c-1 1-2 2-2 4c0 2 1 3 2 4c1 1 2 2 3 3c-4 5-7 10-10 16c-2 6-4 11-5 17c0 6 0 11 2 15c2 5 5 9 10 13c7 6 16 9 26 8c11 0 22-3 33-10c10 11 19 22 29 32c-4 4-8 6-11 6c-3 1-6 1-8 0c-3-1-5-2-7-3c-2-2-4-3-6-4c-2-1-5-2-7-2c-2 0-4 1-7 3c-2 3-4 5-4 8c0 3 2 6 4 9c3 4 7 6 11 8c4 2 9 3 14 4c6 0 11-1 17-3c6-2 12-6 18-12c2 3 5 6 8 8c1 1 3 2 4 2c2-1 4-1 5-3c1-1 1-3 1-4c0-2-1-3-2-4c-3-3-5-5-8-7c5-6 8-12 11-19c3-6 5-12 5-17c1-6 0-11-1-15c-2-5-5-9-10-13z m-89 11c-5 0-9-1-12-4c-2-2-3-4-4-6c0-2 0-4 0-6c0-3 1-5 2-8c1-2 3-5 5-7c8 8 16 17 25 26c-7 3-12 5-16 5z m75 32c-1 3-3 5-5 7c-9-9-18-19-27-29c2-1 5-2 7-3c3-1 6-2 8-2c3-1 5-1 8 0c3 1 5 2 7 4c3 3 4 5 5 7c0 3 0 6 0 8c-1 3-2 6-3 8z m-64 74l0 0c-10 8-19 16-28 25c-9 8-17 18-24 27l-11 15l0 0c-2 3-1 7 1 10c4 3 9 3 12 0c0-1 1-1 1-2l10-14c7-8 14-17 22-25c9-9 17-16 27-24l0 0c1 0 1 0 1 0c3-3 3-8 0-12c-3-3-7-3-11 0z m59-232c-8 9-17 16-27 24c0 0-1 0-2 1c-3 3-3 8 0 11c3 3 8 3 12 1l0 0c10-8 19-16 28-25c9-9 17-18 24-27l11-15l0 0c2-4 2-8-1-11c-3-4-8-4-11 0c-1 0-1 1-2 2l-10 14c-7 9-14 17-22 25z"/>
    </symbol>
  
    <symbol id="icon-exchange" viewBox="0 0 512 512">
      <path d="m512 338l0 55c0 3-1 5-3 7c-2 1-4 2-6 2l-393 0l0 55c0 3-1 5-3 7c-2 1-4 2-6 2c-3 0-5-1-7-3l-91-91c-2-2-3-4-3-6c0-3 1-5 3-7l91-91c2-2 4-3 7-3c2 0 4 1 6 3c2 2 3 4 3 6l0 55l393 0c2 0 4 1 6 3c2 2 3 4 3 6z m0-155c0 3-1 5-3 6l-91 92c-2 2-4 2-7 2c-2 0-4 0-6-2c-2-2-3-4-3-7l0-55l-393 0c-2 0-4 0-6-2c-2-2-3-4-3-7l0-55c0-2 1-4 3-6c2-2 4-3 6-3l393 0l0-55c0-2 1-4 3-6c2-2 4-3 6-3c3 0 5 1 7 3l91 91c2 2 3 4 3 7z"/>
    </symbol>
  
    <symbol id="icon-chevron-right" viewBox="0 0 512 512">
      <path d="m298 256l-167-174c-4-4-4-11 0-16l30-30c5-5 12-5 16-1l204 213c2 2 3 5 3 8 0 3-1 6-3 8l-204 213c-4 4-11 4-16 0l-30-31c-4-4-4-11 0-16z"/>
    </symbol>
  
    <symbol id="icon-chevron-left" viewBox="0 0 512 512">
      <path d="m214 256l167-174c4-4 4-11 0-16l-30-30c-4-5-11-5-16-1l-204 213c-2 2-3 5-3 8 0 3 1 6 3 8l204 213c5 4 12 4 16 0l30-31c4-4 4-11 0-16z"/>
    </symbol>
  
    <symbol id="icon-home" viewBox="0 0 512 512">
      <path d="m421 283l0 138c0 5-2 9-6 12-3 4-8 6-13 6l-109 0 0-110-74 0 0 110-109 0c-5 0-10-2-13-6-4-3-6-7-6-12l0-138c0 0 0 0 0 0 0-1 0-1 0-1l164-136 165 136c0 0 0 1 0 1z m63-19l-17 21c-2 2-4 3-6 3l-1 0c-3 0-5-1-6-2l-198-165-198 165c-2 2-4 2-7 2-2 0-4-1-6-3l-17-21c-2-2-2-4-2-7 0-3 1-5 3-6l205-171c6-5 14-8 22-8 8 0 16 3 22 8l69 58 0-56c0-2 1-5 3-6 2-2 4-3 7-3l54 0c3 0 5 1 7 3 2 1 3 4 3 6l0 117 62 52c2 1 3 3 3 6 0 3 0 5-2 7z"/>
    </symbol>
  
    <symbol id="icon-draft-podium" viewBox="0 0 512 512">
      <path d="m224 0c-16 0-32 16-32 32 0 16 0 32 0 32l-32 0-96 96 0 64 96 0 32 192-64 32 0 32 256 0 0-32-64-32 32-192 96 0 0-64-96-96-128 0 0-32c0 0 7 0 16 0 9 0 16-8 16-16 0-7-8-16-16-16-8 0 0 0-16 0z m0 416l-26-160 59 0-1 160z m-112-256l64-64 16 0 0 32 32 0 0-32 112 0 64 64z"/>
    </symbol>
  
    <symbol id="icon-lion" viewBox="0 0 512 512">
      <path d="m71 262c13 5 23-6 24-8-2-2-4-1-4-1-3 1-7 2-7 2-4 1-6-3-6-3-1-3 1-5 2-7 0 0 0 0 0 0 0 0 0 0 0 0 1 0 1-1 1-1l0 0c5-2 10-2 10-2 12-1 19-4 19-4 13-6 10-24 9-30 0 0 0 0 0-1 7-4 15 4 17 9 4 9 3 19 0 28 0 2-1 3-2 5-5 8-12 15-15 24-2 5-3 13-2 18 1 26 23 46 49 42 2 5 8 21 7 32-2 5-7 7-12 10 0 0 0 4 0 4 0 3-1 5-2 7-3 7-9 9-15 10-5 1-9 1-14 0-1 0-3-1-4-1 0 0-4 0 0 4 1 0 1 1 2 2l3 2c0 0 0 0 0 0 0 0 0 0-1 1-2 2-5 6-6 7 0 1 0 1 0 1-1 1-1 1-1 1-1 3 2 3 2 3 3-2 6-1 7 0 0 0 0 0 0 0-5 9-7 15-7 18 0 1 0 2 0 3 0 0 0 0 0 0 1 0 2 0 2 0 3-1 6-1 7-1 0 5 0 22 0 28 0 0 3 4 3 8 0 0 1 18 10 26 0 0 0 0 0 1 3 0 6 0 9 0 3 2 5 7 5 7 0 2 3 1 3 1 1-3 1-6 0-9 2 0 4 1 6 1l2 0c2 1 4 1 6 0 1 3 3 5 3 5 0 2 3 1 3 1 1-3 1-7 0-9 3-3 5-6 5-6 2 0 4 0 5-1 1 4 1 7 1 7 0 2 3 2 3 2 3-5 3-11 3-13 3-4 4-8 4-8-3-14-13-25-13-25-2-3-7-4-9-4 0 0 0 0 0 0-15 2-17-6-17-6 4-14 17-16 22-17 0 0 0 0 0 0 0 0 0 0 0 0 4-1 7-3 8-3 5-9 21-24 31-34 1-1 2-1 2-2 5-12 14-25 14-25 4 1 6 4 10 6 17-7 28-8 31-8 1 0 1 2 1 2 0 2 0 4-1 5-2 1-4 2-6 3 0 0-10 3-20 19-1 1-1 1-1 3 0 0 0 0 0 0-2-1-8-3-12-2 0 0 0 0 0 0 4 5 6 17 6 17-5 4-4 10-4 10 0 1 1 2 1 2 5-5 18 1 23 3-3 5-1 11-1 11 0 1 1 1 1 1 1-1 1-1 2-2 23-10 54-9 61-8 0 0 9 1 9 1 0 0 0 0 0 0l0 0 1 0c0 0 0 0 1 0l7-1c2 1 3 5 6 4 4 0 9-10 8-16 1 0 2 1 3 1 1 0 2-1 3-1 3 0 5 3 7 6 4-4 3-16-2-18 1-5-1-8-3-11-5-5-11-7-16-8l0 0c0 0-1 0-4 0-2 0-3 0-3 0l0 0c-6 1-13 3-20 10 0 0-2 4-8 4 0 0 0 0-1 0 0 0-1 0-1 0l-4 0c-6-1-17-2-20-2 0 0 1-2 3-4 5-5 12-9 18-13 1-1 3-2 4-3 7-4 12-6 14-7 0-1 0-1 1-1 3-2 4-6 4-6 3-12-1-23-1-23-4-13-21-20-21-20-1 0-2 0-3 0-1-1-1-1-2-1-4 0-9-1-12-1 0 0 0 0 0 0 0-3 2-6 2-6 2-5 14-10 20-13 2 0 3-1 5-2 3-3 17-20 22-30l3-1c8-2 17-4 26-7 3 0 5-1 8-2 4-1 7-3 11-3 5 0 9 1 14 2 0 0 9 2 9 2 7 1 10-1 12-3 1 0 1-1 1-1 2 1 3 3 3 3 0 2 2 1 2 1 5-8-1-14-1-14l0 0c1-1 1-2 1-2 0-1 0-1 1-2 2 0 4 4 4 4 1 2 2 1 2 1 0 0 0 0 0 0 0 0 0 0 0-1 4-10-3-16-3-16l0 0c0 0 0-2-1-4 2 0 5 0 5 0 1 2 2 0 2 0-3-11-13-11-13-11l0 0c-3-4-7-6-13-7 0 0-1-1-1-1-4 1-6 4-7 5-3 4-10 7-15 9-2 0-3 0-4 0-1 0-1 0-2 0 0 0 0 0 0 0-1-1-2-2-5-4-3-1-8-1-12-1l-16-1c32-25 36-57 36-66 5-2 8-6 9-10 5-1 9 5 9 5 1 0 2 0 2 0 0-1 1-1 1-2l0 0c0-17-14-18-14-18 0-2 0-3-1-3 4-4 4-7 4-10 2-1 5-3 9-2 1-1 1-1 1-2 0 0 0-1 0-1-2-2-7-7-15-6-2-2-3-3-5-4 1-1 4-2 4-2 1-1 0-2 0-2-7-4-12 0-13 1-2 0-5 0-9 2-1 0-2 0-2 1-4 2-11 6-11 12l0 4c0 5 0 9 0 13 0 5 0 10-1 15-1 15-7 33-22 40 0 0-9 1-14-1 8-7 8-17 8-17-2-14-11-17-17-17 0 0 0 0 0-1 0 0 0 0 0 0-3 0-5 1-5 1 0 0 0 0 0 0 0 0 0 0 0 0 3 3 3 7 3 9 0 0 0 0 0 0 0 0 0 1 0 1-1 3-4 5-7 6-4 2-9 3-13 2 2-2 7-11-2-18 0 0 0-1-1-1-2 2-8 10-18 8 0 0-2 0-4-1 0 0 0 0-1 0 0-1 0-1 0-1-2-1-3-2-5-4-2-2-3-5-2-8 2-6 15-7 22-5 1 1 1 1 1 1 3 1 4 3 4 3 3 2 6 1 6 1 7-4 6-11 5-15-1 0-1 0-1-1 0-1-1-2-1-2 0-1 1-3 0-4 0 0-1-1-3-1-1-1-2-3-4-2 0-1 0-1 1-2 6 2 14 9 14 9 5 3 9 7 14 8 6 1 12 1 17-2 9-4 13-17 8-26-2-3-5-6-9-6l0 6c0 0 0 1 0 2 2 11-14 12-22 9-2 0-4-1-6-2-2-1-3-3-5-3-2 0-3 1-5 0-1 0-2-2-4-2-2-1-4 0-6 1-1 0-1-1-3-1-1 1-4 0-5-1-2 1-3 2-5 3-2-3 1-9 2-9 3-1 2 4 5 5 1-1 3-2 4-4 2 1 2 3 3 4 2-1 4-2 5-3 2 1 3 4 4 5 6-4 13-6 18-10 0-7 1-12 3-18 1-5 5-9 1-13l-5 0c-2-3-6-11-22-13 0 0 0 0-1 0-1 0-3 0-4-1-1 0-2-1-3-1 0-1 0-2-1-4-2-2-5-4-8-4l-1-1 0 0c0 0-2 0-5-1-1 0-3-1-4-2 0 0 0-1-1-1 0-4 4-8 4-8-4-1-7 0-9 2-3-7 4-16 4-16-4-1-7 0-10 1-1 1-2 2-3 3-2 2-3 4-4 6 0 0 0 0 0 0 0-4 1-10 1-10 0 0-4 0-8 3 0 0 0 0 0 0 0 0 0 0 0 0-2 1-3 3-4 5 0 0-1 2-3 3 0 0-1 0-1 0 0-2 0-4 2-7 0 0 0-1-2 0-2 0-8 1-12 7-1-1-2-1-4 0 0 0-7 0-10-4 0 0-2-2-2 1 0 0-1 6 2 10-1 0-3 0-4 0 0 0-6-8-13-4 0 0 0 0-1 1 1 0 2 0 2 0 1 1 5 6 2 12-3 0-6-1-9-3 0 0-5-2-11 1-1 0-2 0-2 1l-1 0c0 1-1 2-2 3 0 0-1 0 1 0 0 0 1 0 2 0 8 0 11 5 12 8-2 0-6 1-10 6 0 0-2 4-7 3-1 0-3 0-4 0-2-1-4-1-6 1 1 1 2 2 3 3 2 6 7 7 9 7 0 1-1 2-1 2-3 4-5 7-6 10-3 5-5 10-6 15-2 5-4 9-9 12 0 0-6 2-6 1 2 8 17 9 23 4-4 8-5 17-5 23 0 5 1 10 1 16 0 7-4 12-8 15 0 4 4 4 7 5 8 1 16-4 21-8 0 0 7 20 3 36-1 5-3 10-7 13-1 1-2 2-2 3 1 2 4 1 6 1 6 0 13-3 17-6 0 1 0 1 0 1 0 1 0 3 1 5 1 4 4 8 7 11 2 2 4 4 6 6 2 1 7 5 9 3 1-8 7-10 7-10 0 0 0 1 0 2 1 2 2 5 3 7 0 2 1 4 1 6 0 0-1 2-2 5-1 0-1 1-1 1-1 2-1 3-2 4-4 8-9 18-16 26-6 3-28 15-40 31-1 1-2 2-2 2 0 0-2 5-3 10-5 2-13 2-18 2-19-3-25-27-19-43 2-5 5-9 8-13 3-4 5-8 7-13 5-11 4-23 0-34-3-8-10-14-18-17-4-1-10-1-18 2-3 0-13 1-18 3 0 0-14 7-19 18 0 0-3 7-4 10l-5 18c0 0 0 1 0 1-1 9 8 13 8 13z m251-150c8 1 15-2 19-7l4-6c1 1 1 3 1 5 0 5-3 10-8 11-5 2-9 2-13-1-2 0-3-1-3-2z m52 15c0-3 0-6 0-9 0-2 0-4-1-6 0-3-1-7 0-10 0-3 2-5 4-7 3-2 6-2 8-1-2 2-4 5-4 9 0 0 7-13 15-10 0 0 3 2 4 4l1 2c1 1 1 2 1 3 0 0-1 4-3 5-4-2-7-2-9-1-7 2-6 9-5 15 0 2 1 5 0 7 0 0-1 4 2 9-1-5 0-9 1-11l0-5c0-3 0-8 4-9 2 0 6 2 7 4 1 2 2 4 2 5 1 5 1 12-5 13 0 0-2 1-3 3 0 9-2 30-12 34 0 0-7 0-8-17 0 0 0-1 0-1-1-9 1-18 1-26z m-145 13l3 0c1 1 2 1 3 1 6 1 12 2 16 7 1 1 2 4 2 6 0 0-2-1-2-1-1-1-3-2-5-2-4-1-8 0-12-2-3-2-5-6-5-9z m84 62c0 0-10 0-20-11 0 0-4-4-12-5 0 0-19-4-26-18 0 0 0 0 0 0 0-1-1-3-1-4 0 0 10-2 21 4 7 6 15 10 19 11l3 1c6 4 8 13 13 18z m-1-15c0 0 1-1 9 3l20 10c-5 0-13 0-21-4l-3-1c0 0-4-4-5-8z m-26 7c-3 5-10 5-10 5-19-1-26-17-28-25 2 1 5 2 8 5 5 5 13 10 20 11 5 1 10 4 10 4z m-22 23c0 0-2-3-4-7-2-5-2-8-3-10 4 1 14 6 17 18 2 6 2 16-7 24 0-4 3-15-3-25z m22 69c0 2 0 5-4 5 0-1-1-1-1-2 0 0-6-15-14-25-1-1-2-2-3-3l6 1c12 8 16 23 16 23 0 0 0 1 0 1z m-6-19c0 0 0-1-1-1 0 0 0 0-1-1l10 3c3 3 5 6 6 11 0 0-2 3-4 2 0 0 0 0-1-1 0 0-4-9-9-13z m-11 25c0 0-4 2-7-4 0 0-1-8-8-16 0-1-1-2-1-3 0-2 3-1 5 0 4 2 7 5 9 9 0 0 5 10 2 14z m-19-73c0 0-5-4-6-5 0 0-2-3-3-6l5-1c0 0 8 1 13 9 1 1 7 14-4 22 0 0 3-8-1-16 0 0-3-2-4-3z m-11-33c-5-11-2-17-2-17l2 3 5 11c3 7 4 14 4 14-6-2-9-11-9-11z m-18-81c1-2 1-4 2-5 0-1 0-1 0-1 1-1 1-2 1-2 1-1 1-2 2-2 0 0 0-1 0-1 0 0-4 12 1 24 0 2 1 3 1 3 1 2 2 4 4 5 5 6 13 2 19-1 0 0 0 1 0 1 0 3 0 6-6 9-1 1-1 1-2 1-3 1-7 1-11 0-3-1-6-5-7-8-1-2-2-3-2-5-2-6-3-12-2-18z m-9 90c1-1 2-1 4 0 1 2 3 6 5 9 1 3 1 6 0 8 0 1 0 1-1 2-6-6-8-17-8-19z m-2-32c0 0 2-4 2 1 0 0 2 18 2 22 0 0 1 3-1 4 0 0-3 0-3-3 0 0-2-14 0-24z m-18-37c1-9 6-18 10-26 2-3 3-5 5-8 1-1 2-2 2-3 1 0 2-1 2-2 0 0 1 18 1 18-3 5-10 17-11 32 0 0 0 9 0 15 0 0 0 5-1 10 0 0 0 2 0 5 0 0 0 1 0 1 0 0-1 1-1 1-1 3-2 6-4 9 0 0 0 1 0-1 3-9 1-21 0-26 0-4-1-7-2-11-1-5-1-9-1-14z m-2-30c0 0-3 2-6 6-4 3-8 8-10 14 0-7 2-11 2-11 4-15 31-30 31-30 0 0 0 0 0 1 0 0 1 0 1 0 0 0 0 0 0 0 0 0 0 1 0 1 0 2 0 5-3 11l-2 3c-5 6-17 23-20 45 0 0 0 0-1 0-1-7-1-20-1-20 0-3 2-8 4-12 2-3 4-5 5-8z m-10-18c12-14 23-15 26-15 0 2-2 6-3 8-3 3-18 15-22 17 0 0-7 3-14 3 7-3 13-13 13-13z m35-35c0 2-2 5-6 9-4 0-20 4-31 17-2 1-2 2-2 2l1-4c0-2 1-4 2-6 8-12 20-15 24-16-2-2-9-3-9-3 12-6 21 1 21 1z m6 0c-1-1-2-2-3-3 0-1-1-1-2-2-2-1-4-2-4-4 2 0 3 0 5 0 2 3 8 4 4 9z m26 18c0 0-7 14-16 17 0-4 1-5 2-9-1 0-1 0-2-1l-6 6 1-7c0 0 0-1 0-1l-3-3c-2 0-4 1-6 0 0-1 3-6 4-7 2 3 3 3 3 3l0-5c0-2 0-4 0-7 3-9 7-17 15-21l0 0c0 2-1 3-3 5-1 1-1 3-2 5-2 4-3 9-4 13-1 2-1 3-1 4 1 5 6 9 8 11 2-3 4-7 4-7 2-6-1-13-1-13 0-2 2-4 2-4 0 0 0 0 0 0 0-1 1-1 2-1 1 3 7 14 3 22z m53 31c2-1 4-1 4 1-1 1-2 2-3 2 0-2-1-2-1-3z m-9-2c2 0 3 0 4 1 0 2-2 2-3 3 0-2 0-3-1-4z m-6-1c1-1 3 0 4 1-1 0-2 1-3 2-1-1-1-1-1-3z m-27 33c0 0 0 0 0 0 0 0 0 0 0 0 0 0-1 0-1 0-1 0-4-4-5-5-4-6-8-16-6-27 2-7 6-12 4-19 0-2-1-3-1-5 0-1 0-1 0-1l4-6c3-6-3-18-3-18-3-10-3-17-3-17 1 0 1 1 2 1 3 2 4 6 7 8-1-3-1-7 0-9 0 0 1 0 1 1 0 1 3 9 22 13 1 1 1 2 2 3 2 3 5 5 8 6 4 1 7 2 7 2 9 1 14 4 16 6 0 1 1 1 1 2-2 3-7 1-9 4-2 4 1 6 2 10 7 1 11 6 10 15-3 1-6 3-9 2-2 0-3-2-4-2-4-1-8 2-12 1-3-1-4-5-6-7-4 1-6 3-9 4-1 6-3 11-5 16-2 3-5 4-5 7 1 2 2 3 5 3 5-2 9-2 12-3l4 1 0 0c1 0 2 0 3 0l0 0 1 0 2-1c1 0 1 2 2 4 0 1 1 1 2 0 3 1 1 5 1 5 1 3 2 8-1 9 0 0-1 0-1-1 0 0 0 0 0 0-1 0-1 0-1 0-3-2-14-11-37-2z m38 25c-1 3-3 15-21 12 0 0-14-3-16-14 0 0 2 1 2 1 1 0 1 1 2 1 6 3 11 7 18 6 2 0 5 0 7-2 2-1 5-3 8-4z m34 13c-1 3-3 6-6 8-8 9-22 8-33 3-6-2-11-6-13-7 0 0 2-1 3-1 1 0 2 0 3 0 3 0 5 1 7 2 2 0 4 0 6 0 4 0 7 0 11-1 2 0 5-1 7-2 4-2 8-6 9-11 1 0 2-5 2-5 1 1 3 3 3 4 2 3 2 7 1 10z m19 37l-24-16c0 0 3-2 9 0 0 0 1 1 2 2 4 2 6 2 6 2 8 2 12 0 14-2 0 0 0 0 0 0 1 0 1 0 1 0 0-1 1-1 1-2 0 2 2 13-9 16z m-52 57c0 0-10-5-16-11 0 0 1-5 2-8 5 1 9 1 13 3 1 1 2 3 3 3 10 3 36 3 36 3 4 0 8-1 11-1 5-1 11-2 16-4 3 0 6-1 9-2 6-2 9-3 9-3-4-1-9 1-14 1 0-1 0-3 0-4-2 1-5 2-5 2 0-2-1-3-2-4-1 1-6 3-8 5-1 0-1 0-1 0 0 0 0 0 0 0l1-2c0-2-1-2-1-2-3 1-8 3-10 4 0 0 0 0 0 0 1-2 2-4 2-6 0 0 0 0-1 0-1 1-5 1-9 6 0 0-1 1-2-1 0 0-1-3-2-6 0 0-5 5-8 5l-1-4-8 4c-4 0-8-1-12-2-4-7-7-21-7-21-1-2-2-5-2-5 0 0 1 0 3 0 0 0 1 1 2 1 4 1 11 2 16 2 2 1 6 1 7 1 1-1 2-2 3-3 5 1 13 8 13 8 3 2 9 3 9 3 48-1 46 3 46 3 3 4 7 7 7 7 8 0 17-2 21-2 2-3 5-6 6-8-2-1-6-2-6-5 0-1 3-2 3-3 9-6 17 7 19 14 0 0 0 1 0 1-2 1-4-1-6-2-3 0-6 1-8 1 0 0 11 1 12 10 0 0-1 4-4 4 0 0-1 0-4-2 0 0-3-1-7-2-3 0-6 1-8 2 6 1 18 1 17 9-1 3-4 4-7 4-3 1-6-1-10-3-2-1-5-2-8-2-2 0-5 1-8 0-1 0-2-1-3-2-1 0-1 0-1 0-7 3-46 18-67 20 0 0-22-3-30-6z m50 135c0-1 0-1 1-1 0 0 0-1 1-1 3-1 9-3 15 0 0 0 7 4 6 10 0 0 0 1 0 1 0 0-1 3-6 4 0 0 0-1 0-2-1-3-5-11-17-11z m-62 20c5-3 16-5 16-5l24-1c4 0 5-2 5-2 5-4 12-6 12-6 9-4 13 3 13 3 5 7 1 11 1 11 0 0 2 4 0 8 0 0-1 0-1-1 0 0-3-3-4-3 0 0-1 0-1 0-2 1-6 3-10 1 0 0-3-2-6-4-2 1-4 3-5 3l-45 2c0 0-2-2 0-5 0 0 1 0 1 0l0 0c0 0 0-1 0-1z m-110 53c1-3 8-2 10 0 3 1 6 4 7 7 1 1 3 2 3 4 2 8-8 8-8 8-2-4-12-19-12-19z m-10 5c2-1 2-1 4-1 0 0 6-1 14 16 0 0 1 8-10 8 0 0-4-1-6-3-1-3-1-6-2-9-1-3-4-8 0-11z m-8 4c0 0 7 15 3 19 0 0-5 4-10 2 0 0-4-20 7-21z m32-107c3-2 6-3 7-6 0-9-9-28-9-28-1-2 1-5 2-6 0 0 0-1 1-1 4 12 8 24 17 30-1-5-3-9-5-13-3-8-4-17-4-25 0-2 1-4 1-7 7-8 19-10 29-15 5-3 11-5 16-8 2-1 5-2 6-4 5 5 7 15 5 25 0 0-4 5-10 6 0 0-3 0-13-13 1 6 3 11 5 16 3 2 5 5 8 7 3-3 7-6 11-8 3-2 6-4 9-6 21-11 42-18 42-18 3-1 5-2 8-3 1-1 2-2 4-3 1-1 2-3 3-4 0 0 0 0 0 0 1 0 1-1 2-1 0 0 1 9-14 17 0 0-3 1-7 3-5 2-9 4-14 6-9 4-19 9-28 14-6 4-12 9-16 15-2 2-3 4-4 6-4 8-8 16-12 24-3 6-6 13-9 19 0 0-28 25-32 31-2 0-4 0-8 2-1 0-1 0-2 0-4 2-9 5-14 11 0 0-13 17-3 33-4 1-7 2-9-1-3-4-4-11-3-19 0-4 3-9 5-13 1-2 3-5 5-7 0 0 1-1 1-1 10-11 24-15 24-15 4-3 6-6 8-7 0 0 0-1 0-1 0 0 0 0 0 0 1-1 1-2 1-2 0-1 0-10-2-16-2 0-5 1-7 1-1 1-1 1-1 1l-7 6c0 0-2 4-2 7l-2 3-18 13c0 0-1 3-3 4 0-1-1-1-1-2 0-2 2-4 2-7 6-6 13-11 18-18 8-5 16-11 19-22z m-93-146l-12 4c1-3 4-7 7-9 0 0 4-3 9-4l-1 7 6-2-1 0c-1 6-4 13-4 13 4-2 7-6 9-9 0-1 1-1 1-2l0 0 0 0c0 1 0 1 0 2 0 0-1 17-16 18l1-7c0 0-1 0-2 1l-5 1c0 0 0 0 0 0l0 0c1-1 3-4 5-6l0-1c0 0 0 0 1 0 1-2 1-4 2-6z m189-152c0 1 0 1 0 1 2 0 2 0 4 0-1-1-2-1-4-1 0 0 0 0 0 0z m13 10c-1 0-2 1-3 2 0 0 0 1 1 1 1-1 2-2 2-3z m-38 26c0 0-5 15 5 12 0 0-6-2-5-12z m30-30c-2 0-3 0-3 1 0 0 0 0 0 1 2 0 2-1 3-2z m9-11c-1-2-3-1-4 1 2 0 3 1 4-1z m-31 8c4 1 6 0 8-2-2 0-5 0-7-2-1 1-1 3-1 4z m-78 27c0 0 0 0 0 0 0 0 0 0 0 0z m75-29c0-1 0-1 0-1-1 0-4 1-8-2 0 0 0 0 0 1-1 5 7 5 8 2z m-1-3c3-1 4-3 6-5 1 1 0 2 0 3 3 3 8 2 9-2-2-1-3-1-3-3 1-1 2 1 4 1 0 0 4-2 4-2l-1 2c3 1 7 1 8 3 2 0 3-1 4-2 0-2-3-1-5-2 0 0 1-1 0-2-1 0-2-1-4-2 0-2 0-4-2-4 0 4-1 6-5 4-3-1-7-9-13-9 0 1-5 2-4 4 0 1 1 1 2 1 0 1 0 3 1 3 1 0 2 0 3-1 0 4-4 5-4 8-1 1-4 1-6 2 2 1 5 2 6 3z"/>
    </symbol>
  
    <symbol id="icon-history" viewBox="0 0 512 512">
      <path d="m475 256c0 30-5 58-17 85-12 27-27 51-47 70-19 20-43 35-70 47-27 12-55 17-85 17-33 0-64-6-93-20-30-14-55-34-76-59-1-2-2-4-2-6 0-3 1-4 3-6l39-39c2-2 4-3 7-3 3 0 5 2 7 3 13 19 31 33 51 42 20 10 41 15 64 15 20 0 39-4 57-11 18-8 33-18 46-32 14-13 24-28 32-46 7-18 11-37 11-57 0-20-4-39-11-57-8-18-18-33-32-46-13-14-28-24-46-32-18-7-37-11-57-11-19 0-37 3-54 10-17 7-32 16-45 29l39 39c6 6 7 13 4 20-4 8-9 11-17 11l-128 0c-5 0-9-1-13-5-4-4-5-8-5-13l0-128c0-8 3-13 11-17 7-3 14-2 20 4l37 37c20-19 44-34 70-45 26-10 53-15 81-15 30 0 58 5 85 17 27 12 51 27 70 47 20 19 35 43 47 70 12 27 17 55 17 85z m-182-82l0 128c0 2-1 5-3 6-2 2-4 3-7 3l-91 0c-3 0-5-1-7-3-1-1-2-4-2-6l0-19c0-2 1-4 2-6 2-2 4-3 7-3l64 0 0-100c0-3 1-5 3-7 1-2 3-2 6-2l18 0c3 0 5 0 7 2 2 2 3 4 3 7z"/>
    </symbol>
  
    <symbol id="icon-america-football" viewBox="0 0 512 512">
      <path d="m256 117c-139 0-203 139-203 139c0 0 64 139 203 139c139 0 203-139 203-139c0 0-64-139-203-139z m107 150l-32 0l0 10c0 6-5 11-11 11c-6 0-11-5-11-11l0-10l-42 0l0 10c0 6-5 11-11 11c-6 0-11-5-11-11l0-10l-42 0l0 10c0 6-5 11-11 11c-6 0-11-5-11-11l0-10l-32 0c-6 0-10-5-10-11c0-6 4-11 10-11l32 0l0-10c0-6 5-11 11-11c6 0 11 5 11 11l0 10l42 0l0-10c0-6 5-11 11-11c6 0 11 5 11 11l0 10l42 0l0-10c0-6 5-11 11-11c6 0 11 5 11 11l0 10l32 0c6 0 10 5 10 11c0 6-4 11-10 11z"/>
    </symbol>
  
    <symbol id="icon-beer-1" viewBox="0 0 512 512">
      <path d="m416 160l-32 0 0-16c15-3 32-24 32-48 0-35-29-64-64-64-16 0-31 6-42 16-13-10-29-16-46-16-16 0-30 5-42 14-10-9-23-14-37-14-17 0-32 8-43 20-12-12-28-20-46-20-35 0-64 29-64 64 0 16 6 31 16 42 0 1 0 1 0 1l0 54c0 27 22 48 48 48l0 223c0 9 7 16 16 16l256 0c9 0 16-7 16-16l0-80 32 0c35 0 64-29 64-64l0-96c0-35-29-64-64-64z m-88 144c-2 0-3-1-4-1-3-2-4-4-4-7l0-48c0-4 4-8 8-8 4 0 8 4 8 8l0 48c0 5-4 8-8 8z m7-76c-1 2-3 3-5 4-2 0-4 0-6-1-2-1-3-3-4-5 0-2 0-5 2-6 1-2 3-3 5-4 2 0 4 0 6 1 1 2 3 3 3 5 1 2 0 5-1 6z m17-68l0 32-128 0c0-4-3-8-8-8-4 0-8 4-8 8l-80 0 0-41c7-3 12-8 17-14 1-1 2-3 4-4 1 1 3 2 4 3 9 6 20 10 32 10 6 0 12-1 18-3 13 20 35 33 61 33 22 0 42-10 55-25 6-7 10-14 13-23l20 0z m31-55c-3-5-8-9-15-9l-55 0c0 0-9-1-9 8 0 9-3 17-7 24-8 10-20 16-33 16-15 0-28-8-35-20-1-3-2-5-3-8 0-1-1-2-1-2-2-6-7-10-14-10-4 0-7 1-10 4 0 0 0 0 0 0-3 2-5 4-9 5-2 0-5 1-7 1-8 0-15-4-19-9-10-11-24-7-30-5-6 1-12 11-12 11-1 2-2 4-4 6-6 7-14 11-24 11l0 81c-9 0-16-7-16-16l0-69c-8-5-13-12-15-21-1-2-1-5-1-7 0-17 14-32 32-32 12 0 23 8 30 16 7 7 27 7 34 0 7-8 14-16 25-16 6 0 11 2 16 6 2 2 3 3 5 6 1 1 2 4 3 5 2 4 6 6 11 6 4 0 8-2 11-5 0-1 1-2 2-2 2-3 4-5 6-7 7-6 16-9 25-9 11 0 20 4 27 11 2 2 7 5 14 5 4 1 6 0 8 0 10-1 14-5 16-6 6-6 14-10 23-10 17 0 32 15 32 32 0 3 0 6-1 9z m65 215c0 18-14 32-32 32l-32 0 0-160 32 0c18 0 32 14 32 32z m-272-152c0 5-3 8-8 8-4 0-8-3-8-8 0-4 4-8 8-8 5 0 8 4 8 8z m160 0c0 5-3 8-8 8-4 0-8-3-8-8 0-4 4-8 8-8 5 0 8 4 8 8z"/>
    </symbol>
  
    <symbol id="icon-clipboard" viewBox="0 0 512 512">
      <path d="m161 161l192 0c-2-20-10-36-28-41 0 0-1 0-1 0-12-4-21-8-21-21l0-21c0-25-21-46-47-46-25 0-45 21-45 46l0 21c0 13-9 17-21 20-1 1-1 1-1 1-19 5-26 21-28 41z m96-97c8 0 14 7 14 14 0 8-6 14-14 14-8 0-14-6-14-14 0-7 6-14 14-14z m149 0l-74 0 0 13c0 11 9 20 19 20l37 0c7 0 12 5 13 12l0 327c-1 6-6 11-12 12l-264 0c-6-1-11-6-12-12l0-327c1-7 6-12 13-12l37 0c10 0 19-9 19-20l0-13-74 0c-15 0-27 12-27 28l0 360c0 15 12 29 27 29l298 0c15 0 27-14 27-29l0-360c0-16-12-28-27-28z m-261 129l112 0 0 32-112 0z m0 192l160 0 0 32-160 0z m0-64l129 0 0 32-129 0z m0-64l208 0 0 32-208 0z"/>
    </symbol>
  
    <symbol id="icon-ios-americanfootball" viewBox="0 0 512 512">
      <path d="m379 133c-73-72-190-85-262-85-39 0-65 4-65 4 0 0-30 215 81 327 73 72 190 85 262 85 39 0 65-4 65-4 0 0 30-215-81-327z m-311 62l127-127c6 1 12 2 18 3l-142 142c-1-6-2-12-3-18z m199 140l29-28-23-23-28 29-12-12 29-28-23-23-28 29-12-12 29-28-23-23-28 29-12-12 29-28-22-23-29 29-11-12 67-67 12 11-29 29 23 22 28-29 12 12-29 28 23 23 28-29 12 12-29 28 23 23 28-29 12 12-29 28 23 23 28-29 12 12-29 28 22 23 29-29 11 12-67 67-12-11 29-29-23-22-28 29z m50 109c-6-1-12-2-18-3l142-142c1 6 2 12 3 18z"/>
    </symbol>
  
    <symbol id="icon-align-left" viewBox="0 0 512 512">
      <path d="m512 384l0 37c0 5-2 9-5 12-4 4-8 6-13 6l-476 0c-5 0-9-2-13-6-3-3-5-7-5-12l0-37c0-5 2-9 5-13 4-3 8-5 13-5l476 0c5 0 9 2 13 5 3 4 5 8 5 13z m-110-110l0 37c0 5-2 9-5 13-4 3-8 5-13 5l-366 0c-5 0-9-2-13-5-3-4-5-8-5-13l0-37c0-5 2-9 5-13 4-3 8-5 13-5l366 0c5 0 9 2 13 5 3 4 5 8 5 13z m73-109l0 36c0 5-1 9-5 13-4 4-8 5-13 5l-439 0c-5 0-9-1-13-5-3-4-5-8-5-13l0-36c0-5 2-10 5-13 4-4 8-6 13-6l439 0c5 0 9 2 13 6 4 3 5 8 5 13z m-109-110l0 36c0 5-2 10-6 13-3 4-8 6-13 6l-329 0c-5 0-9-2-13-6-3-3-5-8-5-13l0-36c0-5 2-9 5-13 4-4 8-5 13-5l329 0c5 0 10 1 13 5 4 4 6 8 6 13z"/>
    </symbol>
  
    <symbol id="icon-dollar" viewBox="0 0 512 512">
      <path d="m389 339c0 29-9 54-28 75c-19 21-44 34-74 39l0 50c0 3-1 5-3 6c-1 2-4 3-6 3l-39 0c-2 0-4-1-6-3c-2-2-3-4-3-6l0-50c-13-2-25-5-36-9c-12-4-22-8-29-13c-8-4-15-9-22-13c-6-5-10-9-13-11c-2-2-4-4-5-5c-3-4-3-8 0-12l29-39c1-1 4-3 7-3c2 0 5 0 6 3l1 0c22 19 45 31 69 36c7 1 15 2 22 2c15 0 29-4 40-12c12-8 18-20 18-35c0-5-2-10-4-15c-3-5-6-9-10-12c-4-3-9-7-17-11c-7-4-14-7-19-9c-5-2-12-5-22-9c-8-3-14-6-18-7c-4-2-10-5-18-8c-7-3-13-6-17-9c-5-2-10-6-17-10c-6-4-11-8-15-12c-4-4-8-9-12-14c-5-6-8-11-10-17c-3-5-5-12-6-19c-2-7-3-14-3-22c0-26 9-49 28-69c19-20 43-33 73-38l0-52c0-2 1-4 3-6c2-2 4-3 6-3l39 0c2 0 5 1 6 3c2 1 3 3 3 6l0 50c11 2 21 4 31 7c11 3 19 6 25 10c7 3 13 6 18 10c6 4 10 7 12 9c1 1 3 2 4 4c3 3 4 7 1 10l-23 42c-1 3-4 5-6 5c-3 0-6 0-8-2c-1-1-2-2-4-4c-2-1-6-4-11-7c-6-4-11-7-17-9c-6-3-13-6-21-8c-9-2-17-3-25-3c-18 0-33 4-44 12c-12 8-17 19-17 32c0 5 1 9 2 14c2 4 5 8 9 11c4 4 7 7 11 10c3 2 9 5 16 9c7 3 13 6 17 7c5 2 11 5 20 8c10 4 18 7 23 9c6 2 13 6 22 10c9 5 16 9 22 12c5 4 11 9 17 15c7 6 12 12 15 18c4 6 7 13 9 22c3 8 4 17 4 27z"/>
    </symbol>
  
    <symbol id="icon-gavel" viewBox="0 0 512 512">
      <path d="m506 439c0 10-4 19-11 26l-30 30c-8 7-16 11-26 11-10 0-19-4-26-11l-104-104c-7-6-10-15-10-25 0-10 4-20 12-28l-73-73-36 36c-3 3-6 4-10 4-4 0-7-1-10-4 1 1 2 2 4 4 2 1 3 3 3 3 1 1 2 2 3 4 2 1 3 2 3 3 1 1 1 3 2 4 1 2 1 3 1 5 1 2 1 3 1 5 0 7-3 14-8 20-1 0-2 2-5 5-2 3-4 5-5 6-1 1-3 2-6 4-2 2-4 4-6 5-2 1-4 1-6 2-3 1-5 2-8 2-7 0-14-3-19-8l-117-117c-5-5-8-12-8-19 0-3 1-5 2-8 1-2 1-4 2-6 1-2 3-4 5-6 2-3 3-5 4-6 1-1 3-3 6-5 3-3 5-4 5-5 6-5 13-8 20-8 2 0 3 0 5 1 2 0 3 0 5 1 1 1 3 1 4 2 1 0 2 1 3 3 2 1 3 2 4 3 0 0 2 1 3 3 2 2 3 3 4 4-3-3-4-6-4-10 0-4 1-7 4-10l99-99c3-3 6-4 10-4 4 0 7 1 10 4-1-1-2-2-4-4-2-1-3-3-3-3-1-1-2-2-3-4-2-1-3-2-3-3-1-1-1-3-2-4-1-2-1-3-1-5-1-2-1-3-1-5 0-7 3-14 8-20 1 0 2-2 5-5 2-3 4-5 5-6 1-1 3-2 6-4 2-2 4-4 6-5 2-1 4-1 6-2 3-1 5-2 8-2 7 0 14 3 19 8l117 117c5 5 8 12 8 19 0 3-1 5-2 8-1 2-1 4-2 6-1 2-3 4-5 6-2 3-3 5-4 6-1 1-3 3-6 5-3 3-5 4-5 5-6 5-13 8-20 8-2 0-3 0-5-1-2 0-3 0-5-1-1-1-3-1-4-2-1 0-2-1-3-3-2-1-3-2-4-3 0 0-2-1-3-3-2-2-3-3-4-4 3 3 4 6 4 10 0 4-1 7-4 10l-36 36 73 73c8-8 18-12 28-12 10 0 18 3 26 10l103 104c7 7 11 16 11 26z"/>
    </symbol>
  
    <symbol id="icon-date" viewBox="0 0 512 512">
      <path d="m134 264l0 168l61 0l0-225l-45 0l-66 18l12 48z m118 168l69 0l99-177l0-47l-173 0l0 52l104 0z m164-368l0-48c0-9-7-16-16-16l-64 0c-9 0-16 7-16 16l0 48l-160 0l0-48c0-9-7-16-16-16l-64 0c-9 0-16 7-16 16l0 48l-64 0l0 448l480 0l0-448z m-64-32l32 0l0 64l-32 0z m-256 0l32 0l0 64l-32 0z m352 448l-416 0l0-320l416 0z"/>
    </symbol>
  
    <symbol id="icon-calendar-1" viewBox="0 0 512 512">
      <path d="m413 202l-314 0c-3 0-6 3-6 7l0 225c0 3 3 6 6 6l314 0c3 0 6-3 6-6l0-225c0-4-3-7-6-7z m-211 191c-11 0-23-3-32-6c-2-1-3-2-2-4l3-22c0-1 0-1 1-2c1 0 2-1 3 0c10 4 19 5 29 5c12 0 20-5 20-13c0-9-5-14-30-16c-2 0-3-1-3-3l0-22c0-2 1-3 3-3c21-2 24-8 24-13c0-3 0-9-15-9c-7 0-16 2-24 6c-1 1-2 1-3 0c-1 0-2-1-2-2l-3-22c0-1 1-3 2-3c10-5 22-7 37-7c26 0 44 12 44 30c0 14-7 24-21 31c12 4 25 13 25 31c0 27-22 44-56 44z m136-6c0 2-1 4-3 4l-27 0c-1 0-3-2-3-4l0-88l-17 7c-1 0-2 0-3 0c-1-1-2-2-2-3l-3-22c0-1 1-2 2-3l38-19c1 0 1 0 2 0l13 0c2 0 3 1 3 3l0 125z m75-286l-34 0l0 16c0 16-9 34-36 34c-26 0-36-18-36-34l0-16l-102 0l0 16c0 16-9 34-36 34c-26 0-36-18-36-34l0-16l-34 0c-3 0-6 3-6 6l0 66c0 4 3 7 6 7l314 0c3 0 6-3 6-7l0-66c0-3-3-6-6-6z m-244 29c11 0 15-4 15-13l0-32c0-9-4-13-15-13c-11 0-15 4-15 13l0 32c0 9 4 13 15 13z m174 0c11 0 15-4 15-13l0-32c0-9-4-13-15-13c-11 0-15 4-15 13l0 32c0 9 4 13 15 13z"/>
    </symbol>
  
    <symbol id="icon-eye-slash" viewBox="0 0 512 512">
      <path d="m159 381l22-40c-17-12-30-27-39-45-9-19-14-38-14-58 0-23 6-45 17-65-43 23-79 56-108 101 31 49 72 85 122 107z m111-216c0-4-2-7-4-10-3-3-6-4-10-4-24 0-44 8-61 25-17 17-26 38-26 62 0 4 1 7 4 9 3 3 6 4 10 4 4 0 7-1 10-4 2-2 4-5 4-9 0-17 5-31 17-42 12-12 26-18 42-18 4 0 7-1 10-4 2-2 4-6 4-9z m103-55c0 1 0 2 0 3-20 35-50 89-90 161-40 72-70 126-90 162l-14 26c-2 3-5 4-8 4-2 0-15-6-38-20-3-2-5-4-5-8 0-2 4-10 13-25-28-12-53-28-76-49-23-21-43-44-59-70-4-6-6-12-6-20 0-7 2-14 6-19 29-45 65-81 108-106 44-26 91-39 142-39 17 0 34 1 51 5l16-28c2-3 4-5 8-5 1 0 3 1 5 2 2 1 5 3 9 4 3 2 6 4 9 6 3 1 6 3 9 5 3 2 5 3 6 3 3 2 4 5 4 8z m11 128c0 26-8 50-23 72-15 22-35 38-59 47l80-143c1 8 2 16 2 24z m128 36c0 7-2 14-6 20-7 12-18 26-31 41-28 33-62 59-99 77-38 18-78 27-120 27l21-38c41-3 78-16 112-39 35-23 63-52 86-88-21-34-48-62-80-84l18-32c18 12 35 27 52 44 17 17 30 34 41 53 4 6 6 13 6 19z"/>
    </symbol>
  
    <symbol id="icon-eye" viewBox="0 0 512 512">
      <path d="m475 274c-29-45-65-78-108-101 11 20 17 42 17 65 0 35-13 65-38 90-25 25-55 38-90 38-35 0-65-13-90-38-25-25-38-55-38-90 0-23 6-45 17-65-43 23-79 56-108 101 25 39 57 70 95 94 38 23 79 34 124 34 45 0 86-11 124-34 38-24 70-55 95-94z m-205-109c0-4-2-7-4-10-3-3-6-4-10-4-24 0-44 8-61 25-17 17-26 38-26 62 0 4 1 7 4 9 3 3 6 4 10 4 4 0 7-1 10-4 2-2 4-5 4-9 0-17 5-31 17-42 12-12 26-18 42-18 4 0 7-1 10-4 2-2 4-6 4-9z m242 109c0 7-2 13-6 20-26 44-62 79-107 105-45 27-93 40-143 40-50 0-98-13-143-40-45-26-81-61-107-105-4-7-6-13-6-20 0-6 2-13 6-19 26-44 62-79 107-106 45-26 93-39 143-39 50 0 98 13 143 39 45 27 81 62 107 106 4 6 6 13 6 19z"/>
    </symbol>

    <symbol id="icon-playoff" viewBox="0 0 40 40">
      <path fill="currentColor" d="M1.18,27.69h9.41c.65,0,1.18-.69,1.18-1.54v-12.31c0-.85-.53-1.54-1.18-1.54H1.18c-.65,0-1.18.69-1.18,1.54v12.31c0,.85.53,1.54,1.18,1.54ZM2.35,15.38h7.06v9.23H2.35v-9.23Z"/>
      <path fill="currentColor" d="M20,33.85c0,.85.53,1.54,1.18,1.54h7.06v-3.08h-5.88V7.69h5.88v-3.08h-7.06c-.65,0-1.18.69-1.18,1.54v12.31h-5.88v3.08h5.88v12.31Z"/>
      <path fill="currentColor" d="M31.76,12.31h7.06c.65,0,1.18-.69,1.18-1.54V1.54c0-.85-.53-1.54-1.18-1.54h-7.06c-.65,0-1.18.69-1.18,1.54v9.23c0,.85.53,1.54,1.18,1.54ZM32.94,3.08h4.71v6.15h-4.71V3.08Z"/>
      <path fill="currentColor" d="M31.76,40h7.06c.65,0,1.18-.69,1.18-1.54v-9.23c0-.85-.53-1.54-1.18-1.54h-7.06c-.65,0-1.18.69-1.18,1.54v9.23c0,.85.53,1.54,1.18,1.54ZM32.94,30.77h4.71v6.15h-4.71v-6.15Z"/>
    </symbol>

    <symbol id="icon-podium-persona" viewBox="0 0 369.28 611.28">
      <path fill="currentColor" d="M174.6,123.78c57.38,7.28,82.58-47.79,67.68-93.22C236.3,12.86,220.01.69,201.34,0h-34.28c-39.98,2.41-49.43,46.64-41.81,78.16,5.71,23.78,25.18,41.79,49.34,45.63Z"/>
      <path fill="currentColor" d="M76.03,170.28h217.33c-4.73-13.85-31.1-27.38-41.92-36.02-20.1-14.53-36.58,8.12-56.87,10.37-6.72.53-13.48.49-20.19-.11-20.24-2.18-36.32-24.84-56.54-10.26-10.78,8.61-37.07,22.22-41.81,36.02Z"/>
      <path fill="currentColor" d="M364.42,200.19c-4.45-5.18-10.96-8.14-17.79-8.08H22.65c-6.83-.06-13.34,2.9-17.79,8.08-3.89,4.63-5.57,10.73-4.58,16.7l21.72,125.64c2.09,10.65,11.53,18.25,22.38,18.01h19.65v-79.79c.05-18.06,14.68-32.69,32.75-32.75h175.74c18.06.05,32.69,14.68,32.75,32.75v79.79h19.65c10.85.24,20.29-7.36,22.38-18.01l21.72-125.64c.98-5.97-.69-12.07-4.58-16.7Z"/>
      <path fill="currentColor" d="M304.71,589.45h-21.29v-308.7c-.02-6.02-4.89-10.9-10.92-10.92H96.77c-6.02.02-10.9,4.89-10.92,10.92v308.7h-21.29c-6.03,0-10.92,4.89-10.92,10.92,0,6.03,4.89,10.92,10.92,10.92h0s240.14,0,240.14,0c6.03-.11,10.83-5.08,10.72-11.11-.11-5.88-4.84-10.62-10.72-10.72Z"/>
      <path fill="currentColor" d="M30.95,170.28v-1.2l22.7-20.19c14.08,5.66,30.08-1.17,35.74-15.25,1.07-2.66,1.72-5.47,1.92-8.33-2.09-39.02-64.77-30.08-53.27,8.3l-25.32,22.38c-4.19,3.26-3.66,9.67-3.6,14.41,1.09-.4,20.18.06,21.83-.11Z"/>
    </symbol>

    <symbol id="icon-podium-empty" viewBox="0 0 369.28 511.2">
      <path fill="currentColor" d="M364.42,100.12c-4.45-5.18-10.96-8.14-17.79-8.08H22.65c-6.83-.06-13.34,2.9-17.79,8.08-3.89,4.63-5.57,10.73-4.58,16.7l21.72,125.64c2.09,10.65,11.53,18.25,22.38,18.01h19.65v-79.79c.05-18.06,14.68-32.69,32.75-32.75h175.74c18.06.05,32.69,14.68,32.75,32.75v79.79h19.65c10.85.24,20.29-7.36,22.38-18.01l21.72-125.64c.98-5.97-.69-12.07-4.58-16.7Z"/>
      <path fill="currentColor" d="M304.71,489.37h-21.29V180.67c-.02-6.02-4.89-10.9-10.92-10.92H96.77c-6.02.02-10.9,4.89-10.92,10.92v308.7h-21.29c-6.03,0-10.92,4.89-10.92,10.92,0,6.03,4.89,10.92,10.92,10.92h0s240.14,0,240.14,0c6.03-.11,10.83-5.08,10.72-11.11-.11-5.88-4.84-10.62-10.72-10.72Z"/>
      <path fill="currentColor" d="M30.95,70.21v-1.2l22.7-20.19c14.08,5.66,30.08-1.17,35.74-15.25,1.07-2.66,1.72-5.47,1.92-8.33-2.09-39.02-64.77-30.08-53.27,8.3l-25.32,22.38c-4.19,3.26-3.66,9.67-3.6,14.41,1.09-.4,20.18.06,21.83-.11Z"/>
    </symbol>

    <symbol id="icon-toilet" viewBox="0 0 388.72 459.9">
      <path fill="currentColor" d="M254.9.48c11.56-1.6,23.8.82,33.5,7.47,11.15,7.72,18.91,20.45,20.01,34.03.93,9.83-.68,20.13-6,28.59-6.87,12.01-19.33,20.52-32.93,22.88-9.02,1.32-18.45.12-26.73-3.73-14.05-6.35-24.4-20.16-26.64-35.4-1.37-10.39.38-21.27,5.62-30.41,6.53-12.46,19.26-21.36,33.16-23.43Z"/>
      <path fill="currentColor" d="M194.32,108.23c7.08-8.44,17.13-15.24,28.46-15.49,16.23-.88,32.25,12.67,32.48,29.25.07,25.24.16,50.48-.08,75.72.39.59,1.15,1.77,1.54,2.36,21.39-.12,42.8,0,64.2-.08,3.24.02,6.56-.17,9.75.67,7.07,1.77,12.94,7.71,14.61,14.81,1.87,8.96-3.04,18.63-11.16,22.71-4,2.3-8.73,2.25-13.19,2.18-27.47-.18-54.93-.07-82.41-.12-13.13.86-26.19-10.19-26-23.67-.06-23.04-.82-46.06-1.13-69.1-.13-3.11.62-6.99-2.36-9.08-2.33-2.36-6.64-.06-6.62,3.04-.34,21.43.22,42.86.35,64.29-.04,8.93-.18,18.47,4.45,26.45,5.65,10.47,17.03,17.59,28.98,17.65,32.71-.04,65.43.08,98.14-.13,12.63.74,23.24,11.77,25.38,23.94,1.25,5.6.08,11.34-1.6,16.71-11.44,40.87-23.04,81.7-34.51,122.56-1.52,2.71-.19,7.27,3.45,6.9,13.3-.04,26.6.01,39.91-.1,6-.39,12.21,1.77,16.28,6.29,8.27,8.36,7.11,24.11-3.08,30.42-7.08,4.93-16.02,3.07-24.07,3.49-22.5-.11-44.99.12-67.48-.12-10.23-.3-19.01-8.8-20.57-18.75-1.42-5.72.33-11.49,1.78-16.99,11.01-40.4,21.64-80.93,32.74-121.29,1.02-2.88-2.63-3.24-4.53-3.11-38.82-.07-77.64-.06-116.47-.08-18.08.58-33.61-13.15-40.94-28.75-5.68-12.42-5.83-26.7-2.9-39.85,4.64-21.25,12.02-41.82,20.77-61.71,9.87-21.42,20.51-42.87,35.82-61Z"/>
      <path fill="currentColor" d="M46.34,110.77c7.64-.98,16.96-.92,22.27,5.64,4.5,4.82,3.52,11.78,3.54,17.82-.21,3.24.36,7.16-2.42,9.51-2.42,2.61-6.16,2.04-9.33,2.05-6.85-.18-13.7.08-20.53-.08-3.89-.05-6.65-4.12-6.36-7.79.02-5.55-.25-11.16.84-16.64,1.37-5.51,6.51-9.59,12.01-10.5Z"/>
      <path fill="currentColor" d="M1.18,161.05c2.3-4.16,7.24-6.25,11.88-5.9,27.5-.02,55.02-.38,82.5.07,7.73.34,12.46,8.87,10,15.91-35.04.17-70.11.24-105.15-.07-.39-3.32-.98-6.96.76-10.01Z"/>
      <path fill="currentColor" d="M2.94,179.78c32.03-.62,64.07.05,96.1-.25,2.99-.3,5.64,2.61,4.79,5.59-4.07,36.54-7.9,73.11-11.64,109.68-.46,2.39-2.56,4.86-5.15,4.78-23.02.01-46.06.02-69.08-.1-3.5.33-5.94-3.21-5.82-6.42-3.42-36.02-7.04-72.04-10.99-108.02-.55-2.04.79-3.64 1.78-5.25Z"/>
      <path fill="currentColor" d="M36.07,307.9c53.77-.36,107.53-.04,161.3-.13,22.77.06,45.55-.11,68.32.17.85,2.88,2.35,5.59,2.75,8.61-77.68-.27-155.36.08-233.04-.13.23-2.84.4-5.67.67-8.51Z"/>
      <path fill="currentColor" d="M41.02,325.53c76.19.01,152.38-.13,228.57.02-2.62,12.13-9.33,22.92-16.68,32.75-11.82,15.32-27.43,27.53-44.81,35.97-8.34,3.98-17.04,7.81-26.37,8.44-3.77.18-5.9,4.5-5.45,7.88,1.39,9.93,6.56,18.71,10.07,27.96,1.85,5.02,4.65,10.16,3.95,15.67-1.2,2.99-4.02,5.79-7.45,5.61-36,.06-72.01.11-108.01,0-3.45.17-7.43-2.07-7.71-5.78-.56-8.93-1.33-18.46,2.79-26.74,3.18-7.67,10.58-12.45,14.02-19.95,2.74-5.77,4.25-12.44,2.76-18.75-1.7-8.33-6.5-15.53-11.66-22.08-11.03-13.93-23.04-27.04-34.02-41Z"/>
    </symbol>
    <symbol id="icon-money-bag" viewBox="0 0 312.17 428.9">
      <path fill="currentColor" d="M90.15,138.17c-21.17,18.28-41.65,42.93-61.41,73.95C11.04,239.89,1.52,268.45.18,297.82c-1.02,22.42,2.4,41.85,10.27,58.23,9.03,18.84,22.06,33.51,39.13,43.98,29.77,18.32,66.17,28.69,102.77,28.85,14.9.07,25.47-.26,31.68-.98,65.09-7.62,122.11-42.01,127.69-112.98,1.87-23.67-1.9-46.35-11.29-67.98-17.99-41.52-43.75-74.51-77.47-105.86-1.54-1.48-2.43-3.51-2.43-5.65v-20.19c0-.98.26-1.97.79-2.82,10.27-17.07,21.6-36.89,33.97-59.44,3.25-5.94,4.23-10.9,2.92-14.9-7.35-22.19-38.08-8.6-49.53-6.33-6.17,1.21-10.57.46-13.2-2.26-8.99-9.39-10.5-27.21-28.62-29.34-14.71-1.71-27.9,12.37-39.09,24.36-1.51,1.64-4.14,1.58-5.58-.1-4.76-5.51-10.18-10.77-16.21-15.79C90.84-3.99,63.72.4,60.34,22.82c-.89,5.81-.98,10.18-.3,13.1,5.65,24.26,19.96,54.32,31.94,78.91.92,1.87.79,8.7-.36,20.45-.1,1.12-.62,2.17-1.48,2.89ZM76.46,39.2c-1.58-4.63-1.71-10.41-.39-17.4.26-1.31,1.02-2.49,2.13-3.22,11.55-7.65,23.04,5.78,30.72,14.44,6.56,7.42,11.69,9.22,20.88,7.98,1.94-.26,6.11-3.55,12.54-9.81,8.3-8.14,11.85-11.95,19.89-15.23,3.61-1.48,7.71.03,9.55,3.45,8.04,15,13.82,31.05,34.14,28.2,7.78-1.08,18.87-3.32,33.25-6.63,2.53-.59,4.56,2.13,3.25,4.4l-34.17,59.18c-1.05,1.84-3.02,2.95-5.12,2.95h-93.75c-2.36,0-4.5-1.35-5.55-3.45-11.39-22.98-20.52-44.61-27.38-64.86ZM205.1,123.49v8.47c0,1.02-.85,1.87-1.87,1.87h-93.22c-1.02,0-1.87-.85-1.87-1.87v-8.47c0-1.02.85-1.87,1.87-1.87h93.22c1.02,0,1.87.85,1.87,1.87ZM98.42,151.66c1.41-1.28,3.25-1.97,5.15-1.97h102.02c3.84,0,7.55,1.58,10.18,4.37,13.29,13.98,24.03,25.77,32.14,35.35,20.25,23.93,34.83,49.56,43.75,76.91,3.05,9.32,4.83,21.04,5.32,35.15,1.02,29.77-8.11,54.42-27.38,73.89-35.68,36.07-91.22,41.62-139.01,36.89-39.29-3.91-84.69-22.71-104.81-58.89-16.18-29.05-12.93-72.11-.36-102.87,14.7-36.01,42.02-71.13,73-98.83Z"/>
      <path fill="currentColor" d="M174.8,324.58c-21.04,8.96-37.71,4.89-50.02-12.18-.76-1.02-1.94-1.64-3.22-1.64h-7.16c-1.58,0-2.82,1.38-2.69,2.95,1.67,18.05,21.04,27.28,37.09,29.31,1.18.16,2.13,1.05,2.36,2.2.66,3.18.59,6.57-.2,10.21-.49,2.3,1.25,4.46,3.58,4.46h6.63c2,0,3.61-1.58,3.64-3.58l.2-11.39c.03-1.15.82-2.17,1.94-2.49,2.72-.89,7.19-1.77,9.52-2.69,18.51-7.32,26.55-21.04,24.16-41.16-1.51-12.64-9.72-21.2-20.58-25.54-6.4-2.53-18.68-6.6-36.8-12.21-12.7-3.91-17.73-12.24-15.07-25.01,1.31-6.33,4.07-10.47,8.3-12.41,20.88-9.58,37.03-5.25,48.42,12.97.79,1.28,2.2,2.07,3.68,2.07h6.5c3.74,0,6.2-3.91,4.56-7.29-7.06-14.48-18.55-23.04-34.43-25.7-1.58-.26-2.76-1.67-2.76-3.31v-12.9c0-1.61-1.31-2.92-2.92-2.92h-8.47c-1.61,0-2.92,1.31-2.92,2.92v12.8c0,1.64-1.25,2.99-2.89,3.12-12.18,1.08-22.12,7.62-29.77,19.6-.49.82-.92,1.67-1.21,2.56-5.81,18.35-1.64,32.56,12.51,42.7,16.94,12.11,52.49,9.16,60.13,30.46,3.05,8.44-5.19,21.17-12.11,24.09Z"/>
    </symbol>
  
</svg>
